<?xml version="1.0" encoding="utf-8"?>
<!-- Generator: Adobe Illustrator 14.0.0, SVG Export Plug-In . SVG Version: 6.00 Build 43363)  -->
<!DOCTYPE svg PUBLIC "-//W3C//DTD SVG 1.1//EN" "http://www.w3.org/Graphics/SVG/1.1/DTD/svg11.dtd">
<svg version="1.1" id="Layer_1" xmlns="http://www.w3.org/2000/svg" xmlns:xlink="http://www.w3.org/1999/xlink" x="0px" y="0px"
	 width="600px" height="600px" viewBox="0 0 600 600" enable-background="new 0 0 600 600" xml:space="preserve">
<g>
	<polygon points="403.698,419.32 320.627,346.996 386.693,599.367 289.521,355.855 257.659,434.324 257.651,350.34 113.621,522.348 
		231.331,331.545 155.632,360.305 215.772,303.189 172.636,293.287 214.056,270.893 1.591,143.247 226.525,241.049 172.637,167.252 
		250.707,219.571 226.667,76.126 281.813,210.711 329.68,-2.793 313.682,216.227 390.695,141.246 340.003,235.022 525.73,155.25 
		355.562,263.377 447.709,273.281 357.277,295.674 588.748,419.32 344.809,325.518 	"/>
	<polygon fill="#FFC50B" points="414.701,423.32 331.631,350.998 397.697,603.369 300.524,359.857 268.663,438.324 268.655,354.342 
		124.624,526.348 242.334,335.545 166.636,364.305 226.775,307.191 183.64,297.287 225.059,274.895 12.594,147.247 237.528,245.049 
		183.64,171.253 261.709,223.572 237.67,80.127 292.816,214.712 340.682,1.208 324.686,220.227 401.697,145.247 351.006,239.023 
		536.734,159.25 366.564,267.377 458.713,277.281 368.281,299.676 599.75,423.32 355.812,329.52 	"/>
	<g>
		<g>
			<path d="M215.959,324.838l-52.574-63.43l9.974-8.266c5.785-4.795,10.325-7.928,13.621-9.398c4.634-2.143,9.205-2.779,13.712-1.91
				c4.509,0.871,8.3,3.16,11.374,6.867c2.002,2.414,3.308,5.031,3.919,7.846c0.612,2.814,0.482,6.037-0.387,9.668
				c5.353-1.381,10.045-1.451,14.08-0.213s7.588,3.713,10.662,7.42c2.955,3.564,4.726,7.578,5.314,12.035
				c0.588,4.459,0.032,8.619-1.671,12.48c-1.704,3.861-5.117,7.914-10.238,12.158L215.959,324.838z M185.001,262.914l11.08,13.367
				l2.641-2.188c2.942-2.439,4.617-4.871,5.02-7.291c0.405-2.418-0.275-4.691-2.04-6.82c-1.644-1.982-3.626-2.994-5.947-3.033
				c-2.321-0.041-4.867,1.086-7.636,3.383L185.001,262.914z M205.017,287.061l13.474,16.256l3.026-2.508
				c5.015-4.156,7.872-7.59,8.566-10.301c0.696-2.709,0.043-5.273-1.958-7.688c-2.264-2.73-5.073-4.039-8.431-3.924
				c-3.357,0.117-7.413,2.145-12.169,6.086L205.017,287.061z"/>
		</g>
		<g>
			<path d="M267.359,221.272l15.726,2.371l19.054,86.187l-16.116-2.432l-3.845-17.74l-33.241-5.01l-9.156,15.781l-16.117-2.428
				L267.359,221.272z M272.063,244.07l-15.145,26.318l21.794,3.285L272.063,244.07z"/>
		</g>
		<g>
			<path d="M302.121,255.861h15.278l19.099,57.461l19.271-57.461h15.269l13.82,82.385h-15.164l-8.835-52.029l-17.501,52.029h-13.82
				l-17.347-52.029l-9.045,52.029h-15.29L302.121,255.861z"/>
		</g>
		<g>
			<path d="M417.975,293.119c4.524-0.908,8.716-0.092,12.575,2.447c3.856,2.543,6.241,6.074,7.147,10.6
				c0.897,4.463,0.057,8.625-2.514,12.488c-2.574,3.863-6.123,6.252-10.647,7.158c-4.526,0.91-8.7,0.09-12.526-2.457
				s-6.193-6.082-7.102-10.609c-0.909-4.523-0.09-8.699,2.458-12.527C409.913,296.395,413.448,294.027,417.975,293.119z
				 M381.871,181.62l26.387-5.296l20.627,102.77l-26.387,5.295L381.871,181.62z"/>
		</g>
		<g>
			<path fill="#F15A22" d="M211.573,323.822l-52.574-63.428l9.973-8.268c5.785-4.795,10.327-7.928,13.622-9.398
				c4.634-2.143,9.204-2.779,13.713-1.91c4.508,0.871,8.299,3.16,11.373,6.867c2.001,2.416,3.308,5.031,3.919,7.846
				c0.612,2.816,0.483,6.039-0.388,9.668c5.353-1.381,10.046-1.453,14.082-0.213c4.033,1.238,7.587,3.713,10.661,7.42
				c2.955,3.566,4.727,7.576,5.314,12.037c0.588,4.457,0.032,8.617-1.671,12.479c-1.703,3.859-5.117,7.914-10.238,12.158
				L211.573,323.822z M180.615,261.898l11.079,13.367l2.641-2.188c2.943-2.439,4.617-4.869,5.02-7.289
				c0.404-2.42-0.275-4.693-2.039-6.82c-1.644-1.984-3.627-2.996-5.949-3.037c-2.321-0.039-4.867,1.088-7.636,3.383L180.615,261.898
				z M200.63,286.047l13.473,16.256l3.027-2.51c5.015-4.156,7.872-7.59,8.567-10.301c0.695-2.709,0.042-5.273-1.959-7.688
				c-2.263-2.73-5.074-4.039-8.431-3.924c-3.356,0.117-7.414,2.145-12.169,6.088L200.63,286.047z"/>
		</g>
		<g>
			<path fill="#F15A22" d="M264.214,219.246l15.726,2.371l19.053,86.186l-16.116-2.43l-3.844-17.74l-33.241-5.01l-9.156,15.781
				l-16.116-2.43L264.214,219.246z M268.918,242.045l-15.145,26.318l21.794,3.285L268.918,242.045z"/>
		</g>
		<g>
			<path fill="#F15A22" d="M298.027,254.326h15.279l19.098,57.463l19.271-57.463h15.27l13.819,82.385H365.6l-8.834-52.029
				l-17.502,52.029h-13.82l-17.347-52.029l-9.044,52.029h-15.29L298.027,254.326z"/>
		</g>
		<g>
			<path fill="#F15A22" d="M409.998,295.629c4.523-0.908,8.715-0.092,12.574,2.449c3.856,2.541,6.241,6.072,7.148,10.598
				c0.896,4.461,0.057,8.625-2.516,12.488c-2.572,3.865-6.121,6.252-10.646,7.16s-8.701,0.088-12.527-2.459
				c-3.826-2.545-6.192-6.082-7.102-10.609c-0.907-4.523-0.088-8.699,2.459-12.525S405.471,296.537,409.998,295.629z
				 M373.895,184.13l26.387-5.295l20.625,102.769l-26.385,5.297L373.895,184.13z"/>
		</g>
	</g>
</g>
</svg>
