<?xml version="1.0" encoding="utf-8"?>
<!-- Generator: Adobe Illustrator 14.0.0, SVG Export Plug-In . SVG Version: 6.00 Build 43363)  -->
<!DOCTYPE svg PUBLIC "-//W3C//DTD SVG 1.1//EN" "http://www.w3.org/Graphics/SVG/1.1/DTD/svg11.dtd">
<svg version="1.1" id="Layer_1" xmlns="http://www.w3.org/2000/svg" xmlns:xlink="http://www.w3.org/1999/xlink" x="0px" y="0px"
	 width="800px" height="900px" viewBox="0 0 800 900" enable-background="new 0 0 800 900" xml:space="preserve">
<path fill="#9BA4BC" d="M387.81,424.412c0,0-10.904-8.922-14.228-10.129c-3.321-1.208-42.692-3.331-68.521-33.761
	c-2.783-3.28-10.704-85.978,125.164-120.816c6.844-1.755,22.028-10.19,30.083-25.607c0.925-1.771,4.183,16.705,4.183,16.705
	s8.416,1.252,30.877-14.719c2.301-1.636,1.418,6.68-9.072,20.31c-1.523,1.979,29.444-6.594,45.201-17.333
	c6.452,2.117-7.754,27.479-7.754,27.479s81.336,61.72,62.624,176.251c-0.525,3.216-28.536-22.318-63.408-10.479
	c-2.62-3.357-5.516-9.07-15.317-8.571c0,0-11.547-14.419-37.293-4.752c-2.975,1.117-14.202-0.423-20.744-3.327
	c-2.936-0.614-2.473,15.566-34.922,18.211C400.099,431.583,387.81,424.412,387.81,424.412z"/>
<path fill="#CBD9E0" d="M507.642,423.741c2.524-0.173,21.47,1.69,19.001,26.446c-0.448,4.483-3.938,15.259-15.117,16.554
	c-11.181,1.296-19.556,1.07-29.832-19.462c-1.764-3.526,3.437-7.322,3.437-7.322S495.11,441.665,507.642,423.741z"/>
<path fill="#CBD9E0" d="M484.534,440.98c-0.672,1.391-18.354,26.595-50.643,20.788c-5.728-1.031-18.52-9.433-17.21-26.774
	c0,0,19.922-0.995,33.282-18.298c3.224,1.059,7.036,2.049,17.705,0.455c2.43-0.639-7.468,15.667,11.661,22.165
	C480.937,439.861,484.534,440.98,484.534,440.98z"/>
<path fill="#F59183" d="M497.502,417.275c1.835,0.385,10.922,3.629,7.499,9.039c-3.421,5.41-8.838,12.125-19.871,13.643
	c-4.672,0.642-15.94-0.661-17.596-14.793c-0.566-4.841,9.328-8.958,15.724-9.341C489.653,415.439,497.502,417.275,497.502,417.275z"
	/>
<path fill="#C07369" d="M467.534,425.164c-0.566-4.841,9.328-8.958,15.724-9.341c6.396-0.384,14.244,1.453,14.244,1.453
	c0.815,0.172,3.059,0.907,5.003,2.145c-2.216-0.241-4.662-0.386-6.928-0.25c-6.396,0.383-16.29,4.5-15.723,9.342
	c0.653,5.586,2.812,9.162,5.468,11.411c-0.065,0.009-0.126,0.024-0.192,0.034C480.458,440.599,469.189,439.296,467.534,425.164z"/>
<path fill="#FFFFFF" d="M499.391,468.027l-19.177,37.912c0,0-16.589,7.053-18.276,6.893c-1.689-0.163-16.87-13.684-17.298-15.307
	c-0.43-1.62,0.333-33.818,0.333-33.818s21.625-2.744,36.07-17.906C486.649,462.102,499.391,468.027,499.391,468.027z"/>
<path fill="#B0BAD4" d="M414.683,433.873c-1.081,0.285-22.723-1.187-39.336-19.476c-2.343-2.578-41.163,1.586-70.285-33.875
	c-0.895-1.092-6.54-2.903-9.333-9.104c-1.356-2.071-10.399,14.415-1.181,38.812c1.256,3.323-16.487-9.072-26.207-6.514
	c-3.424-0.717,8.396,3.804,15.842,29.36c0.275,2.354-4.484-2.982-14.49-1.505c-2.933-0.615,8.967,5.964,11.989,20.894
	c1.253,2.559-7.744,0.419-14.435,4.377c-1.774,1.161,6.662-0.133,19.015,11.645c1.263,1.287-7.082,3.366-20.68,13.537
	c-1.788,1.336,19.288,1.744,32.536,11.669c1.928,4.232,26.583,59.946,106.177,55.183c4.259-0.257,44.339,30.991,79.806-7.019
	c0,0,25.28,3.271,45.779-2.915c11.979-3.616,36.276-16.14,58.663-9.662c2.881,0.834-0.585-13.143,2.86-14.973
	c3.442-1.832,13.915-0.658,13.915-0.658s-7.8-17.717-6.272-25.056c0.618-2.978,15.721-5.642,15.721-5.642
	s-14.054-7.284-22.696-17.266c-1.158-1.336,10.208-2.455,18.479-7.87c1.797-1.177-8.519-0.764-12.992-5.02
	c-0.581-0.889,6.926-8.761,7.229-10.229c0.307-1.467-7.292,5.62-16.492,4.458c-0.877-0.694-3.599-3.563-5.157-4.654
	c-1.561-1.093-31.471-22.934-60.179-10.059c-2.971,1.332,16.879,21.917-11.434,34.429c-4.227,1.603-18.266,5.299-29.832-19.462
	c-1.682-3.602-11.576,14.549-38.137,15.876c-4.799,0.24-22.742,1.361-27.438-25.151L414.683,433.873z"/>
<path fill="#CBD9E0" d="M385.378,549.633c-0.167,2.646-34.764,67.77,37.783,151.518c5.994,6.919,57.969,48.908,126.188-12.233
	c4.879-4.371,16.094-47.939-16.191-73.086c-3.948-3.075,16.621-21.023-2.662-55.317c-0.151,0.734,7.12-8.463-0.616-21.572
	c-1.718-2.91-21.485,10.049-42,1.921c-4.248-1.656-35.001,41.297-80.602,8.381C400.219,550.062,385.378,549.633,385.378,549.633z"/>
<path fill="#9BA4BC" d="M299.075,497.082c-1.623,0.427-16.477,1.909-24.939,13.154c-1.626,2.16-11.404-7.749-23.601-8.009
	c-12.197-0.258-57.131-5.079-62.903-38.071c-0.415-3.534,4.794-12.016,3.081-18.502c-1.712-6.485-6.885-22.12-17.184-20.451
	c-10.301,1.671-18.608,12.353-14.619,27.954c5.28,20.638,31.942,50.732,35.872,55.769c3.93,5.035,26.714,42.742,29.451,49.825
	c2.738,7.084,17.541,31.631,19.298,32.382c1.757,0.75-16.328,78.525,60.799,158.638c9.313,9.673,25.668,25.675,8.485,62.282
	c-2.227,4.749-3.995,22.904,17.492,18.98c4.803-0.875,17.739-13.513,22.018-15.679c4.278-2.167,8.558-4.335,4.2-10.993
	c-4.358-6.655-10.458-20.876,2.771-35.414c11.412-12.543,19.757-8.497,19.757-8.497s137.818,23.905,170.463-74.178
	c-11.122,12.986-82.874,74.537-138.88-0.383c0,0-55.715-74.477-22.325-135.642c2.093-3.836-39.001,7.144-84.455-44.887
	C302.85,502.853,299.075,497.082,299.075,497.082z"/>
<path fill="#C1D0D8" d="M449.604,415.662c-2.742-0.319-28.683-3.201-42.682-68.426c-1.103-5.138-39.761,23.068-24.558,59.186
	c4.272,10.151,18.223,37.662,53.418,22.938C444.727,425.619,449.604,415.662,449.604,415.662z"/>
<path fill="#FFFFFF" d="M449.604,415.662c-2.742-0.319-22.255-4.663-38.531-47.897c-1.849-4.92-31.979,5.296-16.776,41.414
	c4.273,10.152,17.533,26.139,41.486,20.181C445.192,427.02,449.604,415.662,449.604,415.662z"/>
<path fill="#C1D0D8" d="M507.996,415.901c-0.987,1.069-2.312,7.43-0.354,7.84c1.958,0.411,10.271,2.152,14.838,7.194
	c1.162,1.775,10.311-2.945,26.969-3.284c2.344,1.002,13.362-17.623-2.825-40.417c-2.056-2.897-11.493,13.937-19.647,19.625
	C517.125,413.729,507.996,415.901,507.996,415.901z"/>
<path fill="#FFFFFF" d="M515.78,419.574c-2.55,2.353,5.29,3.407,6.699,11.361c1.162,1.775,10.311-2.945,26.969-3.284
	c2.344,1.002,13.362-17.623-2.825-40.417C534.577,412.025,520.913,414.842,515.78,419.574z"/>
<path fill="#FFFFFF" d="M498.393,466.988c0,0-16.951,38.57-18.179,38.951c-1.228,0.38-17.641,6.897-18.276,6.893
	c-0.638-0.007-17.041-13.782-17.298-15.307c-0.258-1.52,0.333-33.818,0.333-33.818s25.164-4.426,36.053-18.738
	C486.288,461.388,498.393,466.988,498.393,466.988z"/>
<path fill="#9BA4BC" d="M533.928,547.702c3.025,1.4,19.828,7.729,39.951,3.012c9.682-2.27,22.389-19.305,23.977-22.036
	c1.589-2.73,7.701-7.575,11.798-5.186s10.169,2.642,13.785,3.653c3.618,1.015,16.297,8.778,6.905,19.573
	c-9.392,10.798-21.148,10.886-25.755,10.942c-4.604,0.056-23.137,2.042-30.431,7.663c-7.295,5.62-22.188,18.326-33.567,20.28
	c-2.333-2.275-8.842-22.529-10.095-25.091C534.255,555.94,533.928,547.702,533.928,547.702z"/>
<path fill="#9BA4BC" d="M554.91,660.343c1.559,1.092,16.414,5.736,20.328,6.559c3.912,0.816,16.394-3.971,21.753-0.295
	c5.36,3.678,12.372,9.231,8.004,16.74c-4.368,7.51-14.394,11.536-17.431,11.41c-3.035-0.126-11.278,1.465-14.334,3.889
	c-3.056,2.423-16.969,15.335-28.466,6.8C558.215,676.353,554.91,660.343,554.91,660.343z"/>
<path fill="#CBD9E0" d="M275.926,717.012c-2.558,1.253-10.555,9.022-0.381,23.918c1.074,1.574-10.196,13.436,8.017,27.719
	c1.76,1.382-10.52,17.453,14.761,29.646c4.594,2.213,15.254,3.962,21.101-4.514c0.851-1.234,9.562-20.207-20.872-50.581
	C292.415,737.075,275.926,717.012,275.926,717.012z"/>
<g>
	<path fill="#A8BCC8" d="M283.562,768.648c-18.213-14.283-6.943-26.145-8.017-27.719c-10.173-14.896-2.177-22.665,0.381-23.918
		c0,0,16.489,20.063,22.625,26.188c0.713,0.711,1.385,1.412,2.057,2.111c-1.744,4.281-6.099,14.175,8.507,25.632
		c1.571,1.231-8.017,14.161,7.865,25.594c-6.017,5.267-14.65,3.688-18.658,1.758C273.042,786.102,285.322,770.03,283.562,768.648z"
		/>
	<path fill="#A8BCC8" d="M315.743,798.141c-6.359,4.162-14.324,2.232-17.647,0.63c-20.254-9.767-16.811-22.211-15.341-27.526
		c0.242-0.881,0.545-1.977,0.48-2.178c-14.687-11.519-10.531-21.697-8.755-26.043c0.307-0.755,0.658-1.608,0.628-1.795
		c-4.193-6.139-5.826-11.753-4.848-16.683c0.75-3.811,2.998-6.463,4.847-7.674c0.214-0.14,0.41-0.25,0.584-0.337l0.376-0.184
		l0.266,0.325c0.165,0.199,16.545,20.112,22.593,26.147c0.715,0.716,1.389,1.415,2.062,2.118l0.241,0.25l-0.217,0.531
		c-1.826,4.472-5.626,13.776,8.43,24.802c0.656,0.515,0.369,1.561-0.109,3.294c-1.236,4.486-3.805,13.82,7.957,22.287l0.542,0.389
		l-0.502,0.44c-0.499,0.438-1.034,0.843-1.585,1.204L315.743,798.141L315.743,798.141z M316.122,796.562
		c-11.729-8.789-9.089-18.381-7.812-23.025c0.244-0.88,0.546-1.977,0.48-2.18c-14.568-11.425-10.601-21.525-8.802-25.93
		c-0.59-0.612-1.184-1.229-1.81-1.854c-5.642-5.632-20.172-23.207-22.379-25.884c-0.035,0.022-0.072,0.046-0.108,0.069
		c-0.578,0.378-3.502,2.491-4.394,6.994c-0.916,4.641,0.659,9.981,4.686,15.878c0.389,0.567,0.064,1.358-0.521,2.793
		c-1.827,4.475-5.628,13.784,8.427,24.808c0.656,0.516,0.366,1.562-0.112,3.295c-1.518,5.489-4.676,16.905,14.778,26.288
		c3.137,1.514,10.646,3.341,16.61-0.562C315.491,797.039,315.811,796.808,316.122,796.562L316.122,796.562z"/>
</g>
<g>
	<path fill="#A8BCC8" d="M387.375,761.557c2.912,0.027,4.793,13.77-11.029,19.9c-3.243,1.255-6.864,13.367-24.858,9.087
		c-4.01-0.954,4.906-20.848,8.41-23.258C372.701,758.481,386.101,761.545,387.375,761.557z"/>
	<path fill="#A8BCC8" d="M368.883,789.117c-4.604,3.016-10.335,3.649-17.518,1.941c-0.494-0.118-1.128-0.5-1.343-1.655
		c-0.864-4.603,6.255-20.271,9.575-22.554c0.227-0.156,0.456-0.311,0.683-0.461c7.541-4.935,16.402-6.769,26.332-5.451
		c0.377,0.051,0.639,0.088,0.767,0.088c0.934,0.01,1.72,0.864,2.156,2.343c1.072,3.654-0.129,10.922-7.842,15.971
		c-1.526,0.999-3.261,1.878-5.153,2.611c-0.623,0.243-1.438,1.162-2.383,2.253C372.861,785.703,371.248,787.57,368.883,789.117
		L368.883,789.117L368.883,789.117z M375.623,781.239c0.178-0.116,0.358-0.21,0.531-0.279c1.825-0.705,3.491-1.549,4.958-2.509
		c7.229-4.732,8.39-11.434,7.405-14.784c-0.32-1.088-0.806-1.577-1.146-1.579c-0.151-0.003-0.455-0.04-0.896-0.099
		c-9.672-1.286-18.29,0.495-25.613,5.288c-0.222,0.146-0.442,0.295-0.664,0.446c-3.072,2.112-9.931,17.246-9.134,21.486
		c0.134,0.719,0.433,0.79,0.546,0.818c6.884,1.636,12.343,1.049,16.692-1.797c2.242-1.468,3.799-3.272,5.053-4.724
		C374.225,782.5,374.914,781.703,375.623,781.239L375.623,781.239z"/>
</g>
<path fill="#9BA4BC" d="M355.348,288.435c1.974-2.139,20.769-50.79,35.831-174.767c1.333-10.96,20.028-81.579,49.636-84.055
	c29.607-2.475,38.175,29.954,35.288,48.752c-2.888,18.796-37.201,97.893-42.78,109.999c-5.58,12.106-22.949,53.906-3.098,71.342
	c-0.792,1.365-28.075,7.391-36.329,10.257C385.644,272.829,355.348,288.435,355.348,288.435z"/>
<path fill="#9BA4BC" d="M492.709,237.825c1.04-1.313,39.55-59.491,81.826-148.661c3.251-6.856,29.454-45.907,48.848-45.289
	c19.395,0.618,37.038,18.866,31.529,47.198c-2.647,13.617-28.516,57.973-49.54,78.075c-7.694,7.357-49.762,49.691-55.457,121.256
	c-2.935-0.614-24.322-22.329-26.172-23.864c-1.849-1.538,8.097-14.388,7.754-27.479c1.194-2.047-24.508,14.777-43.046,17.401
	c-2.645-0.171,6.828-8.908,8.66-17.714C497.874,235.078,492.709,237.825,492.709,237.825z"/>
<path fill="#5C6272" d="M378.967,274.876c0,0,25.089-70.946,24.532-94.039c-0.137-5.635,5.412-92.302,29.833-95.608
	c15.796-2.138,15.915,13.674,14.846,18.811c-1.068,5.138-28.474,90.916-30.721,96.189c-2.244,5.273-12.532,43.708-2.257,64.243
	C397.978,268.137,378.967,274.876,378.967,274.876z"/>
<path fill="#3E424F" d="M407.143,203.81c2.245-5.273,29.652-91.05,30.721-96.187c0.984-4.729,0.947-18.492-11.379-18.984
	c2.1-1.874,4.376-3.075,6.848-3.411c15.796-2.138,15.915,13.674,14.846,18.811c-1.068,5.138-28.474,90.916-30.721,96.189
	c-2.244,5.273-12.532,43.708-2.257,64.243c-3.573,0.761-7.225,1.654-10.769,2.593C394.942,246.312,404.933,209.001,407.143,203.81z"
	/>
<path fill="#5C6272" d="M495.375,254.467c0,0,27.901-16.363,37.601-35.392s38.376-98.029,53.427-105.98
	c15.053-7.952,26.027-1.822,19.599,12.531c-6.431,14.353-44.576,63.416-52.577,90.842c-8,27.426-11.555,50.04-11.964,64.889
	c-0.071,2.65-9.325-10.379-17.717-14.816c-2.307-1.221,9.135-15.702,8.932-27.615C512.597,250.8,495.375,254.467,495.375,254.467z"
	/>
<path fill="#9099AF" d="M409.237,326.278c0,0,1.414-43.614,74.298-67.655c12.331-4.067-24.455-5.125-45.278,1.744
	c-20.824,6.869-72.722,28.16-75.077,54.216c-2.355,26.056,6.856,25.945,19.04,21.35
	C394.405,331.336,409.237,326.278,409.237,326.278z"/>
<path fill="#9BA4BC" d="M406.251,434.532c-42.487-17.201-92.129,42.344-16.143,92.349c-1.94,3.807-62.822,21.682-96.427-42.545
	c-11.223-21.452,19.853-58.641,38.721-65.919c18.866-7.279,41.18-4.134,41.18-4.134L406.251,434.532z"/>
<path fill="#7C8397" d="M409.237,326.278c0,0-67.285,3.258-54.451,60.581c1.595,7.112,12.135,27.56,40.147,41.345
	c-3.282-6.304-38.63-47.409,9.838-81.673C407.654,344.492,409.237,326.278,409.237,326.278z"/>
<path fill="#7C8397" d="M488.451,256.462c-1.962,0.221-74.231,1.675-110.437,46.933c-8.617,10.768-12.158,32.683,6.824,29.767
	c-22.122,29.062-21.436,73.621-16.33,78.521c0,0-4.874,3.196-15.13-0.868c-10.257-4.063-34.008-11.339-48.316-30.292
	c-2.663-3.528-4.97-54.014,54.56-93.618c6.19-4.117,29.08-16.499,70.604-27.199c5.211-1.343,21.237-9.463,30.083-25.607
	c1.295-2.363,3.917,19.202,3.917,19.202s20.646-9.077,31.143-17.216C498.328,233.79,488.451,256.462,488.451,256.462z"/>
<path fill="#7C8397" d="M325.157,430.556c-17.167,12.476-39.655,26.029-22.615,71.417c-2.644-4.308-4.023-7.403-4.425-8.28
	c-13.248-9.925-34.324-10.333-32.536-11.669c13.598-10.171,21.943-12.25,20.68-13.537c-12.353-11.777-20.789-10.483-19.015-11.645
	c6.691-3.958,15.688-1.818,14.435-4.377c-3.022-14.93-14.922-21.508-11.989-20.894c10.006-1.478,14.765,3.858,14.49,1.505
	c-7.445-25.556-19.266-30.077-15.842-29.36c9.72-2.558,27.463,9.837,26.207,6.514c-9.218-24.397-0.175-40.883,1.181-38.812
	c2.794,6.202,8.438,8.013,9.333,9.104c29.122,35.461,67.942,31.297,70.285,33.875C370.985,414.505,342.744,417.777,325.157,430.556z
	"/>
<path fill="#5C6272" d="M404.883,344.767l-6.576-11.334c0,0-64.538,21.961-25,78.496c4.865,6.955,21.627,16.275,21.627,16.275
	s-39.12-47.512,6.874-78.464C404.587,347.868,404.883,344.767,404.883,344.767z"/>
<path fill="#7C8397" d="M458.116,512.797c0,0-17.978-12.958-19.14-14.732c-1.162-1.777-3.311-28.265-3.311-28.265
	s-29.941-5.126-29.415-35.268c0.112-6.405,10.431,0.462,10.431,0.462s-1.971,26.966,28.291,28.713
	c2.645,0.153-0.333,33.818-0.333,33.818L458.116,512.797z"/>
<path fill="#7C8397" d="M390.108,526.881c0,0-56.115,15.814-91.864-36.864c-3.276-4.829,20.362,65.92,106.05,58.858
	C397.357,539.889,390.108,526.881,390.108,526.881z"/>
<ellipse transform="matrix(-0.8367 0.5477 -0.5477 -0.8367 1160.9119 734.1951)" fill="#D1DFE6" cx="470.985" cy="540.193" rx="19.596" ry="9.283"/>
<path fill="#7C8397" d="M480.843,519.473c0,0-21.534,10.295-40.828-3.704c-6.176-4.481-13.905-1.145-7.282,4.348
	C455.807,539.247,480.843,519.473,480.843,519.473z"/>
<path fill="#D1DFE6" d="M486.826,542.141c0.87-5.868,6.169-16.554,7.001-16.379c0.979,0.204,97.698-2.232,85.303-59.214
	c-7.094-32.61-39.935-36.258-51.624-35.971c27.238-8.874,54.155,10.758,55.632,11.794c1.559,1.091,4.28,3.96,5.157,4.654
	c9.2,1.162,16.799-5.925,16.492-4.458c-0.304,1.468-7.811,9.34-7.229,10.229c4.474,4.256,14.789,3.843,12.992,5.02
	c-8.271,5.415-19.638,6.534-18.479,7.87c8.643,9.981,22.696,17.266,22.696,17.266s-15.103,2.664-15.721,5.642
	c-1.527,7.339,6.272,25.056,6.272,25.056s-10.473-1.174-13.915,0.658c-3.445,1.83,0.021,15.807-2.86,14.973
	c-22.387-6.478-46.685,6.046-58.663,9.662C513.415,543.911,493.885,542.779,486.826,542.141z"/>
<path fill="#9BA4BC" d="M536.936,430.135c0,0,9.936,46.119-31.667,47.356c-6.74,0.2-19.462,27.322-19.462,27.322l-13.265,4.879
	l8.724-6.979l18.125-34.687c0,0,19.448,3.118,26.045-13.88c3.092-7.965-1.035-18.342-2.477-21.835
	C521.516,428.818,536.936,430.135,536.936,430.135z"/>
<path fill="#D1DFE6" d="M549.448,427.651c13.688-21.64-2.825-40.417-2.825-40.417s4.769-8.192,15.751-9.464
	c9.13-65.993-41.686-108.809-41.686-108.809s0.021-2.549,3.055-2.421c0,0,81.336,61.72,62.624,176.251
	c-0.332,2.031-11.643-7.406-28.716-11.65C551.969,429.488,548.405,428.679,549.448,427.651z"/>
<path fill="#626979" d="M332.722,402.141c-0.149-0.031-0.314-0.077-0.479-0.122c-9.442-4.742-19.627-11.49-27.181-21.497
	c-2.663-3.528-4.97-54.014,54.56-93.618c6.19-4.117,29.08-16.499,70.604-27.199C426.093,262.409,297.788,307.511,332.722,402.141z"
	/>
<path fill="#D1DFE6" d="M563.313,357.29c-13.336,1.545-20.136,17.26-31.034,35.108c-7.74,12.675-31.271,27.655-44.586,0.868
	c-1.865,0.375-2.496,5.86-2.21,6.94s5.928,19.368,29.481,14.092c6.584-1.474,20.516-17.656,30.283-26.585
	c2.88-2.632,12.814-10.08,18.499-10.42C569.434,376.953,563.313,357.29,563.313,357.29z"/>
<path fill="#7C8397" d="M407.809,327.638c0,0,12.631,77.318,52.475,75.329c16.733-0.836,25.076-11.978,23.82-20.664
	c-0.648-4.485,12.816,34.085-27.025,36.076c-5.986,0.298-42.079-13.031-50.155-71.142
	C406.166,341.8,407.809,327.638,407.809,327.638z"/>
<path fill="#B0BAD4" d="M503.773,385.275c-6.062,8.943-3.618,22.177,8.824,18.315c18.416-5.714,24.701-39.626,46.958-48.173
	C541.699,355.695,513.437,371.025,503.773,385.275z"/>
<ellipse transform="matrix(-0.8367 0.5477 -0.5477 -0.8367 1187.8397 525.3724)" fill="#F5F5F6" cx="515.582" cy="439.804" rx="8.157" ry="11.209"/>
<path fill="#A5B9C4" d="M466.827,431.015c-6.257-1.821-15.155-1.87-24.615,3.011c-9.149,4.721-21.565,14.118-11.188,28.036
	c-17.873-7.32-12.211-24.483-13.324-25.514c-2.143-1.98,20.193-1.383,31.905-20.886c0,0,7.723,2.13,16.934,2.019
	c4.605-0.057,0.603,4.465,0.996,7.483C467.929,428.183,466.827,431.015,466.827,431.015z"/>
<path fill="#F5F5F6" d="M471.266,436.669c-0.304,1.467-6.198,22.442-33.324,24.033c4.318,2.244,28.986,5.116,46.593-19.722
	C477.404,441.21,471.266,436.669,471.266,436.669z"/>
<path fill="#E9E7DC" d="M482.144,446.032l-21.314,67.525c0,0-15.914-13.676-16.189-16.032c-0.277-2.354-2.982-32.599,0.333-33.818
	C463.421,463.361,482.144,446.032,482.144,446.032z"/>
<path fill="#626979" d="M265.582,482.023c13.598-10.171,21.943-12.25,20.68-13.537c-12.353-11.777-20.789-10.483-19.015-11.645
	c6.691-3.958,15.688-1.818,14.435-4.377c-3.022-14.93-14.922-21.508-11.989-20.894c10.006-1.478,14.765,3.858,14.49,1.505
	c-7.445-25.556-19.266-30.077-15.842-29.36c9.72-2.558,27.463,9.837,26.207,6.514c-9.218-24.397-0.175-40.883,1.181-38.812
	c2.794,6.202,8.438,8.013,9.333,9.104c8.361,10.182,17.521,17.085,26.388,21.831c-7.234,3.159-61.454,29.145-33.206,87.663
	c0.851,1.764,0.743,3.027-0.017,3.912c-0.038-0.081-0.082-0.178-0.11-0.236C284.87,483.768,263.794,483.359,265.582,482.023z"/>
<path fill="#7C8397" d="M391.179,113.668c1.333-10.96,20.028-81.579,49.636-84.055c15.57-1.302,25.316,7.055,30.643,18.002
	c-10.611-11.252-34.034-10.288-49.136,16.925c-32.881,59.254-14.771,124.422-55.015,216.699c-0.167,0.387-0.231,0.857-0.372,1.321
	c-6.538,3.273-11.588,5.875-11.588,5.875C357.322,286.296,376.117,237.646,391.179,113.668z"/>
<path fill="#D1DFE6" d="M414.741,260.545c-17.943-36.438,28.148-110.038,38.849-134.054c11.964-26.851,20.815-69.417,20.153-72.363
	c0,0,0.104-0.031,0.28-0.071c2.635,8.314,3.161,17.267,2.08,24.308c-2.888,18.796-37.201,97.893-42.78,109.999
	c-5.58,12.106-22.949,53.906-3.098,71.342c-0.286,0.496-4.059,1.603-9.136,2.95C417.979,262.284,415.283,261.646,414.741,260.545z"
	/>
<ellipse transform="matrix(-0.8367 0.5477 -0.5477 -0.8367 1149.2678 508.0865)" fill="#F9BFAF" cx="498.872" cy="425.413" rx="5.694" ry="4.112"/>
<path fill="#7C8397" d="M312.816,812.053c17.183-36.607,0.829-52.609-8.485-62.282c-77.127-80.112-59.042-157.888-60.799-158.638
	c-1.757-0.751-16.561-25.298-19.298-32.382c-2.737-7.083-25.521-44.79-29.451-49.825c-3.93-5.036-30.592-35.131-35.872-55.769
	c-3.99-15.601,4.317-26.282,14.619-27.954c10.299-1.669,15.472,13.965,17.184,20.451c1.713,6.486-3.496,14.968-3.081,18.502
	c5.771,32.992,50.706,37.813,62.903,38.071c12.196,0.26,21.975,10.169,23.601,8.009c8.462-11.245,23.316-12.728,24.939-13.154
	c0,0,3.775,5.771,4.784,8.279c18.715,21.423,24.216,23.455,37.82,31.666c-34.99,21.005-81.355,144.55,32.99,220.59
	c1.239,0.824,3.991,2.008,7.888,3.354c-2.262-0.305-3.502-0.521-3.502-0.521s-8.345-4.046-19.757,8.497
	c-13.229,14.538-7.129,28.759-2.771,35.414c4.358,6.658,0.078,8.826-4.2,10.993c-4.279,2.166-17.215,14.804-22.018,15.679
	C308.821,834.957,310.589,816.802,312.816,812.053z"/>
<path fill="#7C8397" d="M409.847,762.966c51.059-20.59,0.791-77.076,0.791-77.076c56.006,74.92,127.758,13.369,138.88,0.383
	C526.688,754.858,452.442,763.793,409.847,762.966z"/>
<path fill="#626979" d="M312.816,812.053c17.183-36.607,0.829-52.609-8.485-62.282c-77.127-80.112-59.042-157.888-60.799-158.638
	c-1.757-0.751-16.561-25.298-19.298-32.382c-2.737-7.083-25.521-44.79-29.451-49.825c-3.93-5.036-30.592-35.131-35.872-55.769
	c-3.99-15.601,4.317-26.282,14.619-27.954c10.299-1.669,15.472,13.965,17.184,20.451c1.713,6.486-3.496,14.968-3.081,18.502
	c5.771,32.992,50.706,37.813,62.903,38.071c12.196,0.26,21.975,10.169,23.601,8.009c8.462-11.245,23.316-12.728,24.939-13.154
	c0,0,3.775,5.771,4.784,8.279c0.168,0.192,0.329,0.373,0.494,0.562l15.529,18.114c0,0-27.254-4.378-31.367,27.507
	c-3.399,26.359-20.764,42.747-29.646,51.099c-5.987,14.062-0.165,78.664,60.002,148.376c6.993,8.102,18.305,22.266,13.71,51.9
	c-2.989,19.286,8.554,20.64,8.49,21.116c-4.223,3.406-8.443,6.577-10.763,6.998C308.821,834.957,310.589,816.802,312.816,812.053z"
	/>
<path fill="#7C8397" d="M243.532,591.133c-1.757-0.751-16.561-25.298-19.298-32.382c-2.737-7.083-25.521-44.79-29.451-49.825
	c-3.93-5.036-30.592-35.131-35.872-55.769c-3.99-15.601,4.317-26.282,14.619-27.954c10.299-1.669,15.472,13.965,17.184,20.451
	c1.713,6.486-3.496,14.968-3.081,18.502c5.771,32.992,50.706,37.813,62.903,38.071c11.343,0.241,20.59,8.822,23.136,8.286
	c11.081,23.381,14.496,66.83-30.102,83.186C243.683,592.1,243.711,591.208,243.532,591.133z"/>
<path fill="#626979" d="M243.57,593.699c0.113-1.6,0.142-2.491-0.038-2.566c-1.757-0.751-16.561-25.298-19.298-32.382
	c-2.737-7.083-25.521-44.79-29.451-49.825c-3.93-5.036-30.592-35.131-35.872-55.769c-3.99-15.601,4.317-26.282,14.619-27.954
	c0.699-0.112,1.373-0.14,2.023-0.102c-6.012,4.329-14.152,15.504-5.152,35.949c10.399,23.625,39.077,40.354,49.904,59.474
	c10.826,19.118,31.645,63.816,55.318,43.247c0.572-0.496,1.107-0.91,1.623-1.279C272.426,575.328,262.181,586.874,243.57,593.699z"
	/>
<path fill="#B0BAD4" d="M273.671,510.514c4.203,8.871,7.301,20.632,7.096,32.703c-13.31-29.138-36.134-31.896-49.003-36.121
	c-6.615-2.173-14.791-8.43-21.743-14.679c15.127,7.952,33.396,9.66,40.514,9.811C261.878,502.469,271.125,511.05,273.671,510.514z"
	/>
<path fill="#A5B9C4" d="M385.378,549.633c0,0,14.841,0.429,21.9-0.39c19.896,14.361,36.964,14.279,50.237,9.763
	c0.125,0.357,0.194,0.55,0.194,0.55c-6.092,2.297-36.206,19.474-36.336,61.823c-0.13,42.351,19.684,62.945,36.276,73.465
	c21.644,13.728,47.852,20.24,82.303-0.621c2.085-1.26,2.641-0.733,1.943,1.011c-64.523,51.77-112.963,12.583-118.735,5.917
	C350.614,617.402,385.211,552.278,385.378,549.633z"/>
<path fill="#E3EAED" d="M533.85,616.387c-28.16,38.552-79.554,39.187-75.354,38.174c39.902-9.635,55.302-24.788,58.165-53.292
	c2.762-27.481-26.034-53.735-33.487-57.741c2.359-1.844,3.952-2.96,4.706-2.665c20.515,8.128,40.282-4.831,42-1.921
	c7.433,12.59,1.018,21.57,0.636,21.608c19.248,34.269-1.304,52.206,2.643,55.281C533.392,616.015,533.618,616.202,533.85,616.387z"
	/>
<path fill="#E3EAED" d="M477.335,636.07c4.344,3.72,14.461-0.987,22.6-10.509c8.137-9.521,11.212-20.254,6.869-23.974
	c-4.346-3.719-14.463,0.988-22.6,10.51C476.066,621.619,472.992,632.352,477.335,636.07z"/>
<path fill="#9EB1BC" d="M504.421,647.434c-12.722,5.416-29.029,9.126-50.188,7.383c1.91,0.018,49.075,1.479,78.926-38.985
	c2.11-2.86,15.442,17.788,15.442,17.788c-0.209-0.147-0.42-0.3-0.63-0.451c11.528,21.142,6.857,45.483,2.924,53.439
	C550.153,667.26,544.539,632.896,504.421,647.434z"/>
<path fill="#626979" d="M348.846,815.519c2.588-5.074-4.526-10.14-9.154-19.79c-6.902-14.386,10.709-29.412,9.281-34.817
	c-1.427-5.403-14.861-16.896-14.861-16.896s24.013,12.575,39.954,15.898c-3.54,0.401-8.724,2.392-14.769,9.034
	c-13.229,14.538-7.129,28.759-2.771,35.414c4.358,6.658,0.078,8.826-4.2,10.993c-0.862,0.438-2.081,1.302-3.509,2.407
	C348.438,817.143,348.396,816.402,348.846,815.519z"/>
<path fill="#7C8397" d="M554.91,660.343c0.131,0.092,0.387,0.216,0.693,0.354c1.978,10.947-0.137,35.63,17.928,37.117
	c-10.069,9.762-21.345,13.141-28.767,7.631C558.215,676.353,554.91,660.343,554.91,660.343z"/>
<path fill="#B0BAD4" d="M575.238,666.901c3.912,0.816,16.394-3.971,21.753-0.295c5.36,3.678,12.372,9.231,8.004,16.74
	c-0.16,0.272-0.34,0.53-0.512,0.793c-3.233-12.002-11.521-13.843-17.084-12.521c-13.692,3.258-28.626-4.085-31.989-6.32
	l-0.417-4.909C556.844,661.552,571.371,666.09,575.238,666.901z"/>
<path fill="#7C8397" d="M538.845,582.537c-2.899-6.361-7.335-19.956-8.349-22.023c3.759-4.573,3.432-12.812,3.432-12.812
	c3.025,1.4,19.828,7.729,39.951,3.012c9.682-2.27,22.389-19.305,23.977-22.036c1.589-2.73,7.701-7.575,11.798-5.186
	c1.231,0.718,7.325,2.709,8.794,3.12c-7.153,0.031-11.206,4.799-14.282,9.77c-2.938,4.749-22.307,21.365-47.005,22.316
	C550.16,558.968,538.491,565.87,538.845,582.537z"/>
<path fill="#B0BAD4" d="M586.065,558.374c26.892-4.659,40.46-18.519,45.608-25.235c0.999,1.357,1.738,2.912,1.978,4.637
	c-0.345,2.013-0.845,4.233-1.534,6.513c-0.475,0.793-1.051,1.602-1.773,2.431c-9.392,10.798-21.148,10.886-25.755,10.942
	c-4.604,0.056-23.137,2.042-30.431,7.663c-1.344,1.034-2.948,2.312-4.74,3.718C573.038,564.435,579.244,559.556,586.065,558.374z"/>
<path fill="#B0BAD4" d="M385.378,549.633c-11.896,5.038-45.19,79.243,40.235,156.883c4.965,4.513,1.387-1.751,9.191,2.437
	C349.745,634.452,385.378,549.633,385.378,549.633z"/>
<g>
	<path fill="#4A4F5D" d="M523.923,265.635c11.329,6.304,20.192,16.822,28.25,26.771c10.891,13.45,19.156,28.43,25.478,44.52
		c6.612,16.833,11.854,34.912,13.961,52.897c2.127,18.149,0.851,36.796-2.188,54.757c-0.643,3.8-6.476,2.563-5.835-1.222
		c2.871-16.972,3.947-34.187,2.453-51.362c-1.525-17.531-6.928-35.078-12.96-51.542c-5.645-15.396-13.562-29.52-23.127-42.796
		c-7.747-10.752-16.492-22.328-27.085-30.456C522.008,266.541,522.985,265.113,523.923,265.635L523.923,265.635z"/>
</g>
<g>
	<path fill="#4A4F5D" d="M479.828,256.828c3.774-1.813,8.036-2.262,12.113-3.081c4.598-0.926,9.134-2.219,13.592-3.665
		c9.624-3.119,18.46-7.96,26.949-13.387c1.195-0.763,3.062,0.017,3.046,1.551c-0.104,11.384-6.828,20.915-11.677,30.761
		c-1.171,2.38-4.779,0.559-3.67-1.832c4.362-9.4,12.331-17.696,11.414-28.732c1.015,0.517,2.03,1.033,3.045,1.551
		c-8.015,5.803-16.843,10.208-26.14,13.553c-8.124,2.921-19.785,6.814-28.43,4.56C479.547,257.97,479.227,257.115,479.828,256.828
		L479.828,256.828z"/>
</g>
<g>
	<path fill="#4A4F5D" d="M459.001,253.055c2.244-1.177,5.091-1.124,7.541-1.926c4.232-1.384,8.104-3.694,11.96-5.878
		c6.328-3.585,12.196-7.892,18.069-12.163c1.058-0.769,2.937,0.059,2.856,1.455c-0.49,8.499-6.333,15.02-10.313,22.165
		c-1.18,2.114-4.457,0.5-3.374-1.685c3.318-6.688,9.535-12.464,10-20.296c0.952,0.485,1.903,0.969,2.856,1.455
		c-6.633,4.804-13.659,9.273-21.015,12.89c-4.192,2.06-13.791,7.212-18.538,4.701C458.79,253.638,458.711,253.208,459.001,253.055
		L459.001,253.055z"/>
</g>
<g>
	<path fill="#4A4F5D" d="M423.024,263.852c6.94-5.327,15.496-8.542,22.52-13.944c4.3-3.31,7.881-7.411,10.689-12.043
		c1.251-2.065,1.645-5.849,4.123-6.741c0.914-0.328,1.691,0.275,2.056,1.061c2.836,6.072,2.266,12.71,3.834,19.099
		c0.557,2.262-2.959,3.356-3.431,1.099c-1.305-6.254-0.39-12.969-3.326-18.806c0.866,0.062,1.73,0.125,2.597,0.188
		c-1.677,1.774-2.625,6.029-4.143,8.395c-2.422,3.779-5.799,6.874-9.228,9.716c-6.807,5.64-16.59,11.347-25.406,12.851
		C422.801,264.814,422.689,264.108,423.024,263.852L423.024,263.852z"/>
</g>
<g>
	<path fill="#4A4F5D" d="M435.189,258.596c-4.843,4.914-11.54,6.613-18.104,7.944c-8.216,1.666-16.329,4.406-24.163,7.349
		c-16.138,6.063-31.62,14.847-45.21,25.444c-12.252,9.553-23.852,21.62-31.085,35.465c-7.177,13.729-9.199,28.99-9.483,44.283
		c-0.057,2.961-4.428,3.25-4.63,0.231c-0.972-14.469,1.839-29.112,7.499-42.422c6.16-14.482,17.286-26.472,28.916-36.788
		c12.436-11.034,26.86-19.463,41.844-26.538c8.115-3.833,16.581-6.894,25.247-9.213c9.397-2.513,18.658-3.396,27.476-7.711
		C434.713,256.045,436.313,257.458,435.189,258.596L435.189,258.596z"/>
</g>
<g>
	<path fill="#4A4F5D" d="M476.645,367.425c5.899,5.031,9.396,10.516,10.803,18.398c1.376,7.708,0.701,16.534-3.89,23.14
		c-9.433,13.576-26.013,13.845-39.399,6.735c-14.229-7.556-23.728-21.14-30.039-35.561c-6.647-15.181-13.434-37.828-5.521-53.639
		c0.312-0.623,1.24-0.276,1.126,0.391c-2.767,16.072,0.05,31.332,6.027,46.38c5.168,13.013,12.654,25.394,23.504,34.417
		c10.871,9.042,25.431,11.101,36.941,2.187c11.645-9.016,8.991-31.92,0.011-41.952C475.929,367.61,476.312,367.142,476.645,367.425
		L476.645,367.425z"/>
</g>
<g>
	<path fill="#4A4F5D" d="M563.804,377.618c-11.675,2.275-18.54,11.5-25.812,20.188c-5.533,6.612-10.927,12.448-18.899,16.127
		c-13.857,6.397-30.541,3.938-35.744-12.229c-0.949-2.955,3.216-4.084,4.456-1.428c3.323,7.121,8.143,12.113,16.343,12.483
		c7.219,0.326,14.312-2.981,20.107-6.982c7.237-5.001,12.164-12.901,18.552-18.885c5.432-5.087,13.038-10.412,20.819-10.246
		C564.153,376.66,564.388,377.504,563.804,377.618L563.804,377.618z"/>
</g>
<g>
	<path fill="#4A4F5D" d="M407.854,347.052c-9.053,7.597-17.729,14.158-22.82,25.229c-5.192,11.289-3.934,24.52,0.748,35.737
		c4.308,10.324,12.865,19.296,23.769,22.384c13.244,3.75,30.371-3.479,37.854-14.727c1.835-2.758,6.512-0.488,4.673,2.331
		c-7.849,12.02-24.042,19.972-38.463,18.358c-13.621-1.522-24.244-10.818-30.609-22.566c-13.898-25.642-2.896-56.841,22.715-70.006
		C407.973,342.635,409.774,345.441,407.854,347.052L407.854,347.052z"/>
</g>
<g>
	<path fill="#4A4F5D" d="M412.645,407.553c-1.943,1.272-4.629,0.71-5.903-1.237s-0.717-4.634,1.228-5.905
		c1.944-1.274,4.629-0.711,5.904,1.237C415.146,403.594,414.59,406.28,412.645,407.553L412.645,407.553z"/>
</g>
<g>
	<path fill="#4A4F5D" d="M546.802,385.858c11.937,9.637,14.73,31.507,4.963,43.382c-2.208,2.683-6.268-0.912-4.041-3.563
		c9.157-10.911,4.687-27.663-2.872-38.126C543.956,386.312,545.693,384.961,546.802,385.858L546.802,385.858z"/>
</g>
<g>
	<path fill="#4A4F5D" d="M589.21,445.692c5.339,0.629,10.46-2.139,14.819-4.93c1.426-0.915,2.759,0.622,2.269,2.018
		c-1.591,4.513-4.15,7.92-7.751,11.052c-0.049-0.774-0.1-1.548-0.148-2.321c3.968,2.967,8.236,4.352,13.203,4.22
		c1.456-0.04,2.353,2.08,0.933,2.859c-6.843,3.759-13.632,7.529-21.554,8.197c0.326-0.935,0.649-1.87,0.977-2.804
		c7.716,6.337,14.133,14.715,23.704,18.338c1.454,0.55,0.791,2.695-0.581,2.789c-5.869,0.402-11.072,3.568-16.93,4.161
		c0.457-0.662,0.913-1.324,1.369-1.986c1.809,8.743,2.773,18.005,6.978,26.015c0.651,1.237-0.218,2.47-1.591,2.337
		c-4.266-0.416-7.354-1.323-11.684-0.095c-3.145,0.892-2.179,10.506-0.747,12.644c0.701,1.046-0.021,2.79-1.391,2.74
		c-3.908-0.148-7.71-0.822-11.558-1.486c-6.286-1.083-11.336-0.329-17.504,1.281c-9.353,2.444-18.229,6.535-27.503,9.287
		c-14.977,4.446-32.249,8.687-47.659,3.921c-3.47-1.072-2.341-6.643,1.155-5.556c15.623,4.875,33.79,0.436,49.074-3.754
		c8.788-2.408,17.117-6.576,26.141-8.153c9.511-1.664,18.191,0.364,27.672,0.918c-0.464,0.914-0.928,1.827-1.392,2.74
		c-2.659-4.157-2.105-12.013-0.002-16.251c1.019-2.052,6.143-2.221,8.236-2.316c2.596-0.119,5.208,0.854,7.783,1.082
		c-0.53,0.78-1.061,1.559-1.592,2.336c-4.454-8.307-5.612-17.625-7.313-26.76c-0.181-0.973,0.297-1.899,1.37-1.985
		c5.921-0.479,10.977-3.862,16.936-4.062c-0.193,0.93-0.387,1.859-0.58,2.791c-9.859-4.125-16.392-11.982-24.51-18.57
		c-1.146-0.93-0.358-2.686,0.976-2.806c7.338-0.661,13.698-4.042,20.012-7.601c0.311,0.953,0.623,1.908,0.934,2.86
		c-5.822,0.221-10.833-1.434-15.533-4.866c-0.661-0.482-0.776-1.762-0.149-2.321c3.209-2.853,5.867-5.714,7.274-9.899
		c0.8,0.546,1.599,1.092,2.399,1.638c-5.157,3.203-10.826,5.543-16.996,4.487C587.312,447.634,587.8,445.524,589.21,445.692
		L589.21,445.692z"/>
</g>
<g>
	<path fill="#4A4F5D" d="M361.33,379.887c3.59,12.378,8.666,23.813,17.291,33.54c4.201,4.738,9.198,8.791,14.517,12.201
		c5.171,3.319,11.01,4.999,16.319,7.945c1.314,0.728,0.58,2.51-0.82,2.367c-12.62-1.297-25.48-11.77-33.592-20.88
		c-8.544-9.598-14.514-21.984-15.369-34.872C359.61,379.231,361.061,378.956,361.33,379.887L361.33,379.887z"/>
</g>
<g>
	<path fill="#4A4F5D" d="M355.107,386.397c3.207,9.115,8.758,17.202,15.868,23.69c3.479,3.174,7.306,5.994,11.221,8.597
		c3.27,2.175,7.47,3.557,9.692,6.863c0.338,0.5-0.011,1.339-0.667,1.312c-3.983-0.159-7.257-3.036-10.523-5.167
		c-4.199-2.739-8.165-5.798-11.76-9.293c-7.446-7.237-12.174-15.74-14.856-25.674C353.902,386.058,354.873,385.739,355.107,386.397
		L355.107,386.397z"/>
</g>
<g>
	<path fill="#4A4F5D" d="M375.226,383.486c0.025,8.442,2.784,15.146,6.947,22.374c1.808,3.139,4.019,6.036,6.075,9.014
		c1.645,2.385,3.667,4.388,3.34,7.394c-0.067,0.614-0.784,1.006-1.347,0.882c-2.933-0.649-4.251-3.409-5.823-5.769
		c-2.375-3.571-4.486-7.44-6.229-11.361c-3.066-6.906-5.374-15.044-3.906-22.606C374.387,382.887,375.226,382.938,375.226,383.486
		L375.226,383.486z"/>
</g>
<g>
	<path fill="#4A4F5D" d="M373.081,415.094c-6.024,1.319-12.346-0.342-18.262-1.652c-6.92-1.533-13.718-4.15-20.17-7.043
		c-12.834-5.752-24.562-14.388-32.745-25.921c-1.562-2.203,1.947-4.492,3.496-2.29c7.807,11.101,18.894,18.87,31.037,24.615
		c6.151,2.911,12.621,5.042,19.18,6.806c5.79,1.559,12.008,2.058,17.546,4.375C373.631,414.181,373.591,414.983,373.081,415.094
		L373.081,415.094z"/>
</g>
<g>
	<path fill="#4A4F5D" d="M302.504,381.469c-3.99-2.293-6.336-5.751-8.424-9.819c0.891,0.064,1.782,0.128,2.671,0.192
		c-8.42,10.907-4.042,27.774,0.698,39.376c0.603,1.476-1.179,2.76-2.479,2.13c-8.896-4.329-18.591-9.169-28.745-8.405
		c0.223-1.067,0.444-2.135,0.667-3.202c11.456,6.791,15.407,20.67,19.441,32.532c0.536,1.576-1.329,2.479-2.504,1.64
		c-4.333-3.09-10.519-3.232-15.654-3.795c0.353-0.705,0.703-1.41,1.057-2.115c8.229,5.863,11.919,14.031,14.965,23.393
		c0.277,0.854-0.364,1.945-1.324,1.919c-5.504-0.151-10.817,1.186-15.749,3.599c-0.171-0.902-0.342-1.806-0.514-2.707
		c8.27,0.799,15.409,6.071,21.263,11.621c0.61,0.581,0.681,1.788-0.158,2.233c-4.032,2.125-7.98,4.128-11.739,6.726
		c-3.674,2.54-7.916,4.511-11.491,7.104c-0.158-0.481-0.314-0.963-0.473-1.443c12.715-1.604,27.016,3.099,35.897,12.303
		c0.843,0.875-0.365,2.288-1.258,1.43c-5.216-5.016-11.271-7.788-18.307-9.228c-5.522-1.13-11.325-1.019-16.639-3.019
		c-0.567-0.211-0.552-1.068-0.081-1.358c3.75-2.322,6.888-6.021,10.525-8.58c3.796-2.669,7.887-5.153,12.364-6.452
		c-0.165,0.798-0.333,1.596-0.498,2.394c-5.549-5.112-12.298-10.066-20.011-10.812c-1.241-0.121-1.65-2.151-0.514-2.708
		c5.414-2.649,11.17-4.233,17.23-4.042c-0.439,0.64-0.883,1.279-1.322,1.918c-2.859-8.829-6.415-16.499-13.782-22.455
		c-1.017-0.823-0.077-2.266,1.057-2.113c5.815,0.78,11.428,1.27,16.873,3.631c-0.724,0.622-1.446,1.244-2.172,1.865
		c-4.054-10.887-7.183-24.224-17.987-30.454c-1.465-0.845-1.07-3.054,0.666-3.203c10.713-0.916,21.085,4.088,30.496,8.606
		c-0.824,0.71-1.65,1.418-2.475,2.129c-5.166-12.462-9.192-31.203,0.151-42.686c0.628-0.773,2.194-0.788,2.67,0.193
		c1.721,3.553,3.89,7.078,6.982,9.616C304.959,380.314,303.729,382.175,302.504,381.469L302.504,381.469z"/>
</g>
<g>
	<path fill="#4A4F5D" d="M297.763,486.652c6.111,19.856,21.783,35.096,39.339,45.383c10.7,6.271,22.42,10.714,34.499,13.433
		c6.247,1.405,12.627,2.186,19.021,2.435c4.895,0.193,11.65-1.74,16.136,0.162c1.104,0.467,0.971,1.917,0.152,2.546
		c-4.086,3.132-12.567,1.901-17.464,1.713c-6.31-0.244-12.585-1.157-18.756-2.465c-12.919-2.737-25.379-7.816-36.763-14.479
		c-16.816-9.847-37.718-27.184-36.929-48.587C297.013,486.364,297.625,486.203,297.763,486.652L297.763,486.652z"/>
</g>
<g>
	<path fill="#4A4F5D" d="M592.211,453.177c-7.607-8.634-17.824-14.337-28.466-18.395c-6.224-2.373-12.824-3.649-19.424-4.353
		c-7.127-0.759-13.133,0.659-19.985,2.271c-1.16,0.272-2.121-1.345-0.955-2.001c11.312-6.375,27.146-4.539,38.926-0.738
		c12.083,3.896,24.164,11.273,31.145,22.142C593.939,452.863,592.846,453.895,592.211,453.177L592.211,453.177z"/>
</g>
<g>
	<path fill="#4A4F5D" d="M505.306,422.953c8.274-3.489,18.298,4.958,21.652,11.923c3.811,7.909,2.971,17.598-1.467,25.048
		c-4.714,7.916-13.153,10.875-22.008,9.945c-10.864-1.139-19.675-13.935-23.259-23.113c-0.631-1.614,2.098-2.506,2.562-0.821
		c2.532,9.233,10.004,19.105,20.198,20.115c7.822,0.777,14.803-2.15,18.916-9.009c3.475-5.794,3.733-13.093,1.42-19.337
		c-1.323-3.568-4.038-6.575-7.162-8.675c-3.4-2.284-7.563-2.322-10.98-4.393C504.469,424.206,504.548,423.271,505.306,422.953
		L505.306,422.953z"/>
</g>
<g>
	<path fill="#4A4F5D" d="M486.377,440.983c-2.579,7.506-10.423,13.151-16.987,16.952c-7.631,4.415-16.409,7.117-25.238,7.346
		c-8.11,0.208-15.975-2.461-21.824-8.152c-5.144-5.004-11.084-16.169-7.83-23.373c1.214-2.685,5.284-0.632,4.078,2.035
		c-1.459,3.231,1.06,8.738,2.346,11.772c1.548,3.64,4.158,6.694,7.281,9.058c5.627,4.258,13.244,4.822,19.995,4.118
		c7.358-0.768,14.506-3.692,20.789-7.484c6.027-3.638,10.119-8.558,14.918-13.509C484.803,438.818,486.876,439.527,486.377,440.983
		L486.377,440.983z"/>
</g>
<g>
	<path fill="#4A4F5D" d="M499.985,468.182c-3.869,9.859-8.924,19.327-13.596,28.817c-1.496,3.035-2.761,7.48-5.027,10.056
		c-1.141,1.292-3.64,1.976-5.132,2.695c-3.454,1.666-6.953,3.256-10.567,4.539c-6.149,2.186-8.99-0.916-13.167-5.31
		c-2.312-2.434-4.516-4.982-6.696-7.533c-0.818-0.957-2.835-2.586-2.837-4.018c-0.001-11.408-1.131-23.237,0.369-34.574
		c0.346-2.6,4.313-1.75,3.972,0.832c-1.392,10.517-0.732,21.844-0.565,32.443c0.028,1.856-0.774-0.354,0.785,1.485
		c1.955,2.307,3.962,4.57,6.033,6.773c2.055,2.186,4.187,4.333,6.558,6.175c2.081,1.616,6.228-0.83,8.328-1.677
		c2.959-1.193,5.847-2.573,8.704-3.982c0.523-0.26,1.047-0.522,1.566-0.788c-0.758,0.389-0.746,0.998-0.254,0.014
		c2.049-4.111,4.099-8.222,6.148-12.333c4.147-8.318,8.135-16.866,12.969-24.818C498.482,465.489,500.62,466.565,499.985,468.182
		L499.985,468.182z"/>
</g>
<g>
	<path fill="#4A4F5D" d="M472.868,475.297c-3.446,12.46-5.169,25.198-9.642,37.411c-0.754,2.058-4.193,0.835-3.608-1.255
		c3.483-12.438,8.944-24.02,13.128-36.183C472.771,475.198,472.89,475.217,472.868,475.297L472.868,475.297z"/>
</g>
<g>
	<path fill="#4A4F5D" d="M526.366,415.847c0.1,0.083,0.196,0.164,0.294,0.246c2.81,2.344-2.479,5.806-3.505,2.294
		c-0.035-0.122-0.069-0.245-0.107-0.368C522.475,416.049,524.791,414.532,526.366,415.847L526.366,415.847z"/>
</g>
<g>
	<path fill="#4A4F5D" d="M390.251,526.155c10.072,19.073,28.7,31.292,50.312,32.187c10.333,0.429,20.541-2.368,29.366-7.675
		c4.915-2.955,9.204-6.892,13.111-11.058c4.404-4.693,6.534-10.196,10.203-15.284c0.533-0.737,1.591-0.033,1.47,0.736
		c-0.926,5.828-4.873,12.097-7.927,17.07c-3.034,4.944-8.046,8.918-12.796,12.11c-9.703,6.52-21.566,9.409-33.167,9.162
		c-22.767-0.487-44.062-15.198-51.498-36.808C389.139,526.055,389.975,525.63,390.251,526.155L390.251,526.155z"/>
</g>
<g>
	<path fill="#4A4F5D" d="M481.4,519.096c-7.46,6.801-16.963,10.923-27.1,11.197c-7.428,0.2-22.254-3.438-24.299-11.969
		c-0.104-0.432,0.232-0.922,0.716-0.799c3.679,0.938,6.637,4.27,10.007,6.066c4.087,2.179,8.818,3.133,13.403,3.314
		c9.578,0.379,18.636-3.656,26.574-8.617C481.198,517.981,481.864,518.675,481.4,519.096L481.4,519.096z"/>
</g>
<g>
	<path fill="#4A4F5D" d="M509.732,417.136c0.078-0.634,0.09-0.653,0.035-0.057c-0.062,0.297-0.21,0.514-0.338,0.778
		c-0.159,0.336-0.169,0.817-0.185,1.186c-0.052,1.205,0.112,2.432,0.392,3.602c0.664,2.797-3.454,3.568-3.877,0.706
		c-0.228-1.532-0.245-3.049-0.089-4.588c0.069-0.687,0.238-1.38,0.5-2.018c0.311-0.764,0.876-1.322,1.348-1.577
		C508.752,414.5,510.554,415.705,509.732,417.136L509.732,417.136z"/>
</g>
<g>
	<path fill="#4A4F5D" d="M492.921,378.367c-2.366,1.492-3.623,4.13-4.816,6.601c-0.853,1.766-0.641,4.713-2.662,5.535
		c-0.233,0.096-0.513,0.005-0.699-0.146c-1.899-1.548-0.04-4.921,0.769-6.683c1.402-3.06,3.958-4.694,6.887-6.104
		C492.934,377.312,493.455,378.03,492.921,378.367L492.921,378.367z"/>
</g>
<g>
	<path fill="#4A4F5D" d="M398.118,332.777c2.102,4.533,5.499,8.144,8.331,12.232c1.128,1.625-1.523,3.36-2.561,1.677
		c-2.679-4.344-4.557-8.938-6.166-13.782C397.638,332.644,398.009,332.542,398.118,332.777L398.118,332.777z"/>
</g>
<g>
	<path fill="#4A4F5D" d="M560.355,388.973c-2.055-0.782-3.939-1.643-6.184-1.571c-1.935,0.063-3.915,0.299-5.752,0.916
		c-0.584,0.195-1.328-0.04-1.648-0.586c-0.141-0.24-0.197-0.445-0.234-0.717c-0.088-0.617,0.42-1.288,0.999-1.449
		c2.282-0.636,4.511-0.901,6.789-0.156c2.2,0.72,4.501,1.681,6.328,3.122C560.91,388.734,560.623,389.076,560.355,388.973
		L560.355,388.973z"/>
</g>
<g>
	<path fill="#4A4F5D" d="M529.846,537.875c3.265,0.665,4.692,6.472,5.339,9.203c1.101,4.635,0.551,9.751-1.603,13.983
		c-0.358,0.7-1.14,1.082-1.912,0.926c-0.57-0.117-0.741-0.296-1.1-0.753c-0.366-0.465-0.361-1.217-0.104-1.728
		c1.915-3.764,1.966-7.718,1.365-11.817c-0.252-1.728-0.826-3.399-1.496-5.006c-0.567-1.361-1.631-2.248-1.736-3.743
		C528.553,538.27,529.2,537.745,529.846,537.875L529.846,537.875z"/>
</g>
<g>
	<path fill="#4A4F5D" d="M527.879,553.854c4.62,3.241,7.054,9.892,9.053,14.959c2.619,6.642,3.822,14.199,4.205,21.292
		c0.699,12.946-3.676,24.648-12.109,34.41c-7.97,9.22-19.395,16.308-30.347,21.403c-6.59,3.064-13.621,4.486-20.689,6.006
		c-7.567,1.629-15.512,3.51-23.284,3.243c-0.674-0.021-0.989-1.104-0.229-1.252c13.045-2.528,25.872-3.669,38.518-8.15
		c11.68-4.139,21.852-11.441,30.026-20.676c8.611-9.727,13.957-19.984,13.899-33.188c-0.031-6.893-1.26-13.75-3.17-20.356
		c-1.697-5.873-5.136-11.394-6.54-17.253C527.112,553.874,527.543,553.619,527.879,553.854L527.879,553.854z"/>
</g>
<g>
	<path fill="#4A4F5D" d="M535.38,615.01c0.605,1.196,3.644,2.627,4.753,3.403c2.127,1.491,3.859,3.038,5.57,5.006
		c4.344,5.008,7.078,11.041,9.046,17.314c3.942,12.578,3.664,26.353,0.885,39.115c-5.493,25.234-23.551,45.738-44.583,59.686
		c-42.463,28.158-99.911,33.725-148.089,18.475c-10.32-3.266-19.873-8.521-29.283-13.81c-0.607-0.34-0.122-1.312,0.479-0.964
		c11.393,6.592,24.26,10.397,36.962,13.68c13.153,3.399,26.687,5.047,40.256,5.093c26.788,0.091,53.165-4.312,77.709-15.307
		c24.776-11.101,46.515-29.748,57.415-54.988c5.652-13.091,7.368-27.652,5.298-41.73c-1.085-7.383-3.746-14.576-7.626-20.935
		c-3.021-4.952-7.887-7.019-11.325-11.355c-0.308-0.386-0.502-0.695-0.65-1.164C531.608,614.67,534.449,613.171,535.38,615.01
		L535.38,615.01z"/>
</g>
<g>
	<path fill="#4A4F5D" d="M298.58,498.652c-4.822,0.716-9.335,2.341-13.622,4.646c-3.548,1.909-6.195,4.829-9.494,7.031
		c-1.46,0.973-3.708-0.773-2.691-2.394c5.06-8.071,16.579-12.164,25.622-12.925C300.771,494.812,300.862,498.315,298.58,498.652
		L298.58,498.652z"/>
</g>
<g>
	<path fill="#4A4F5D" d="M188.021,468.338c5.89,10.339,13.416,17.334,23.926,22.826c9.182,4.8,19.569,7.842,29.835,9.059
		c7.421,0.881,15.218,0.88,22.286,3.596c6.396,2.455,13.526,7.761,14.351,15.067c0.104,0.918-1.2,1.604-1.857,0.895
		c-2.688-2.907-4.375-6.379-7.426-9.023c-3.325-2.886-7.731-4.206-11.944-5.103c-8.208-1.747-16.688-1.556-24.88-3.486
		c-18.467-4.35-40.165-13.014-45.511-33.247C186.611,468.204,187.623,467.638,188.021,468.338L188.021,468.338z"/>
</g>
<g>
	<path fill="#4A4F5D" d="M280.513,529.097c0.128,7.337,1.41,14.564,0.677,21.919c-0.703,7.029-2.969,13.285-6.399,19.417
		c-3.403,6.079-7.728,11.701-12.822,16.449c-3.785,3.529-10.477,8.647-16,7.263c-1.387-0.349-1.891-2.273-0.584-3.085
		c1.726-1.073,3.62-1.453,5.51-2.187c3.279-1.268,6.25-3.731,8.832-6.047c4.878-4.373,8.791-9.871,12.086-15.495
		c6.671-11.395,7.672-25.239,7.998-38.198C279.82,528.684,280.504,528.638,280.513,529.097L280.513,529.097z"/>
</g>
<g>
	<path fill="#4A4F5D" d="M190.568,476.182c-5.106-7.137-5.52-13.668-2.325-21.77c2.013-5.1,0.32-9.473-1.792-14.21
		c-1.906-4.268-3.78-9.726-7.83-12.355c-10.654-6.917-19.113,8.554-19.125,17.105c-0.018,10.076,6.038,20.922,11.091,29.228
		c6.19,10.171,14.191,19.164,21.724,28.334c7.902,9.622,14.792,19.702,20.69,30.672c10.859,20.193,19.208,41.193,34.64,58.558
		c1.312,1.476-0.568,3.792-2.077,2.362c-18.804-17.798-26.892-43.348-39.498-65.338c-13.632-23.78-35.28-41.608-46.176-67.103
		c-3.342-7.818-5.921-17.333-2.599-25.6c3.193-7.953,10.191-14.06,19.149-12.702c8.834,1.34,12.563,12.588,15.537,19.666
		c1.652,3.932,2.096,8.079,0.631,12.121c-2.46,6.785-3.919,13.058-0.448,19.987C192.701,476.215,191.299,477.203,190.568,476.182
		L190.568,476.182z"/>
</g>
<g>
	<path fill="#4A4F5D" d="M244.913,589.091c0.718,14.481,0.731,29.041,1.86,43.511c1.23,15.802,5.085,30.84,11.109,45.479
		c6.475,15.74,15.398,30.402,25.3,44.201c7.707,10.736,16.533,20.313,25.16,30.275c6.492,7.494,12.451,15.695,14.401,25.605
		c2.256,11.464-2.655,21.073-6.73,31.398c-1.873,4.744-4.251,12.021-0.417,16.414c2.552,2.919,7.451,3.121,10.977,3.224
		c5.266,0.155,8.881-3.472,12.408-6.806c3.305-3.122,7.271-5.015,11.133-7.355c2.039-1.238,4.089-2.565,5.734-4.309
		c2.082-2.207-3.149-7.955-4.355-9.639c-5.733-8.002-1.519-18.78,1.478-27.09c3.714-10.299,15.224-13.339,24.72-14.578
		c2.146-0.281,2.223,2.951,0.169,3.309c-7.167,1.253-13.743,3.167-18.626,8.882c-4.335,5.071-9.167,18.818-6.007,25.358
		c1.863,3.858,6.4,7.269,6.728,11.788c0.286,3.957-2.693,6.036-5.653,8.123c-4.052,2.856-8.708,4.733-12.355,8.125
		c-4.742,4.407-8.459,7.687-15.158,8.385c-9.833,1.021-18.836-4.761-17.655-15.258c1.361-12.099,9.784-21.825,9.773-34.287
		c-0.011-11.282-7.322-20.853-14.36-28.986c-8.167-9.436-16.462-18.512-23.89-28.574c-9.554-12.938-17.821-26.764-24.559-41.366
		c-6.903-14.96-11.311-30.624-13.146-46.979c-1.815-16.184-0.989-32.462-1.263-48.691
		C241.653,587.176,244.811,586.996,244.913,589.091L244.913,589.091z"/>
</g>
<g>
	<path fill="#4A4F5D" d="M556.17,659.805c6.438,1.104,12.471,3.918,18.995,4.908c5.663,0.857,11.282-0.901,16.933-0.977
		c9.921-0.129,19.092,10.236,14.781,20.142c-1.992,4.578-5.795,8.107-10.356,10.098c-7.412,3.232-16.241,1.902-23.132,6.286
		c-3.413,2.172-5.893,5.229-9.537,7.138c-2.374,1.243-4.926,2.009-7.55,2.496c-5.274,0.979-10.508-0.086-14.157-4.199
		c-1.979-2.233,1.176-4.961,3.067-2.658c3.788,4.602,9.845,3.889,14.878,2.143c5.783-2.005,9.479-7.187,14.978-9.717
		c5.564-2.562,12.2-1.996,17.939-4.207c4.826-1.859,9.278-5.789,10.339-10.981c1.09-5.327-3.447-10.626-8.352-11.757
		c-4.129-0.95-8.887,0.287-13.032,0.662c-9.036,0.814-18.708-2.863-26.708-6.735C553.777,661.729,554.617,659.54,556.17,659.805
		L556.17,659.805z"/>
</g>
<g>
	<path fill="#4A4F5D" d="M580.015,674.074c4.108-4.395,12.689-4.007,17.898-2.315c5.301,1.722,11.316,7.657,8.078,13.634
		c-0.458,0.845-1.928,0.899-2.18-0.166c-0.53-2.226-0.333-4.435-1.401-6.544c-1.343-2.654-4.348-4.21-7.043-5.041
		c-5.346-1.652-9.812-0.275-14.916,1.101C580.072,674.844,579.723,674.387,580.015,674.074L580.015,674.074z"/>
</g>
<g>
	<path fill="#4A4F5D" d="M332.47,803.684c-7.277,1.982-23.829,19.81-12.841,25.669c2.004,1.07,0.435,4.223-1.568,3.153
		c-14.747-7.87,3.811-27.69,14.041-29.964C332.843,802.375,333.225,803.479,332.47,803.684L332.47,803.684z"/>
</g>
<g>
	<path fill="#4A4F5D" d="M534.705,545.993c11.177,3.933,23.125,5.421,34.803,3.021c11.831-2.434,19.613-9.449,25.636-19.525
		c4.239-7.088,9.68-9.598,17.406-6.789c6.55,2.379,18.052,1.657,21.086,9.682c2.751,7.276-0.012,15.558-5.821,20.377
		c-6.244,5.181-16.992,5.639-24.681,6.624c-5.34,0.687-10.684,1.293-15.938,2.496c-6.114,1.401-11.441,4.64-16.519,8.205
		c-10.019,7.032-18.49,15.471-30.831,18.208c-2.352,0.521-3.559-2.915-1.166-3.631c9.997-2.99,18.369-9.992,26.809-15.878
		c7.861-5.481,15.908-9.353,25.389-10.947c9.174-1.544,18.629-1.472,27.578-4.224c4.048-1.244,8.268-4.018,10.515-7.634
		c2.854-4.596,3.165-12.256-1.827-15.372c-3.713-2.319-8.934-2.665-13.133-3.52c-5.229-1.066-8.484-3.946-13.139,0.782
		c-3.146,3.2-4.809,7.871-7.569,11.429c-2.564,3.308-5.959,6.055-9.432,8.345c-14.665,9.682-35.156,7.68-50.621,1.28
		C531.26,548.1,532.772,545.312,534.705,545.993L534.705,545.993z"/>
</g>
<g>
	<path fill="#4A4F5D" d="M388.572,551.641c-20.818,38.567-4.212,88.49,17.136,123.184c10.838,17.614,24.846,34.229,45.074,40.847
		c20.601,6.739,43.333,3.113,62.753-5.514c15.668-6.961,28.756-18.396,39.035-31.974c1.123-1.48,3.485,0.191,2.659,1.792
		c-9.3,18.004-27.532,30.358-46.04,37.583c-19.087,7.452-41.001,9.241-60.638,2.83c-19.147-6.251-32.739-21.11-43.769-37.348
		c-12.338-18.162-21.356-38.873-26.569-60.172c-5.826-23.791-7.503-52.359,7.53-73.135
		C386.898,548.141,389.485,549.953,388.572,551.641L388.572,551.641z"/>
</g>
<g>
	<path fill="#4A4F5D" d="M273.317,593.42c-1.36,4.902-0.588,9.332,0.132,14.241c0.058,0.379-0.47,0.406-0.604,0.112
		c-2.013-4.438-1.577-9.953-0.055-14.466C272.899,592.987,273.412,593.077,273.317,593.42L273.317,593.42z"/>
</g>
<g>
	<path fill="#4A4F5D" d="M287.868,672.425c3.985,8.215,8.32,16.303,12.963,24.163c4.652,7.873,11.184,15.423,14.73,23.833
		c0.227,0.539-0.566,1.06-0.969,0.634c-6.187-6.543-10.467-15.94-14.766-23.808c-4.429-8.098-8.574-16.218-12.255-24.682
		C287.496,672.396,287.787,672.257,287.868,672.425L287.868,672.425z"/>
</g>
<g>
	<path fill="#4A4F5D" d="M432.265,260.18c-5.276-2.365-9.517-5.129-11.815-10.734c-2.504-6.106-2.722-12.597-2.425-19.109
		c0.569-12.533,4.46-24.455,9.367-35.89c7.808-18.194,16.817-35.868,24.97-53.908c8.451-18.698,16.303-38.037,20.189-58.27
		c2.998-15.614,3.69-36.092-11.864-45.405c-10.64-6.37-24.089-6.593-34.111,0.827c-10.778,7.98-16.647,21.901-21.097,34.092
		c-13.144,36.019-17.065,75.507-22.506,113.242c-2.78,19.258-5.544,38.553-9.598,57.592c-1.656,7.778-3.584,15.51-6.064,23.068
		c-2.957,9.01-6.157,20.045-13.018,26.732c-1.603,1.562-4.202-0.67-2.636-2.323c4.641-4.892,6.135-11.65,8.654-17.734
		c1.347-3.257,2.514-6.582,3.574-9.941c2.345-7.429,4.115-15.036,5.716-22.654c3.864-18.387,6.5-37.028,9.187-55.616
		c5.438-37.628,9.72-76.357,22.228-112.443c7.731-22.3,22.787-49.271,50.581-42.954c39.466,8.97,26.461,57.45,16.86,84.324
		c-6.984,19.547-16.229,38.105-24.956,56.898c-6.14,13.224-13.023,26.401-17.41,40.343c-4.502,14.304-8.979,38.772,7.6,47.001
		C435.551,258.24,434.14,261.021,432.265,260.18L432.265,260.18z"/>
</g>
<g>
	<path fill="#4A4F5D" d="M556.936,306.299c-7.431-8.993-10.647-18.41-8.372-30.061c1.37-7.031,2.603-14.084,4.251-21.058
		c4.501-19.047,12.635-36.733,23.394-53.036c12.049-18.256,27.537-33.573,41.256-50.487c12.296-15.157,23.823-31.45,31.367-49.553
		c6.446-15.463,9.376-34.532-4.369-46.97c-9.582-8.672-22.256-10.895-33.571-4.489c-12.746,7.217-21.786,20.713-29.411,32.799
		c-10.388,16.461-19.031,34.007-27.63,51.447c-10.413,21.122-20.518,42.424-32.134,62.921
		c-9.555,16.855-20.149,33.662-34.941,46.418c-1.495,1.289-3.719-1.289-2.278-2.63c12.651-11.794,22.347-26.809,31.041-41.633
		c10.381-17.701,19.379-36.192,28.409-54.606c8.846-18.035,17.596-36.154,27.581-53.594c7.804-13.629,16.48-27.545,28.227-38.151
		c8.413-7.597,18.973-12.838,30.521-10.559c13.685,2.7,25.292,14.351,27.806,27.991c3.103,16.816-4.926,34.316-12.928,48.585
		c-9.107,16.24-20.664,31.119-32.834,45.155c-19.228,22.179-38.176,43.752-49.069,71.462c-3.85,9.789-6.352,20.013-8.378,30.315
		c-0.875,4.449-1.849,8.92-2.512,13.406c-1.3,8.785,1.949,17.633,7.251,24.579C560.878,306.211,558.223,307.858,556.936,306.299
		L556.936,306.299z"/>
</g>
<g>
	<path fill="#4A4F5D" d="M377.223,275.325c3.768-5.857,5.694-13.268,7.52-19.917c2.013-7.326,4.117-14.617,6.146-21.937
		c4.25-15.317,6.847-31.068,9.366-46.746c2.516-15.665,3.379-31.501,5.748-47.193c2.474-16.4,5.618-34.724,15.212-48.645
		c5.598-8.122,18.394-13.519,25.588-4.14c6.112,7.965,2.146,21.878-0.015,30.46c-4.151,16.484-10.373,32.453-16.029,48.458
		c-6.185,17.508-12.288,35.182-15.972,53.42c-2.664,13.186-4.943,29.417,2.266,41.636c1.663,2.818-2.552,5.607-4.257,2.787
		c-7.099-11.75-6.082-26.556-4.035-39.562c2.794-17.756,8.668-34.992,14.538-51.914c5.848-16.86,12.309-33.531,17.332-50.666
		c2.513-8.563,8.068-23.707,2.291-32.077c-2.445-3.542-7.733-3.394-11.255-1.921c-5.699,2.382-9.078,9.369-11.438,14.627
		c-6.843,15.24-9.228,32.699-11.267,49.146c-1.99,16.025-3.466,31.848-6.171,47.805c-2.431,14.328-5.294,28.6-9.73,42.454
		c-3.901,12.179-5.674,25.089-13.726,35.348C378.445,277.882,376.434,276.551,377.223,275.325L377.223,275.325z"/>
</g>
<g>
	<path fill="#4A4F5D" d="M491.82,253.231c12.812-6.4,24.038-14.99,32.828-26.357c7.445-9.625,12.464-20.922,16.98-32.143
		c6.875-17.075,12.992-34.434,21.06-51.008c4.172-8.574,8.887-16.99,14.798-24.493c4.209-5.342,9.77-10.754,16.647-12.21
		c5.471-1.159,12.219,0.9,15.112,5.95c3.222,5.623-0.224,12.738-2.949,17.777c-5.557,10.284-13.095,19.559-19.832,29.069
		c-8.49,11.986-16.282,24.36-22.233,37.821c-11.273,25.499-21.634,54.887-20.414,83.143c0.147,3.412-5.148,3.689-5.294,0.265
		c-1.067-25.334,7.177-50.85,16.244-74.173c8.925-22.951,22.165-42.625,36.42-62.539c5.193-7.254,11.891-15.326,13.912-24.24
		c1.548-6.83-6.069-9.308-11.464-7.599c-7.436,2.352-12.94,10.501-16.981,16.663c-5.578,8.505-10.004,17.772-14.137,27.047
		c-7.275,16.333-12.865,33.358-20.229,49.649c-10.187,22.533-25.759,40.86-49.282,49.86
		C491.562,256.267,490.415,253.934,491.82,253.231L491.82,253.231z"/>
</g>
<g>
	<path fill="#4A4F5D" d="M618.843,530.339c3.94-1.09,7.725,0.114,10.846,2.679c2.321,1.905,5.152,7.011,2.349,9.531
		c-0.274,0.245-0.814,0.335-1.02-0.076c-0.488-0.975-0.524-1.724-0.598-2.832c-0.123-1.824-1.188-3.438-2.397-4.731
		c-2.274-2.437-5.915-3.785-9.158-4.171C618.656,530.716,618.651,530.394,618.843,530.339L618.843,530.339z"/>
</g>
<g>
	<path fill="#4A4F5D" d="M623.571,541.369c2.108,1.177,4.162,2.889,4.974,5.245c0.846,2.456-0.256,5.46-2.633,6.538
		c-1.245,0.566-1.959-1.136-1.321-2.018c1.149-1.584,2.089-2.41,1.829-4.527c-0.25-2.025-1.372-3.82-2.963-5.068
		C623.365,541.466,623.47,541.312,623.571,541.369L623.571,541.369z"/>
</g>
<g>
	<path fill="#4A4F5D" d="M161.493,443.538c-1.853-4.134,0.271-9.176,2.417-12.769c1.367-2.288,6.579-8.601,9.774-6.565
		c0.349,0.22,0.581,0.655,0.355,1.056c-0.682,1.207-1.7,1.312-2.902,1.98c-1.797,1.001-3.194,2.616-4.455,4.205
		c-2.774,3.504-4.459,7.472-4.504,11.969C162.173,443.829,161.654,443.898,161.493,443.538L161.493,443.538z"/>
</g>
<g>
	<path fill="#4A4F5D" d="M169.153,438.517c-1.122-2.926-0.412-5.565,0.521-8.446c0.805-2.491,2.498-5.814,5.364-6.208
		c0.871-0.119,1.479,0.952,1.098,1.677c-0.503,0.962-1.242,1.466-2.041,2.196c-0.861,0.79-1.526,1.758-2.274,2.649
		c-1.728,2.063-1.921,5.417-1.939,7.999C169.877,438.811,169.306,438.917,169.153,438.517L169.153,438.517z"/>
</g>
<g>
	<path fill="#4A4F5D" d="M181.892,440.717c-0.88-2.477-1.268-5.072-2.241-7.538c-1.313-3.33-4.013-4.924-5.979-7.646
		c-0.4-0.553,0.166-1.298,0.798-1.17c5.845,1.206,8.493,11.099,8.311,16.192C182.763,441.062,182.072,441.224,181.892,440.717
		L181.892,440.717z"/>
</g>
<g>
	<path fill="#4A4F5D" d="M330.2,426.66c6.971-3.937,14.439-7.315,21.853-10.334c6.856-2.793,15.229-4.428,22.551-2.647
		c2.414,0.588,1.664,4.2-0.784,3.77c-14.666-2.57-30.249,3.54-43.076,10.044C330.188,427.776,329.636,426.98,330.2,426.66
		L330.2,426.66z"/>
</g>
<g>
	<path fill="#4A4F5D" d="M566.543,443.524c-5.878-4.474-13.062-7.647-20.118-9.654c-3.154-0.898-6.533-0.923-9.778-1.193
		c-3.6-0.299-7.672,0.546-11.114-0.471c-0.647-0.191-1.034-1.192-0.3-1.579c6.093-3.199,15.408,0.029,21.456,1.971
		c7.527,2.416,13.834,5.865,19.909,10.864C566.639,443.496,566.586,443.556,566.543,443.524L566.543,443.524z"/>
</g>
<g>
	<path fill="#4A4F5D" d="M464.489,442.14c-0.005,0.023-0.009,0.044-0.013,0.064c-0.149-0.311-0.301-0.623-0.453-0.936
		c0.666,0.34,1.123,0.96,0.96,1.742c-0.166,0.807-0.98,1.34-1.787,1.17c-0.806-0.169-1.339-0.983-1.172-1.79
		c0.163-0.782,0.829-1.167,1.576-1.21c-0.264,0.226-0.526,0.451-0.79,0.677c0.007-0.022,0.012-0.042,0.017-0.065
		C463.083,440.728,464.676,441.061,464.489,442.14L464.489,442.14z"/>
</g>
<g>
	<path fill="#4A4F5D" d="M455.033,453.936c-3.414,2.236-6.887-3.068-3.472-5.304C454.979,446.396,458.45,451.7,455.033,453.936
		L455.033,453.936z"/>
</g>
<g>
	<path fill="#4A4F5D" d="M441.978,453.329c-1.451,0.95-2.926-1.303-1.476-2.253C441.953,450.126,443.428,452.38,441.978,453.329
		L441.978,453.329z"/>
</g>
<g>
	<path fill="#4A4F5D" d="M432.881,451.038c-1.094,0.717-2.607,0.398-3.324-0.697c-0.717-1.097-0.404-2.609,0.69-3.326
		c1.097-0.716,2.609-0.399,3.325,0.695C434.29,448.809,433.976,450.321,432.881,451.038L432.881,451.038z"/>
</g>
<g>
	<path fill="#4A4F5D" d="M516.684,454.314c-1.273,0.834-2.567-1.143-1.294-1.977C516.663,451.505,517.956,453.48,516.684,454.314
		L516.684,454.314z"/>
</g>
<g>
	<path fill="#4A4F5D" d="M514.729,462.934c-1.161,0.76-2.765,0.423-3.525-0.739s-0.427-2.766,0.734-3.525
		c1.159-0.759,2.764-0.424,3.524,0.739C516.224,460.57,515.891,462.174,514.729,462.934L514.729,462.934z"/>
</g>
<g>
	<path fill="#4A4F5D" d="M500.926,457.318c-1.54,1.008-3.107-1.383-1.566-2.392S502.466,456.31,500.926,457.318L500.926,457.318z"/>
</g>
<g>
	<path fill="#4A4F5D" d="M493.309,453.419c-0.96,0.629-1.937-0.862-0.977-1.491C493.293,451.3,494.269,452.79,493.309,453.419
		L493.309,453.419z"/>
</g>
<g>
	<path fill="#4A4F5D" d="M561.303,357.677c-11.907-4.786-19.98,5.539-26.381,13.801c-0.703,0.909-1.936-0.112-1.566-1.056
		c4.202-10.757,17.384-18.881,28.444-13.746C562.463,356.983,561.961,357.941,561.303,357.677L561.303,357.677z"/>
</g>
<g>
	<path fill="#4A4F5D" d="M425.542,334.8c-1.522,7.169-0.575,13.765,1.944,20.58c2.145,5.8,6.26,10.849,8.168,16.655
		c0.065,0.2-0.21,0.414-0.367,0.24c-4.302-4.765-7.25-11.96-9.418-17.971c-2.292-6.357-2.644-13.12-0.732-19.588
		C425.21,334.463,425.598,334.536,425.542,334.8L425.542,334.8z"/>
</g>
<g>
	<path fill="#4A4F5D" d="M277.735,718.385c-4.852,2.214-6.362,4.812-5.791,10.248c0.471,4.475,2.745,9.217,5.936,12.363
		c0.593,0.583,0.808,1.654,0.148,2.294c-7.326,7.104-1.053,20.955,7.191,24.479c1.084,0.463,1.22,1.904,0.538,2.738
		c-6.512,7.948,0.251,17.378,7.078,22.371c8.416,6.154,18.628,6.597,25.595-1.588c1.451-1.705,4.371,0.218,3.271,2.205
		c-12.911,23.351-54.985-5.621-38.583-25.316c0.181,0.913,0.358,1.826,0.537,2.738c-10.111-4.418-17.028-21.243-8.068-29.778
		c0.048,0.766,0.099,1.53,0.148,2.294c-4.387-4.403-6.827-10.63-6.972-16.812c-0.12-4.98,3.01-10.624,8.572-10.418
		C278.646,716.253,278.89,717.86,277.735,718.385L277.735,718.385z"/>
</g>
<g>
	<path fill="#4A4F5D" d="M387.506,760.606c8.397,8.541-4.109,23.962-14.41,21.745c0.806-0.527,1.611-1.054,2.416-1.581
		c-2.866,12.202-15.151,15.224-25.722,10.442c-2.439-1.103-0.575-4.825,1.843-3.708c7.927,3.664,17.99,2.234,19.878-7.574
		c0.216-1.119,1.333-1.767,2.416-1.58c7.415,1.286,15.77-9.119,11.502-15.945C384.623,761.116,386.375,759.458,387.506,760.606
		L387.506,760.606z"/>
</g>
<g>
	<path fill="#5F2420" d="M501.737,417.766c10.178,1.297,2.741,14.224-1.758,17.853c-8.754,7.062-22.886,10.006-30.661-0.117
		c-3.228-4.202-5.057-9.194-3.084-14.319c1.835-4.772,8.48-5.911,12.823-6.473c8.421-1.09,23.588-1.712,27.345,7.873
		c0.726,1.852-2.302,3.331-3.184,1.517c-2.795-5.745-12.812-5.766-18.152-5.693c-6.878,0.092-18.299,0.994-14.815,10.748
		c3.141,8.798,12.643,9.599,20.221,7.121c3.581-1.171,6.933-3.361,9.381-6.216c1.684-1.965,6.331-8.408,1.423-10.062
		C499.897,419.531,500.256,417.578,501.737,417.766L501.737,417.766z"/>
</g>
</svg>
