<?xml version="1.0" encoding="utf-8"?>
<!-- Generator: Adobe Illustrator 14.0.0, SVG Export Plug-In . SVG Version: 6.00 Build 43363)  -->
<!DOCTYPE svg PUBLIC "-//W3C//DTD SVG 1.1//EN" "http://www.w3.org/Graphics/SVG/1.1/DTD/svg11.dtd">
<svg version="1.1" id="Layer_1" xmlns="http://www.w3.org/2000/svg" xmlns:xlink="http://www.w3.org/1999/xlink" x="0px" y="0px"
	 width="750px" height="200px" viewBox="0 0 750 200" enable-background="new 0 0 750 200" xml:space="preserve">
<g>
	<path fill="#FFFFFF" d="M520.785,122.548"/>
	<g>
		<g>
			<g>
				<polygon fill="#202020" points="520.785,122.548 520.785,122.548 520.785,122.548 520.785,122.548 520.785,122.548 
					520.785,122.548 520.785,122.548 520.785,122.548 520.785,122.548 520.785,122.548 520.785,122.548 520.785,122.548 
					520.785,122.548 				"/>
				<polygon fill="#202020" points="520.785,122.548 520.785,122.548 520.785,122.548 520.785,122.548 520.785,122.548 
					520.785,122.548 520.785,122.548 520.785,122.548 520.785,122.548 520.785,122.548 520.785,122.548 520.785,122.548 
					520.785,122.548 520.785,122.548 520.785,122.548 520.785,122.548 520.785,122.548 520.785,122.548 520.785,122.548 
					520.785,122.548 520.785,122.548 520.785,122.548 520.785,122.548 520.785,122.548 520.785,122.548 520.785,122.548 
					520.785,122.548 520.785,122.548 520.785,122.548 				"/>
				<g>
					<rect x="520.785" y="122.548" fill="#202020" width="0" height="0"/>
					<rect x="520.785" y="122.548" fill="#202020" width="0" height="0"/>
					<polygon fill="#202020" points="520.785,122.548 520.785,122.548 520.785,122.548 520.785,122.548 520.785,122.548 
						520.785,122.548 					"/>
					<rect x="520.785" y="122.548" fill="#202020" width="0" height="0"/>
					<path fill="#202020" d="M520.785,122.548L520.785,122.548L520.785,122.548L520.785,122.548L520.785,122.548L520.785,122.548
						L520.785,122.548L520.785,122.548L520.785,122.548L520.785,122.548L520.785,122.548L520.785,122.548L520.785,122.548
						L520.785,122.548L520.785,122.548L520.785,122.548L520.785,122.548L520.785,122.548L520.785,122.548L520.785,122.548
						L520.785,122.548L520.785,122.548L520.785,122.548L520.785,122.548L520.785,122.548L520.785,122.548L520.785,122.548
						L520.785,122.548L520.785,122.548L520.785,122.548L520.785,122.548L520.785,122.548L520.785,122.548L520.785,122.548
						L520.785,122.548L520.785,122.548L520.785,122.548L520.785,122.548L520.785,122.548L520.785,122.548L520.785,122.548
						L520.785,122.548L520.785,122.548L520.785,122.548L520.785,122.548L520.785,122.548L520.785,122.548L520.785,122.548
						L520.785,122.548L520.785,122.548L520.785,122.548L520.785,122.548L520.785,122.548L520.785,122.548L520.785,122.548
						L520.785,122.548L520.785,122.548L520.785,122.548L520.785,122.548L520.785,122.548L520.785,122.548L520.785,122.548
						L520.785,122.548L520.785,122.548L520.785,122.548L520.785,122.548L520.785,122.548L520.785,122.548L520.785,122.548
						L520.785,122.548L520.785,122.548L520.785,122.548L520.785,122.548L520.785,122.548L520.785,122.548L520.785,122.548
						L520.785,122.548L520.785,122.548L520.785,122.548L520.785,122.548L520.785,122.548L520.785,122.548L520.785,122.548
						L520.785,122.548L520.785,122.548L520.785,122.548L520.785,122.548L520.785,122.548L520.785,122.548L520.785,122.548
						L520.785,122.548L520.785,122.548L520.785,122.548L520.785,122.548L520.785,122.548L520.785,122.548L520.785,122.548
						L520.785,122.548L520.785,122.548L520.785,122.548L520.785,122.548L520.785,122.548L520.785,122.548L520.785,122.548
						L520.785,122.548L520.785,122.548L520.785,122.548L520.785,122.548L520.785,122.548L520.785,122.548L520.785,122.548
						L520.785,122.548L520.785,122.548L520.785,122.548L520.785,122.548L520.785,122.548L520.785,122.548L520.785,122.548
						L520.785,122.548L520.785,122.548L520.785,122.548L520.785,122.548L520.785,122.548L520.785,122.548L520.785,122.548
						L520.785,122.548L520.785,122.548L520.785,122.548L520.785,122.548L520.785,122.548L520.785,122.548L520.785,122.548
						L520.785,122.548L520.785,122.548L520.785,122.548L520.785,122.548L520.785,122.548L520.785,122.548L520.785,122.548
						L520.785,122.548L520.785,122.548L520.785,122.548L520.785,122.548L520.785,122.548L520.785,122.548L520.785,122.548
						L520.785,122.548L520.785,122.548L520.785,122.548L520.785,122.548L520.785,122.548L520.785,122.548L520.785,122.548
						L520.785,122.548L520.785,122.548L520.785,122.548L520.785,122.548L520.785,122.548L520.785,122.548L520.785,122.548
						L520.785,122.548L520.785,122.548L520.785,122.548L520.785,122.548L520.785,122.548L520.785,122.548L520.785,122.548
						L520.785,122.548L520.785,122.548L520.785,122.548L520.785,122.548z M520.785,122.548L520.785,122.548L520.785,122.548
						L520.785,122.548L520.785,122.548z M520.785,122.548L520.785,122.548L520.785,122.548L520.785,122.548z M520.785,122.548
						L520.785,122.548L520.785,122.548L520.785,122.548z M520.785,122.548L520.785,122.548L520.785,122.548L520.785,122.548
						L520.785,122.548L520.785,122.548L520.785,122.548L520.785,122.548z M520.785,122.548L520.785,122.548L520.785,122.548
						L520.785,122.548z M520.785,122.548L520.785,122.548L520.785,122.548z M520.785,122.548L520.785,122.548L520.785,122.548z
						 M520.785,122.548L520.785,122.548L520.785,122.548L520.785,122.548z"/>
				</g>
			</g>
		</g>
	</g>
</g>
<g>
	<path fill="#FFFFFF" d="M206.332,25.364c-3.902,0.393-25.076-0.312-28.413-0.312c-4.109,0-7.768-0.146-10.975,1.264
		c-3.21,1.414-5.907,3.306-8.087,5.681c-2.185,2.377-3.851,5.039-5.006,7.991c-1.155,2.954-1.732,5.969-1.732,9.05
		c0,4.365,0.896,7.96,2.695,10.783c1.797,2.825,4.236,5.199,7.318,7.124c3.081,1.926,6.673,3.562,10.782,4.911
		c4.106,1.348,8.472,2.665,13.093,3.947c8.6,2.311,15.276,5.521,20.026,9.627c4.747,4.11,8.212,8.314,10.397,12.613
		c2.182,4.302,3.466,8.218,3.851,11.745c0.385,3.533,0.579,5.873,0.579,7.029v0.192c0,5.521-1.06,10.782-3.178,15.788
		c-2.118,5.006-5.073,9.436-8.857,13.287c-3.789,3.851-8.313,6.931-13.576,9.242c-5.266,2.311-11.042,3.465-17.33,3.465
		c-4.621,0-9.468-0.738-14.538-2.214c-5.071-1.475-9.756-3.881-14.056-7.22c-4.303-3.338-7.895-7.703-10.783-13.093
		c-2.888-5.394-4.398-12.003-4.525-19.834h14.25c0.385,8.987,3.207,16.145,8.473,21.47c5.262,5.328,12.323,7.99,21.18,7.99
		c3.722,0,7.316-0.674,10.784-2.021c3.465-1.349,6.514-3.274,9.146-5.778c2.628-2.503,4.747-5.486,6.354-8.953
		c1.604-3.467,2.407-7.317,2.407-11.553c0-5.518-1.222-10.076-3.66-13.672c-2.439-3.592-5.327-6.513-8.664-8.76
		c-3.34-2.245-6.806-3.947-10.398-5.103c-3.595-1.156-6.613-2.119-9.05-2.889c-3.211-0.896-6.932-2.052-11.168-3.465
		c-4.237-1.411-8.279-3.466-12.131-6.162c-3.852-2.696-7.094-6.258-9.724-10.687c-2.632-4.429-3.947-10.172-3.947-17.233
		c0-5.518,1.026-10.621,3.08-15.308c2.053-4.685,4.877-8.728,8.474-12.131c3.591-3.4,7.829-6.065,12.708-7.992
		c4.876-1.924,46.854-1.179,52.503-1.179"/>
	<path fill="#FFFFFF" d="M259.559,26.701h-40.418l7.685-12.9h83.793v12.9h-36.81v129.588h-14.25V26.701z"/>
	<path fill="#FFFFFF" d="M321.175,13.801h36.201c4.746,0,8.953,0.129,12.612,0.383c3.659,0.26,6.866,0.646,9.627,1.156
		c2.76,0.514,5.166,1.093,7.22,1.732c2.054,0.644,3.915,1.35,5.585,2.118c8.088,3.726,14.346,9.213,18.775,16.465
		c4.427,7.253,6.642,15.308,6.642,24.165c0,5.135-0.933,10.205-2.792,15.212c-1.861,5.005-4.559,9.532-8.087,13.574
		c-3.532,4.044-7.927,7.383-13.189,10.013c-5.266,2.633-11.36,4.139-18.292,4.524l40.242,53.146h-17.908l-48.33-64.505
		c4.493,0,8.311-0.03,11.458-0.095c3.144-0.064,5.873-0.161,8.183-0.29c2.311-0.125,4.333-0.318,6.065-0.577
		c1.734-0.257,3.371-0.642,4.91-1.156c3.853-1.156,7.252-2.76,10.207-4.814c2.951-2.053,5.42-4.429,7.413-7.125
		c1.989-2.695,3.466-5.614,4.428-8.761c0.963-3.144,1.444-6.322,1.444-9.532c0-2.823-0.386-5.615-1.156-8.376
		c-0.769-2.758-1.828-5.358-3.177-7.798c-1.347-2.437-2.983-4.622-4.909-6.546c-1.926-1.926-4.043-3.465-6.355-4.622
		c-4.235-2.182-8.408-3.625-12.514-4.333c-4.111-0.704-9.18-1.059-15.214-1.059h-24.838v129.588h-14.25V13.801z"/>
	<path fill="#FFFFFF" d="M438.054,13.801h77.984v12.9h-63.735V77.92h61.618v12.902h-61.618v52.566h63.735v12.901h-77.984V13.801z"/>
	<path fill="#FFFFFF" d="M541.262,13.801h91.652l-6.83,12.9h-70.573v51.604h55.647l-6.831,12.902h-48.816v65.083h-14.249V13.801z"/>
	<path fill="#FFFFFF" d="M659.967,13.801h15.979l61.232,142.488h-15.597l-20.603-47.946h-66.238l-20.796,47.946h-14.827
		L659.967,13.801z M640.133,95.442h55.262l-27.342-65.468L640.133,95.442z"/>
</g>
<g>
	<path fill="#FFFFFF" d="M133.988,171.353h2.256l5.377,19.158h0.059l5.227-19.158h2.05l5.257,19.128h0.06l5.375-19.128h2.228
		l-6.297,21.979h-2.792l-4.841-18.029h-0.06l-4.812,18.029h-2.821L133.988,171.353z"/>
	<path fill="#FFFFFF" d="M164.254,171.353h12.03v1.989h-9.832v7.901h9.505v1.99h-9.505v8.108h9.832v1.99h-12.03V171.353z"/>
	<path fill="#FFFFFF" d="M180.294,171.353h5.525c1.148,0,2.123,0.122,2.926,0.37c0.801,0.248,1.47,0.565,2.004,0.951
		c0.534,0.387,0.955,0.812,1.262,1.277c0.308,0.466,0.535,0.912,0.684,1.336c0.148,0.426,0.238,0.816,0.267,1.174
		c0.029,0.356,0.045,0.603,0.045,0.743c0,0.652-0.09,1.218-0.268,1.692c-0.178,0.476-0.396,0.891-0.653,1.248
		c-0.259,0.357-0.52,0.652-0.788,0.891c-0.268,0.236-0.5,0.436-0.698,0.594c1.109,0.455,1.994,1.153,2.659,2.094
		c0.663,0.941,0.995,2.045,0.995,3.312c0,1.068-0.229,2.055-0.684,2.955c-0.454,0.9-1.069,1.609-1.841,2.125
		c-0.436,0.257-0.852,0.464-1.249,0.623c-0.396,0.158-0.806,0.282-1.232,0.371c-0.426,0.09-0.876,0.147-1.352,0.178
		c-0.475,0.03-0.99,0.045-1.544,0.045h-6.059V171.353z M182.492,180.827h2.762c0.871,0,1.584-0.034,2.139-0.104
		c0.554-0.068,1.099-0.241,1.634-0.52c0.515-0.277,0.94-0.697,1.277-1.263c0.337-0.563,0.505-1.172,0.505-1.826
		c0-0.516-0.085-0.959-0.253-1.337c-0.168-0.376-0.392-0.732-0.668-1.069c-0.437-0.495-1.006-0.847-1.708-1.054
		c-0.703-0.208-1.618-0.312-2.748-0.312h-2.94V180.827z M182.492,191.342h3.088c0.932,0,1.708-0.034,2.333-0.104
		c0.624-0.069,1.232-0.223,1.826-0.46c0.693-0.277,1.252-0.762,1.678-1.456c0.426-0.692,0.639-1.454,0.639-2.286
		c0-0.853-0.249-1.614-0.744-2.287c-0.494-0.673-1.108-1.148-1.84-1.426c-0.258-0.1-0.515-0.183-0.773-0.253
		c-0.257-0.068-0.549-0.124-0.875-0.163c-0.328-0.039-0.698-0.064-1.114-0.074c-0.417-0.01-0.921-0.015-1.516-0.015h-2.702V191.342z
		"/>
	<path fill="#FFFFFF" d="M205.57,171.353h6.417c1.365,0,2.677,0.158,3.934,0.474c1.257,0.318,2.332,0.764,3.224,1.338
		c0.97,0.594,1.771,1.287,2.405,2.079s1.144,1.609,1.529,2.45c0.386,0.842,0.659,1.674,0.817,2.495
		c0.158,0.822,0.237,1.56,0.237,2.213c0,0.515-0.064,1.153-0.192,1.916c-0.129,0.762-0.371,1.563-0.728,2.405
		c-0.356,0.843-0.861,1.684-1.515,2.525s-1.505,1.6-2.554,2.271c-0.892,0.575-1.966,1.02-3.224,1.338
		c-1.257,0.316-2.569,0.475-3.934,0.475h-6.417V171.353z M207.768,191.342h3.179c0.494,0,1.05-0.01,1.664-0.029
		c0.613-0.02,1.252-0.085,1.915-0.193c0.664-0.108,1.332-0.283,2.005-0.52c0.673-0.237,1.327-0.584,1.96-1.04
		c0.336-0.277,0.703-0.633,1.1-1.068c0.396-0.436,0.767-0.951,1.113-1.546c0.346-0.594,0.639-1.275,0.876-2.048
		c0.237-0.772,0.356-1.634,0.356-2.585c0-1.465-0.337-2.836-1.01-4.114c-0.673-1.276-1.584-2.331-2.732-3.163
		c-0.495-0.316-1-0.584-1.515-0.803c-0.515-0.217-1.06-0.391-1.633-0.519c-0.576-0.13-1.199-0.224-1.871-0.284
		c-0.674-0.059-1.416-0.088-2.228-0.088h-3.179V191.342z"/>
	<path fill="#FFFFFF" d="M227.55,171.353h12.03v1.989h-9.832v7.901h9.504v1.99h-9.504v8.108h9.832v1.99h-12.03V171.353z"/>
	<path fill="#FFFFFF" d="M241.629,171.353h2.436l7.752,19.247l7.782-19.247h2.376l-9.118,21.979h-2.17L241.629,171.353z"/>
	<path fill="#FFFFFF" d="M264.321,171.353h12.03v1.989h-9.832v7.901h9.506v1.99h-9.506v8.108h9.832v1.99h-12.03V171.353z"/>
	<path fill="#FFFFFF" d="M280.599,171.353h2.198v19.989h9.088v1.99h-11.286V171.353z"/>
	<path fill="#FFFFFF" d="M293.162,182.461c0-1.723,0.331-3.292,0.996-4.707c0.663-1.417,1.534-2.629,2.613-3.64
		c1.079-1.009,2.317-1.787,3.713-2.331c1.396-0.544,2.827-0.817,4.292-0.817c1.544,0,3.019,0.287,4.426,0.86
		c1.405,0.576,2.643,1.372,3.712,2.393c1.07,1.02,1.92,2.223,2.554,3.607c0.634,1.388,0.951,2.892,0.951,4.516
		c0,1.625-0.317,3.129-0.951,4.515c-0.634,1.387-1.484,2.589-2.554,3.608c-1.069,1.021-2.307,1.818-3.712,2.393
		c-1.408,0.573-2.882,0.859-4.426,0.859c-1.565,0-3.05-0.295-4.457-0.89c-1.405-0.594-2.638-1.401-3.697-2.421
		c-1.06-1.02-1.9-2.212-2.525-3.579C293.474,185.461,293.162,184.006,293.162,182.461z M295.36,182.461
		c0,1.247,0.252,2.437,0.757,3.564s1.183,2.113,2.035,2.954c0.852,0.843,1.847,1.511,2.985,2.007
		c1.138,0.494,2.351,0.742,3.639,0.742c1.267,0,2.475-0.242,3.623-0.729c1.148-0.484,2.154-1.148,3.015-1.99
		c0.861-0.841,1.545-1.831,2.05-2.97c0.504-1.139,0.758-2.362,0.758-3.669c0-1.287-0.249-2.498-0.743-3.638
		c-0.494-1.139-1.173-2.14-2.034-2.999c-0.862-0.861-1.862-1.541-3-2.035c-1.139-0.496-2.361-0.744-3.668-0.744
		c-1.248,0-2.437,0.238-3.565,0.714c-1.128,0.476-2.129,1.14-2.999,1.989c-0.873,0.853-1.564,1.857-2.079,3.016
		C295.618,179.831,295.36,181.095,295.36,182.461z"/>
	<path fill="#FFFFFF" d="M319.924,171.353h6.119c0.752,0,1.417,0.03,1.99,0.089c0.575,0.06,1.084,0.144,1.529,0.253
		c0.446,0.108,0.841,0.242,1.188,0.4c0.346,0.158,0.669,0.337,0.966,0.536c0.831,0.553,1.495,1.28,1.99,2.182
		c0.495,0.9,0.742,1.937,0.742,3.104c0,1.17-0.248,2.203-0.742,3.104c-0.495,0.901-1.159,1.629-1.99,2.183
		c-0.297,0.198-0.62,0.377-0.966,0.535c-0.347,0.158-0.742,0.292-1.188,0.402c-0.445,0.107-0.955,0.191-1.529,0.251
		c-0.574,0.061-1.238,0.089-1.99,0.089h-3.921v8.852h-2.198V171.353z M322.122,182.49h3.179c0.594,0,1.094-0.005,1.5-0.015
		c0.404-0.01,0.771-0.03,1.099-0.06c0.326-0.029,0.628-0.084,0.905-0.164c0.277-0.078,0.575-0.188,0.892-0.326
		c0.871-0.396,1.514-0.954,1.93-1.678c0.416-0.723,0.624-1.5,0.624-2.332s-0.208-1.609-0.624-2.331
		c-0.416-0.722-1.06-1.282-1.93-1.68c-0.317-0.138-0.615-0.246-0.892-0.325c-0.277-0.079-0.579-0.134-0.905-0.162
		c-0.328-0.03-0.695-0.051-1.099-0.061c-0.406-0.011-0.906-0.016-1.5-0.016h-3.179V182.49z"/>
	<path fill="#FFFFFF" d="M337.538,171.353h3.385l7.991,18.713l8.02-18.713h3.385v21.979h-2.198v-19.574h-0.059l-8.228,19.574h-1.871
		l-8.169-19.574h-0.059v19.574h-2.198V171.353z"/>
	<path fill="#FFFFFF" d="M364.655,171.353h12.03v1.989h-9.832v7.901h9.504v1.99h-9.504v8.108h9.832v1.99h-12.03V171.353z"/>
	<path fill="#FFFFFF" d="M380.725,171.353h2.971l12.266,18.237h0.061v-18.237h2.197v21.979h-2.197l-13.039-19.336h-0.06v19.336
		h-2.198V171.353z"/>
	<path fill="#FFFFFF" d="M405.704,173.342h-5.05v-1.989h12.268v1.989h-5.02v19.99h-2.198V173.342z"/>
	<path fill="#FFFFFF" d="M441.733,179.016l-4.069,7.753l5.555,5.404l-1.575,1.516l-5.02-4.9c-0.198,0.355-0.466,0.817-0.802,1.38
		c-0.336,0.564-0.768,1.105-1.292,1.62s-1.163,0.96-1.917,1.336c-0.752,0.376-1.644,0.564-2.672,0.564
		c-1.05,0-2.001-0.192-2.852-0.579c-0.852-0.386-1.579-0.896-2.184-1.53c-0.604-0.634-1.069-1.351-1.395-2.153
		c-0.328-0.802-0.492-1.619-0.492-2.45c0-0.851,0.145-1.618,0.432-2.302s0.668-1.292,1.143-1.826
		c0.477-0.535,1.021-0.995,1.635-1.383c0.613-0.385,1.236-0.727,1.871-1.023c-0.277-0.277-0.561-0.574-0.846-0.893
		c-0.287-0.314-0.551-0.656-0.787-1.023c-0.238-0.365-0.437-0.771-0.596-1.218c-0.158-0.445-0.237-0.936-0.237-1.471
		c0-0.692,0.144-1.336,0.431-1.932c0.287-0.593,0.674-1.106,1.158-1.544c0.486-0.435,1.051-0.776,1.693-1.023
		c0.644-0.249,1.312-0.372,2.006-0.372c0.672,0,1.326,0.13,1.96,0.387c0.633,0.257,1.192,0.618,1.679,1.084
		c0.484,0.465,0.876,1.01,1.173,1.634c0.297,0.623,0.445,1.301,0.445,2.033c0,0.773-0.168,1.451-0.505,2.035
		c-0.336,0.585-0.736,1.08-1.203,1.485c-0.465,0.406-0.94,0.728-1.426,0.966c-0.485,0.237-0.866,0.405-1.143,0.505l4.158,4.099
		l3.207-6.178H441.733z M429.674,182.016c-0.277,0.098-0.639,0.263-1.084,0.49s-0.807,0.439-1.084,0.639
		c-0.932,0.691-1.544,1.371-1.842,2.034c-0.297,0.664-0.446,1.302-0.446,1.917c0,0.672,0.134,1.285,0.401,1.84
		s0.613,1.03,1.039,1.427s0.911,0.702,1.457,0.921c0.544,0.218,1.093,0.326,1.648,0.326c0.731,0,1.381-0.153,1.945-0.461
		c0.564-0.307,1.049-0.684,1.455-1.128c0.405-0.445,0.752-0.921,1.039-1.427c0.287-0.504,0.541-0.965,0.758-1.381L429.674,182.016z
		 M433.98,175.807c0-0.355-0.074-0.697-0.223-1.024c-0.148-0.326-0.361-0.618-0.639-0.877c-0.277-0.257-0.604-0.464-0.979-0.622
		c-0.377-0.159-0.793-0.238-1.247-0.238c-0.932,0.041-1.675,0.337-2.228,0.891c-0.556,0.556-0.833,1.18-0.833,1.871
		c0.02,0.754,0.287,1.431,0.803,2.035c0.514,0.604,1.078,1.174,1.691,1.707c0.258-0.098,0.596-0.23,1.012-0.399
		c0.414-0.169,0.822-0.392,1.218-0.669s0.731-0.619,1.009-1.025c0.277-0.404,0.416-0.895,0.416-1.47v-0.089V175.807z"/>
	<path fill="#FFFFFF" d="M454.327,171.353h3.386l7.991,18.713l8.019-18.713h3.386v21.979h-2.198v-19.574h-0.059l-8.229,19.574
		h-1.871l-8.168-19.574h-0.06v19.574h-2.197V171.353z"/>
	<path fill="#FFFFFF" d="M483.792,171.353v13.692c0,0.812,0.059,1.564,0.179,2.258c0.118,0.693,0.307,1.267,0.563,1.723
		c0.337,0.613,0.714,1.1,1.129,1.455s0.831,0.629,1.247,0.817c0.417,0.188,0.817,0.307,1.203,0.355
		c0.387,0.05,0.708,0.075,0.966,0.075c0.257,0,0.579-0.025,0.966-0.075c0.386-0.049,0.787-0.167,1.203-0.355
		c0.415-0.188,0.83-0.462,1.246-0.817s0.793-0.842,1.129-1.455c0.258-0.456,0.445-1.029,0.565-1.723
		c0.118-0.693,0.177-1.445,0.177-2.258v-13.692h2.198v13.692c0,1.842-0.276,3.366-0.831,4.574c-0.376,0.831-0.843,1.51-1.396,2.034
		c-0.555,0.526-1.134,0.941-1.737,1.247c-0.604,0.309-1.213,0.521-1.827,0.64c-0.613,0.119-1.178,0.177-1.692,0.177
		c-0.516,0-1.08-0.058-1.693-0.177c-0.614-0.118-1.229-0.331-1.841-0.64c-0.615-0.306-1.193-0.721-1.738-1.247
		c-0.545-0.524-1.005-1.203-1.381-2.034c-0.555-1.208-0.832-2.732-0.832-4.574v-13.692H483.792z"/>
	<path fill="#FFFFFF" d="M501.257,171.353h2.198v19.989h9.089v1.99h-11.287V171.353z"/>
	<path fill="#FFFFFF" d="M516.406,173.342h-5.05v-1.989h12.268v1.989h-5.021v19.99h-2.197V173.342z"/>
	<path fill="#FFFFFF" d="M526.089,171.353h2.197v21.979h-2.197V171.353z"/>
	<path fill="#FFFFFF" d="M532.802,171.353h3.386l7.99,18.713l8.02-18.713h3.386v21.979h-2.198v-19.574h-0.059l-8.228,19.574h-1.871
		l-8.169-19.574H535v19.574h-2.198V171.353z"/>
	<path fill="#FFFFFF" d="M559.92,171.353h12.029v1.989h-9.832v7.901h9.505v1.99h-9.505v8.108h9.832v1.99H559.92V171.353z"/>
	<path fill="#FFFFFF" d="M575.959,171.353h6.416c1.366,0,2.678,0.158,3.936,0.474c1.257,0.318,2.332,0.764,3.224,1.338
		c0.97,0.594,1.771,1.287,2.405,2.079c0.633,0.792,1.144,1.609,1.53,2.45c0.385,0.842,0.657,1.674,0.816,2.495
		c0.158,0.822,0.237,1.56,0.237,2.213c0,0.515-0.064,1.153-0.193,1.916c-0.129,0.762-0.37,1.563-0.728,2.405
		c-0.355,0.843-0.861,1.684-1.515,2.525c-0.654,0.842-1.505,1.6-2.554,2.271c-0.892,0.575-1.967,1.02-3.224,1.338
		c-1.258,0.316-2.569,0.475-3.936,0.475h-6.416V171.353z M578.157,191.342h3.179c0.494,0,1.05-0.01,1.663-0.029
		s1.252-0.085,1.915-0.193c0.664-0.108,1.332-0.283,2.006-0.52c0.673-0.237,1.325-0.584,1.96-1.04
		c0.336-0.277,0.703-0.633,1.1-1.068c0.395-0.436,0.767-0.951,1.113-1.546c0.347-0.594,0.639-1.275,0.877-2.048
		c0.237-0.772,0.355-1.634,0.355-2.585c0-1.465-0.337-2.836-1.01-4.114c-0.673-1.276-1.584-2.331-2.732-3.163
		c-0.495-0.316-1-0.584-1.515-0.803c-0.515-0.217-1.06-0.391-1.634-0.519c-0.575-0.13-1.199-0.224-1.872-0.284
		c-0.673-0.059-1.415-0.088-2.227-0.088h-3.179V191.342z"/>
	<path fill="#FFFFFF" d="M598.117,171.353h2.198v21.979h-2.198V171.353z"/>
	<path fill="#FFFFFF" d="M612.313,171.353h2.466l9.446,21.979h-2.406l-3.179-7.396h-10.218l-3.207,7.396h-2.287L612.313,171.353z
		 M609.255,183.947h8.524l-4.217-10.1L609.255,183.947z"/>
	<path fill="#FFFFFF" d="M634.978,171.353h6.416c1.366,0,2.678,0.158,3.935,0.474c1.257,0.318,2.333,0.764,3.224,1.338
		c0.969,0.594,1.771,1.287,2.406,2.079c0.633,0.792,1.142,1.609,1.529,2.45c0.386,0.842,0.657,1.674,0.816,2.495
		c0.158,0.822,0.237,1.56,0.237,2.213c0,0.515-0.064,1.153-0.192,1.916c-0.13,0.762-0.371,1.563-0.729,2.405
		c-0.355,0.843-0.861,1.684-1.514,2.525c-0.654,0.842-1.506,1.6-2.555,2.271c-0.891,0.575-1.967,1.02-3.224,1.338
		c-1.257,0.316-2.568,0.475-3.935,0.475h-6.416V171.353z M637.176,191.342h3.177c0.495,0,1.051-0.01,1.665-0.029
		c0.612-0.02,1.251-0.085,1.914-0.193c0.665-0.108,1.332-0.283,2.007-0.52c0.673-0.237,1.325-0.584,1.959-1.04
		c0.337-0.277,0.703-0.633,1.099-1.068c0.396-0.436,0.768-0.951,1.114-1.546c0.346-0.594,0.639-1.275,0.877-2.048
		c0.237-0.772,0.355-1.634,0.355-2.585c0-1.465-0.336-2.836-1.009-4.114c-0.674-1.276-1.585-2.331-2.733-3.163
		c-0.494-0.316-1-0.584-1.515-0.803c-0.515-0.217-1.061-0.391-1.633-0.519c-0.575-0.13-1.199-0.224-1.872-0.284
		c-0.674-0.059-1.416-0.088-2.229-0.088h-3.177V191.342z"/>
	<path fill="#FFFFFF" d="M656.955,171.353h12.031v1.989h-9.832v7.901h9.506v1.99h-9.506v8.108h9.832v1.99h-12.031V171.353z"/>
	<path fill="#FFFFFF" d="M673.649,187.184c0.061,1.386,0.494,2.49,1.307,3.312c0.812,0.823,1.9,1.233,3.268,1.233
		c0.574,0,1.129-0.104,1.663-0.312c0.535-0.209,1.005-0.504,1.411-0.891c0.405-0.387,0.732-0.847,0.98-1.382
		c0.247-0.534,0.371-1.129,0.371-1.781c0-0.853-0.188-1.554-0.564-2.109c-0.377-0.554-0.822-1.005-1.337-1.351
		c-0.516-0.348-1.049-0.609-1.604-0.788s-1.02-0.327-1.396-0.445c-0.495-0.138-1.069-0.316-1.722-0.535
		c-0.654-0.218-1.278-0.534-1.871-0.95c-0.596-0.416-1.096-0.965-1.501-1.648c-0.406-0.684-0.609-1.568-0.609-2.658
		c0-0.852,0.159-1.639,0.476-2.361c0.316-0.724,0.752-1.346,1.307-1.873c0.555-0.523,1.208-0.936,1.961-1.232
		c0.752-0.296,1.563-0.444,2.436-0.444c0.891,0,1.712,0.158,2.466,0.476c0.751,0.316,1.396,0.753,1.931,1.306
		c0.534,0.557,0.95,1.193,1.247,1.917c0.297,0.723,0.445,1.479,0.445,2.271h-2.198c0-0.554-0.104-1.073-0.312-1.559
		c-0.208-0.486-0.489-0.906-0.847-1.263c-0.356-0.356-0.772-0.639-1.247-0.847c-0.477-0.207-0.971-0.312-1.485-0.312
		c-0.635,0-1.198,0.109-1.693,0.328c-0.495,0.218-0.911,0.509-1.247,0.876c-0.337,0.366-0.594,0.777-0.772,1.232
		c-0.179,0.456-0.268,0.921-0.268,1.396c0,0.674,0.139,1.229,0.415,1.663c0.278,0.437,0.654,0.802,1.13,1.099
		c0.475,0.299,1.029,0.551,1.664,0.758c0.633,0.208,1.307,0.411,2.019,0.61c1.326,0.354,2.356,0.852,3.09,1.484
		c0.731,0.635,1.267,1.282,1.604,1.945c0.336,0.664,0.534,1.268,0.595,1.812c0.059,0.545,0.088,0.906,0.088,1.086v0.027
		c0,0.853-0.163,1.664-0.49,2.438c-0.326,0.771-0.782,1.455-1.365,2.049c-0.585,0.594-1.283,1.069-2.094,1.426
		c-0.812,0.356-1.704,0.533-2.674,0.533c-0.713,0-1.461-0.113-2.242-0.341c-0.783-0.228-1.506-0.599-2.169-1.112
		c-0.664-0.516-1.218-1.189-1.664-2.021c-0.445-0.831-0.679-1.852-0.697-3.059H673.649z"/>
	<path fill="#FFFFFF" d="M687.847,171.353h2.198v21.979h-2.198V171.353z"/>
	<path fill="#FFFFFF" d="M716.896,183.233c-0.118,1.644-0.538,3.109-1.262,4.396c-0.723,1.287-1.625,2.387-2.703,3.297
		c-1.08,0.912-2.287,1.604-3.623,2.08c-1.338,0.475-2.679,0.711-4.025,0.711c-1.645,0-3.183-0.306-4.619-0.92
		c-1.436-0.613-2.683-1.444-3.742-2.495c-1.06-1.049-1.896-2.257-2.51-3.623c-0.614-1.366-0.921-2.812-0.921-4.337
		c0-1.425,0.282-2.821,0.847-4.188c0.565-1.366,1.361-2.578,2.392-3.638c1.028-1.06,2.266-1.916,3.712-2.569
		c1.445-0.653,3.049-0.98,4.812-0.98c1.445,0,2.763,0.224,3.951,0.669c1.188,0.445,2.222,0.985,3.104,1.618
		c0.881,0.634,1.604,1.312,2.168,2.034c0.564,0.724,0.955,1.361,1.174,1.917h-2.555c-0.317-0.536-0.728-1.061-1.232-1.575
		c-0.505-0.514-1.094-0.97-1.767-1.366c-0.674-0.396-1.417-0.712-2.229-0.95c-0.812-0.237-1.673-0.357-2.584-0.357
		c-1.387,0-2.669,0.264-3.847,0.787c-1.179,0.526-2.193,1.225-3.045,2.095c-0.852,0.872-1.514,1.872-1.99,3
		c-0.475,1.129-0.713,2.308-0.713,3.534c0,1.229,0.238,2.406,0.713,3.535c0.477,1.129,1.144,2.125,2.006,2.984
		c0.861,0.863,1.886,1.55,3.074,2.064c1.188,0.516,2.484,0.773,3.892,0.773c1.167,0,2.251-0.193,3.252-0.58
		c0.999-0.387,1.886-0.89,2.658-1.516c0.772-0.623,1.41-1.321,1.916-2.093c0.505-0.771,0.856-1.544,1.054-2.317h-12.267v-1.989
		H716.896z"/>
	<path fill="#FFFFFF" d="M720.431,171.353h2.97l12.268,18.237h0.06v-18.237h2.197v21.979h-2.197l-13.041-19.336h-0.058v19.336
		h-2.198V171.353z"/>
</g>
<g>
	<radialGradient id="SVGID_1_" cx="124" cy="132" r="191.9427" gradientUnits="userSpaceOnUse">
		<stop  offset="0" style="stop-color:#FF1924"/>
		<stop  offset="1" style="stop-color:#CE242C"/>
	</radialGradient>
	<path fill="url(#SVGID_1_)" d="M11.021,176.305l64.253-61.781c5.271-5.104,10.047-9.799,14.332-14.086
		c4.283-4.282,7.909-8.482,10.874-12.603c2.966-4.115,5.271-8.235,6.92-12.356c1.645-4.115,2.472-8.563,2.472-13.343
		c0-4.61-0.951-9.269-2.843-13.962c-1.896-4.696-4.572-8.856-8.031-12.48c-3.461-3.623-7.624-6.588-12.48-8.896
		c-4.862-2.307-10.255-3.46-16.186-3.46c-0.495,0-1.854,0.085-4.078,0.248c-2.225,0.167-4.782,0.702-7.661,1.606
		c-2.886,0.908-5.975,2.268-9.267,4.078c-3.298,1.814-6.302,4.409-9.021,7.784c-2.718,3.379-4.985,7.661-6.795,12.851
		c-1.815,5.188-2.718,11.575-2.718,19.152H12.504V68.56c0-11.862,1.934-21.787,5.806-29.779c3.871-7.989,8.774-14.332,14.705-19.027
		c5.931-4.696,12.313-8.032,19.152-10.01c6.834-1.977,13.221-2.964,19.152-2.964c9.391,0,17.625,1.771,24.711,5.312
		c7.083,3.544,13.014,8.074,17.793,13.591c4.776,5.522,8.36,11.534,10.75,18.04c2.386,6.511,3.583,12.727,3.583,18.659
		c0,5.437-0.702,10.464-2.101,15.075c-1.401,4.613-3.458,9.229-6.177,13.84c-2.718,4.612-6.221,9.227-10.503,13.837
		c-4.287,4.613-9.229,9.639-14.828,15.075L41.71,171.182h85.459v21.68H11.021V176.305z"/>
</g>
</svg>
