<?xml version="1.0" encoding="utf-8"?>
<!-- Generator: Adobe Illustrator 14.0.0, SVG Export Plug-In . SVG Version: 6.00 Build 43363)  -->
<!DOCTYPE svg PUBLIC "-//W3C//DTD SVG 1.1//EN" "http://www.w3.org/Graphics/SVG/1.1/DTD/svg11.dtd">
<svg version="1.1" id="Layer_1" xmlns="http://www.w3.org/2000/svg" xmlns:xlink="http://www.w3.org/1999/xlink" x="0px" y="0px"
	 width="800px" height="750px" viewBox="0 0 800 750" enable-background="new 0 0 800 750" xml:space="preserve">
<path fill="#9BA4BC" d="M470.203,344.723c0,0,4.678-14.813,7.018-17.932c2.338-3.119,37.423-28.848,42.881-72.508
	c0.588-4.706-42.102-85.761-188.676-35.864c-7.381,2.512-26.509,3.899-43.271-5.456c-1.926-1.075,6.237,17.932,6.237,17.932
	s-7.017,6.237-37.423,5.067c-3.116-0.119,2.729,7.017,20.661,13.255c2.604,0.905-31.186,11.695-52.236,11.304
	c-4.679,5.848,23.779,20.662,23.779,20.662S211.359,387.215,297.9,481.552c2.429,2.649,12.864-37.813,52.237-47.948
	c0.39-4.678-0.39-11.695,8.966-17.152c0,0,1.949-20.271,31.576-26.898c3.423-0.766,12.864-8.965,17.151-15.592
	c2.34-2.339,11.695,12.864,43.271-4.288C463.187,358.757,470.203,344.723,470.203,344.723z"/>
<path fill="#CBD9E0" d="M359.103,416.451c-2.437,1.365-18.81,14.521-1.56,35.863c3.125,3.865,12.865,11.695,23.975,6.141
	s18.711-10.818,15.788-35.961c-0.502-4.317-7.602-4.678-7.602-4.678S381.518,425.417,359.103,416.451z"/>
<path fill="#CBD9E0" d="M390.873,418.4c1.462,0.877,33.037,13.449,59.352-11.402c4.666-4.408,11.402-19.881-0.293-35.084
	c0,0-19.004,11.11-41.809,3.217c-2.338,2.923-5.262,6.139-16.08,11.11c-2.631,0.877,16.373,9.939,2.631,27.482
	C393.52,415.196,390.873,418.4,390.873,418.4z"/>
<path fill="#F59183" d="M364.561,404.367c-1.462,1.461-7.894,9.939-1.462,12.864c6.433,2.923,15.496,5.847,26.606,0.585
	c4.704-2.229,14.325-10.234,7.309-24.268c-2.404-4.807-14.034-2.631-20.173,0.877C370.7,397.935,364.561,404.367,364.561,404.367z"
	/>
<path fill="#C07369" d="M397.013,393.549c-2.404-4.807-14.034-2.631-20.173,0.877c-6.14,3.509-12.279,9.941-12.279,9.941
	c-0.65,0.649-2.278,2.682-3.325,4.998c1.902-1.561,4.072-3.17,6.248-4.414c6.14-3.508,17.77-5.685,20.173-0.877
	c2.774,5.548,2.942,10.148,1.848,13.828c0.067-0.031,0.131-0.055,0.199-0.086C394.408,415.588,404.029,407.582,397.013,393.549z"/>
<path fill="#FFFFFF" d="M393.505,452.314l40.64,23.391c0,0,19.588-3.51,21.05-4.678c1.462-1.17,7.31-22.805,6.725-24.56
	s-20.758-30.991-20.758-30.991s-21.636,10.525-44.148,5.262C401.691,439.158,393.505,452.314,393.505,452.314z"/>
<path fill="#B0BAD4" d="M451.102,369.672c1.17-0.39,20.271-14.812,24.559-41.711c0.605-3.791,38.983-23.389,44.441-73.678
	c0.168-1.549,4.287-6.626,3.117-14.033c0-2.729,18.322,7.017,24.56,35.085c0.849,3.823,9.745-18.322,20.271-21.832
	c2.729-2.728-5.457,8.578,3.119,36.644c1.169,2.339,2.338-5.457,12.475-10.135c2.338-2.339-4.678,10.915,1.559,26.508
	c0.391,3.118,7.406-4.288,15.982-4.679c2.34,0-6.236,3.899-10.524,22.221c-0.39,1.949,8.576-1.17,27.287,0
	c2.461,0.154-16.763,13.254-22.999,30.406c0.779,5.067,11.694,71.339-64.711,115c-4.09,2.336-22.22,55.354-77.965,41.71
	c0,0-21.373,18.28-44.051,24.95c-13.253,3.896-43.27,7.016-60.033,26.507c-2.157,2.508-7.407-12.475-11.695-12.085
	c-4.288,0.391-13.253,7.797-13.253,7.797s-3.508-21.051-9.355-26.897c-2.372-2.372-17.932,4.288-17.932,4.288
	s8.576-15.203,10.524-29.627c0.262-1.932-10.915,3.898-21.83,3.898c-2.372,0,7.407-5.848,8.967-12.475
	c0-1.17-11.695-3.898-12.864-5.068c-1.17-1.169,10.135,0.78,17.931-5.847c0.39-1.169,1.17-5.458,1.95-7.407
	s15.203-40.151,49.508-45.609c3.549-0.564-2.339,30.406,31.381,24.852c4.873-1.072,20.076-6.141,15.788-35.961
	c-0.624-4.336,19.491,6.432,44.83-8.382c4.577-2.676,21.83-12.475,10.136-39.762L451.102,369.672z"/>
<path fill="#CBD9E0" d="M548.168,458.748c1.754,2.338,73.093,41.516,56.719,162.557c-1.354,10.002-23.974,80.109-123.963,64.905
	c-7.151-1.087-43.855-34.499-29.238-77.185c1.788-5.219-28.066-9.356-30.99-52.627c0.584,0.585-11.695-3.508-12.475-20.27
	c-0.173-3.721,25.924-3.705,39.957-23.586c2.924-4.092,57.305,16.957,79.524-40.932
	C534.719,468.104,548.168,458.748,548.168,458.748z"/>
<path fill="#9BA4BC" d="M596.116,358.173c1.755-0.585,16.373-8.187,30.991-2.924c2.807,1.011,5.848-14.033,16.957-21.635
	c11.11-7.602,49.703-39.178,35.085-73.093c-1.755-3.508-11.694-8.186-14.034-15.203c-2.339-7.016-7.016-24.559,3.508-29.237
	c10.526-4.678,24.66,0.159,30.407,16.958c7.602,22.221,1.169,66.076,0.585,73.092c-0.585,7.017,1.169,55.55,2.923,63.736
	c1.755,8.187,2.925,39.762,1.755,41.517c-1.17,1.754,62.566,62.567,39.762,183.022c-2.754,14.545-8.186,39.178,29.822,62.567
	c4.93,3.034,17.541,18.712-4.679,28.067c-4.968,2.092-24.559-1.754-29.821-1.17c-5.262,0.585-10.525,1.17-10.525-7.602
	s-2.964-25.569-23.975-30.99c-18.126-4.679-23.389,4.092-23.389,4.092s-112.854,105.254-202.319,34.5
	c18.126,5.263,121.626,18.713,128.058-84.202c0,0,6.433-102.329-61.397-138.583c-4.253-2.272,40.347-16.957,50.872-92.388
	C596.116,365.774,596.116,358.173,596.116,358.173z"/>
<path fill="#C1D0D8" d="M407.83,373.96c2.34-1.949,24.56-20.271-1.947-88.881c-2.089-5.404,50.677-2.728,58.473,39.763
	c2.191,11.942,5.941,45.738-35.475,53.407C418.355,380.198,407.83,373.96,407.83,373.96z"/>
<path fill="#FFFFFF" d="M407.83,373.96c2.34-1.949,17.738-17.737,6.629-67.439c-1.266-5.655,32.744-14.423,40.541,28.067
	c2.191,11.942-0.391,34.694-26.119,43.661C418.773,381.771,407.83,373.96,407.83,373.96z"/>
<path fill="#C1D0D8" d="M354.035,409.436c1.56,0.389,6.628,5.457,5.068,7.016c-1.56,1.561-8.187,8.187-9.356,15.594
	c0,2.338-11.305,3.508-26.898,13.253c-1.559,2.339-23-8.186-21.831-38.981c0.148-3.915,19.044,5.914,30.017,6.236
	C344.289,412.943,354.035,409.436,354.035,409.436z"/>
<path fill="#FFFFFF" d="M349.065,417.523c3.779,0.629-2.826,6.335,0.682,14.521c0,2.338-11.305,3.508-26.898,13.253
	c-1.559,2.339-23-8.186-21.831-38.981C327.137,421.908,341.463,416.256,349.065,417.523z"/>
<path fill="#FFFFFF" d="M393.797,450.756c0,0,38.982,25.339,40.347,24.949c1.363-0.391,20.465-4.288,21.05-4.678
	c0.585-0.391,7.407-23,6.725-24.56s-20.758-30.991-20.758-30.991s-25.923,11.11-44.635,4.482
	C401.594,438.281,393.797,450.756,393.797,450.756z"/>
<path fill="#9BA4BC" d="M409.779,546.653c-1.949,3.118-13.643,19.101-35.083,26.897c-10.316,3.752-32.355-4.287-35.474-5.848
	c-3.119-1.559-11.695-2.338-14.034,2.34c-2.339,4.678-7.796,8.576-10.525,11.694c-2.729,3.118-9.746,17.933,5.457,22.22
	c15.203,4.289,26.119-2.729,30.407-5.457c4.288-2.729,22.609-12.085,32.745-11.305c10.136,0.779,31.576,3.508,43.271-1.561
	c0.779-3.508-5.457-26.118-5.848-29.236C414.458,554.449,409.779,546.653,409.779,546.653z"/>
<path fill="#9BA4BC" d="M458.508,663.211c-0.779,1.949-11.693,15.202-14.812,18.322c-3.119,3.118-17.543,6.236-20.271,12.863
	s-5.847,15.982,2.729,20.271c8.576,4.287,20.271,1.949,23,0s11.306-5.459,15.594-5.068c4.287,0.391,24.947,3.898,30.406-10.914
	C465.135,679.973,458.508,663.211,458.508,663.211z"/>
<path fill="#CBD9E0" d="M750.486,547.043c3.119-0.39,15.204,1.949,14.814,21.83c-0.041,2.1,17.542,6.236,9.355,30.406
	c-0.79,2.336,20.271,9.746,4.289,36.254c-2.904,4.814-11.695,12.864-22.221,8.576c-1.531-0.625-21.051-12.864-11.305-59.254
	C747.385,575.503,750.486,547.043,750.486,547.043z"/>
<g>
	<path fill="#A8BCC8" d="M774.656,599.279c8.187-24.17-9.396-28.307-9.355-30.406c0.39-19.881-11.695-22.22-14.814-21.83
		c0,0-3.102,28.46-5.066,37.812c-0.229,1.088-0.426,2.139-0.623,3.189c4.2,2.896,14.205,9.392,7.641,28.777
		c-0.707,2.084,15.968,8.221,8.211,28.354c8.742,1.224,15.763-5.441,18.297-9.644C794.928,609.025,773.866,601.615,774.656,599.279z
		"/>
	<path fill="#A8BCC8" d="M762.762,645.908L762.762,645.908c-0.73,0-1.469-0.051-2.194-0.152l-0.729-0.102l0.264-0.688
		c5.746-14.91-2.271-21.969-6.125-25.359c-1.49-1.312-2.389-2.103-2.094-2.973c6.318-18.655-2.818-24.943-7.21-27.965l-0.521-0.359
		l0.07-0.375c0.197-1.055,0.396-2.107,0.625-3.199c1.937-9.218,5.027-37.473,5.059-37.757l0.05-0.46l0.459-0.057
		c0.212-0.026,0.46-0.043,0.741-0.043c2.441,0,6.121,1.091,9.121,4.15c3.883,3.958,5.769,10.12,5.607,18.314
		c0.086,0.188,0.926,0.766,1.665,1.275c4.269,2.937,14.263,9.814,7.661,29.307c0.061,0.225,1.004,1.053,1.761,1.718
		c4.571,4.015,15.277,13.415,2.474,34.65C777.344,639.319,771.152,645.908,762.762,645.908L762.762,645.908z M761.458,644.682
		c0.435,0.038,0.87,0.059,1.303,0.059c7.87,0,13.7-6.22,15.683-9.509c12.299-20.399,2.478-29.022-2.243-33.169
		c-1.491-1.309-2.392-2.1-2.097-2.971c6.317-18.654-2.823-24.945-7.217-27.969c-1.408-0.969-2.186-1.504-2.17-2.262
		c0.153-7.868-1.621-13.746-5.273-17.473c-3.547-3.615-7.525-3.799-8.287-3.799c-0.049,0-0.096,0-0.142,0.002
		c-0.42,3.802-3.216,28.783-5.022,37.385c-0.201,0.954-0.377,1.881-0.551,2.803c4.324,2.977,14.097,9.897,7.549,29.229
		c0.062,0.226,1.002,1.055,1.76,1.72C758.739,622.242,766.979,629.494,761.458,644.682L761.458,644.682z"/>
</g>
<g>
	<path fill="#A8BCC8" d="M674.471,655.414c-2.674,1.783,3.898,15.594,22.221,11.695c3.756-0.8,14.424,8.186,28.457-6.627
		c3.127-3.302-17.137-16.266-21.83-16.373C686.166,643.719,675.641,654.634,674.471,655.414z"/>
	<path fill="#A8BCC8" d="M708.219,669.67L708.219,669.67c-3.121,0-5.74-0.748-7.844-1.35c-1.532-0.436-2.841-0.791-3.562-0.64
		c-2.191,0.466-4.325,0.703-6.34,0.703c-10.178,0-15.684-5.978-16.9-9.995c-0.492-1.627-0.283-2.89,0.574-3.461
		c0.118-0.078,0.336-0.271,0.655-0.546c8.376-7.21,17.67-10.868,27.62-10.868c0.301,0,0.605,0.004,0.91,0.012
		c4.446,0.1,20.496,10.253,22.482,15.021c0.499,1.196,0.145,1.931-0.241,2.338C719.973,666.795,714.295,669.67,708.219,669.67
		L708.219,669.67z M697.229,666.473c0.935,0,2.053,0.318,3.467,0.724c2.035,0.581,4.565,1.305,7.523,1.305
		c5.738,0,11.137-2.755,16.506-8.421c0.088-0.094,0.32-0.34,0.011-1.084c-1.829-4.391-17.315-14.209-21.431-14.303
		c-0.296-0.006-0.591-0.01-0.883-0.01c-9.663,0-18.699,3.561-26.857,10.586c-0.373,0.32-0.631,0.539-0.77,0.631
		c-0.312,0.209-0.465,0.954-0.104,2.15c1.117,3.684,6.24,9.164,15.781,9.164c1.934,0,3.984-0.229,6.097-0.679
		C696.771,666.494,696.992,666.473,697.229,666.473L697.229,666.473z"/>
</g>
<path fill="#9BA4BC" d="M417.967,199.709c-3.118-0.781-49.897-34.306-138.777-139.558C271.332,50.847,211.36-3,182.513,12.593
	c-28.847,15.593-17.153,50.677-3.119,66.27c14.033,15.594,93.559,67.829,106.033,75.626c12.474,7.797,53.796,35.864,45.999,63.931
	c1.559,0.781,30.406-10.134,39.762-12.474C380.544,203.607,417.967,199.709,417.967,199.709z"/>
<path fill="#9BA4BC" d="M260.477,235.962c-1.754-0.584-72.507-30.991-165.48-87.71c-7.147-4.361-54.966-24.559-72.508-12.279
	s-22.805,39.762-0.584,62.567c10.68,10.961,61.397,36.253,92.973,42.101c11.557,2.141,76.016,15.788,124.55,78.355
	c2.339-2.339,8.966-35.278,9.746-37.812c0.779-2.535-16.179-8.382-23.779-20.662c-2.339-1.169,31.576-1.169,50.287-9.94
	c2.339-1.755-11.694-4.093-18.711-11.11C254.045,236.547,260.477,235.962,260.477,235.962z"/>
<path fill="#5C6272" d="M387.95,201.463c0,0-66.076-50.288-79.524-71.923c-3.282-5.28-60.812-81.864-85.372-70.168
	c-15.882,7.563-6.432,22.22-2.339,26.312c4.094,4.094,81.279,66.661,86.542,70.169c5.262,3.509,38.007,32.746,40.932,57.89
	C366.314,206.725,387.95,201.463,387.95,201.463z"/>
<path fill="#3E424F" d="M318.951,152.93c-5.262-3.508-82.448-66.076-86.541-70.168c-3.768-3.768-12.058-16.483-0.968-24.379
	c-3.072-0.461-5.901-0.195-8.388,0.989c-15.882,7.563-6.432,22.22-2.339,26.312c4.094,4.094,81.279,66.661,86.542,70.169
	c5.262,3.509,38.007,32.746,40.932,57.89c3.762-1.456,7.674-2.836,11.515-4.109C355.92,184.764,324.131,156.383,318.951,152.93z"/>
<path fill="#5C6272" d="M268.079,252.919c0,0-35.669,1.754-56.135-9.94c-20.465-11.695-94.727-67.245-113.438-65.49
	c-18.711,1.754-25.144,14.033-10.525,23.39c14.618,9.355,79.524,31.575,103.499,52.041c23.974,20.466,40.932,39.178,50.288,52.626
	c1.669,2.4,2.338-15.203,7.407-24.363c1.393-2.519-17.932-8.966-24.949-20.077C249.952,259.937,268.079,252.919,268.079,252.919z"/>
<path fill="#9099AF" d="M391.068,267.148c0,0-27.678-39.373-109.541-17.543c-13.851,3.694,19.491-19.491,42.88-25.728
	c23.39-6.237,84.203-17.932,102.135,4.678c17.932,22.609,9.355,28.067-4.678,31.187C407.83,262.859,391.068,267.148,391.068,267.148
	z"/>
<path fill="#9BA4BC" d="M459.287,365.189c28.848-41.516,110.711-16.567,70.754,75.432c4.094,2.338,71.143-17.934,63.348-97.458
	c-2.604-26.563-53.797-42.101-75.627-37.423c-21.83,4.678-40.541,21.051-40.541,21.051L459.287,365.189z"/>
<path fill="#7C8397" d="M391.068,267.148c0,0,64.126-37.618,86.932,23c2.828,7.522,5.457,32.745-12.085,62.372
	c-0.78-7.796,7.017-67.049-58.474-69.388C403.545,282.992,391.068,267.148,391.068,267.148z"/>
<path fill="#7C8397" d="M275.68,250.581c1.946-0.981,69.583-43.271,130.396-23.39c14.47,4.73,30.992,22.805,11.695,31.576
	c38.008,13.449,64.318,54.959,62.564,62.561c0,0,6.435,0.006,13.451-9.934c7.018-9.94,24.559-30.991,26.314-57.11
	c0.326-4.861-28.068-52.82-107.008-53.405c-8.207-0.061-36.839,2.339-81.668,17.541c-5.624,1.907-25.339,4.094-43.271-5.456
	c-2.625-1.399,7.992,20.075,7.992,20.075s-24.559,4.093-39.178,2.923C252.847,235.633,275.68,250.581,275.68,250.581z"/>
<path fill="#7C8397" d="M531.795,312.563c23.401,1.141,52.369,0.065,64.073,52.215c-0.163-5.568-0.76-9.258-0.921-10.309
	c6.236-17.152,25.46-30.252,22.999-30.406c-18.711-1.17-27.677,1.949-27.287,0c4.288-18.321,12.864-22.221,10.524-22.221
	c-8.576,0.391-15.592,7.797-15.982,4.679c-6.236-15.594,0.779-28.847-1.559-26.508c-10.137,4.678-11.306,12.474-12.475,10.135
	c-8.576-28.066-0.391-39.372-3.119-36.644c-10.525,3.509-19.422,25.655-20.271,21.832c-6.237-28.068-24.56-37.813-24.56-35.085
	c1.17,7.406-2.949,12.483-3.117,14.033c-5.458,50.289-43.836,69.887-44.441,73.678C479.754,325.427,507.821,311.394,531.795,312.563
	z"/>
<path fill="#5C6272" d="M406.271,281.572l-0.779-14.423c0,0,72.896-18.711,70.559,57.304c-0.288,9.351-10.136,28.067-10.136,28.067
	s7.407-67.44-53.796-68.219C408.421,284.253,406.271,281.572,406.271,281.572z"/>
<path fill="#7C8397" d="M458.703,468.688c0,0,8.771-22.805,8.771-25.143c0-2.34-14.034-28.068-14.034-28.068
	s24.56-22.805,5.847-50.288c-3.976-5.84-9.355,6.725-9.355,6.725s18.127,23.682-8.771,43.563
	c-2.351,1.738,20.758,30.991,20.758,30.991L458.703,468.688z"/>
<path fill="#7C8397" d="M530.041,440.621c0,0,61.398-19.297,62.566-89.465c0.107-6.431,21.052,73.092-62.371,118.313
	C531.211,456.992,530.041,440.621,530.041,440.621z"/>
<ellipse fill="#D1DFE6" cx="463.381" cy="501.727" rx="21.635" ry="10.231"/>
<path fill="#7C8397" d="M441.746,488.568c0,0,26.118-3.508,35.475-28.066c2.995-7.863,12.152-9.453,9.355-0.39
	C476.83,491.688,441.746,488.568,441.746,488.568z"/>
<path fill="#D1DFE6" d="M449.926,513.086c-4.353-4.887-15.709-11.543-16.373-10.88c-0.779,0.78-91.596,56.928-114.602-3.112
	c-13.166-34.359,14.964-57.553,25.935-64.345c-30.525,8.261-43.519,42.618-44.256,44.464c-0.78,1.949-1.56,6.238-1.95,7.407
	c-7.796,6.627-19.101,4.678-17.931,5.847c1.169,1.17,12.864,3.898,12.864,5.068c-1.56,6.627-11.338,12.475-8.967,12.475
	c10.915,0,22.092-5.83,21.83-3.898c-1.949,14.424-10.524,29.627-10.524,29.627s15.561-6.66,17.932-4.288
	c5.847,5.847,9.355,26.897,9.355,26.897s8.966-7.406,13.253-7.797c4.288-0.39,9.539,14.593,11.695,12.085
	c16.763-19.491,46.779-22.61,60.033-26.507C426.434,530.771,443.791,517.937,449.926,513.086z"/>
<path fill="#9BA4BC" d="M335.909,440.035c0,0,18.711,48.533,57.889,24.56c6.348-3.886,34.5,13.449,34.5,13.449l15.203-3.509
	l-12.279-1.17l-37.716-21.051c0,0-16.081,14.619-32.453,2.924c-7.672-5.479-10.135-17.542-10.915-21.635
	C349.357,429.51,335.909,440.035,335.909,440.035z"/>
<path fill="#D1DFE6" d="M322.849,445.298c-25.73-11.694-21.831-38.981-21.831-38.981s-9.358-4.678-20.273,0.779
	c-48.338-55.355-27.288-125.523-27.288-125.523s-1.56-2.339-4.286-0.39c0,0-37.813,106.032,48.728,200.369
	c1.535,1.673,6.276-13.86,19.482-28.083C321.632,448.514,324.434,445.616,322.849,445.298z"/>
<path fill="#626979" d="M507.623,290.922c0.119-0.119,0.245-0.262,0.369-0.402c5.855-10.075,11.184-22.448,12.109-36.237
	c0.326-4.861-28.068-52.82-107.008-53.405c-8.207-0.061-36.839,2.339-81.668,17.541
	C336.879,218.416,482.674,182.551,507.623,290.922z"/>
<path fill="#D1DFE6" d="M267.494,388.773c13.255-6.627,29.038,3.764,49.898,13.645c14.813,7.018,45.609,6.627,41.711-26.119
	c1.949-0.779,5.848,3.899,6.237,5.068c0.39,1.17,6.237,21.441-18.711,30.797c-6.974,2.615-29.627-3.898-44.051-6.238
	c-4.25-0.689-17.932-1.559-23.389,1.56C273.731,410.604,267.494,388.773,267.494,388.773z"/>
<path fill="#7C8397" d="M393.212,267.539c0,0,35.084,78.939-2.923,101.159c-15.963,9.332-30.407,4.093-34.5-4.678
	c-2.113-4.527,8.771,39.177,46.779,16.958c5.711-3.339,30.991-37.423,3.314-95.898C403.293,279.61,393.212,267.539,393.212,267.539z
	"/>
<path fill="#B0BAD4" d="M339.417,378.638c11.009,4.588,16.753,18.27,2.924,22.22c-20.466,5.848-46.779-21.635-72.508-16.08
	C286.498,374.253,321.874,371.329,339.417,378.638z"/>
<ellipse fill="#F5F5F6" cx="361.481" cy="436.061" rx="9.006" ry="12.355"/>
<path fill="#A5B9C4" d="M401.204,398.52c4.679-5.458,12.868-10.875,24.56-12.085c11.305-1.169,28.457,0,27.287,19.103
	c12.084-17.543-3.525-29.954-3.119-31.577c0.78-3.119-19.49,10.916-42.102,0c0,0-5.847,6.627-14.422,12.084
	c-4.288,2.729,2.144,4.482,3.605,7.504C398.475,396.57,401.204,398.52,401.204,398.52z"/>
<path fill="#F5F5F6" d="M400.522,406.413c1.169,1.169,19.296,16.958,45.317,2.046c-2.632,4.679-23.683,22.221-54.966,9.941
	C397.598,414.307,400.522,406.413,400.522,406.413z"/>
<path fill="#E9E7DC" d="M396.136,421.617l60.52,49.41c0,0,6.432-22.221,5.263-24.56s-16.958-31.868-20.758-30.991
	C423.91,426.295,396.136,421.617,396.136,421.617z"/>
<path fill="#626979" d="M617.946,324.063c-18.711-1.17-27.677,1.949-27.287,0c4.288-18.321,12.864-22.221,10.524-22.221
	c-8.576,0.391-15.592,7.797-15.982,4.679c-6.236-15.594,0.779-28.847-1.559-26.508c-10.137,4.678-11.306,12.474-12.475,10.135
	c-8.576-28.066-0.391-39.372-3.119-36.644c-10.525,3.509-19.422,25.655-20.271,21.832c-6.237-28.068-24.56-37.813-24.56-35.085
	c1.17,7.406-2.949,12.483-3.117,14.033c-1.566,14.439-5.854,26.336-11.176,36.068c8.595-1.456,74.394-10.224,83.682,60.805
	c0.281,2.142,1.145,3.24,2.383,3.597c-0.015-0.097-0.032-0.211-0.043-0.284C601.184,337.317,620.407,324.217,617.946,324.063z"/>
<path fill="#7C8397" d="M279.189,60.152C271.332,50.847,211.36-3,182.513,12.593c-15.171,8.201-19.121,21.792-17.422,35.104
	c2.998-16.783,25.218-30.037,55.624-14.054c66.204,34.799,88.881,105.838,181.854,166.65c0.39,0.255,0.732,0.65,1.143,0.993
	c8.018-0.928,14.256-1.577,14.256-1.577C414.849,198.929,368.07,165.404,279.189,60.152z"/>
<path fill="#D1DFE6" d="M346.239,209.844c-5.458-44.44-92.54-84.495-116.947-100.185c-27.289-17.542-61.203-51.457-62.373-54.575
	c0,0-0.114,0.035-0.301,0.104c2.593,9.26,7.52,17.834,12.776,23.675c14.033,15.594,93.559,67.829,106.033,75.626
	c12.474,7.797,53.796,35.864,45.999,63.931c0.565,0.283,4.719-0.973,10.224-2.796C344.298,213.403,346.404,211.187,346.239,209.844z
	"/>
<ellipse fill="#F9BFAF" cx="368.215" cy="412.699" rx="6.286" ry="4.532"/>
<path fill="#7C8397" d="M773.877,656.974c-38.008-23.39-32.576-48.022-29.822-62.567c22.805-120.455-40.932-181.269-39.762-183.022
	c1.17-1.755,0-33.33-1.755-41.517c-1.754-8.186-3.508-56.72-2.923-63.736c0.584-7.017,7.017-50.872-0.585-73.092
	c-5.747-16.799-19.881-21.635-30.407-16.958c-10.523,4.678-5.847,22.221-3.508,29.237c2.34,7.017,12.279,11.695,14.034,15.203
	c14.618,33.915-23.975,65.491-35.085,73.093c-11.109,7.602-14.15,22.646-16.957,21.635c-14.618-5.263-29.236,2.339-30.991,2.924
	c0,0,0,7.602,0.585,10.525c-4.334,31.058-8.187,36.253-15.788,52.041c45.024-1.753,162.558,84.203,102.913,223.371
	c-0.646,1.51-2.472,4.263-5.26,7.855c1.906-1.646,2.922-2.594,2.922-2.594s5.263-8.771,23.389-4.092
	c21.011,5.421,23.975,22.219,23.975,30.99s5.264,8.187,10.525,7.602c5.263-0.584,24.854,3.262,29.821,1.17
	C791.418,675.686,778.807,660.008,773.877,656.974z"/>
<path fill="#7C8397" d="M654.564,670.281c-59.617,11.836-47.338-70.612-47.338-70.612c-6.432,102.915-109.932,89.465-128.058,84.202
	C541.729,733.347,615.717,696.762,654.564,670.281z"/>
<path fill="#626979" d="M773.877,656.974c-38.008-23.39-32.576-48.022-29.822-62.567c22.805-120.455-40.932-181.269-39.762-183.022
	c1.17-1.755,0-33.33-1.755-41.517c-1.754-8.186-3.508-56.72-2.923-63.736c0.584-7.017,7.017-50.872-0.585-73.092
	c-5.747-16.799-19.881-21.635-30.407-16.958c-10.523,4.678-5.847,22.221-3.508,29.237c2.34,7.017,12.279,11.695,14.034,15.203
	c14.618,33.915-23.975,65.491-35.085,73.093c-11.109,7.602-14.15,22.646-16.957,21.635c-14.618-5.263-29.236,2.339-30.991,2.924
	c0,0,0,7.602,0.585,10.525c-0.039,0.28-0.078,0.542-0.117,0.817l-3.391,26.081c0,0,22.529-20.494,45.609,6.432
	c19.078,22.26,45.029,26.893,58.283,29.232c14.033,9.355,47.717,72.455,34.293,173.076c-1.561,11.693-3.445,31.587,18.719,56.146
	c14.424,15.982,4.579,24.201,4.926,24.602c5.961,0.592,11.775,0.968,14.175-0.043C791.418,675.686,778.807,660.008,773.877,656.974z
	"/>
<path fill="#7C8397" d="M704.293,411.384c1.17-1.755,0-33.33-1.755-41.517c-1.754-8.186-3.508-56.72-2.923-63.736
	c0.584-7.017,7.017-50.872-0.585-73.092c-5.747-16.799-19.881-21.635-30.407-16.958c-10.523,4.678-5.847,22.221-3.508,29.237
	c2.34,7.017,12.279,11.695,14.034,15.203c14.618,33.915-23.975,65.491-35.085,73.093c-10.332,7.069-13.686,20.568-16.361,21.611
	c3.901,28.254,27.021,70.39,78.105,58.549C704.738,412.367,704.174,411.562,704.293,411.384z"/>
<path fill="#626979" d="M705.809,413.774c-1.07-1.407-1.635-2.212-1.516-2.391c1.17-1.755,0-33.33-1.755-41.517
	c-1.754-8.186-3.508-56.72-2.923-63.736c0.584-7.017,7.017-50.872-0.585-73.092c-5.747-16.799-19.881-21.635-30.407-16.958
	c-0.713,0.318-1.352,0.699-1.932,1.127c8.174,0.363,22.449,5.756,26.498,30.046c4.678,28.068-11.695,60.813-10.136,84.982
	c1.56,24.169,9.355,77.964-24.948,73.287c-0.83-0.113-1.575-0.17-2.275-0.2C668.045,414.252,684.49,418.717,705.809,413.774z"/>
<path fill="#B0BAD4" d="M627.703,355.225c1.48,10.719,5.73,23.435,13.221,34.446c-5.324-34.909,14.09-51.235,23.424-62.901
	c4.797-5.996,8.565-16.705,11.208-26.665c-9.164,16.468-25.007,29.072-31.491,33.509
	C633.732,340.683,630.379,354.182,627.703,355.225z"/>
<path fill="#A5B9C4" d="M548.168,458.748c0,0-13.449,9.355-20.466,12.863c-9.694,25.257-25.511,35.485-40.503,39.334
	c0.1,0.404,0.153,0.623,0.153,0.623c7.017-1.559,45.22-3.898,70.948,35.084s19.879,69.939,10.914,89.66
	c-11.693,25.729-31.965,47.559-76.404,49.117c-2.688,0.096-2.881,0.918-1.184,2.105c90.908,8.792,111.957-56.596,113.26-66.23
	C621.261,500.264,549.922,461.086,548.168,458.748z"/>
<path fill="#E3EAED" d="M451.384,609.955c49.323,18.556,97.184-11.887,92.69-10.286c-42.686,15.204-66.074,10.525-85.955-14.034
	c-19.169-23.679-8.443-65.281-3.981-73.475c-3.294-0.276-5.44-0.344-5.96,0.383c-14.033,19.881-40.13,19.865-39.957,23.586
	c0.748,16.1,12.102,20.509,12.479,20.313c2.941,43.229,32.773,47.365,30.986,52.583C451.58,609.336,451.484,609.645,451.384,609.955
	z"/>
<ellipse transform="matrix(0.96 0.2799 -0.2799 0.96 183.914 -114.0842)" fill="#E3EAED" cx="491.454" cy="586.983" rx="25.037" ry="11.414"/>
<path fill="#9EB1BC" d="M497.342,620.822c15.025-2.686,32.335-9.109,50.826-23.492c-1.754,1.17-44.439,30.992-96.482,11.695
	c-3.678-1.364-3.508,25.729-3.508,25.729c0.104-0.261,0.206-0.528,0.309-0.795c2.133,26.459,21.168,46.09,29.613,51.053
	C467.085,666.719,451.492,631.635,497.342,620.822z"/>
<path fill="#626979" d="M742.691,681.922c-5.458-3.117-1.95-12.084-3.51-23.779c-2.324-17.436-27.677-20.66-29.626-26.508
	c-1.95-5.847,3.509-24.559,3.509-24.559s-14.577,26.098-27.293,38.787c3.513-1.768,9.504-3.062,19.105-0.584
	c21.011,5.421,23.975,22.219,23.975,30.99s5.264,8.187,10.525,7.602c1.061-0.117,2.71-0.054,4.697,0.104
	C744.051,683.175,743.641,682.465,742.691,681.922z"/>
<path fill="#7C8397" d="M458.508,663.211c-0.065,0.164-0.227,0.434-0.426,0.747c4.792,11.29,21.672,32.778,5.884,45.058
	c15.203,2.924,27.663-0.768,31.187-10.33C465.135,679.973,458.508,663.211,458.508,663.211z"/>
<path fill="#B0BAD4" d="M443.695,681.533c-3.119,3.118-17.543,6.236-20.271,12.863s-5.847,15.982,2.729,20.271
	c0.312,0.155,0.635,0.283,0.953,0.422c-4.271-13.022,2.271-19.725,8.208-21.863c14.618-5.262,23.974-21.05,25.729-25.143
	l-2.583-4.779C457.453,665.494,446.777,678.451,443.695,681.533z"/>
<path fill="#7C8397" d="M426.301,581.751c-1.167-7.618-5.291-22.835-5.605-25.353c-6.237-1.949-10.916-9.745-10.916-9.745
	c-1.949,3.118-13.643,19.101-35.083,26.897c-10.316,3.752-32.355-4.287-35.474-5.848c-3.119-1.559-11.695-2.338-14.034,2.34
	c-0.703,1.406-5.13,6.921-6.237,8.187c6.627-4.289,13.254-2.339,19.102,0.39c5.585,2.605,33.525,6.236,56.915-7.797
	C401.598,566.844,416.549,566.165,426.301,581.751z"/>
<path fill="#B0BAD4" d="M368.069,587.975c-27.659,11.938-48.572,7.349-57.39,4.26c-0.101,1.855,0.156,3.736,0.976,5.471
	c1.537,1.647,3.342,3.396,5.356,5.081c0.917,0.444,1.94,0.842,3.108,1.171c15.203,4.289,26.119-2.729,30.407-5.457
	c4.288-2.729,22.609-12.085,32.745-11.305c1.867,0.143,4.122,0.354,6.625,0.567C383.77,585.699,375.085,584.945,368.069,587.975z"/>
<path fill="#B0BAD4" d="M548.168,458.748c14.036-2.536,89.662,45.803,57.697,168.987c-1.857,7.159-2.34-0.778-7.018,7.797
	C632.373,515.466,548.168,458.748,548.168,458.748z"/>
<g>
	<path fill="#4A4F5D" d="M248.46,280.457c-6.654,12.654-8.48,27.707-9.907,41.747c-1.929,18.981-0.505,37.788,3.386,56.445
		c4.069,19.517,10.159,39.357,19.088,57.217c9.01,18.023,21.464,34.451,35.132,49.182c2.892,3.116,7.532-1.547,4.652-4.65
		c-12.916-13.92-24.32-29.148-33.324-45.891c-9.191-17.091-14.812-36.535-19.194-55.363c-4.097-17.607-5.322-35.415-4.515-53.433
		c0.654-14.595,1.733-30.552,6.603-44.443C250.776,280.136,249.01,279.41,248.46,280.457L248.46,280.457z"/>
</g>
<g>
	<path fill="#4A4F5D" d="M283.867,245.711c-4.584,0.606-8.792,2.767-13.051,4.472c-4.808,1.923-9.781,3.469-14.774,4.827
		c-10.775,2.932-21.865,3.802-32.988,3.923c-1.565,0.017-2.818,1.863-1.876,3.27c6.98,10.437,18.954,15.167,29.387,21.321
		c2.522,1.488,4.753-2.37,2.283-3.905c-9.714-6.036-22.092-8.876-27.917-19.61c-0.625,1.09-1.251,2.18-1.876,3.27
		c10.914,0.514,21.731-0.753,32.343-3.282c9.27-2.209,22.396-5.661,29.019-12.96C284.816,246.595,284.595,245.615,283.867,245.711
		L283.867,245.711z"/>
</g>
<g>
	<path fill="#4A4F5D" d="M300.824,229.658c-2.785,0.269-5.382,2.036-8.13,2.777c-4.747,1.279-9.722,1.486-14.602,1.798
		c-8.013,0.515-16.039,0.085-24.046-0.308c-1.443-0.071-2.678,1.827-1.759,3.065c5.591,7.544,14.932,10.029,22.93,14.216
		c2.368,1.239,4.42-2.229,2.098-3.59c-7.109-4.165-16.346-5.739-21.51-12.682c-0.586,1.021-1.172,2.043-1.758,3.065
		c9.031,0.428,18.225,0.307,27.206-0.798c5.119-0.631,17.101-1.673,19.967-6.855C301.372,230.067,301.184,229.624,300.824,229.658
		L300.824,229.658z"/>
</g>
<g>
	<path fill="#4A4F5D" d="M340.586,217.895c-9.632-0.723-19.479,1.479-29.233,0.734c-5.975-0.456-11.763-2.075-17.158-4.653
		c-2.405-1.149-5.056-4.402-7.885-3.728c-1.043,0.249-1.396,1.274-1.259,2.22c1.052,7.313,5.596,13.089,8.009,19.929
		c0.854,2.422,4.762,1.309,3.833-1.057c-2.577-6.557-7.482-12.197-8.299-19.353c-0.762,0.58-1.522,1.16-2.284,1.739
		c2.621,0.625,6.07,3.976,8.901,5.243c4.522,2.023,9.514,2.839,14.4,3.39c9.697,1.093,22.186,0.449,31.239-3.486
		C341.375,218.646,341.05,217.93,340.586,217.895L340.586,217.895z"/>
</g>
<g>
	<path fill="#4A4F5D" d="M326.17,220.393c7.446,1.608,14.658-0.869,21.526-3.604c8.597-3.424,17.749-5.794,26.764-7.81
		c18.575-4.151,38.188-5.398,57.149-3.828c17.094,1.415,35.105,5.541,50.16,13.941c14.932,8.33,26.027,21.185,35.537,35.119
		c1.842,2.698,6.057,0.325,4.418-2.583c-7.852-13.931-19.303-25.742-32.58-34.599c-14.447-9.638-31.975-13.979-48.955-16.473
		c-18.161-2.668-36.582-1.733-54.702,0.788c-9.813,1.364-19.484,3.652-28.892,6.746c-10.2,3.355-19.289,8.133-30.043,9.476
		C325.069,217.751,324.444,220.021,326.17,220.393L326.17,220.393z"/>
</g>
<g>
	<path fill="#4A4F5D" d="M353.683,345.796c-2.407,8.201-2.321,15.372,1.146,23.491c3.391,7.94,9.351,15.672,17.586,18.994
		c16.923,6.827,32.401-2.936,40.468-17.575c8.576-15.561,9.135-33.824,6.246-50.934c-3.039-18.016-10.465-43-27.336-52.805
		c-0.664-0.386-1.312,0.495-0.803,1.04c12.274,13.154,18.9,28.928,22.478,46.417c3.095,15.121,3.665,31.061-0.9,45.933
		c-4.575,14.904-16.78,25.593-32.804,24.322c-16.207-1.287-27.606-24.014-25.376-38.688
		C354.457,345.535,353.819,345.333,353.683,345.796L353.683,345.796z"/>
</g>
<g>
	<path fill="#4A4F5D" d="M279.334,407.819c12.16-4.951,24.082-0.589,36.051,3.036c9.11,2.758,17.622,4.883,27.211,3.464
		c16.669-2.466,30.594-14.808,25.623-32.858c-0.909-3.299-5.438-1.826-4.979,1.373c1.235,8.574-0.198,16.089-7.548,21.381
		c-6.472,4.659-15.024,5.892-22.796,5.699c-9.709-0.242-19.037-4.555-28.557-6.217c-8.094-1.413-18.34-1.732-25.428,3.119
		C278.432,407.146,278.726,408.066,279.334,407.819L279.334,407.819z"/>
</g>
<g>
	<path fill="#4A4F5D" d="M404.908,285.473c12.957,1.541,24.939,2.354,36.337,9.491c11.623,7.278,18.46,20.241,20.919,33.413
		c2.263,12.123-0.215,25.565-8.422,34.996c-9.967,11.455-30.158,15.127-43.873,9.271c-3.363-1.436-6.311,3.48-2.906,4.971
		c14.518,6.348,34.284,3.905,46.631-6.29c11.66-9.628,15.852-24.615,14.629-39.293c-2.666-32.042-31.696-54.174-63.314-50.854
		C402.129,281.471,402.162,285.147,404.908,285.473L404.908,285.473z"/>
</g>
<g>
	<path fill="#4A4F5D" d="M437.068,344.166c2.564,0,4.705-2.14,4.705-4.705c0-2.565-2.141-4.706-4.705-4.706
		c-2.566,0-4.706,2.14-4.706,4.706C432.362,342.026,434.502,344.166,437.068,344.166L437.068,344.166z"/>
</g>
<g>
	<path fill="#4A4F5D" d="M300.021,405.153c-5.197,16.096,5.446,37.954,21.649,43.009c3.662,1.142,5.238-4.625,1.578-5.727
		c-15.057-4.535-21.057-22.684-20.401-36.898C302.925,403.855,300.504,403.658,300.021,405.153L300.021,405.153z"/>
</g>
<g>
	<path fill="#4A4F5D" d="M297.028,485.943c-4.551,3.805-10.955,4.342-16.67,4.4c-1.87,0.018-2.173,2.24-0.875,3.23
		c4.197,3.203,8.624,4.799,13.842,5.514c-0.422-0.743-0.844-1.486-1.266-2.23c-1.872,5.133-4.977,8.987-9.645,11.863
		c-1.37,0.844-0.916,3.34,0.867,3.201c8.594-0.665,17.145-1.285,24.867-5.453c-0.866-0.665-1.732-1.332-2.598-1.997
		c-3.296,10.505-4.157,22.106-10.808,31.226c-1.01,1.385,0.899,2.965,2.223,2.223c5.665-3.174,12.387-3.395,18.155-6.385
		c-0.823-0.334-1.644-0.67-2.467-1.004c3.618,9.155,8.327,18.279,9.287,28.206c0.147,1.534,1.696,2.146,2.882,1.194
		c3.689-2.959,5.994-5.659,10.734-7.141c3.445-1.076,8.366,8.373,8.336,11.209c-0.015,1.39,1.709,2.562,2.943,1.688
		c3.52-2.495,6.624-5.413,9.777-8.349c5.152-4.795,10.273-7.148,16.943-9.386c10.118-3.393,20.792-4.979,31.022-8.039
		c16.523-4.942,35.043-11.46,46.396-25.159c2.557-3.084-1.855-7.539-4.425-4.426c-11.486,13.928-30.952,20.803-47.604,26.166
		c-9.575,3.084-19.789,4.27-29.078,8.262c-9.792,4.208-16.585,11.32-25.007,17.554c0.981,0.562,1.962,1.126,2.943,1.688
		c-0.057-5.439-5.32-12.352-9.826-14.99c-2.182-1.277-7.016,1.66-9.009,2.836c-2.469,1.457-4.293,3.933-6.535,5.697
		c0.961,0.398,1.922,0.797,2.883,1.194c-0.908-10.353-5.473-19.645-9.425-29.099c-0.421-1.006-1.423-1.57-2.466-1.003
		c-5.759,3.133-12.475,3.064-18.1,6.479c0.741,0.741,1.482,1.481,2.223,2.224c6.613-9.756,7.896-20.947,11.413-31.926
		c0.496-1.549-1.293-2.691-2.599-1.998c-7.178,3.82-15.098,4.543-23.082,5.072c0.289,1.066,0.578,2.135,0.868,3.201
		c5.511-3.312,9.14-7.863,11.406-13.865c0.319-0.846-0.348-2.094-1.266-2.23c-4.689-0.695-8.874-1.729-12.705-4.74
		c-0.409,0.986-0.817,1.973-1.227,2.959c6.7-0.158,13.352-1.424,18.414-6.123C299.955,486.59,298.229,484.938,297.028,485.943
		L297.028,485.943z"/>
</g>
<g>
	<path fill="#4A4F5D" d="M467.74,287.668c4.168,13.584,6.396,27.195,4.309,41.374c-1.016,6.907-3.182,13.661-6.031,20.018
		c-2.771,6.183-7.149,11.258-10.271,17.18c-0.773,1.465,0.982,2.666,2.188,1.689c10.875-8.815,16.422-26.239,18.406-39.539
		c2.09-14.012,0.113-29.039-6.888-41.443C468.933,286.025,467.427,286.646,467.74,287.668L467.74,287.668z"/>
</g>
<g>
	<path fill="#4A4F5D" d="M477.427,289.916c2.548,10.344,2.311,21.155-0.334,31.431c-1.294,5.028-3.124,9.939-5.167,14.705
		c-1.705,3.98-4.748,7.79-4.803,12.181c-0.01,0.665,0.82,1.228,1.408,0.809c3.584-2.552,4.868-7.181,6.598-11.119
		c2.222-5.062,4.035-10.277,5.244-15.672c2.502-11.17,1.729-21.869-1.801-32.649C478.334,288.875,477.242,289.169,477.427,289.916
		L477.427,289.916z"/>
</g>
<g>
	<path fill="#4A4F5D" d="M457.08,299.379c5.082,7.801,6.588,15.649,7.112,24.83c0.228,3.987-0.063,7.994-0.161,11.982
		c-0.077,3.192-0.734,6.261,1.385,8.836c0.433,0.526,1.333,0.455,1.777,0c2.316-2.369,1.867-5.711,1.891-8.836
		c0.035-4.728-0.354-9.57-1.116-14.239c-1.343-8.221-4.132-17.121-10.062-23.209C457.493,298.319,456.75,298.873,457.08,299.379
		L457.08,299.379z"/>
</g>
<g>
	<path fill="#4A4F5D" d="M478.175,327.235c6.362-2.421,11.197-7.77,15.868-12.549c5.467-5.592,10.163-12.109,14.375-18.674
		c8.378-13.055,13.99-28.1,14.574-43.677c0.111-2.975-4.515-2.968-4.614,0c-0.499,14.95-6.042,28.81-13.786,41.441
		c-3.922,6.399-8.609,12.27-13.602,17.857c-4.406,4.934-9.848,9.147-13.562,14.629C477.113,326.726,477.637,327.441,478.175,327.235
		L478.175,327.235z"/>
</g>
<g>
	<path fill="#4A4F5D" d="M523.038,253.611c2.298-4.523,2.375-9.128,1.843-14.14c-0.783,0.597-1.567,1.193-2.35,1.79
		c14.373,4.975,20.527,23.175,23.166,36.738c0.336,1.725,2.758,1.833,3.576,0.468c5.602-9.364,11.631-19.681,21.471-25.106
		c-0.85-0.85-1.701-1.701-2.551-2.551c-6.478,13.181-1.733,28.366,1.711,41.744c0.457,1.777,2.727,1.484,3.307,0
		c2.133-5.464,7.762-9.332,12.164-12.951c-0.751-0.437-1.502-0.875-2.254-1.312c-4.057,10.375-2.527,20.137,0.32,30.612
		c0.26,0.953,1.513,1.574,2.385,0.97c4.992-3.464,10.709-5.438,16.723-6.19c-0.389-0.936-0.775-1.872-1.162-2.807
		c-7.156,5.728-10.562,14.902-12.613,23.555c-0.214,0.903,0.45,2.061,1.496,1.963c5.01-0.472,9.867-1.009,14.91-0.882
		c4.93,0.124,10.039-0.619,14.911-0.387c-0.146-0.539-0.292-1.077-0.437-1.615c-12.717,6.197-23.082,19.168-25.721,33.02
		c-0.25,1.316,1.721,1.889,2.026,0.558c1.786-7.776,5.704-13.987,11.331-19.563c4.418-4.377,9.847-7.778,13.547-12.83
		c0.395-0.537-0.137-1.318-0.747-1.303c-4.869,0.124-10.004-1.394-14.911-1.558c-5.12-0.171-10.402,0.008-15.322,1.513
		c0.635,0.637,1.271,1.272,1.906,1.908c2.035-8.067,5.273-16.711,11.947-22.054c1.074-0.859,0.224-2.98-1.162-2.807
		c-6.603,0.824-12.879,2.84-18.361,6.675c0.794,0.324,1.59,0.647,2.384,0.971c-2.698-9.87-4.052-19.09-0.85-29.032
		c0.442-1.374-1.298-2.137-2.253-1.312c-4.898,4.23-9.788,8.07-13.391,13.537c1.043,0.136,2.088,0.273,3.133,0.41
		c-2.837-12.49-8.011-26.679-1.797-38.95c0.842-1.664-0.859-3.462-2.553-2.552c-10.449,5.625-17.004,16.5-22.967,26.351
		c1.191,0.157,2.383,0.312,3.574,0.468c-2.766-14.611-10.377-34.327-25.951-39.278c-1.048-0.333-2.504,0.599-2.35,1.79
		c0.558,4.316,0.687,8.876-0.635,13.084C520.07,254.03,522.332,255.002,523.038,253.611L523.038,253.611z"/>
</g>
<g>
	<path fill="#4A4F5D" d="M591.02,347.762c6.361,22.003,1.1,45.519-8.896,65.607c-6.092,12.245-14.232,23.418-23.746,33.219
		c-4.922,5.068-10.342,9.639-16.098,13.73c-4.406,3.131-11.814,5.427-14.808,9.891c-0.737,1.098,0.263,2.354,1.399,2.439
		c5.667,0.422,12.758-5.834,17.168-8.965c5.682-4.035,10.926-8.664,15.836-13.598c10.279-10.324,18.718-22.531,25.202-35.549
		c9.581-19.236,18.407-47.844,4.735-67.109C591.54,347.043,590.875,347.264,591.02,347.762L591.02,347.762z"/>
</g>
<g>
	<path fill="#4A4F5D" d="M298.782,494.659c1.806-12.557,7.795-23.983,15.173-34.153c4.313-5.945,9.639-11.107,15.31-15.74
		c6.125-5.004,12.531-7.322,19.836-9.973c1.235-0.447,1.145-2.521-0.328-2.422c-14.305,0.949-27.821,12.203-36.405,22.82
		c-8.804,10.889-15.504,24.986-15.38,39.225C296.995,495.414,298.63,495.704,298.782,494.659L298.782,494.659z"/>
</g>
<g>
	<path fill="#4A4F5D" d="M360.785,414.313c-9.753,1.778-13.904,15.62-12.792,24.069c1.263,9.596,7.897,18.024,16.5,22.217
		c9.143,4.455,18.727,2.09,26.345-4.113c9.345-7.609,9.747-24.73,7.509-35.361c-0.394-1.869-3.455-1.045-2.863,0.789
		c3.242,10.046,2.31,23.661-6.495,30.749c-6.757,5.438-14.976,6.954-22.921,3.111c-6.715-3.247-11.367-9.823-13.006-16.979
		c-0.936-4.091-0.245-8.503,1.371-12.325c1.758-4.159,5.583-6.708,7.487-10.682C362.315,414.965,361.677,414.15,360.785,414.313
		L360.785,414.313z"/>
</g>
<g>
	<path fill="#4A4F5D" d="M389.174,419.516c6.92,5.365,17.578,5.836,25.941,5.377c9.717-0.533,19.461-3.341,27.755-8.461
		c7.619-4.705,13.269-11.914,15.231-20.694c1.725-7.723,0.461-21.606-6.901-26.285c-2.743-1.744-5.263,2.606-2.536,4.338
		c3.302,2.099,4.306,8.7,4.951,12.275c0.772,4.29,0.207,8.684-1.249,12.751c-2.622,7.324-9.318,12.442-15.979,15.869
		c-7.262,3.735-15.632,5.353-23.73,5.648c-7.766,0.283-14.522-1.783-21.948-3.453C389.318,416.568,387.832,418.474,389.174,419.516
		L389.174,419.516z"/>
</g>
<g>
	<path fill="#4A4F5D" d="M393.048,452.818c9.535,6.756,19.93,12.438,29.985,18.369c3.217,1.896,7.072,5.232,10.725,6.238
		c1.834,0.504,4.557-0.374,6.371-0.611c4.197-0.549,8.39-1.195,12.506-2.193c7-1.697,7.75-6.273,8.951-12.848
		c0.665-3.642,1.158-7.32,1.631-10.991c0.178-1.376,1.055-4.095,0.189-5.417c-6.896-10.523-13.006-22.115-21.246-31.666
		c-1.891-2.189-5.043,0.992-3.166,3.166c7.645,8.858,13.885,19.703,20.141,29.58c1.097,1.73,0.501-0.793,0.174,1.846
		c-0.411,3.307-0.896,6.607-1.479,9.89c-0.576,3.255-1.246,6.524-2.324,9.653c-0.945,2.748-6.254,2.996-8.707,3.482
		c-3.454,0.686-6.955,1.155-10.448,1.581c-0.64,0.078-1.282,0.151-1.923,0.22c0.936-0.101,1.293,0.471,0.242-0.143
		c-4.379-2.554-8.758-5.107-13.137-7.66c-8.861-5.169-17.713-10.646-26.987-15.061C392.81,449.426,391.485,451.709,393.048,452.818
		L393.048,452.818z"/>
</g>
<g>
	<path fill="#4A4F5D" d="M422.4,443.008c10.717,9.412,20.012,20.119,31.527,28.684c1.941,1.443,4.379-1.762,2.574-3.336
		c-10.738-9.368-22.786-16.754-34.004-25.445C422.43,442.858,422.333,442.947,422.4,443.008L422.4,443.008z"/>
</g>
<g>
	<path fill="#4A4F5D" d="M337.033,420.477c-0.041,0.135-0.083,0.27-0.123,0.404c-1.177,3.857,5.802,3.857,4.625,0
		c-0.041-0.135-0.083-0.27-0.123-0.404C340.75,418.311,337.693,418.311,337.033,420.477L337.033,420.477z"/>
</g>
<g>
	<path fill="#4A4F5D" d="M529.47,440.035c2.229,23.674-7.589,46.189-27.013,60.062c-9.285,6.634-20.406,10.219-31.768,10.651
		c-6.326,0.241-12.67-0.8-18.797-2.282c-6.908-1.671-12.203-5.459-18.668-7.937c-0.938-0.358-1.49,0.929-0.912,1.565
		c4.38,4.816,11.816,8.215,17.646,10.96c5.792,2.728,12.824,3.366,19.142,3.442c12.906,0.156,25.611-4.342,36.179-11.574
		c20.735-14.193,31.513-40.62,25.313-65.04C530.437,439.271,529.408,439.385,529.47,440.035L529.47,440.035z"/>
</g>
<g>
	<path fill="#4A4F5D" d="M441.003,488.557c11.003,1.768,22.274-0.168,31.803-6.035c6.983-4.299,18.479-16.607,15.21-25.711
		c-0.164-0.457-0.771-0.709-1.145-0.303c-2.83,3.087-3.549,7.945-5.576,11.638c-2.457,4.476-6.25,8.212-10.377,11.148
		c-8.619,6.132-19.426,7.878-29.757,8.097C440.516,487.404,440.32,488.447,441.003,488.557L441.003,488.557z"/>
</g>
<g>
	<path fill="#4A4F5D" d="M353.178,411.621c-0.456-0.537-0.479-0.547-0.067-0.031c0.237,0.236,0.506,0.348,0.782,0.516
		c0.351,0.213,0.65,0.65,0.888,0.98c0.777,1.08,1.367,2.311,1.817,3.559c1.077,2.98,5.348,1.206,4.008-1.689
		c-0.717-1.551-1.618-2.961-2.693-4.285c-0.479-0.592-1.054-1.129-1.682-1.561c-0.75-0.516-1.61-0.689-2.2-0.639
		C352.491,408.6,351.553,410.798,353.178,411.621L353.178,411.621z"/>
</g>
<g>
	<path fill="#4A4F5D" d="M345.264,365.714c3.09-0.053,5.846,1.621,8.441,3.18c1.856,1.114,3.442,3.961,5.805,3.498
		c0.275-0.053,0.478-0.306,0.559-0.558c0.817-2.574-2.939-4.563-4.751-5.699c-3.146-1.975-6.495-1.939-10.054-1.471
		C344.615,364.75,344.566,365.727,345.264,365.714L345.264,365.714z"/>
</g>
<g>
	<path fill="#4A4F5D" d="M405.271,266.429c0.799,5.45-0.156,10.832-0.301,16.312c-0.058,2.18,3.439,2.18,3.381,0
		c-0.152-5.624-1.195-10.995-2.639-16.433C405.635,266.016,405.23,266.146,405.271,266.429L405.271,266.429z"/>
</g>
<g>
	<path fill="#4A4F5D" d="M289.385,416.211c1.425-1.962,2.646-3.895,4.763-5.184c1.824-1.109,3.797-2.088,5.866-2.627
		c0.658-0.172,1.205-0.84,1.169-1.537c-0.016-0.305-0.088-0.529-0.217-0.803c-0.292-0.621-1.167-0.934-1.799-0.732
		c-2.492,0.791-4.712,1.891-6.365,3.954c-1.598,1.993-3.142,4.269-3.959,6.7C288.729,416.324,289.201,416.467,289.385,416.211
		L289.385,416.211z"/>
</g>
<g>
	<path fill="#4A4F5D" d="M407.607,535.125c-2.614,2.584-0.422,8.801,0.633,11.713c1.786,4.938,5.389,9.324,9.937,11.928
		c0.753,0.431,1.706,0.311,2.325-0.301c0.457-0.451,0.506-0.719,0.562-1.357c0.057-0.65-0.403-1.342-0.95-1.656
		c-4.044-2.314-6.48-5.932-8.406-10.074c-0.812-1.746-1.293-3.636-1.645-5.521c-0.3-1.599,0.146-3.06-0.66-4.501
		C409.039,534.709,408.125,534.615,407.607,535.125L407.607,535.125z"/>
</g>
<g>
	<path fill="#4A4F5D" d="M419.086,548.676c-2.309,5.776-0.535,13.381,0.684,19.262c1.597,7.707,5.054,15.403,8.988,22.176
		c7.185,12.363,18.301,20.516,31.994,24.426c12.938,3.693,27.777,3.332,40.976,1.419c7.94-1.151,15.295-4.085,22.743-6.95
		c7.976-3.067,16.451-6.129,23.471-11.066c0.609-0.428,0.245-1.617-0.547-1.295c-13.578,5.545-26.117,12.238-40.509,15.739
		c-13.292,3.233-27.104,2.642-40.239-0.94c-13.836-3.772-24.977-10.006-32.906-22.219c-4.141-6.377-7.152-13.443-9.383-20.689
		c-1.984-6.441-2.146-13.609-4.392-19.861C419.806,548.23,419.254,548.254,419.086,548.676L419.086,548.676z"/>
</g>
<g>
	<path fill="#4A4F5D" d="M449.137,609.609c0.164,1.468-1.777,4.623-2.332,6.008c-1.062,2.66-1.729,5.133-2.117,7.98
		c-0.986,7.242,0.137,14.457,2.113,21.431c3.963,13.982,12.549,26.519,22.833,36.612c20.333,19.957,49.412,27.965,77.276,28.131
		c56.25,0.334,112.684-29.217,147.967-72.368c7.558-9.243,13.205-19.858,18.699-30.418c0.355-0.679-0.681-1.282-1.025-0.599
		c-6.538,12.957-16.123,24.236-25.871,34.934c-10.096,11.076-21.601,20.766-34.107,29c-24.69,16.259-51.719,28.122-81.039,32.799
		c-29.6,4.721-60.957,0.646-86.287-16.052c-13.137-8.66-23.527-21.056-30.129-35.29c-3.462-7.465-5.352-15.705-5.613-23.912
		c-0.203-6.393,3.041-11.235,3.596-17.311c0.05-0.543,0.043-0.945-0.104-1.467C452.414,607.018,448.885,607.352,449.137,609.609
		L449.137,609.609z"/>
</g>
<g>
	<path fill="#4A4F5D" d="M597.521,359.323c4.887-2.252,10.039-3.477,15.393-3.939c4.432-0.382,8.643,0.713,13.023,0.751
		c1.937,0.016,2.956-2.95,1.038-3.831c-9.556-4.39-22.671-1.209-31.483,3.548C593.176,357.102,595.208,360.389,597.521,359.323
		L597.521,359.323z"/>
</g>
<g>
	<path fill="#4A4F5D" d="M681.319,264.614c0.812,13.091-1.911,24.086-8.298,35.498c-5.58,9.969-13.336,19.046-22.083,26.368
		c-6.322,5.292-13.525,9.999-18.414,16.771c-4.422,6.126-7.8,15.325-4.143,22.562c0.459,0.908,2.077,0.755,2.255-0.295
		c0.727-4.307,0.184-8.526,1.402-12.807c1.328-4.669,4.6-8.547,7.949-11.918c6.525-6.568,14.475-11.51,20.875-18.236
		c14.43-15.163,29.231-36.252,21.937-58.142C682.541,263.64,681.264,263.728,681.319,264.614L681.319,264.614z"/>
</g>
<g>
	<path fill="#4A4F5D" d="M632.62,376.495c4.317,6.843,7.503,14.284,12.628,20.624c4.9,6.061,10.776,10.461,17.652,14.045
		c6.818,3.553,14.213,6.127,21.789,7.432c5.631,0.97,14.908,1.648,19.174-2.964c1.07-1.158,0.372-3.237-1.325-3.197
		c-2.244,0.053-4.224,0.847-6.413,1.312c-3.795,0.811-8.028,0.33-11.814-0.246c-7.15-1.088-14.09-3.797-20.533-6.996
		c-13.053-6.479-22.351-18.643-30.486-30.4C633.009,375.697,632.35,376.066,632.62,376.495L632.62,376.495z"/>
</g>
<g>
	<path fill="#4A4F5D" d="M683.709,273.385c0.403-9.664-3.166-15.938-11.016-21.48c-4.943-3.489-6.025-8.544-6.938-14.19
		c-0.82-5.085-2.389-11.252-0.238-16.122c5.658-12.811,22.828-3.648,28.011,4.229c6.108,9.285,7.072,22.943,7.427,33.655
		c0.433,13.118-1.52,26.242-2.934,39.248c-1.482,13.647-1.749,27.102-0.565,40.781c2.179,25.181,7.165,49.59,3.409,74.924
		c-0.319,2.151,2.817,3.151,3.348,0.923c6.607-27.769-1.37-56.217-3.022-84.109c-1.786-30.163,7.431-59.678,2.079-89.77
		c-1.641-9.228-5.012-19.56-13.078-25.179c-7.761-5.407-17.916-6.815-25.371-0.152c-7.35,6.568-3.992,19.193-2.46,27.518
		c0.851,4.624,2.948,8.716,6.747,11.56c6.374,4.771,11.516,9.677,12.5,18.165C681.76,274.705,683.65,274.769,683.709,273.385
		L683.709,273.385z"/>
</g>
<g>
	<path fill="#4A4F5D" d="M701.781,410.334c8.094,13.791,16.887,27.227,24.595,41.254c8.417,15.317,13.949,31.515,17.237,48.654
		c3.535,18.427,4.161,37.338,3.355,56.043c-0.627,14.555-2.988,28.717-4.934,43.115c-1.465,10.83-2.012,21.992,2.18,32.311
		c4.848,11.934,15.195,17.832,25.203,24.894c4.6,3.246,11.196,8.522,10.31,14.888c-0.591,4.234-4.995,7.379-8.188,9.602
		c-4.771,3.322-10.305,2.16-15.578,1.215c-4.941-0.885-9.75-0.236-14.732-0.063c-2.633,0.091-5.329,0.104-7.902-0.511
		c-3.258-0.779-1.901-9.238-1.805-11.52c0.457-10.842-9.953-18.238-17.746-24.092c-9.659-7.258-22.13-3.113-31.65,1.477
		c-2.152,1.037-0.27,4.064,1.845,3.154c7.378-3.17,14.608-5.377,22.575-3.055c7.072,2.061,19.85,11.822,20.885,19.763
		c0.611,4.684-1.519,10.567,0.913,14.934c2.128,3.823,6.138,3.941,10.134,4.078c5.471,0.188,10.906-0.89,16.326,0.036
		c7.045,1.201,12.461,1.982,19.072-1.42c9.701-4.992,14.521-15.762,7.082-24.73c-8.572-10.336-22.234-14.225-29.76-25.723
		c-6.812-10.413-5.847-23.654-4.264-35.404c1.839-13.634,4.013-27.014,4.791-40.778c1.001-17.7,0.277-35.443-2.328-52.979
		c-2.67-17.967-8.069-35.074-16.265-51.268c-8.108-16.022-18.716-30.537-28.274-45.672
		C703.635,406.602,700.611,408.342,701.781,410.334L701.781,410.334z"/>
</g>
<g>
	<path fill="#4A4F5D" d="M457.02,663.477c-5.279,4.904-9.152,11.143-14.58,15.994c-4.711,4.211-10.967,5.981-16.231,9.324
		c-9.243,5.87-11.446,20.967-1.476,27.5c4.609,3.02,10.256,3.979,15.674,3.061c8.801-1.494,16.152-8.051,25.168-8.168
		c4.468-0.058,8.605,1.266,13.127,0.826c2.944-0.287,5.766-1.121,8.482-2.257c5.465-2.282,9.656-6.425,10.539-12.421
		c0.479-3.254-4.086-3.865-4.441-0.6c-0.716,6.531-6.742,9.53-12.447,10.959c-6.555,1.643-13.102-0.906-19.711,0.08
		c-6.689,0.997-12.477,5.525-19.116,6.951c-5.581,1.199-12.069,0.262-16.19-3.887c-4.228-4.255-3.24-11.883,0.606-15.885
		c3.239-3.371,8.383-5.102,12.438-7.26c8.84-4.702,15.55-13.936,20.598-22.336C460.393,663.807,458.293,662.295,457.02,663.477
		L457.02,663.477z"/>
</g>
<g>
	<path fill="#4A4F5D" d="M443.621,691.033c-6.453-1.572-14.145,3.965-17.933,8.67c-3.856,4.789-5.825,13.895,0.781,17.453
		c0.933,0.502,2.324-0.334,1.913-1.471c-0.857-2.371-2.374-4.289-2.663-6.881c-0.363-3.258,1.471-6.508,3.457-8.9
		c3.94-4.752,8.897-6.179,14.444-7.991C444.033,691.779,444.08,691.145,443.621,691.033L443.621,691.033z"/>
</g>
<g>
	<path fill="#4A4F5D" d="M750.663,661.121c7.92-2.566,33.99,3.883,27.384,15.922c-1.204,2.197,2.149,4.156,3.354,1.961
		c8.865-16.162-20.264-23.24-31.089-19.16C749.526,660.139,749.84,661.387,750.663,661.121L750.663,661.121z"/>
</g>
<g>
	<path fill="#4A4F5D" d="M408.027,545.547c-7.947,10.375-18.083,18.961-30.322,23.797c-12.401,4.898-23.831,3.126-35.488-2.529
		c-8.201-3.979-14.745-3.01-20.185,4.246c-4.611,6.148-15.672,12.428-13.623,21.66c1.858,8.372,9.417,14.342,17.697,15.279
		c8.901,1.009,19.106-5.059,26.806-8.791c5.348-2.592,10.649-5.258,16.232-7.32c6.495-2.4,13.375-2.629,20.22-2.407
		c13.506,0.438,26.436,3.106,39.49-1.819c2.487-0.939,1.525-4.838-1.117-4.053c-11.045,3.277-23.011,1.874-34.366,1.541
		c-10.577-0.309-20.351,0.979-30.073,5.231c-9.406,4.114-18.099,9.89-28.028,12.755c-4.493,1.296-10.068,1.286-14.328-0.692
		c-5.418-2.516-10.336-9.393-7.609-15.282c2.028-4.381,6.641-7.852,10.003-11.174c4.187-4.141,5.451-8.764,12.61-7.211
		c4.842,1.051,9.2,4.355,13.904,5.971c4.369,1.502,9.165,1.986,13.757,2.003c19.401,0.074,37.121-14.144,47.536-29.382
		C412.484,545.408,409.4,543.752,408.027,545.547L408.027,545.547z"/>
</g>
<g>
	<path fill="#4A4F5D" d="M546.432,462.527c42.552,23.004,57.399,79.072,58.658,123.962c0.639,22.788-2.252,46.569-16.938,64.886
		c-14.956,18.652-38.146,29.033-61.303,32.803c-18.683,3.039-37.687,0.395-55.394-5.924c-1.931-0.688-3.103,2.281-1.372,3.258
		c19.479,10.991,43.791,11.379,65.255,6.868c22.14-4.652,43.464-16.231,57.728-34.001c13.906-17.324,17.477-39.236,17.848-60.871
		c0.414-24.199-3.779-48.746-11.843-71.539c-9.005-25.459-24.729-52.821-51.179-62.906
		C545.862,458.289,544.568,461.521,546.432,462.527L546.432,462.527z"/>
</g>
<g>
	<path fill="#4A4F5D" d="M678.161,431.476c4.222,3.702,6.186,8.253,8.49,13.216c0.177,0.383,0.681,0.089,0.627-0.264
		c-0.824-5.309-4.563-10.129-8.697-13.373C678.287,430.824,677.867,431.218,678.161,431.476L678.161,431.476z"/>
</g>
<g>
	<path fill="#4A4F5D" d="M712.493,513.129c1.286,9.983,2.173,20.059,2.637,30.113c0.464,10.07-1.005,20.978,0.805,30.875
		c0.116,0.635,1.163,0.637,1.278,0c1.758-9.771,0.029-21.023-0.756-30.875c-0.807-10.141-1.889-20.134-3.605-30.162
		C712.817,512.878,712.467,512.925,712.493,513.129L712.493,513.129z"/>
</g>
<g>
	<path fill="#4A4F5D" d="M329.829,220.088c3.444-5.369,5.689-10.478,4.424-17.035c-1.379-7.143-5.102-13.261-9.314-19.089
		c-8.104-11.216-18.907-19.863-30.354-27.447c-18.214-12.067-37.224-22.928-55.664-34.644
		c-19.113-12.144-38.059-25.239-53.883-41.554c-12.212-12.591-25.233-31.061-16.497-49.041
		c5.977-12.298,18.265-20.625,32.011-19.832c14.782,0.853,28.621,10.148,40.102,18.707c33.923,25.284,61.423,59.338,89.267,90.855
		c14.211,16.085,28.434,32.212,43.691,47.324c6.233,6.175,12.689,12.142,19.55,17.615c8.18,6.525,17.809,14.771,28.189,16.797
		c2.426,0.473,3.477-3.155,1.029-3.734c-7.244-1.711-12.711-7.042-18.717-11.133c-3.214-2.189-6.302-4.552-9.313-7.011
		c-6.658-5.436-12.893-11.383-18.979-17.443c-14.688-14.625-28.395-30.228-42.116-45.75c-27.776-31.422-55.152-64.557-88.526-90.288
		c-20.625-15.901-50.843-31.685-72.697-9.08c-31.033,32.101,10.294,68.963,35.415,87.954c18.271,13.812,38.032,25.347,57.458,37.412
		c13.669,8.489,27.994,16.488,40.477,26.697c12.808,10.475,31.739,30.338,21.401,47.939
		C325.622,220.282,328.606,221.995,329.829,220.088L329.829,220.088z"/>
</g>
<g>
	<path fill="#4A4F5D" d="M242.554,337.894c1.426-12.78-1.297-23.407-10.443-32.781c-5.518-5.657-10.921-11.418-16.661-16.855
		c-15.676-14.85-33.884-26.251-53.681-34.792c-22.168-9.564-45.737-14.34-68.639-21.656c-20.522-6.557-41.023-14.625-58.939-26.766
		c-15.305-10.371-29.541-26.19-24.365-45.96c3.607-13.783,13.971-23.485,28.296-24.408c16.138-1.04,32.651,5.95,47.002,12.493
		c19.549,8.911,38.144,19.875,56.631,30.77c22.391,13.193,44.605,26.742,67.731,38.632c19.018,9.777,38.968,18.882,60.345,21.717
		c2.16,0.287,2.656-3.434,0.514-3.802c-18.817-3.239-36.854-11.233-53.85-19.657c-20.292-10.058-39.785-21.681-59.262-33.212
		c-19.077-11.294-38.115-22.723-57.886-32.778c-15.45-7.858-31.879-15.455-49.143-18.146c-12.365-1.928-25.289-0.386-34.578,8.688
		C4.62,150.13,0.943,167.884,6.868,181.983c7.304,17.382,25.302,28.676,41.321,37.005c18.234,9.48,37.905,16.225,57.634,21.824
		c31.173,8.847,61.722,17.304,88.541,36.284c9.474,6.705,17.968,14.625,26.069,22.903c3.5,3.576,7.101,7.111,10.427,10.848
		c6.513,7.318,8.862,17.44,8.165,27.047C238.858,340.192,242.307,340.109,242.554,337.894L242.554,337.894z"/>
</g>
<g>
	<path fill="#4A4F5D" d="M389.833,200.823c-7.022-3.126-13.283-8.798-18.992-13.829c-6.289-5.541-12.641-10.997-18.942-16.521
		c-13.188-11.562-25.11-24.522-36.917-37.461c-11.796-12.928-22.171-27.012-33.846-40.058
		c-12.201-13.632-26.187-28.633-43.467-35.68c-10.082-4.112-25.165-1.364-26.141,11.63c-0.828,11.036,11.249,21.473,18.434,28.084
		c13.802,12.698,29.206,23.67,44.107,35.017c16.301,12.413,32.626,25.028,47.057,39.626c10.434,10.555,22.353,24.148,23.082,39.771
		c0.168,3.604,5.75,3.63,5.619,0c-0.548-15.123-10.439-28.165-20.196-38.926c-13.318-14.688-29.166-27.04-44.821-39.103
		c-15.597-12.02-31.646-23.495-46.647-36.266c-7.499-6.382-21.788-16.994-21.512-28.203c0.116-4.743,5.092-7.799,9.235-8.567
		c6.705-1.244,14.051,3.161,19.411,6.585c15.536,9.926,28.296,24.588,40.127,38.525c11.527,13.58,22.458,27.283,34.606,40.366
		c10.909,11.75,22.184,23.182,34.66,33.282c10.967,8.878,20.412,19.714,34.053,24.316
		C390.25,203.921,391.303,201.479,389.833,200.823L389.833,200.823z"/>
</g>
<g>
	<path fill="#4A4F5D" d="M270.613,249.635c-15.704,1.832-31.269,0.686-46.263-4.49c-12.696-4.382-24.163-11.772-35.121-19.394
		c-16.677-11.598-32.824-23.915-50.298-34.332c-9.039-5.388-18.482-10.304-28.479-13.655c-7.119-2.386-15.528-4.02-22.762-1.21
		c-5.754,2.234-10.743,8.207-10.362,14.612c0.424,7.13,7.91,11.612,13.474,14.616c11.352,6.129,23.923,10.134,35.897,14.837
		c15.092,5.929,29.771,12.637,43.408,21.459c25.833,16.711,53.174,37.562,69.133,64.359c1.927,3.236,6.986,0.295,5.049-2.951
		c-14.333-24.01-37.376-42.568-59.856-58.604c-22.122-15.779-46.25-25.932-71.458-35.693c-9.184-3.556-20.252-6.957-27.508-13.958
		c-5.561-5.364-0.022-12.249,5.993-13.93c8.291-2.318,18.305,1.874,25.763,5.117c10.296,4.477,19.988,10.35,29.414,16.411
		c16.596,10.672,32.054,23,48.708,33.58c23.035,14.633,48.502,22.135,75.673,16.233
		C272.688,252.279,272.336,249.434,270.613,249.635L270.613,249.635z"/>
</g>
<g>
	<path fill="#4A4F5D" d="M320.839,581.906c-4.299,1.375-7.066,4.77-8.399,9.018c-0.991,3.16-0.521,9.577,3.593,10.209
		c0.402,0.061,0.955-0.181,0.896-0.684c-0.14-1.195-0.558-1.908-1.16-2.976c-0.99-1.755-0.982-3.888-0.648-5.81
		c0.628-3.621,3.176-7.062,5.939-9.375C321.239,582.141,321.049,581.84,320.839,581.906L320.839,581.906z"/>
</g>
<g>
	<path fill="#4A4F5D" d="M323.14,594.934c-1.235,2.359-2.097,5.178-1.421,7.841c0.704,2.776,3.539,4.882,6.385,4.442
		c1.493-0.23,1.122-2.232,0-2.659c-2.019-0.767-3.386-0.962-4.425-3.071c-0.995-2.021-1.042-4.354-0.33-6.465
		C323.391,594.898,323.2,594.819,323.14,594.934L323.14,594.934z"/>
</g>
<g>
	<path fill="#4A4F5D" d="M690.829,225.724c-0.79-4.93-5.8-8.298-9.956-10.317c-2.646-1.285-11.276-3.961-12.998-0.153
		c-0.188,0.412-0.141,0.954,0.311,1.188c1.36,0.702,2.363,0.184,3.879,0.075c2.265-0.162,4.532,0.484,6.656,1.189
		c4.682,1.556,8.639,4.198,11.398,8.318C690.375,226.404,690.897,226.154,690.829,225.724L690.829,225.724z"/>
</g>
<g>
	<path fill="#4A4F5D" d="M680.715,225.718c-0.733-3.375-2.986-5.382-5.588-7.477c-2.248-1.811-5.823-3.854-8.708-2.485
		c-0.876,0.416-0.79,1.769,0,2.208c1.046,0.583,2.034,0.601,3.214,0.793c1.272,0.208,2.474,0.701,3.702,1.07
		c2.845,0.859,5.05,3.836,6.628,6.207C680.225,226.426,680.816,226.179,680.715,225.718L680.715,225.718z"/>
</g>
<g>
	<path fill="#4A4F5D" d="M670.277,235.438c-0.684-2.816-1.895-5.443-2.487-8.306c-0.8-3.863,0.729-6.966,0.899-10.662
		c0.035-0.752-0.938-1.098-1.443-0.598c-4.67,4.641-1.135,15.364,2.113,19.953C669.683,236.282,670.418,236.015,670.277,235.438
		L670.277,235.438z"/>
</g>
<g>
	<path fill="#4A4F5D" d="M524.779,312.014c-8.818,0.577-17.762,1.971-26.435,3.661c-8.021,1.563-16.747,5.112-22.433,11.174
		c-1.875,2,1.002,4.878,3.004,3.003c11.993-11.225,30.083-14.997,45.863-16.742C525.466,313.036,525.494,311.968,524.779,312.014
		L524.779,312.014z"/>
</g>
<g>
	<path fill="#4A4F5D" d="M316.656,470.26c2.725-7.676,7.442-14.939,12.747-21.051c2.372-2.732,5.477-4.795,8.312-7.004
		c3.145-2.449,7.417-4.127,9.981-7.145c0.483-0.567,0.234-1.725-0.678-1.637c-7.562,0.729-14.215,9.33-18.628,14.771
		c-5.493,6.773-9.231,13.762-11.822,22.04C316.55,470.291,316.636,470.314,316.656,470.26L316.656,470.26z"/>
</g>
<g>
	<path fill="#4A4F5D" d="M410.092,407.368c0.018,0.017,0.033,0.034,0.05,0.052c-0.05-0.379-0.099-0.758-0.147-1.137
		c-0.41,0.715-0.457,1.562,0.166,2.187c0.643,0.642,1.716,0.642,2.358,0c0.643-0.643,0.643-1.716,0-2.358
		c-0.624-0.623-1.472-0.576-2.187-0.165c0.379,0.049,0.758,0.098,1.138,0.147c-0.019-0.018-0.035-0.033-0.054-0.051
		C410.535,405.217,409.266,406.486,410.092,407.368L410.092,407.368z"/>
</g>
<g>
	<path fill="#4A4F5D" d="M425.958,412.539c4.507,0,4.507-6.988,0-6.988C421.45,405.551,421.45,412.539,425.958,412.539
		L425.958,412.539z"/>
</g>
<g>
	<path fill="#4A4F5D" d="M437.652,404.098c1.914,0,1.914-2.97,0-2.97S435.738,404.098,437.652,404.098L437.652,404.098z"/>
</g>
<g>
	<path fill="#4A4F5D" d="M444.67,396.491c1.443,0,2.648-1.206,2.648-2.649c0-1.444-1.205-2.65-2.648-2.65
		c-1.445,0-2.65,1.206-2.65,2.65C442.02,395.285,443.225,396.491,444.67,396.491L444.67,396.491z"/>
</g>
<g>
	<path fill="#4A4F5D" d="M369.238,450.109c1.68,0,1.68-2.604,0-2.604S367.559,450.109,369.238,450.109L369.238,450.109z"/>
</g>
<g>
	<path fill="#4A4F5D" d="M376.255,456.879c1.532,0,2.81-1.278,2.81-2.81c0-1.532-1.278-2.81-2.81-2.81
		c-1.531,0-2.81,1.277-2.81,2.81C373.445,455.601,374.724,456.879,376.255,456.879L376.255,456.879z"/>
</g>
<g>
	<path fill="#4A4F5D" d="M385.611,443.365c2.033,0,2.033-3.151,0-3.151S383.578,443.365,385.611,443.365L385.611,443.365z"/>
</g>
<g>
	<path fill="#4A4F5D" d="M390.289,435.17c1.267,0,1.267-1.964,0-1.964S389.022,435.17,390.289,435.17L390.289,435.17z"/>
</g>
<g>
	<path fill="#4A4F5D" d="M269.586,387.916c8.105-11.602,21.805-6.954,32.713-3.197c1.2,0.414,1.721-1.271,0.81-1.92
		c-10.387-7.385-27.476-6.919-34.588,4.494C268.095,387.978,269.138,388.559,269.586,387.916L269.586,387.916z"/>
</g>
<g>
	<path fill="#4A4F5D" d="M381.162,284.853c5.742,5.692,8.854,12.348,10.647,20.154c1.526,6.646,0.778,13.787,2.526,20.293
		c0.06,0.225,0.443,0.255,0.484,0c1.094-6.992-0.535-15.41-2.167-22.26c-1.727-7.248-5.491-13.698-11.167-18.51
		C381.264,284.341,380.95,284.642,381.162,284.853L381.162,284.853z"/>
</g>
<g>
	<path fill="#4A4F5D" d="M749.645,549.402c5.819-0.888,8.787,0.596,11.546,5.955c2.271,4.411,3.036,10.158,1.991,14.987
		c-0.193,0.896,0.255,2.015,1.252,2.206c11.062,2.127,13.644,18.689,8.158,26.918c-0.72,1.082,0.025,2.493,1.16,2.85
		c10.82,3.399,10.277,16.18,6.99,24.906c-4.053,10.758-13.22,17.332-24.604,13.99c-2.372-0.697-3.906,2.839-1.689,4.008
		c26.047,13.742,47.393-38.381,20.333-46.645c0.386,0.95,0.772,1.899,1.159,2.85c6.668-10.18,2.885-29.873-10.554-32.336
		c0.418,0.736,0.835,1.471,1.251,2.207c1.39-6.713-0.122-13.928-3.725-19.718c-2.902-4.666-9.205-7.981-14.219-4.435
		C747.514,547.984,748.262,549.613,749.645,549.402L749.645,549.402z"/>
</g>
<g>
	<path fill="#4A4F5D" d="M673.775,654.617c-2.594,12.947,18.283,19.619,26.459,11.356c-1.062,0-2.125,0-3.188,0
		c10.025,9.523,23.2,4.894,30.074-5.897c1.586-2.491-2.386-4.799-3.945-2.307c-5.105,8.165-15.266,12.922-22.941,5.016
		c-0.877-0.903-2.299-0.826-3.188,0c-6.072,5.662-20.082,1.109-20.266-7.762C676.747,653.346,674.125,652.875,673.775,654.617
		L673.775,654.617z"/>
</g>
<g>
	<path fill="#5F2420" d="M360.944,407.377c-8.617,7.341,6.069,14.773,12.419,15.404c12.357,1.228,27.191-4.59,28.253-18.621
		c0.44-5.824-0.888-11.531-5.81-15.068c-4.581-3.293-11.409-0.33-15.76,1.773c-8.437,4.078-22.823,12.661-20.498,23.77
		c0.449,2.146,4.14,1.684,3.858-0.522c-0.893-6.987,8.349-13.054,13.326-16.211c6.409-4.066,17.505-10.132,20.185,0.97
		c2.418,10.011-5.874,16.485-14.374,18.774c-4.015,1.081-8.436,1.085-12.423-0.069c-2.746-0.796-10.934-3.932-7.4-8.422
		C363.711,407.893,362.199,406.309,360.944,407.377L360.944,407.377z"/>
</g>
</svg>
