<?xml version="1.0" encoding="utf-8"?>
<!-- Generator: Adobe Illustrator 14.0.0, SVG Export Plug-In . SVG Version: 6.00 Build 43363)  -->
<!DOCTYPE svg PUBLIC "-//W3C//DTD SVG 1.1//EN" "http://www.w3.org/Graphics/SVG/1.1/DTD/svg11.dtd">
<svg version="1.1" id="Layer_1" xmlns="http://www.w3.org/2000/svg" xmlns:xlink="http://www.w3.org/1999/xlink" x="0px" y="0px"
	 width="800px" height="780px" viewBox="0 0 800 780" enable-background="new 0 0 800 780" xml:space="preserve">
<path fill="#9BA4BC" d="M365.362,297.205c-2.941-0.711-51.464,0-69.846,29.868c-1.55,2.519-108.072-24.89-183.065,77.513
	c-7.8,10.653-66.166,129.425,18.382,232.539c5.85,7.134,103.665,93.159,234.529,36.268c8.186-3.558,53.669-27.734,134.541-1.422
	c10.36,3.371,16.176,10.667,33.087-10.668c16.909-21.334,31.612-21.334,34.552-22.754c2.941-1.424,39.701-40.537,30.145-57.603
	c-9.559-17.068-44.848-22.046-72.049-3.557c-7.344,4.993-16.175,13.512-24.264,36.979c-0.932,2.7-15.44,14.224-28.673,0
	c-2.939-4.266,77.198-31.29,108.811-143.648c0-7.109,59.551-10.666,76.461-43.378C476.377,462.188,365.362,297.205,365.362,297.205z
	"/>
<path fill="#5C6272" d="M374.429,376.14c0.979-7.584,1.962-14.222,1.962-14.222s-11.764-42.668-11.764-61.631
	c0-6.638-52.935,0.948-69.111,26.786c-1.469,3.555,12.255,13.984,14.216,17.777C365.607,325.888,374.429,376.14,374.429,376.14z"/>
<path fill="#9BA4BC" d="M391.095,181.291c0-3.792,0.979-12.801,2.449-16.593c-43.13-31.29-99.561-32.21-106.359-31.29
	c-76.949,10.43-112.732-8.06-117.633-13.274C101.427,63.244,171.514-7.87,228.859,4.931c122.533,34.134,216.64,39.823,223.01,39.349
	c56.858-1.422,113.224,13.274,113.224,13.274c141.156,0.949,201.934,83.44,205.854,148.864c4.899,2.37,3.922,12.326,6.371,10.43
	c10.783-2.845,14.704,4.741,14.704,4.741c14.704,63.528-22.548,67.794-22.548,70.639c-2.939,33.661-10.78,45.512-11.271,47.883
	c-2.449,7.586-11.274,13.274-15.196,21.808c-23.524,36.03-76.462,61.632-87.243,67.32
	c-122.534,43.616-254.746-44.565-257.319-45.985c-37.861-28.802-35.657-86.403-35.657-86.403s-34.921,6.4-33.817,4.623
	c9.188-14.579,9.923-27.378,9.923-27.378s-21.32-2.134-20.218-3.2c9.191-8.534,19.851-25.601,19.851-25.601
	s-15.071-14.934-13.969-15.29c18.38-0.711,29.409-5.689,29.409-5.689l-4.043-29.868l19.115,10.312l5.512-27.733l18.749,14.578
	L391.095,181.291z"/>
<path fill="#7C8397" d="M449.174,188.402c2.906-1.125,10.294-29.157,19.116-40.534c-4.412,36.978,29.161,29.633,38.231,17.778
	c13.504-17.651,34.553-39.111,66.411-37.453c55.373,2.884,112.733,73.958,43.132,123.263c-6.803,4.82-36.76,25.601-66.166,4.74
	C530.782,185.558,449.174,188.402,449.174,188.402z"/>
<path fill="#7C8397" d="M582.245,465.743c0,0,32.349,41.956,89.695,42.667c4.411-0.711,22.057-18.488,29.406-3.555
	c7.354,14.934,2.207,34.135-42.641,36.978c-6.616,0-61.021-7.822-78.666-12.799c-5.146-1.424-22.055,0.71-24.997,3.556
	C577.1,502.721,582.245,465.743,582.245,465.743z"/>
<path fill="#7C8397" d="M133.774,637.836c0,4.979,0,50.492-42.641,73.246c-5.148,2.134-13.97,7.111-11.027,17.779
	c2.938,10.665,11.761,33.422,56.609,27.733c9.559-4.979,31.613-16.355,36.024-54.045c7.353-2.134,13.234,2.133,37.496-19.202
	C180.091,677.659,133.774,637.836,133.774,637.836z"/>
<path fill="#C1D0D8" d="M535.192,163.748c-11.765,12.327-14.704,19.911-14.704,38.874c0,7.645,18.625,18.017,25.486,37.928
	c0.981,2.844,69.599,9.481,77.439-31.29c0-15.171-9.8-49.305-38.229-54.994C574.454,152.118,546.956,151.422,535.192,163.748z"/>
<path fill="#FFFFFF" d="M708.701,307.162c0,0,8.821,40.534,30.875,37.688c8.089,0,27.203-4.266,30.146-49.779
	c-0.734-1.422-13.967-4.978-23.525-11.377C732.226,301.472,708.701,307.162,708.701,307.162z"/>
<path fill="#7C8397" d="M393.544,164.698c-3.92,11.616-0.245,26.905-0.245,26.905l-18.749-14.578l-5.512,27.733l-19.115-10.312
	c0,0,5.881,28.801,4.043,29.868c-1.838,1.068-29.409,5.689-29.409,5.689s3.31,4.623-0.367,6.045
	c-51.464,22.045-72.555-6.778-77.931-14.933c-32.35-49.068,37.744-87.231,40.926-87.707
	C355.069,132.934,393.544,164.698,393.544,164.698z"/>
<path fill="#CBD9E0" d="M226.405,327.785c0,0-1.222-26.788-30.386-21.336c-2.449,0.475-8.331-19.437-33.574-4.502
	c-1.715,1.658-19.849-27.261-52.444-1.896c-4.655-4.03-49.258-17.542-66.658,25.363c-5.145,1.422-51.955,12.326-36.025,65.423
	c0,0-17.154,19.675,8.088,37.453C14.426,430.661-6.16,466.691,48,484.945c0,0,6.863,28.443,36.269,20.146
	c2.451-1.185-5.39-109.039,104.891-164.508C197.491,337.739,226.405,327.785,226.405,327.785z"/>
<g>
	<g>
		<path fill="#A8BCC8" d="M62.95,433.505c-25.243-17.778-8.087-37.452-8.087-37.452c-15.931-53.099,30.878-64.002,36.024-65.424
			c17.4-42.905,62.003-29.393,66.658-25.364c1.577-1.227,3.109-2.291,4.618-3.273c-2.872-0.566-20.832-26.319-52.161-1.94
			c-4.655-4.03-49.258-17.542-66.658,25.363c-5.145,1.422-51.955,12.326-36.025,65.423c0,0-17.154,19.675,8.088,37.453
			C14.426,430.661-6.16,466.691,48,484.945c0,0,6.863,28.443,36.269,20.146c0.618-0.298,0.584-7.33,1.936-18.568
			C43.891,467.514,62.031,435.727,62.95,433.505z"/>
		<path fill="#A8BCC8" d="M74.106,507.32L74.106,507.32c-19.655-0.004-25.867-18.878-26.717-21.83
			c-18.144-6.181-29.839-15.027-34.757-26.3c-2.804-6.421-4.76-16.947,1.838-30.625c0.008-0.015,0.013-0.028,0.022-0.044
			c-8.019-5.775-12.538-12.352-13.438-19.556c-1.178-9.41,4.192-16.719,5.451-18.286c-4.978-16.827-4.167-31.128,2.406-42.516
			c4.447-7.704,13.909-17.997,33.721-23.298l0.16-0.043c10.436-25.363,29.879-30.703,44.385-30.703
			c10.669,0,19.873,3.049,22.815,5.026c8.908-6.822,17.626-10.279,25.928-10.279c11.975,0,20.196,7.193,24.149,10.65
			c0.907,0.793,1.935,1.691,2.247,1.779l1.514,0.421l-1.258,0.862c-1.706,1.111-3.157,2.141-4.567,3.238l-0.488,0.379l-0.461-0.403
			c-1.658-1.434-10.735-5.037-22.337-5.037c-14.108,0-33.047,5.227-43.146,30.13l-0.134,0.327l-0.871,0.237
			c-19.324,5.168-28.518,15.153-32.826,22.62c-6.423,11.124-7.155,25.181-2.175,41.782l0.109,0.365l-0.252,0.29
			c-0.066,0.076-6.598,7.722-5.364,17.518c0.875,6.933,5.354,13.291,13.322,18.902l0.462,0.326l-0.212,0.513
			c-0.052,0.123-0.15,0.329-0.288,0.613c-6.017,12.474-4.616,22.147-2.386,28.065c3.6,9.547,12.196,17.43,25.558,23.432l0.479,0.216
			l-0.061,0.511c-0.653,5.413-0.98,9.813-1.218,13.025c-0.378,5.109-0.453,5.774-1.118,6.098
			C80.842,506.799,77.353,507.32,74.106,507.32L74.106,507.32z M87.178,295.543c-14.111,0-33.05,5.227-43.15,30.129L43.895,326
			l-0.871,0.237c-19.324,5.169-28.517,15.154-32.826,22.619c-6.422,11.124-7.154,25.181-2.175,41.783l0.111,0.364l-0.252,0.291
			c-0.068,0.076-6.598,7.722-5.365,17.518c0.872,6.933,5.353,13.292,13.323,18.901l0.461,0.327l-0.213,0.514
			c-0.05,0.122-0.149,0.328-0.287,0.611c-6.369,13.204-4.502,23.315-1.816,29.471c4.785,10.963,16.31,19.587,34.256,25.636
			l0.381,0.129l0.094,0.38c0.051,0.211,5.354,21.114,25.39,21.116h0.001c3.019,0,6.267-0.474,9.661-1.406
			c0.165-0.659,0.315-2.67,0.485-4.962c0.231-3.125,0.547-7.369,1.16-12.579c-13.451-6.14-22.14-14.217-25.836-24.018
			c-2.326-6.168-3.792-16.236,2.437-29.151c0.008-0.016,0.014-0.029,0.022-0.045c-8.019-5.775-12.537-12.352-13.438-19.555
			c-1.178-9.412,4.192-16.721,5.454-18.286c-4.98-16.827-4.169-31.129,2.405-42.517c4.448-7.703,13.907-17.997,33.72-23.297
			l0.163-0.043c10.436-25.364,29.876-30.703,44.38-30.703c10.67,0,19.875,3.048,22.82,5.025c1.033-0.787,2.094-1.547,3.267-2.333
			c-0.441-0.338-0.988-0.813-1.722-1.455c-3.817-3.337-11.754-10.282-23.163-10.282c-8.099,0-16.663,3.47-25.458,10.314
			l-0.488,0.378l-0.464-0.403C107.856,299.146,98.778,295.543,87.178,295.543L87.178,295.543z"/>
	</g>
</g>
<g>
	<path fill="#CBD9E0" d="M453.585,511.256c4.412,6.399,13.233,19.2,14.705,44.089c0,6.44-7.834,40.863,4.874,57.871
		c6.896-7.026,78.804-37.499,108.347-142.496c0-1.47,2.558-2.791,6.756-4.249c-20.836,0.08-68.996,0.573-78.805,3.539
		C497.697,473.565,474.906,481.389,453.585,511.256z"/>
</g>
<path fill="#F59183" d="M730.021,202.625c-3.663,1.106-25.73,12.09-18.38,19.911c7.353,7.823,16.91,3.912,19.482,3.556
	c2.574-0.356,8.453,6.044,13.234,7.467c4.777,1.422,20.953,3.2,29.407-12.089c3.309-6.755,0-12.8-6.249-16.712
	C761.267,200.848,741.785,199.069,730.021,202.625z"/>
<path fill="#CBD9E0" d="M709.069,222.181c-4.779-1.777-38.968-8.889-50.73,3.201c-11.764,12.089-25.731,39.467,0,73.246
	c2.626,3.447,52.935,26.667,87.857-14.934c2.294-2.733,15.437,14.223,25.363,8.178c9.926-6.045,40.069-30.224,18.013-72.18
	c-3.308-6.044-9.805-3.556-12.254-2.845c-4.288,1.778-9.436,19.2-23.771,17.778c-14.336-1.422-16.911-6.4-20.954-8.534
	C715.317,231.426,709.069,222.181,709.069,222.181z"/>
<path fill="#7C8397" d="M565.093,57.554c0,0-0.556-0.144-1.575-0.396c-0.679,0.112-1.289,0.241-1.831,0.389
	c-151.944,41.72-168.607,100.507-170.591,123.744l2.088,9.765c6.931,9.111,53.105-2.068,62.61-3.601
	C479.319,70.829,590.089,60.398,649.497,69.8C625.363,62.251,597.328,57.771,565.093,57.554z"/>
<g>
	<path fill="#7C8397" d="M507.257,77.466c-22.059,2.845-139.689-4.267-195.564,5.689c-50.102,8.927-152.208,13.267-161.109-44.38
		c-14.595,23.059-13.951,53.869,18.969,81.359c4.901,5.215,40.684,23.705,117.633,13.274c6.728-0.91,62.071,0.001,105.024,30.358
		c1.956-2.487,4.559-6.048,7.708-10.921C430.795,100.223,507.257,77.466,507.257,77.466z"/>
</g>
<path fill="#6A7182" d="M301.278,117.406c-45.509,8.109-133.914,12.428-156.417-30.045c4.061,10.994,11.949,22.132,24.691,32.772
	c4.901,5.215,40.684,23.705,117.633,13.274c6.728-0.91,62.071,0.001,105.024,30.358c1.956-2.487,4.559-6.048,7.708-10.921
	c9.625-16.404,23.68-29.906,38.468-40.721C393.83,111.619,335.782,111.259,301.278,117.406z"/>
<path fill="#AEB9D3" d="M773.127,208.4c-0.564-0.839-1.27-1.542-2.18-1.982c-3.003-50.088-39.329-110.18-119.537-136.024
	c76.847,69.368,61.098,134.675,59.252,143.608C733.202,193.756,762.337,204.838,773.127,208.4z"/>
<g>
	<path fill="#CBD0E2" d="M747.512,202.365c10.941,0.859,20.412,4.317,25.615,6.035c-0.564-0.839-1.27-1.542-2.18-1.982
		c-2.904-48.466-37.016-106.293-111.885-133.403C713.932,107.05,741.733,157.195,747.512,202.365z"/>
</g>
<path fill="#7C8397" d="M455.793,389.651c-62.494-59.023-43.379-120.18-19.118-143.647c31.615-30.58,94.843-17.778,111.752,6.4
	c0,0-8.087-20.623-10.292-25.601c-18.381-32.712-57.347-36.267-78.667-38.401c-21.322-2.133-52.934,9.956-66.285,2.653
	c0,0,0,0-0.001-0.001l0.117,0.548l-18.749-14.578l-5.512,27.733l-19.115-10.312l4.043,29.868c0,0-11.029,4.978-29.409,5.689
	c-1.102,0.356,13.969,15.29,13.969,15.29s-10.66,17.067-19.851,25.601c-1.102,1.066,20.218,3.2,20.218,3.2s-0.734,12.8-9.923,27.378
	c-0.049,0.077-0.007,0.133,0.076,0.181c7.788-0.112,21.41-2.848,29.617-4.063c2.514-0.445,4.124-0.74,4.124-0.74
	s-0.001,0.084-0.006,0.233c1.335-0.109,2.255-0.088,2.58,0.122C374.918,415.964,465.576,398.894,455.793,389.651z"/>
<path fill="#5C6272" d="M361.684,147.868c-8.085,2.133-52.934,6.4-51.464,29.867c1.472,23.467,25.732,29.868,75.726-14.934
	C390.358,158.535,361.684,147.868,361.684,147.868z"/>
<path fill="#3E424F" d="M382.556,157.636c-45.577,38.574-67.859,31.916-69.376,9.612c-2.066,2.988-3.211,6.447-2.959,10.487
	c1.472,23.467,25.732,29.868,75.726-14.934C387.286,161.509,385.573,159.628,382.556,157.636z"/>
<path fill="#7C8397" d="M215.38,398.186c0,0,27.203,5.689,64.697-15.645c37.497-21.333,94.107,4.267,94.841,16.355
	c1.473-0.71,2.425-65.707-49.99-56.89c-33.822,5.69-55.878,30.58-86.019,42.667c-10.295,3.556-25.733,3.556-29.41,2.134
	C213.175,391.074,215.38,398.186,215.38,398.186z"/>
<path fill="#AEB9D3" d="M541.074,418.098c0,0-13.232,11.378-33.817,21.333c-20.587,9.957-54.405,21.335-72.787,54.046
	c-0.784,1.397,19.115,17.779,19.115,17.779s4.412-18.49,30.145-29.867c25.732-11.379,84.546-14.223,98.516-15.646
	c13.969-1.423,61.757-12.089,75.727-38.401C589.598,446.542,541.074,418.098,541.074,418.098z"/>
<path fill="#5C6272" d="M578.604,482.196c-3.72,13.5-10.812,33.129-23.562,50.394c2.942-2.846,19.852-4.979,24.997-3.556
	c17.646,4.977,72.05,12.799,78.666,12.799c38.297-2.429,47.635-16.783,44.968-30.225c-0.586,0.36-1.126,0.72-1.591,1.069
	C670.515,557.417,586.163,505.004,578.604,482.196z"/>
<path fill="#FFFFFF" d="M613.123,205.944c0.491-20.386-10.293-37.927-33.818-43.271c-9.575-2.175-28.429,1.077-37.741,11.982
	c-9.793,11.466-12.741,21.334-11.764,37.452c3.517,7.393,10.124,10.891,16.175,28.443c0.068,0.194,0.461,0.407,1.119,0.62
	C559.626,243.516,612.131,240.14,613.123,205.944z"/>
<path fill="#C07369" d="M749.794,234.421c0.019-1.508-1.187-3.124-4.332-4.773c-11.765-6.163-11.275-22.282-7.354-27.971
	c0,0-0.023-0.215-0.078-0.581c-2.871,0.309-5.605,0.802-8.009,1.529c-3.663,1.106-25.73,12.09-18.38,19.911
	c7.353,7.823,16.91,3.912,19.482,3.556c2.574-0.356,8.453,6.044,13.234,7.467C745.556,233.915,747.467,234.293,749.794,234.421z"/>
<path fill="#A5B9C4" d="M710.17,275.161c-15.773-18.65-2.515-40.818,16.066-47.659c-12.477,1.604-17.167-5.321-17.167-5.321
	c-4.779-1.777-38.968-8.889-50.73,3.201c-11.764,12.089-25.731,39.467,0,73.246c2.626,3.447,52.935,26.667,87.857-14.934
	C736.637,286.538,723.404,290.805,710.17,275.161z"/>
<path fill="#E9E7DC" d="M708.701,307.162c0,0,8.821,40.534,30.875,37.688c0.23,0,0.47-0.004,0.71-0.012
	c2.282-0.344,3.703-0.699,3.703-0.699l2.207-60.446C732.226,301.472,708.701,307.162,708.701,307.162z"/>
<path fill="#A5B9C4" d="M563.926,466.711c-21.928,0.359-47.595,1.223-54.464,3.299c-11.765,3.556-34.556,11.379-55.877,41.246
	c4.412,6.399,13.233,19.2,14.705,44.089c0,4.355-3.575,21.51-1.964,37.42c0.441-2.484,0.854-5.145,1.232-8.026
	C476.232,518.38,527.403,483.317,563.926,466.711z"/>
<path fill="#7C8397" d="M496.962,660.592c-46.981-33.326-145.57-7.111-198.502-15.644c-50.255-8.102-177.366-59.787-110.845-146.538
	c42.716-57.796,134.664-62.373,164.267-52.106c0,0-18.113-9.935-23.525-15.171c-14.705-14.223-39.211-18.964-52.934-18.964
	c-13.724,0-55.875,12.326-68.621,12.326c-28.425-10.43-32.349-31.29-20.584-39.824c11.763-8.534,18.624,1.897,23.281,2.136
	c22.791,6.398,44.356-8.773,53.178-15.41c8.823-6.637,54.74-31.973,48.035-34.134c-141.159-45.513-206.836,84.386-206.836,84.386
	c-40.444,103.247-7.39,172.104,17.06,202.426c3.058,4.37,6.353,8.725,9.898,13.05c5.85,7.134,103.665,93.159,234.529,36.268
	c8.186-3.558,53.669-27.734,134.541-1.422c10.36,3.371,16.176,10.667,33.087-10.668c1.499-1.895,2.984-3.613,4.445-5.188
	C524.117,664.241,511.148,670.653,496.962,660.592z"/>
<path fill="#AEB9D3" d="M475.325,616.847c-19.637-11.604,4.49-72.893-21.74-105.591c-75.725-88.181-202.179-24.18-202.179-24.18
	s155.862-45.511,180.861,73.959c12.468,59.601,26.179,89.979,71.068,68.268c0.734-0.356-0.489-4.266-1.962-14.935
	C500.504,616.89,487.786,627.106,475.325,616.847z"/>
<g>
	<path fill="#AEB9D3" d="M597.686,580.946c-9.559-17.068-44.848-22.046-72.049-3.557c-7.344,4.993-16.175,13.512-24.264,36.979
		c-0.202,0.587-1.049,1.591-2.383,2.659c2.314,7.15,4.345,12.275,4.345,12.275s29.923-64.014,71.068-38.875
		c13.591,8.302,6.302,30.733-5.104,46.677C577.213,629.706,606.312,596.352,597.686,580.946z"/>
</g>
<path fill="#F5F5F6" d="M789.572,219.692c-3.308-6.044-9.805-3.556-12.254-2.845c-0.589,0.243-1.192,0.788-1.834,1.529
	c-1.047,1.758-1.72,3.093-1.72,3.093c2.573-1.066,18.75,35.913-2.572,65.779c-0.771,1.078-0.22,2.601,1.207,4.096
	C783.058,284.522,811.043,260.533,789.572,219.692z"/>
<path fill="#AEB9D3" d="M245.035,20.577c36.27,11.378,112.729,41.72,285.256,46.46c3.6,0.1,12.702-7.329,26.31-11.488
	c-17.808-3.969-61.109-12.36-104.731-11.269c-6.37,0.474-100.477-5.215-223.01-39.349c-23.331-5.208-48.771,3.476-66.152,19.439
	C181.464,16.204,212.453,10.356,245.035,20.577z"/>
<path fill="#7C8397" d="M703.8,353.384c-69.6,75.854-162.726,64.713-162.726,64.713s40.192,29.157,116.897,9.244
	c0.466-0.054,1.032-0.092,1.678-0.118c16.182-8.364,61.946-32.511,83.358-65.306c0.892-1.937,2.039-3.722,3.304-5.421
	C722.147,367.285,705.743,349.625,703.8,353.384z"/>
<g>
	<path fill="#6A7182" d="M392.604,163.963c-0.109-0.081-0.239-0.178-0.365-0.272c-0.011,0.03-0.017,0.044-0.029,0.076
		c-2.25,6.16-6.19,12.344-11.295,18.205l10.173,7.912C390.587,178.701,392.341,167.244,392.604,163.963z"/>
	<path fill="#6A7182" d="M324.19,236.048c3.677-1.422,0.367-6.045,0.367-6.045s27.571-4.621,29.409-5.689
		c1.093-0.634-0.546-11.083-2.055-19.446c-27.426,15.074-60.526,18.796-74.528-6.035c-22.309-39.56,40.873-58.656,62.519-58.911
		c-1.62-0.428-3.272-0.839-4.96-1.238c-11.642-1.867-33.291-5.016-47.992-5.211c-5.411,1.772-72.463,39.445-40.69,87.642
		C251.636,229.27,272.727,258.093,324.19,236.048z"/>
	<path fill="#6A7182" d="M371.757,191.082c-3.618,3.146-7.541,6.117-11.668,8.849l8.95,4.827L371.757,191.082z"/>
</g>
<path fill="#626979" d="M497.387,195.279c-13.891-4.545-27.867-5.872-37.919-6.877c-21.322-2.133-52.934,9.956-66.285,2.653
	c0,0,0,0-0.001-0.001l0.117,0.548l-18.749-14.578l-5.512,27.733l-19.115-10.312l4.043,29.868c0,0-11.029,4.978-29.409,5.689
	c-1.102,0.356,13.969,15.29,13.969,15.29s-10.66,17.067-19.851,25.601c-1.102,1.066,20.218,3.2,20.218,3.2s-0.734,12.8-9.923,27.378
	c-0.049,0.077-0.007,0.133,0.076,0.181c7.788-0.112,21.41-2.848,29.617-4.063c2.514-0.445,4.124-0.74,4.124-0.74
	s-0.001,0.084-0.006,0.233c1.335-0.109,2.255-0.088,2.58,0.122c3.287,40.833,16.16,65.608,31.241,80.165
	C329.783,261.152,432.267,190.298,497.387,195.279z"/>
<path fill="#626979" d="M342.335,682.072c-188.204,17.502-232.088-99.703-217.384-163.706
	c19.604-85.332,139.47-104.801,178.881-101.289c-10.454-3.507-21.002-4.908-28.41-4.908c-13.724,0-55.875,12.326-68.621,12.326
	c-28.425-10.43-32.349-31.29-20.584-39.824c11.763-8.534,18.624,1.897,23.281,2.136c22.791,6.398,44.356-8.773,53.178-15.41
	c8.823-6.637,54.74-31.973,48.035-34.134c-141.159-45.513-206.836,84.386-206.836,84.386
	c-40.444,103.247-7.39,172.104,17.06,202.426c3.058,4.37,6.353,8.725,9.898,13.05C136.335,643.835,223.17,720.297,342.335,682.072z"
	/>
<path fill="#5C6272" d="M133.774,637.836c0,0.617,0,1.858-0.08,3.599c0.507,0.379,1.02,0.758,1.55,1.142
	c32.029,23.236,35.947,44.376,37.448,60.324c0.015-0.119,0.035-0.231,0.047-0.351c7.353-2.134,13.234,2.133,37.496-19.202
	C180.091,677.659,133.774,637.836,133.774,637.836z"/>
<path fill="#5C6272" d="M174.675,702.111c-2.555-12.912-7.08-18.766-7.08-18.766c-0.981,11.378-38.229,88.182-84.301,46.46
	c-1.16-1.05-2.42-1.769-3.539-2.561c0.091,0.527,0.195,1.059,0.351,1.616c2.938,10.665,11.761,33.422,56.609,27.733
	c9.559-4.979,31.613-16.355,36.024-54.045C173.394,702.361,174.032,702.224,174.675,702.111z"/>
<g>
	<path fill="#4A4F5D" d="M402.153,196.48c-9.738-4.993-18.638-14.324-25.925-22.144c-1.229-1.318-3.893-0.706-4.253,1.085
		c-1.954,9.75-2.937,19.65-4.83,29.412c1.209-0.477,2.419-0.953,3.629-1.429c-6.873-3.098-13.17-7.492-19.735-11.165
		c-1.437-0.805-3.362,0.212-3.334,1.851c0.17,10.457,1.897,20.678,3.98,30.917c0.345-0.814,0.687-1.628,1.03-2.443
		c-9.063,5.177-19.847,3.775-29.87,5.415c-1.458,0.238-2.108,2.133-1.375,3.264c4.356,6.735,10.519,11.784,16.8,16.789
		c0-1.194,0-2.387,0-3.581c-8.038,8.099-13.648,18.355-23.005,25.192c-1.706,1.246-1.79,4.054,0.628,4.655
		c7.51,1.865,15.519,2.877,23.247,1.884c-0.842-0.815-1.686-1.629-2.526-2.444c-1.222,10.112-5.261,19.92-11.367,28.191
		c-1.397,1.891,0.896,3.816,2.785,3.503c11.867-1.963,23.6-4.542,35.614-5.544c3.226-0.269,3.246-5.17,0-4.888
		c-12.461,1.08-24.619,3.769-36.925,5.833c0.929,1.168,1.856,2.336,2.785,3.503c6.599-8.979,10.684-19.704,12.16-30.597
		c0.164-1.211-1.279-2.596-2.526-2.444c-7.331,0.894-14.746-0.061-21.847-1.908c0.208,1.552,0.419,3.104,0.628,4.655
		c9.855-7.092,15.66-17.533,24.049-26.009c0.913-0.923,1.121-2.691,0-3.581c-6.027-4.788-12.281-8.97-16.533-15.45
		c-0.458,1.088-0.915,2.177-1.374,3.265c10.557-1.771,21.347-0.479,30.908-5.963c0.908-0.523,1.225-1.477,1.027-2.443
		c-2.027-9.855-3.72-19.697-3.862-29.768c-1.11,0.618-2.224,1.234-3.333,1.852c6.55,3.685,13.287,7.363,19.477,11.592
		c1.25,0.854,3.342,0.014,3.63-1.43c1.951-9.745,3.082-19.618,4.971-29.374c-1.417,0.361-2.834,0.724-4.253,1.086
		c4.352,4.498,8.801,9.142,13.96,12.801c5.027,3.564,9.647,4.624,15.143,6.828C402.31,197.676,402.691,196.756,402.153,196.48
		L402.153,196.48z"/>
</g>
<g>
	<path fill="#4A4F5D" d="M366.227,271.746c-4.184,20.132-5.252,40.35-1.057,60.667c3.854,18.671,14.151,42.075,31.235,52.931
		c3.125,1.985,5.79-2.221,3.724-4.667c-6.271-7.422-12.99-13.668-18.01-22.11c-5.126-8.629-8.372-18.168-10.683-27.825
		c-4.576-19.104-5.204-39.362-4.478-58.899C366.973,271.438,366.311,271.344,366.227,271.746L366.227,271.746z"/>
</g>
<g>
	<path fill="#4A4F5D" d="M382.881,185.769c7.076,14.533,27.777,11.943,40.873,9.73c18.067-3.054,35.848-4.826,54.114-2.141
		c15.965,2.347,30.914,8.626,43.189,18.807c13.89,11.521,22.478,26.325,28.091,42.808c0.259,0.757,1.208,0.668,1.499,0
		c3.034-6.989-0.222-13.409-3.633-19.792c-3.939-7.37-8.085-14.175-13.757-20.427c-10.64-11.723-24.739-19.851-40.03-24.499
		c-16.251-4.94-33.791-5.172-50.609-3.769c-9.36,0.781-18.513,3.297-27.769,4.753c-5.677,0.892-11.361,1.165-17.034,0.138
		c-5.461-0.988-9.5-4.288-14.448-6.223C382.978,185.004,382.742,185.48,382.881,185.769L382.881,185.769z"/>
</g>
<g>
	<path fill="#4A4F5D" d="M562.564,137.881c-13.536,2.145-25.665,14.935-32.821,25.442c-8.48,12.457-13.838,28.021-11.347,42.965
		c0.652,3.904,6.845,2.262,6.147-1.639c-4.78-26.766,15.731-53.491,38.244-66.26C563.085,138.22,562.874,137.833,562.564,137.881
		L562.564,137.881z"/>
</g>
<g>
	<path fill="#4A4F5D" d="M528.913,168.501c14.379-8.241,31.628-15.065,48.602-12.672c19.262,2.717,35.118,18.956,40.629,36.408
		c5.159,16.348-0.791,33.046-16.722,40.607c-15.961,7.574-37.206,9.249-53.671,3.027c-3.597-1.361-5.118,4.215-1.587,5.57
		c18.785,7.215,42.214,4.383,60.401-3.625c18.226-8.024,23.025-27.716,19.133-45.362c-4.371-19.828-22.379-36.71-42.248-41.971
		c-20.459-5.417-40.782,3.509-55.932,16.274C526.52,167.6,527.807,169.135,528.913,168.501L528.913,168.501z"/>
</g>
<g>
	<path fill="#4A4F5D" d="M571.648,254.47c11.362-1.972,22.188-5.441,31.534-12.17c7.211-5.19,17.649-16.175,17.261-25.452
		c-0.03-0.744-1.041-1.286-1.618-0.648c-3.129,3.482-4.327,8.298-6.803,12.282c-3.007,4.843-7.182,8.934-11.779,12.369
		c-8.4,6.277-18.844,9.666-28.961,12.333C570.413,253.414,570.787,254.618,571.648,254.47L571.648,254.47z"/>
</g>
<g>
	<path fill="#4A4F5D" d="M580.708,263.056c10.177-5.947,19.41-12.528,26.911-21.532c3.427-4.114,6.264-8.65,8.896-13.27
		c2.631-4.625,6.382-9.864,6.786-15.199c0.055-0.734-0.977-1.092-1.472-0.59c-3.41,3.455-4.697,8.513-6.896,12.753
		c-2.43,4.681-5.225,9.156-8.381,13.409c-6.986,9.415-16.801,16.691-26.687,23.036C578.978,262.234,579.78,263.597,580.708,263.056
		L580.708,263.056z"/>
</g>
<g>
	<path fill="#4A4F5D" d="M599.891,201.724c-0.066-0.002-0.133-0.002-0.201-0.003c-2.647-0.042-4.857,2.168-4.857,4.698
		c0,2.593,2.21,4.656,4.857,4.699c0.462,0.007,0.924,0.014,1.384,0.021c2.661,0.042,4.88-2.178,4.88-4.72
		c0-2.604-2.221-4.678-4.88-4.72c-0.039-0.001-0.076-0.001-0.116-0.002c-2.66-0.042-4.881,2.18-4.881,4.722
		c0,2.542,2.221,4.765,4.881,4.722c0.04,0,0.077-0.002,0.116-0.002c2.659-0.041,4.88-2.114,4.88-4.72c0-2.541-2.219-4.762-4.88-4.72
		c-0.46,0.007-0.922,0.015-1.384,0.022c-2.647,0.042-4.857,2.105-4.857,4.698c0,2.529,2.21,4.739,4.857,4.699
		c0.068-0.002,0.135-0.003,0.201-0.004c2.647-0.042,4.854-2.103,4.854-4.695C604.745,203.827,602.538,201.765,599.891,201.724
		L599.891,201.724z"/>
</g>
<g>
	<path fill="#4A4F5D" d="M711.648,220.905c-11.897-5.46-26.505-4.984-39.363-4.221c-11.463,0.68-20.489,6.764-25.785,16.487
		c-10.499,19.279-8.161,48.679,7.671,64.508c15.725,15.724,41.809,16.67,61.942,9.812c27.056-9.218,39.71-33.615,45.872-59
		c0.407-1.678-2.289-2.385-2.658-0.709c-5.043,22.91-16.919,45.667-41.479,53.421c-18.023,5.692-38.853,5.837-54.908-4.924
		c-17.521-11.74-18.609-36.451-13.366-54.547c3.388-11.692,12.156-18.618,24.62-19.428c11.793-0.766,24.446-0.853,35.949,2.052
		C712.229,224.885,713.701,221.847,711.648,220.905L711.648,220.905z"/>
</g>
<g>
	<path fill="#4A4F5D" d="M775.002,220.003c3.29,1.022,6.176-1.552,9.725-0.583c3.379,0.921,5.139,5.268,6.142,8.09
		c2.674,7.536,2.669,16.063,2.191,23.927c-0.563,9.254-4.073,17.922-9.043,25.803c-3.416,5.414-8.241,9.686-14.683,11.24
		c-7.178,1.732-15.093-4.584-21.753-6.59c-2.605-0.784-4.426,3.209-1.881,4.316c7.353,3.195,14.218,8.73,22.688,8.48
		c6.91-0.205,12.869-4.512,17.288-9.28c8.439-9.104,12.822-21.936,13.573-33.971c0.638-10.208,0.057-22.19-5.436-31.217
		c-3.319-5.457-17.084-10.487-19.753-1.823C773.844,219.101,774.312,219.789,775.002,220.003L775.002,220.003z"/>
</g>
<g>
	<path fill="#4A4F5D" d="M706.764,307.44c4.362,19.572,12.067,44.869,37.983,40.563c22.347-3.713,24.858-35.7,27.613-52.638
		c0.586-3.604-4.973-5.235-5.76-1.536c-3.205,15.066-2.371,40.942-19.983,47.877c-23.281,9.166-31.356-19.703-35.975-35.3
		C709.924,303.984,706.223,305,706.764,307.44L706.764,307.44z"/>
</g>
<g>
	<path fill="#4A4F5D" d="M745.723,303.131c-0.399,7.285-1.243,14.639-1.809,21.927c-0.281,3.585-0.655,7.164-1.025,10.741
		c-0.333,3.213-1.61,6.382-0.446,9.466c0.37,0.98,1.858,1.678,2.688,0.686c3.411-4.089,2.357-11.474,2.408-16.468
		c0.084-8.863-0.875-17.543-1.355-26.352C746.166,302.845,745.739,302.845,745.723,303.131L745.723,303.131z"/>
</g>
<g>
	<path fill="#4A4F5D" d="M703.555,352.843c10.4,7,21.459,11.677,34.254,8.081c9.255-2.6,23.542-14.591,23.076-24.607
		c-0.037-0.798-1.03-1.566-1.816-1.007c-3.605,2.563-5.108,6.936-7.678,10.455c-3.194,4.373-7.29,7.904-12.163,10.418
		c-10.979,5.66-25.039,1.199-35.179-4.154C703.489,351.733,703.043,352.5,703.555,352.843L703.555,352.843z"/>
</g>
<g>
	<path fill="#4A4F5D" d="M540.815,418.529c39.234,24.061,88.732,22.625,129.981,4.8c17.469-7.546,33.487-18.202,47.692-30.541
		c11.157-9.689,23.683-22.17,29.503-35.755c1.355-3.164-4.29-5.457-5.722-2.334c-5.731,12.514-16.818,23.583-27.029,32.804
		c-13.065,11.795-28.057,21.522-44.043,29.2c-18.779,9.016-39.376,14.096-60.301,15.054c-24.762,1.135-46.998-5.422-69.681-14.141
		C540.649,417.399,540.342,418.239,540.815,418.529L540.815,418.529z"/>
</g>
<g>
	<path fill="#4A4F5D" d="M396.378,192.373c-5.924-10.919,0.515-25.62,5.69-35.428c5.778-10.943,13.493-21.369,22.382-30.148
		c12.492-12.337,27.147-21.379,43.17-28.823c8.215-3.817,16.895-6.735,25.676-9.054c7.962-2.101,16.784-2.205,24.45-5.068
		c0.618-0.23,0.801-1.249,0-1.393c-8.179-1.468-17.511,1.126-25.47,2.891c-9.864,2.187-19.442,5.19-28.777,8.973
		c-16.916,6.857-32.177,17.612-44.806,30.407c-10.246,10.381-18.725,22.968-24.615,36.109c-4.858,10.842-8.022,23.139-0.428,33.076
		C394.841,195.471,397.347,194.153,396.378,192.373L396.378,192.373z"/>
</g>
<g>
	<path fill="#4A4F5D" d="M529.689,66.711c14.051-6.399,31.136-7.218,46.37-6.994c25.814,0.379,51.428,5.572,75.594,14.205
		c29.76,10.631,60.57,27.516,81.677,50.734c20.35,22.384,31.297,52.345,33.797,81.761c0.347,4.112,7.016,4.145,6.663,0
		c-2.475-29.105-12.652-58.102-31.52-81.163c-20.793-25.409-51.78-42.492-82.444-54.465c-25.905-10.115-54.122-15.869-82.103-15.497
		c-15.689,0.209-35.373,1.276-48.788,10.17C528.135,65.994,528.815,67.108,529.689,66.711L529.689,66.711z"/>
</g>
<g>
	<path fill="#4A4F5D" d="M766.537,176.882c0.218-0.004,4.146,3.062,4.357,3.191c3.763,2.265,6.49,5.396,8.738,9.044
		c4.925,7.989,3.504,17.674,0.468,25.955c-1.415,3.853,4.662,5.262,6.201,1.655c4.237-9.928,4.256-21.205-1.437-30.569
		c-2.854-4.694-12.527-14.354-18.749-10.778C765.414,175.785,765.697,176.898,766.537,176.882L766.537,176.882z"/>
</g>
<g>
	<path fill="#4A4F5D" d="M778.299,203.086c1.863,0,3.419-1.504,3.419-3.306c0-1.803-1.556-3.306-3.419-3.306
		c-1.861,0-3.416,1.503-3.416,3.306C774.883,201.583,776.438,203.086,778.299,203.086L778.299,203.086z"/>
</g>
<g>
	<path fill="#4A4F5D" d="M668.508,245.278c2.132,0,3.908-1.719,3.908-3.778c0-2.058-1.776-3.777-3.908-3.777
		c-2.129,0-3.902,1.719-3.902,3.777C664.605,243.56,666.379,245.278,668.508,245.278L668.508,245.278z"/>
</g>
<g>
	<path fill="#4A4F5D" d="M658.706,269.07c3.891,0,3.891-5.833,0-5.833C654.818,263.236,654.818,269.07,658.706,269.07
		L658.706,269.07z"/>
</g>
<g>
	<path fill="#4A4F5D" d="M692.036,254.263c3.112,0,3.112-4.667,0-4.667C688.925,249.597,688.925,254.263,692.036,254.263
		L692.036,254.263z"/>
</g>
<g>
	<path fill="#4A4F5D" d="M690.075,282.174c2.081,0,3.818-1.681,3.818-3.695c0-2.014-1.737-3.694-3.818-3.694
		c-2.083,0-3.82,1.681-3.82,3.694C686.255,280.493,687.992,282.174,690.075,282.174L690.075,282.174z"/>
</g>
<g>
	<path fill="#4A4F5D" d="M671.45,288.981c3.889,0,3.889-5.834,0-5.834S667.562,288.981,671.45,288.981L671.45,288.981z"/>
</g>
<g>
	<path fill="#4A4F5D" d="M673.409,265.503c1.237,0,2.27-0.998,2.27-2.195c0-1.196-1.032-2.194-2.27-2.194
		c-1.234,0-2.269,0.999-2.269,2.194C671.141,264.505,672.175,265.503,673.409,265.503L673.409,265.503z"/>
</g>
<g>
	<path fill="#4A4F5D" d="M367.377,436.895c13.368-22.544,14.77-49.617,4.679-73.841c-6.964-16.723-22.042-25.484-40.417-24.68
		c-19.432,0.85-38.044,10.067-53.665,20.592c-19.521,13.154-40.033,30.517-65.591,26.167c-3.193-0.542-4.611,4.045-1.357,4.769
		c19.435,4.325,36.931-4.351,52.673-14.608c16.912-11.018,32.122-22.584,51.972-28.332c17.313-5.013,36.401-4.032,47.115,11.772
		c14.898,21.975,11.667,54.168,3.436,77.688C365.99,437.092,367.025,437.487,367.377,436.895L367.377,436.895z"/>
</g>
<g>
	<path fill="#4A4F5D" d="M216.753,398.727c-2.557-8.139-6.323-16.505-15.44-19.567c-9.231-3.1-19.802,1.481-23.493,10.459
		c-3.911,9.5,1.173,18.476,7.989,25.305c8.56,8.579,20.743,12.543,32.873,11.585c13.253-1.047,26.016-6.556,39.001-9.155
		c15.191-3.041,30.611-3.035,45.476,1.461c11.306,3.421,20.271,11.487,29.586,18.201c6.568,4.732,14.689,10.761,23.372,9.202
		c1.375-0.245,0.944-2.159-0.312-2.235c-8.11-0.498-15.819-6.915-21.841-11.592c-5.955-4.621-11.407-9.841-17.962-13.714
		c-17.113-10.116-38.279-9.857-57.396-6.728c-22.866,3.743-46.636,17.35-67.301,0.362c-9.111-7.491-13.498-19.579-2.017-27.245
		c9.387-6.268,22.408,6.488,26.258,14.152C215.876,399.877,216.969,399.412,216.753,398.727L216.753,398.727z"/>
</g>
<g>
	<path fill="#4A4F5D" d="M356.54,445.189c0.093,0,0.093-0.14,0-0.14C356.444,445.05,356.444,445.189,356.54,445.189L356.54,445.189z
		"/>
</g>
<g>
	<path fill="#4A4F5D" d="M332.49,301.433c-7.882-2.143-17.096,3.291-23.063,7.776c-5.547,4.167-17.167,13.324-15.944,21.056
		c0.132,0.853,1.293,1.163,1.981,0.78c2.312-1.287,2.858-2.749,4.261-4.984c2.558-4.068,6.037-7.532,9.623-10.75
		c7.077-6.351,14.96-8.516,23.337-12.457C333.329,302.55,333.123,301.604,332.49,301.433L332.49,301.433z"/>
</g>
<g>
	<path fill="#4A4F5D" d="M308.756,335.094c-10.984-7.885-25.769-10.086-39.053-11.281c-14.193-1.277-29.075-0.65-43.041,2.19
		c-28.321,5.761-56.066,19.351-78.546,36.787c-38.89,30.164-59.586,76.057-64.731,123.21c-4.165,38.178,0.744,80.012,18.346,114.776
		c27.971,55.235,89.683,87.891,151.065,94.51c19.621,2.116,39.551,1.342,58.995-1.879c9.992-1.655,19.797-4.173,29.413-7.263
		c11.83-3.803,22.33-9.699,33.346-15.198c2.174-1.083,0.627-4.758-1.679-3.856c-17.558,6.854-34.436,13.977-53.024,17.904
		c-16.744,3.537-33.966,4.855-51.08,4.42c-33.769-0.86-67.222-10.088-96.341-26.624c-27.062-15.367-50.438-38.253-64.601-65.458
		c-8.329-15.997-13.018-33.809-16.012-51.402c-7.6-44.66-1.806-92.76,20.848-132.729c27.097-47.8,82.958-82.451,139.49-84.657
		c17.833-0.697,39.523-0.493,55.125,8.997C308.913,338.535,310.233,336.155,308.756,335.094L308.756,335.094z"/>
</g>
<g>
	<path fill="#4A4F5D" d="M363.132,674.567c6.138-2.944,13.787-4.562,20.416-6.271c8.952-2.31,18.23-3.404,27.454-3.995
		c18.328-1.173,36.891,0.364,54.955,3.414c7.701,1.302,15.328,3.023,22.851,5.079c7.831,2.139,15.337,6.44,23.471,7.184
		c7.109,0.651,13.491-5.248,17.442-10.169c6.34-7.895,10.64-16.113,19.995-21.257c6.428-3.53,13.599-5.394,19.791-9.396
		c5.507-3.558,10.317-8.111,14.711-12.868c8.407-9.104,16.162-20.88,17.647-33.253c3.358-27.982-30.021-33.654-51.727-28.876
		c-14.84,3.269-28.522,11.623-38.071,23.04c-4.734,5.655-8.079,12.205-10.103,19.192c-2.303,7.952-0.939,14.683,0.783,22.422
		c0.238,1.066,1.835,0.597,1.665-0.445c-5.153-30.904,22.974-56.93,52.724-60.712c12.754-1.621,30.274,1.635,36.719,13.697
		c6.414,12.006-4.015,28.158-11.153,37.474c-4.209,5.489-9.352,10.514-14.967,14.654c-6.287,4.636-13.885,6.926-20.829,10.42
		c-6.935,3.486-12.224,9.568-16.486,15.75c-3.085,4.475-5.903,8.913-10.398,12.233c-4.932,3.649-10.872,1.41-15.922-0.539
		c-31.355-12.099-68.062-15.974-101.528-12.636c-7.647,0.763-15.174,2.157-22.55,4.238c-7.12,2.009-12.272,5.341-18.31,9.27
		C360.202,673.197,361.5,675.35,363.132,674.567L363.132,674.567z"/>
</g>
<g>
	<path fill="#4A4F5D" d="M251.78,487.679c32.743-12.647,65.593-22.874,101.308-19.562c29.664,2.751,61.464,13.159,84.117,32.304
		c11.263,9.517,19.562,21.779,24.404,35.426c6.39,18.01,2.125,37.153,2.852,55.685c0.497,12.618,2.267,24.059,14.642,30.292
		c9.535,4.803,18.836,0.52,24.693-7.213c1.48-1.952-1.941-3.91-3.372-1.905c-5.122,7.164-12.938,10.182-20.961,5.422
		c-6.424-3.813-8.536-12.247-9.235-18.847c-1.845-17.426,2.925-34.871,0.795-52.356c-3.188-26.186-21.775-47.867-44.165-61.529
		c-23.797-14.521-53.521-21.562-81.394-22.745c-33.111-1.405-64.276,10.757-94.432,22.403
		C249.369,485.697,250.092,488.329,251.78,487.679L251.78,487.679z"/>
</g>
<g>
	<path fill="#4A4F5D" d="M661.35,422.312c-13.703,16.05-30.718,28.771-51.225,35.455c-20.463,6.672-42.005,6.567-63.314,7.132
		c-18.254,0.484-37.356,1.612-54.303,8.802c-8.556,3.63-16.148,8.534-22.998,14.662c-6.983,6.244-15.037,14.93-18.365,23.598
		c-1.096,2.855,3.787,4.85,5.091,2.077c8.629-18.34,27.616-32.483,47.127-38.427c19.287-5.88,40.267-5.356,60.259-5.817
		c39.904-0.919,76.386-13.42,100.569-45.361C665.402,422.831,662.653,420.784,661.35,422.312L661.35,422.312z"/>
</g>
<g>
	<path fill="#4A4F5D" d="M582.271,468.288c0.039-0.077,0.076-0.156,0.112-0.233c-0.87,0.344-1.741,0.688-2.612,1.028
		c0.016,0.005,0.033,0.009,0.05,0.011c-0.566-0.719-1.133-1.438-1.7-2.159c-0.429,7.561-2.883,16.525-5.322,23.759
		c-6.144,18.206-16.197,35.783-26.872,51.856c-18.865,28.407-43.938,53.007-75.812,67.431c-3.154,1.427-0.409,5.922,2.726,4.512
		c32.222-14.515,57.263-38.931,76.764-67.278c11.22-16.304,20.863-34.217,27.809-52.619c3.035-8.054,5.911-19.066,5.339-27.66
		c-0.088-1.339-0.996-2.08-2.313-2.24c-0.019-0.002-0.034-0.005-0.052-0.008c-1.043-0.125-1.927,0.785-2.228,1.645
		c-0.029,0.082-0.06,0.163-0.087,0.244C577.24,468.948,581.146,470.564,582.271,468.288L582.271,468.288z"/>
</g>
<g>
	<path fill="#4A4F5D" d="M167.83,681.348c9.721,22.689-3.349,50.247-20.569,65.931c-13.089,11.922-35.844,9.212-50.271,1.238
		c-7.732-4.268-13.437-11.401-14.246-20.113c-0.594-6.385,1.746-10.63,7.423-13.831c5.335-3.009,10.489-5.612,15.277-9.456
		c9.703-7.787,18.548-18.991,23.612-30.131c4.996-10.985,5.579-23.278,7.541-34.974c0.606-3.595-5.111-5.089-5.647-1.507
		c-2.175,14.497-2.756,28.725-10.666,41.645c-4.438,7.25-10.583,13.907-16.865,19.711c-5.904,5.454-13.347,7.696-19.628,12.419
		c-7.993,6.011-8.646,16.986-4.78,25.553c3.879,8.59,11.575,14.451,20.256,18.198c17.335,7.484,39.281,6.894,53.274-6.337
		c18.288-17.289,27.188-45.871,16.232-68.731C168.53,680.451,167.605,680.825,167.83,681.348L167.83,681.348z"/>
</g>
<g>
	<path fill="#4A4F5D" d="M174.209,704.077c13.296,1.052,30.185-10.149,37.671-20.094c2.091-2.777-2.709-5.471-4.762-2.692
		c-7.478,10.138-21.414,16.236-33.328,19.784C172.025,701.602,172.46,703.939,174.209,704.077L174.209,704.077z"/>
</g>
<g>
	<path fill="#4A4F5D" d="M673.18,507.974c-6.324-2.328-14.499-1.665-21.224-2.961c-8.947-1.725-17.766-4.907-26.088-8.453
		c-16.627-7.085-29.249-17.073-39.772-31.214c-1.68-2.258-6.335-0.93-5.039,2.054c6.807,15.655,25.233,25.958,40.536,32.35
		c8.842,3.693,18.106,6.293,27.534,8.132c6.902,1.345,17.232,4.28,24.053,1.914C674.123,509.468,674.094,508.312,673.18,507.974
		L673.18,507.974z"/>
</g>
<g>
	<path fill="#4A4F5D" d="M666.808,522.861c4.903-9.332,9.029-17.761,20.356-20.601c10.133-2.542,16.349,8.835,14.665,17.17
		c-2.502,12.352-21.158,16.356-31.741,18.274c-19.002,3.448-38.671-0.353-57.287-4.175c-18.666-3.831-41.001-11.782-59.162-2.388
		c-2.619,1.356-0.306,5.155,2.318,3.839c13.166-6.603,28.18-1.979,41.812,0.846c14.636,3.035,29.204,6.24,44.116,7.729
		c17.308,1.726,35.671-0.17,51.274-8.044c13.66-6.895,19.142-20.432,9.377-33.164c-4.762-6.209-13.923-7.062-20.834-3.988
		c-10.325,4.592-14.197,13.417-17.516,23.431C663.69,523.285,666.07,524.268,666.808,522.861L666.808,522.861z"/>
</g>
<g>
	<path fill="#4A4F5D" d="M675.297,517.766c0.845-4.727,4.068-8.24,7.651-11.389c1.783-1.566,3.953-2.531,6.234-3.196
		c2.567-0.747,4.862,0.303,7.387,0.103c0.804-0.064,1.279-0.958,0.671-1.564c-3.684-3.67-10.492-1.31-14.181,1.158
		c-5.067,3.388-7.366,9.062-8.594,14.667C674.351,518.073,675.203,518.29,675.297,517.766L675.297,517.766z"/>
</g>
<g>
	<path fill="#4A4F5D" d="M686.888,510.068c1.609-1.61,3.413-2.927,5.471-3.954c1.274-0.637,2.745-0.932,4.165-0.698
		c1.276,0.21,2.03,1.32,3.193,1.779c0.474,0.186,0.809-0.336,0.741-0.718c-0.5-2.916-4.583-3.149-6.925-2.549
		c-2.996,0.768-5.716,3.163-7.185,5.735C686.159,509.993,686.609,510.346,686.888,510.068L686.888,510.068z"/>
</g>
<g>
	<path fill="#4A4F5D" d="M194.212,406.896c-4.868-1.229-6.738-4.319-8.176-8.786c-0.984-3.061-0.11-8.352-2.539-10.686
		c-0.267-0.258-0.663-0.231-0.932,0c-2.99,2.556-1.087,9.972,0.491,12.912c2.236,4.162,5.967,6.956,10.85,7.63
		C194.62,408.065,194.95,407.081,194.212,406.896L194.212,406.896z"/>
</g>
<g>
	<path fill="#4A4F5D" d="M195.428,397.22c-4.226-3.351-6.739-9.029-2.344-13.388c0.412-0.406,0.594-1.011,0.427-1.563
		c-0.15-0.501-0.299-0.695-0.764-0.961c-0.678-0.388-1.443-0.221-2.014,0.252c-5.756,4.771-3.134,14.658,4.33,16.264
		C195.399,397.895,195.739,397.465,195.428,397.22L195.428,397.22z"/>
</g>
<g>
	<path fill="#4A4F5D" d="M395.496,164.232c-10.583-11.472-26.591-17.263-41.245-22.2c-17.104-5.762-34.671-9.385-52.76-10.359
		c-37.891-2.042-77.417,6.733-114.189-5.477c-33.087-10.987-46.659-47.544-36.837-78.685c4.515-14.312,15.654-25.086,29.092-31.931
		c17.579-8.956,35.557-9.355,54.712-5.878c25.125,4.559,49.679,12.431,74.634,17.866c29.176,6.353,58.667,11.875,88.34,15.551
		c28.784,3.566,57.877,4.107,86.821,5.597c14.885,0.765,29.744,1.744,44.549,3.425c14.936,1.695,29.437,4.979,44.185,7.611
		c2.952,0.527,4.241-3.77,1.251-4.393c-21.679-4.521-42.706-8.823-64.861-10.799c-23.269-2.075-46.649-2.634-69.97-3.889
		c-48.325-2.601-95.587-11.565-142.72-21.814C261.884,11.33,223.616-5.718,188.244,6.213c-27.424,9.25-45.808,30.208-46.896,58.639
		c-0.813,21.231,6.63,43.455,24.171,56.944c17.165,13.202,40.415,16.183,61.626,17.099c31.171,1.347,62.306-4.021,93.379,0.723
		c12.289,1.876,24.475,5.515,36.167,9.538c12.453,4.285,25.562,9.738,35.88,17.903C394.615,168.677,397.3,166.186,395.496,164.232
		L395.496,164.232z"/>
</g>
<g>
	<path fill="#4A4F5D" d="M295.516,132.912c-7.669-0.546-17.222,4.99-23.755,8.476c-8.273,4.414-15.591,10.238-21.85,17.058
		c-12.32,13.423-18.109,31.114-14.046,48.771c8.622,37.461,59.234,49.907,90.321,30.206c2.252-1.426,0.838-5.458-1.927-4.417
		c-16.522,6.23-32.998,11.23-50.624,5.723c-15.669-4.896-27.845-17.812-32.054-33.038c-4.501-16.278,2.813-32.675,13.875-44.75
		c5.436-5.938,12.055-10.934,18.942-15.184c3.504-2.162,7.222-3.979,10.991-5.663c3.567-1.593,7.671-2.295,10.881-4.491
		C297.501,134.763,297.042,133.021,295.516,132.912L295.516,132.912z"/>
</g>
<g>
	<path fill="#4A4F5D" d="M371.896,150.344c-11.509-6.285-31.693-1.38-42.854,3.544c-13.084,5.77-25.904,16.521-21.241,31.795
		c4.89,16.027,22.336,15.412,35.411,9.822c16.259-6.95,32.835-20.174,44.789-32.851c1.654-1.751-1.2-4.353-2.639-2.553
		c-8.864,11.09-21.476,20.323-34.229,26.795c-10.874,5.518-29.799,13.434-37.184-0.608c-7.237-13.767,8.293-23.661,19.062-28.724
		c11.56-5.437,25.27-7.646,37.887-4.936C372.299,152.93,373.212,151.063,371.896,150.344L371.896,150.344z"/>
</g>
<g>
	<path fill="#4A4F5D" d="M187.657,310.044c7.078-2.544,15.271-2.845,22.502-0.72c9.105,2.675,12.511,9.839,12.959,18.459
		c0.167,3.188,4.936,3.184,5.113,0c1.265-22.988-24.008-27.229-41.194-19.161C186.221,309.006,186.801,310.352,187.657,310.044
		L187.657,310.044z"/>
</g>
<g>
	<path fill="#4A4F5D" d="M159.055,306.014c5.527-4.146,11.776-6.975,18.784-7.666c3.639-0.36,7.368,0.253,10.633,1.834
		c3.317,1.604,4.277,4.936,6.899,7.132c0.853,0.714,2.083,0.229,2.158-0.865c0.528-7.792-10.053-11.728-16.586-11.891
		c-8.409-0.21-17.928,4.118-22.52,10.983C158.153,305.946,158.722,306.264,159.055,306.014L159.055,306.014z"/>
</g>
<g>
	<path fill="#4A4F5D" d="M107.936,304.214c7.178-7.058,14.612-11.715,25.115-12.398c10.258-0.667,19.876,4.252,26.894,11.128
		c2.267,2.221,5.798-1.199,3.534-3.418c-15.874-15.551-44.579-17.126-56.941,3.645C106.034,304.017,107.219,304.918,107.936,304.214
		L107.936,304.214z"/>
</g>
<g>
	<path fill="#4A4F5D" d="M44.479,335.369c0.333-7.766,1.067-13.907,5.534-20.66c4.574-6.909,12.302-12.006,20.125-14.824
		c11.636-4.192,27.153-5.222,37.882,1.516c2.329,1.463,5.197-2.048,2.994-3.751c-11.6-8.96-31.294-6.359-44.009-1.07
		c-13.474,5.604-29.617,23.668-24.272,39.019C43.052,336.521,44.437,336.357,44.479,335.369L44.479,335.369z"/>
</g>
<g>
	<path fill="#4A4F5D" d="M43.099,324.806c-15.699-1.053-29.802,16.021-36.717,27.68c-4.555,7.676-5.624,16.488-4.562,25.157
		c0.958,7.831,4.454,18.769,11.335,23.562c0.768,0.534,1.829-0.345,1.561-1.16c-2.33-7.161-6.81-13.101-8.365-20.714
		c-1.7-8.31-0.071-17.186,3.968-24.62c6.133-11.29,18.919-25.382,32.78-26.795C45.143,327.708,45.196,324.946,43.099,324.806
		L43.099,324.806z"/>
</g>
<g>
	<path fill="#4A4F5D" d="M7.374,389.777c-9.231,6.613-10.451,17.48-5.421,26.983c4.039,7.62,16.118,18.256,25.768,15.919
		c1.056-0.253,1.02-1.491,0.275-2.03c-2.835-2.042-6.394-2.979-9.438-4.751c-3.971-2.311-7.38-5.125-10.21-8.684
		c-6.858-8.614-4.721-16.938,1.54-25.006C10.976,390.804,8.825,388.735,7.374,389.777L7.374,389.777z"/>
</g>
<g>
	<path fill="#4A4F5D" d="M15.946,426.676c-6.172,5.09-6.895,15.736-6.509,23.007c0.45,8.453,4.703,16.671,10.437,22.881
		c7.937,8.597,32.675,23.295,43.009,10.895c0.442-0.53,0.252-1.683-0.667-1.563c-6.883,0.877-12.291,1.412-18.927-1.184
		c-6.646-2.604-12.789-6.494-18.015-11.228c-5.466-4.956-8.314-11.646-9.704-18.632c-1.708-8.573,1.29-14.602,3.159-22.607
		C19.109,426.613,17.208,425.635,15.946,426.676L15.946,426.676z"/>
</g>
<g>
	<path fill="#4A4F5D" d="M47.964,484.132c-5.218,7.02,3.985,17.51,9.419,21.554c8.221,6.12,20.289,6.159,28.726,0.689
		c2.835-1.838,0.302-6.164-2.697-4.462c-6.887,3.911-14.751,3.155-21.59-0.465c-3.381-1.79-6.088-4.358-8.201-7.446
		c-2.129-3.11-1.71-6.831-3.622-9.87C49.508,483.353,48.473,483.445,47.964,484.132L47.964,484.132z"/>
</g>
<g>
	<path fill="#5F2420" d="M713.212,209.562c-10.394,6.452-2.562,19.992,8.232,20.85c4.611,0.366,9.988-3.634,14.16-0.05
		c2.129,1.828,3.308,3.783,6.023,4.898c5.635,2.315,12.466,3.257,18.417,1.744c8.302-2.11,16.825-12.829,17.473-21.181
		c0.48-6.189-3.445-10.837-8.898-13.57c-13.718-6.876-33.937-4.736-47.686,0.88c-5.956,2.434-11.711,6.096-13.81,12.312
		c-3.211,9.508,7.242,14.762,15.448,13.288c0.549-0.098,0.491-0.885,0-1.018c-18.936-5.101-8.036-16.368,3.535-20.224
		c10.692-3.566,23.27-4.377,34.267-1.737c10.72,2.574,13.312,9.251,7.055,18.025c-3.659,5.133-8.198,8.362-14.76,8.209
		c-6.355-0.146-9.948-2.445-14.61-6.099c-2.784-2.184-6.081-2.266-9.41-1.522c-4.392,0.982-7.313,1.962-11.889-0.478
		c-5.813-3.1-6.688-8.182-2.608-13.151C714.662,210.12,714.012,209.067,713.212,209.562L713.212,209.562z"/>
</g>
</svg>
