<?xml version="1.0" encoding="utf-8"?>
<!-- Generator: Adobe Illustrator 14.0.0, SVG Export Plug-In . SVG Version: 6.00 Build 43363)  -->
<!DOCTYPE svg PUBLIC "-//W3C//DTD SVG 1.1//EN" "http://www.w3.org/Graphics/SVG/1.1/DTD/svg11.dtd">
<svg version="1.1" id="Layer_1" xmlns="http://www.w3.org/2000/svg" xmlns:xlink="http://www.w3.org/1999/xlink" x="0px" y="0px"
	 width="800px" height="780px" viewBox="0 0 800 780" enable-background="new 0 0 800 780" xml:space="preserve">
<path fill="#9BA4BC" d="M140.506,427.342c16.91,32.712,76.461,36.27,76.461,43.378c31.612,112.358,111.75,139.382,108.811,143.648
	c-13.232,14.224-27.741,2.7-28.673,0c-8.089-23.467-16.92-31.986-24.264-36.979c-27.201-18.488-62.49-13.511-72.05,3.558
	c-9.556,17.065,27.204,56.179,30.146,57.603c2.94,1.42,17.643,1.42,34.552,22.754c16.911,21.335,22.728,14.039,33.087,10.668
	c80.872-26.312,126.355-2.136,134.541,1.422c130.864,56.892,228.679-29.134,234.529-36.268
	c84.548-103.114,26.183-221.886,18.382-232.539c-74.992-102.403-181.515-74.994-183.064-77.513
	c-18.383-29.868-66.905-30.579-69.847-29.868C433.116,297.205,322.102,462.188,140.506,427.342z"/>
<path fill="#5C6272" d="M488.746,344.85c1.961-3.793,15.686-14.222,14.217-17.777c-16.177-25.838-69.111-33.424-69.111-26.786
	c0,18.963-11.764,61.631-11.764,61.631s0.982,6.638,1.962,14.222C424.05,376.14,432.871,325.888,488.746,344.85z"/>
<path fill="#9BA4BC" d="M405.179,191.605l18.749-14.578l5.512,27.733l19.115-10.312l-4.043,29.868c0,0,11.028,4.978,29.409,5.689
	c1.102,0.356-13.97,15.29-13.97,15.29s10.66,17.067,19.852,25.601c1.102,1.066-20.218,3.2-20.218,3.2s0.734,12.799,9.923,27.378
	c1.104,1.777-33.817-4.623-33.817-4.623s2.204,57.601-35.657,86.403c-2.572,1.42-134.785,89.602-257.318,45.985
	c-10.781-5.688-63.72-31.29-87.243-67.32c-3.922-8.534-12.747-14.222-15.196-21.808c-0.491-2.371-8.332-14.222-11.271-47.883
	c0-2.845-37.252-7.111-22.548-70.639c0,0,3.921-7.586,14.703-4.741c2.449,1.896,1.473-8.06,6.371-10.43
	c3.92-65.424,64.698-147.915,205.854-148.864c0,0,56.366-14.696,113.224-13.274c6.37,0.474,100.478-5.215,223.01-39.349
	c57.346-12.801,127.433,58.313,59.308,115.203c-4.901,5.214-40.685,23.704-117.634,13.274c-6.797-0.92-63.229,0-106.358,31.29
	c1.47,3.792,2.449,12.801,2.449,16.593L405.179,191.605z"/>
<path fill="#7C8397" d="M248.58,256.196c-29.405,20.861-59.362,0.08-66.166-4.74c-69.601-49.305-12.24-120.379,43.133-123.263
	c31.857-1.658,52.906,19.802,66.41,37.453c9.07,11.855,42.644,19.2,38.231-17.778c8.822,11.377,16.21,39.409,19.116,40.534
	C349.305,188.402,267.696,185.558,248.58,256.196z"/>
<path fill="#7C8397" d="M243.437,532.59c-2.942-2.846-19.851-4.979-24.997-3.556c-17.645,4.977-72.05,12.799-78.666,12.799
	c-44.848-2.843-49.995-22.044-42.641-36.978c7.349-14.934,24.995,2.844,29.405,3.555c57.347-0.711,89.695-42.667,89.695-42.667
	S221.379,502.721,243.437,532.59z"/>
<path fill="#7C8397" d="M588.244,683.347c24.262,21.335,30.143,17.068,37.495,19.202c4.411,37.69,26.466,49.066,36.024,54.045
	c44.848,5.689,53.671-17.067,56.609-27.732c2.942-10.668-5.879-15.646-11.027-17.779c-42.641-22.754-42.641-68.267-42.641-73.246
	C664.705,637.836,618.388,677.659,588.244,683.347z"/>
<path fill="#C1D0D8" d="M213.295,154.266c-28.43,5.689-38.229,39.823-38.229,54.994c7.84,40.771,76.458,34.134,77.439,31.29
	c6.86-19.911,25.485-30.283,25.485-37.928c0-18.963-2.938-26.547-14.704-38.874C251.522,151.422,224.024,152.118,213.295,154.266z"
	/>
<path fill="#FFFFFF" d="M52.281,283.694c-9.558,6.399-22.791,9.955-23.524,11.377c2.942,45.513,22.057,49.779,30.146,49.779
	c22.055,2.846,30.875-37.688,30.875-37.688S66.253,301.472,52.281,283.694z"/>
<path fill="#7C8397" d="M511.293,133.408c3.183,0.476,73.276,38.639,40.927,87.707c-5.376,8.155-26.468,36.978-77.932,14.933
	c-3.677-1.422-0.366-6.045-0.366-6.045s-27.571-4.621-29.409-5.689c-1.838-1.067,4.043-29.868,4.043-29.868l-19.115,10.312
	l-5.512-27.733l-18.749,14.578c0,0,3.675-15.289-0.245-26.905C404.935,164.698,443.409,132.934,511.293,133.408z"/>
<path fill="#CBD9E0" d="M609.318,340.583C719.6,396.052,711.758,503.906,714.209,505.091c29.406,8.297,36.27-20.146,36.27-20.146
	c54.16-18.254,33.574-54.284,32.594-56.655c25.242-17.778,8.088-37.453,8.088-37.453c15.93-53.097-30.88-64.001-36.024-65.423
	c-17.4-42.905-62.003-29.393-66.658-25.363c-32.595-25.365-50.729,3.554-52.444,1.896c-25.242-14.935-31.125,4.977-33.574,4.502
	c-29.164-5.452-30.385,21.336-30.385,21.336S600.987,337.739,609.318,340.583z"/>
<g>
	<g>
		<path fill="#A8BCC8" d="M712.273,486.523c1.352,11.237,1.318,18.27,1.936,18.567c29.406,8.297,36.27-20.146,36.27-20.146
			c54.16-18.254,33.574-54.284,32.593-56.654c25.242-17.778,8.089-37.453,8.089-37.453c15.93-53.097-30.881-64.001-36.025-65.423
			c-17.4-42.905-62.004-29.393-66.658-25.363c-31.329-24.379-49.289,1.374-52.161,1.94c1.509,0.982,3.041,2.046,4.618,3.273
			c4.654-4.029,49.258-17.541,66.658,25.364c5.146,1.422,51.955,12.325,36.023,65.424c0,0,17.156,19.674-8.087,37.452
			C736.447,435.727,754.588,467.514,712.273,486.523z"/>
		<path fill="#A8BCC8" d="M724.373,507.32c-3.248,0-6.736-0.521-10.492-1.596c-0.666-0.323-0.74-0.988-1.118-6.098
			c-0.238-3.212-0.565-7.612-1.218-13.025l-0.062-0.511l0.479-0.216c13.361-6.002,21.957-13.885,25.558-23.432
			c2.229-5.918,3.631-15.592-2.386-28.065c-0.139-0.284-0.236-0.49-0.288-0.613l-0.212-0.513l0.462-0.326
			c7.968-5.61,12.446-11.969,13.321-18.901c1.234-9.796-5.297-17.442-5.363-17.519l-0.252-0.29l0.109-0.364
			c4.979-16.602,4.248-30.659-2.176-41.783c-4.308-7.467-13.502-17.452-32.826-22.62l-0.871-0.237l-0.134-0.327
			c-10.099-24.903-29.038-30.13-43.146-30.13c-11.602,0-20.68,3.603-22.338,5.037l-0.461,0.403l-0.487-0.379
			c-1.41-1.097-2.861-2.127-4.567-3.238l-1.258-0.862l1.514-0.421c0.312-0.088,1.34-0.986,2.248-1.779
			c3.952-3.457,12.174-10.65,24.148-10.65c8.302,0,17.02,3.457,25.928,10.279c2.942-1.977,12.146-5.026,22.815-5.026
			c14.506,0,33.948,5.34,44.385,30.703l0.16,0.043c19.812,5.301,29.274,15.594,33.721,23.298
			c6.573,11.388,7.384,25.689,2.406,42.517c1.259,1.566,6.629,8.875,5.45,18.285c-0.899,7.204-5.418,13.781-13.438,19.557
			c0.01,0.016,0.014,0.028,0.021,0.044c6.599,13.678,4.643,24.204,1.839,30.625c-4.918,11.272-16.613,20.118-34.757,26.3
			C750.24,488.442,744.027,507.316,724.373,507.32L724.373,507.32L724.373,507.32z M711.301,295.543
			c-11.6,0-20.678,3.603-22.334,5.036l-0.465,0.403l-0.487-0.378c-8.795-6.844-17.359-10.314-25.458-10.314
			c-11.409,0-19.346,6.945-23.163,10.282c-0.733,0.642-1.281,1.117-1.722,1.455c1.173,0.786,2.233,1.546,3.267,2.333
			c2.944-1.977,12.149-5.025,22.819-5.025c14.505,0,33.945,5.339,44.381,30.703l0.163,0.043c19.812,5.3,29.272,15.594,33.72,23.297
			c6.574,11.388,7.385,25.69,2.405,42.517c1.262,1.565,6.632,8.874,5.454,18.286c-0.901,7.203-5.42,13.78-13.438,19.556
			c0.009,0.016,0.015,0.028,0.022,0.045c6.229,12.915,4.763,22.982,2.437,29.15c-3.696,9.802-12.385,17.878-25.836,24.019
			c0.613,5.21,0.929,9.454,1.16,12.579c0.17,2.292,0.319,4.303,0.485,4.962c3.394,0.932,6.642,1.405,9.66,1.405h0.002
			c20.035-0.002,25.338-20.904,25.39-21.115l0.094-0.38l0.381-0.13c17.946-6.049,29.472-14.673,34.257-25.636
			c2.686-6.155,4.553-16.267-1.816-29.471c-0.139-0.283-0.237-0.489-0.287-0.611l-0.213-0.514l0.461-0.327
			c7.97-5.609,12.451-11.968,13.322-18.901c1.233-9.796-5.297-17.441-5.364-17.518l-0.252-0.291l0.11-0.364
			c4.979-16.602,4.248-30.659-2.175-41.783c-4.309-7.465-13.502-17.45-32.825-22.619L754.584,326l-0.133-0.328
			C744.351,300.77,725.412,295.543,711.301,295.543L711.301,295.543z"/>
	</g>
</g>
<g>
	<path fill="#CBD9E0" d="M289.017,470.01c-9.81-2.966-57.969-3.459-78.805-3.539c4.197,1.458,6.756,2.779,6.756,4.249
		c29.543,104.997,101.451,135.471,108.347,142.496c12.708-17.008,4.874-51.431,4.874-57.871
		c1.472-24.889,10.293-37.689,14.705-44.089C323.572,481.389,300.781,473.565,289.017,470.01z"/>
</g>
<path fill="#F59183" d="M30.964,204.758c-6.249,3.912-9.559,9.957-6.249,16.712c8.454,15.289,24.63,13.511,29.406,12.089
	c4.781-1.423,10.66-7.823,13.234-7.467c2.572,0.356,12.129,4.267,19.482-3.556c7.35-7.821-14.718-18.805-18.381-19.911
	C56.693,199.069,37.212,200.848,30.964,204.758z"/>
<path fill="#CBD9E0" d="M65.886,226.091c-4.043,2.134-6.618,7.112-20.954,8.534c-14.335,1.422-19.483-16-23.771-17.778
	c-2.448-0.711-8.945-3.199-12.254,2.845c-22.056,41.956,8.087,66.135,18.014,72.18c9.926,6.045,23.068-10.911,25.362-8.178
	c34.922,41.601,85.231,18.381,87.857,14.934c25.73-33.779,11.764-61.157,0-73.246c-11.762-12.09-45.951-4.978-50.73-3.201
	C89.409,222.181,83.161,231.426,65.886,226.091z"/>
<path fill="#7C8397" d="M148.981,69.8c59.408-9.402,170.178,1.029,193.703,117.655c9.505,1.533,55.679,12.712,62.61,3.601
	l2.088-9.765c-1.984-23.237-18.647-82.024-170.592-123.744c-0.541-0.148-1.151-0.277-1.83-0.389
	c-1.02,0.252-1.575,0.396-1.575,0.396C201.15,57.771,173.115,62.251,148.981,69.8z"/>
<g>
	<path fill="#7C8397" d="M398.561,152.845c3.149,4.873,5.752,8.434,7.708,10.921c42.953-30.357,98.296-31.268,105.024-30.358
		c76.949,10.431,112.731-8.059,117.633-13.274c32.92-27.49,33.564-58.3,18.969-81.359c-8.9,57.647-111.007,53.307-161.109,44.38
		c-55.875-9.956-173.505-2.844-195.563-5.689C291.222,77.466,367.684,100.223,398.561,152.845z"/>
</g>
<path fill="#6A7182" d="M360.094,112.123c14.788,10.815,28.843,24.317,38.468,40.721c3.149,4.873,5.752,8.434,7.708,10.921
	c42.953-30.357,98.296-31.268,105.023-30.358c76.949,10.431,112.732-8.059,117.634-13.274c12.741-10.64,20.63-21.778,24.69-32.772
	c-22.503,42.473-110.908,38.154-156.416,30.045C462.696,111.259,404.648,111.619,360.094,112.123z"/>
<path fill="#AEB9D3" d="M87.816,214.002c-1.846-8.933-17.595-74.24,59.252-143.608C66.86,96.238,30.534,156.33,27.531,206.418
	c-0.91,0.44-1.615,1.143-2.18,1.982C36.142,204.838,65.276,193.756,87.816,214.002z"/>
<g>
	<path fill="#CBD0E2" d="M139.416,73.015c-74.868,27.11-108.98,84.937-111.885,133.403c-0.91,0.44-1.615,1.143-2.18,1.982
		c5.203-1.718,14.674-5.176,25.615-6.035C56.745,157.195,84.547,107.05,139.416,73.015z"/>
</g>
<path fill="#7C8397" d="M433.117,297.204c0.325-0.21,1.245-0.231,2.58-0.122c-0.005-0.149-0.006-0.233-0.006-0.233
	s1.61,0.295,4.124,0.74c8.207,1.215,21.829,3.951,29.617,4.063c0.083-0.048,0.125-0.104,0.076-0.181
	c-9.189-14.578-9.923-27.378-9.923-27.378s21.319-2.134,20.218-3.2c-9.191-8.534-19.852-25.601-19.852-25.601
	s15.071-14.934,13.97-15.29c-18.381-0.711-29.409-5.689-29.409-5.689l4.043-29.868l-19.115,10.312l-5.512-27.733l-18.749,14.578
	l0.117-0.548c-0.001,0.001-0.001,0.001-0.001,0.001c-13.352,7.303-44.964-4.786-66.285-2.653
	c-21.32,2.134-60.286,5.689-78.667,38.401c-2.205,4.979-10.292,25.601-10.292,25.601c16.909-24.178,80.137-36.98,111.752-6.4
	c24.261,23.467,43.376,84.624-19.118,143.647C332.902,398.894,423.561,415.964,433.117,297.204z"/>
<path fill="#5C6272" d="M412.532,162.801c49.994,44.802,74.254,38.401,75.727,14.934c1.47-23.467-43.379-27.734-51.464-29.867
	C436.795,147.868,408.12,158.535,412.532,162.801z"/>
<path fill="#3E424F" d="M412.531,162.801c49.994,44.802,74.254,38.401,75.727,14.934c0.252-4.04-0.894-7.499-2.959-10.487
	c-1.518,22.304-23.799,28.962-69.376-9.612C412.905,159.628,411.192,161.509,412.531,162.801z"/>
<path fill="#7C8397" d="M588.979,386.807c-3.677,1.422-19.115,1.422-29.41-2.134c-30.141-12.087-52.196-36.977-86.019-42.667
	c-52.415-8.817-51.463,56.18-49.99,56.891c0.734-12.088,57.344-37.688,94.841-16.355c37.494,21.334,64.697,15.645,64.697,15.645
	S585.304,391.074,588.979,386.807z"/>
<path fill="#AEB9D3" d="M140.506,427.342c13.97,26.312,61.758,36.979,75.727,38.401c13.97,1.423,72.784,4.267,98.516,15.646
	c25.733,11.377,30.146,29.867,30.146,29.867s19.899-16.382,19.115-17.779c-18.382-32.711-52.2-44.089-72.787-54.046
	c-20.585-9.955-33.817-21.333-33.817-21.333S208.881,446.542,140.506,427.342z"/>
<path fill="#5C6272" d="M96.396,512.677c-0.465-0.349-1.005-0.709-1.591-1.068c-2.667,13.441,6.671,27.796,44.968,30.225
	c6.616,0,61.021-7.822,78.666-12.799c5.146-1.423,22.055,0.71,24.997,3.556c-12.75-17.265-19.842-36.894-23.562-50.394
	C212.315,505.004,127.964,557.417,96.396,512.677z"/>
<path fill="#FFFFFF" d="M251.385,241.17c0.658-0.213,1.051-0.426,1.119-0.62c6.051-17.552,12.657-21.05,16.175-28.443
	c0.977-16.118-1.971-25.986-11.765-37.452c-9.312-10.905-28.166-14.157-37.74-11.982c-23.525,5.344-34.31,22.885-33.818,43.271
	C186.348,240.14,238.853,243.516,251.385,241.17z"/>
<path fill="#C07369" d="M54.121,233.559c4.781-1.423,10.66-7.823,13.234-7.467c2.572,0.356,12.129,4.267,19.482-3.556
	c7.35-7.821-14.718-18.805-18.381-19.911c-2.403-0.727-5.138-1.22-8.009-1.529c-0.055,0.366-0.078,0.581-0.078,0.581
	c3.921,5.689,4.411,21.808-7.354,27.971c-3.146,1.649-4.351,3.265-4.332,4.773C51.012,234.293,52.923,233.915,54.121,233.559z"/>
<path fill="#A5B9C4" d="M52.282,283.694c34.922,41.601,85.231,18.381,87.857,14.934c25.73-33.779,11.764-61.157,0-73.246
	c-11.762-12.09-45.951-4.978-50.73-3.201c0,0-4.689,6.925-17.167,5.321c18.581,6.841,31.84,29.009,16.066,47.659
	C75.074,290.805,61.842,286.538,52.282,283.694z"/>
<path fill="#E9E7DC" d="M52.282,283.693l2.207,60.446c0,0,1.421,0.355,3.703,0.699c0.24,0.008,0.48,0.012,0.71,0.012
	c22.055,2.846,30.875-37.688,30.875-37.688S66.253,301.472,52.282,283.693z"/>
<path fill="#A5B9C4" d="M330.921,584.739c0.378,2.881,0.791,5.542,1.231,8.025c1.611-15.909-1.964-33.064-1.964-37.42
	c1.472-24.889,10.293-37.689,14.705-44.089c-21.321-29.867-44.112-37.689-55.877-41.246c-6.869-2.076-32.536-2.939-54.464-3.299
	C271.075,483.317,322.246,518.38,330.921,584.739z"/>
<path fill="#7C8397" d="M261.043,656.115c1.461,1.574,2.945,3.293,4.444,5.188c16.911,21.335,22.728,14.039,33.087,10.668
	c80.872-26.312,126.355-2.136,134.541,1.422c130.864,56.892,228.68-29.134,234.529-36.268c3.545-4.325,6.84-8.68,9.898-13.05
	c24.449-30.322,57.504-99.179,17.06-202.426c0,0-65.677-129.899-206.836-84.386c-6.705,2.161,39.212,27.497,48.034,34.134
	s30.388,21.808,53.179,15.41c4.657-0.239,11.519-10.67,23.281-2.136c11.765,8.534,7.841,29.395-20.585,39.824
	c-12.745,0-54.896-12.326-68.62-12.326s-38.229,4.741-52.935,18.964c-5.411,5.236-23.524,15.171-23.524,15.171
	c29.603-10.267,121.551-5.689,164.267,52.106c66.521,86.751-60.59,138.436-110.845,146.538
	c-52.932,8.532-151.521-17.683-198.502,15.644C287.33,670.653,274.361,664.241,261.043,656.115z"/>
<path fill="#AEB9D3" d="M297.105,614.368c-1.473,10.669-2.696,14.579-1.962,14.935c44.889,21.711,58.6-8.667,71.068-68.268
	c24.999-119.47,180.86-73.959,180.86-73.959s-126.454-64.001-202.179,24.18c-26.23,32.698-2.103,93.987-21.74,105.591
	C310.692,627.106,297.975,616.89,297.105,614.368z"/>
<g>
	<path fill="#AEB9D3" d="M229.18,637.104c-11.406-15.943-18.695-38.375-5.104-46.677c41.146-25.139,71.068,38.875,71.068,38.875
		s2.031-5.125,4.345-12.274c-1.334-1.068-2.181-2.072-2.383-2.659c-8.089-23.467-16.92-31.986-24.264-36.979
		c-27.201-18.488-62.49-13.511-72.049,3.558C192.166,596.352,221.266,629.706,229.18,637.104z"/>
</g>
<path fill="#F5F5F6" d="M26.079,291.344c1.428-1.495,1.979-3.018,1.207-4.096c-21.321-29.866-5.145-66.845-2.571-65.779
	c0,0-0.674-1.335-1.721-3.093c-0.642-0.741-1.244-1.286-1.834-1.529c-2.448-0.711-8.945-3.199-12.254,2.845
	C-12.564,260.533,15.421,284.522,26.079,291.344z"/>
<path fill="#AEB9D3" d="M635.771,24.37C618.39,8.407,592.949-0.277,569.619,4.931C447.086,39.065,352.979,44.754,346.608,44.28
	c-43.622-1.091-86.923,7.3-104.73,11.269c13.607,4.159,22.71,11.588,26.31,11.488c172.527-4.74,248.986-35.082,285.256-46.46
	C586.025,10.356,617.015,16.204,635.771,24.37z"/>
<path fill="#7C8397" d="M52.168,356.496c1.265,1.699,2.411,3.484,3.304,5.421c21.412,32.795,67.176,56.942,83.358,65.306
	c0.646,0.026,1.212,0.064,1.678,0.118c76.705,19.913,116.896-9.244,116.896-9.244s-93.126,11.142-162.726-64.713
	C92.735,349.625,76.332,367.285,52.168,356.496z"/>
<g>
	<path fill="#6A7182" d="M407.391,189.884l10.173-7.912c-5.104-5.861-9.045-12.045-11.295-18.205
		c-0.012-0.032-0.019-0.046-0.029-0.076c-0.126,0.094-0.256,0.191-0.364,0.272C406.138,167.244,407.892,178.701,407.391,189.884z"/>
	<path fill="#6A7182" d="M552.219,221.115c31.773-48.197-35.279-85.87-40.69-87.642c-14.7,0.195-36.35,3.344-47.992,5.211
		c-1.688,0.399-3.34,0.81-4.96,1.238c21.646,0.255,84.828,19.351,62.52,58.911c-14.002,24.831-47.103,21.109-74.528,6.035
		c-1.509,8.363-3.147,18.812-2.055,19.446c1.838,1.068,29.409,5.689,29.409,5.689s-3.311,4.623,0.366,6.045
		C525.752,258.093,546.843,229.27,552.219,221.115z"/>
	<path fill="#6A7182" d="M429.439,204.758l8.95-4.827c-4.127-2.732-8.05-5.703-11.668-8.849L429.439,204.758z"/>
</g>
<path fill="#626979" d="M401.877,377.369c15.081-14.557,27.954-39.332,31.24-80.165c0.325-0.21,1.245-0.231,2.58-0.122
	c-0.005-0.149-0.006-0.233-0.006-0.233s1.61,0.295,4.124,0.74c8.207,1.215,21.829,3.951,29.617,4.063
	c0.083-0.048,0.125-0.104,0.076-0.181c-9.189-14.578-9.923-27.378-9.923-27.378s21.319-2.134,20.218-3.2
	c-9.191-8.534-19.852-25.601-19.852-25.601s15.071-14.934,13.97-15.29c-18.381-0.711-29.409-5.689-29.409-5.689l4.043-29.868
	l-19.115,10.312l-5.512-27.733l-18.749,14.578l0.117-0.548c-0.001,0.001-0.001,0.001-0.001,0.001
	c-13.352,7.303-44.964-4.786-66.285-2.653c-10.052,1.005-24.028,2.332-37.919,6.877
	C366.212,190.298,468.695,261.152,401.877,377.369z"/>
<path fill="#626979" d="M667.646,637.125c3.545-4.325,6.84-8.68,9.897-13.05c24.451-30.322,57.504-99.179,17.061-202.426
	c0,0-65.677-129.899-206.836-84.386c-6.705,2.161,39.212,27.497,48.035,34.134c8.822,6.637,30.387,21.808,53.178,15.41
	c4.657-0.239,11.518-10.67,23.281-2.136c11.765,8.534,7.841,29.395-20.584,39.824c-12.746,0-54.896-12.326-68.621-12.326
	c-7.408,0-17.956,1.401-28.41,4.908c39.411-3.512,159.277,15.957,178.881,101.289c14.704,64.003-29.18,181.208-217.384,163.706
	C575.309,720.297,662.144,643.835,667.646,637.125z"/>
<path fill="#5C6272" d="M588.244,683.348c24.262,21.335,30.143,17.068,37.495,19.202c0.013,0.12,0.032,0.232,0.048,0.352
	c1.5-15.948,5.418-37.088,37.447-60.324c0.53-0.384,1.043-0.763,1.551-1.143c-0.08-1.74-0.08-2.981-0.08-3.599
	C664.705,637.836,618.388,677.659,588.244,683.348z"/>
<path fill="#5C6272" d="M625.739,702.548c4.411,37.69,26.466,49.066,36.024,54.045c44.848,5.689,53.671-17.067,56.609-27.732
	c0.155-0.558,0.26-1.089,0.351-1.616c-1.119,0.792-2.379,1.511-3.539,2.561c-46.072,41.723-83.32-35.082-84.302-46.46
	c0,0-4.524,5.854-7.079,18.767C624.446,702.224,625.084,702.361,625.739,702.548z"/>
<g>
	<path fill="#4A4F5D" d="M396.325,196.48c-0.538,0.276-0.156,1.196,0.422,0.968c5.496-2.204,10.116-3.264,15.144-6.828
		c5.159-3.659,9.607-8.303,13.96-12.801c-1.419-0.362-2.836-0.725-4.253-1.086c1.889,9.756,3.02,19.629,4.971,29.374
		c0.288,1.444,2.38,2.284,3.63,1.43c6.19-4.229,12.927-7.907,19.478-11.592c-1.109-0.618-2.224-1.234-3.333-1.853
		c-0.143,10.071-1.835,19.913-3.862,29.768c-0.198,0.966,0.119,1.92,1.027,2.443c9.561,5.484,20.351,4.192,30.907,5.963
		c-0.459-1.088-0.916-2.177-1.374-3.265c-4.252,6.48-10.506,10.662-16.532,15.45c-1.121,0.89-0.913,2.658,0,3.581
		c8.389,8.476,14.193,18.917,24.049,26.009c0.209-1.551,0.42-3.103,0.628-4.655c-7.102,1.847-14.516,2.802-21.847,1.908
		c-1.247-0.152-2.69,1.233-2.526,2.444c1.476,10.893,5.561,21.618,12.16,30.597c0.929-1.167,1.855-2.335,2.785-3.503
		c-12.307-2.064-24.465-4.753-36.926-5.833c-3.245-0.282-3.226,4.619,0,4.888c12.015,1.002,23.747,3.581,35.614,5.544
		c1.89,0.313,4.183-1.612,2.785-3.503c-6.106-8.271-10.145-18.079-11.367-28.191c-0.84,0.814-1.684,1.629-2.525,2.444
		c7.728,0.993,15.736-0.019,23.247-1.884c2.418-0.601,2.334-3.409,0.628-4.655c-9.357-6.837-14.968-17.093-23.006-25.192
		c0,1.194,0,2.387,0,3.581c6.281-5.005,12.444-10.054,16.801-16.789c0.732-1.131,0.083-3.026-1.375-3.264
		c-10.023-1.64-20.808-0.238-29.87-5.415c0.343,0.815,0.685,1.629,1.029,2.443c2.084-10.239,3.811-20.46,3.98-30.917
		c0.028-1.639-1.896-2.656-3.334-1.851c-6.565,3.673-12.862,8.067-19.735,11.165c1.21,0.476,2.42,0.952,3.629,1.429
		c-1.893-9.762-2.876-19.662-4.829-29.412c-0.36-1.791-3.024-2.403-4.254-1.085C414.964,182.156,406.063,191.487,396.325,196.48
		L396.325,196.48z"/>
</g>
<g>
	<path fill="#4A4F5D" d="M432.252,271.746c-0.084-0.402-0.746-0.308-0.731,0.097c0.726,19.537,0.098,39.795-4.478,58.899
		c-2.312,9.657-5.558,19.196-10.684,27.825c-5.02,8.442-11.739,14.688-18.01,22.11c-2.066,2.446,0.599,6.652,3.724,4.667
		c17.084-10.856,27.381-34.26,31.235-52.931C437.504,312.096,436.436,291.878,432.252,271.746L432.252,271.746z"/>
</g>
<g>
	<path fill="#4A4F5D" d="M415.598,185.769c0.139-0.289-0.097-0.765-0.486-0.615c-4.948,1.935-8.987,5.235-14.448,6.223
		c-5.673,1.027-11.356,0.754-17.033-0.138c-9.257-1.456-18.409-3.972-27.77-4.753c-16.818-1.403-34.358-1.171-50.608,3.769
		c-15.291,4.648-29.391,12.776-40.03,24.499c-5.672,6.252-9.818,13.057-13.757,20.427c-3.411,6.383-6.667,12.803-3.634,19.792
		c0.291,0.668,1.24,0.757,1.499,0c5.613-16.483,14.201-31.287,28.092-42.808c12.274-10.181,27.224-16.46,43.188-18.807
		c18.267-2.685,36.047-0.913,54.114,2.141C387.82,197.712,408.521,200.302,415.598,185.769L415.598,185.769z"/>
</g>
<g>
	<path fill="#4A4F5D" d="M235.914,137.881c-0.31-0.048-0.521,0.339-0.223,0.508c22.513,12.769,43.024,39.494,38.244,66.26
		c-0.698,3.901,5.495,5.543,6.146,1.639c2.491-14.944-2.866-30.508-11.347-42.965C261.579,152.816,249.45,140.026,235.914,137.881
		L235.914,137.881z"/>
</g>
<g>
	<path fill="#4A4F5D" d="M269.565,168.501c1.106,0.634,2.394-0.901,1.396-1.744c-15.15-12.765-35.474-21.691-55.933-16.274
		c-19.869,5.261-37.877,22.143-42.248,41.971c-3.892,17.646,0.907,37.338,19.133,45.362c18.188,8.008,41.616,10.84,60.401,3.625
		c3.531-1.355,2.01-6.931-1.587-5.57c-16.465,6.222-37.71,4.547-53.671-3.027c-15.932-7.561-21.881-24.259-16.723-40.607
		c5.512-17.452,21.367-33.691,40.63-36.408C237.938,153.436,255.187,160.26,269.565,168.501L269.565,168.501z"/>
</g>
<g>
	<path fill="#4A4F5D" d="M226.83,254.47c0.861,0.148,1.235-1.056,0.366-1.286c-10.117-2.667-20.561-6.056-28.961-12.333
		c-4.597-3.435-8.771-7.526-11.779-12.369c-2.476-3.984-3.674-8.8-6.803-12.282c-0.577-0.638-1.588-0.096-1.618,0.648
		c-0.388,9.277,10.051,20.262,17.262,25.452C204.643,249.029,215.469,252.498,226.83,254.47L226.83,254.47z"/>
</g>
<g>
	<path fill="#4A4F5D" d="M217.771,263.056c0.928,0.541,1.729-0.822,0.843-1.393c-9.886-6.345-19.701-13.621-26.687-23.036
		c-3.156-4.253-5.951-8.728-8.381-13.409c-2.199-4.24-3.486-9.298-6.896-12.753c-0.495-0.502-1.527-0.144-1.472,0.59
		c0.403,5.335,4.154,10.574,6.786,15.199c2.632,4.62,5.469,9.156,8.896,13.27C198.36,250.528,207.594,257.109,217.771,263.056
		L217.771,263.056z"/>
</g>
<g>
	<path fill="#4A4F5D" d="M198.588,201.724c-2.647,0.041-4.854,2.103-4.854,4.695s2.207,4.653,4.854,4.695
		c0.065,0.001,0.133,0.002,0.2,0.004c2.647,0.04,4.857-2.17,4.857-4.699c0-2.593-2.21-4.656-4.857-4.698
		c-0.462-0.007-0.924-0.015-1.384-0.022c-2.661-0.042-4.88,2.179-4.88,4.72c0,2.606,2.221,4.679,4.88,4.72
		c0.039,0,0.076,0.002,0.116,0.002c2.66,0.043,4.881-2.18,4.881-4.722s-2.221-4.764-4.881-4.722
		c-0.04,0.001-0.077,0.001-0.116,0.002c-2.659,0.042-4.88,2.116-4.88,4.72c0,2.542,2.219,4.762,4.88,4.72
		c0.46-0.007,0.922-0.014,1.384-0.021c2.647-0.043,4.857-2.106,4.857-4.699c0-2.53-2.21-4.74-4.857-4.698
		C198.721,201.722,198.653,201.722,198.588,201.724L198.588,201.724z"/>
</g>
<g>
	<path fill="#4A4F5D" d="M86.83,220.905c-2.053,0.942-0.58,3.979,1.506,3.451c11.503-2.905,24.155-2.818,35.948-2.052
		c12.464,0.81,21.232,7.736,24.62,19.428c5.243,18.096,4.155,42.807-13.366,54.547c-16.055,10.761-36.885,10.616-54.907,4.924
		c-24.561-7.754-36.437-30.511-41.479-53.421c-0.369-1.676-3.065-0.969-2.658,0.709c6.162,25.385,18.816,49.782,45.872,59
		c20.133,6.858,46.217,5.912,61.942-9.812c15.832-15.829,18.17-45.229,7.671-64.508c-5.296-9.723-14.322-15.807-25.785-16.487
		C113.336,215.921,98.728,215.445,86.83,220.905L86.83,220.905z"/>
</g>
<g>
	<path fill="#4A4F5D" d="M23.477,220.003c0.689-0.214,1.158-0.902,0.941-1.608c-2.669-8.664-16.434-3.634-19.753,1.823
		c-5.492,9.027-6.073,21.009-5.436,31.217c0.751,12.035,5.134,24.867,13.573,33.971c4.419,4.768,10.378,9.075,17.288,9.28
		c8.47,0.25,15.335-5.285,22.688-8.48c2.545-1.107,0.725-5.1-1.881-4.316c-6.66,2.006-14.575,8.322-21.753,6.59
		c-6.442-1.554-11.267-5.826-14.683-11.24c-4.971-7.881-8.48-16.549-9.043-25.803c-0.479-7.864-0.483-16.391,2.19-23.927
		c1.003-2.822,2.763-7.169,6.143-8.09C17.301,218.451,20.187,221.025,23.477,220.003L23.477,220.003z"/>
</g>
<g>
	<path fill="#4A4F5D" d="M91.715,307.44c0.541-2.44-3.16-3.456-3.878-1.034c-4.619,15.597-12.694,44.466-35.976,35.3
		c-17.611-6.935-16.777-32.811-19.982-47.877c-0.787-3.699-6.347-2.068-5.761,1.536c2.756,16.938,5.267,48.925,27.613,52.638
		C79.647,352.309,87.353,327.012,91.715,307.44L91.715,307.44z"/>
</g>
<g>
	<path fill="#4A4F5D" d="M52.756,303.131c-0.017-0.286-0.443-0.286-0.461,0c-0.48,8.809-1.439,17.489-1.355,26.352
		c0.051,4.994-1.003,12.379,2.408,16.468c0.83,0.992,2.318,0.294,2.688-0.686c1.164-3.084-0.112-6.253-0.445-9.466
		c-0.37-3.577-0.744-7.156-1.025-10.741C53.998,317.77,53.154,310.416,52.756,303.131L52.756,303.131z"/>
</g>
<g>
	<path fill="#4A4F5D" d="M94.924,352.843c0.512-0.343,0.065-1.11-0.494-0.814c-10.141,5.353-24.2,9.814-35.18,4.154
		c-4.873-2.514-8.969-6.045-12.162-10.418c-2.57-3.519-4.073-7.892-7.679-10.455c-0.786-0.559-1.778,0.209-1.815,1.007
		c-0.466,10.016,13.82,22.007,23.076,24.607C73.465,364.52,84.523,359.843,94.924,352.843L94.924,352.843z"/>
</g>
<g>
	<path fill="#4A4F5D" d="M257.663,418.529c0.474-0.29,0.166-1.13-0.399-0.913c-22.684,8.719-44.919,15.275-69.682,14.141
		c-20.925-0.958-41.521-6.038-60.301-15.054c-15.985-7.678-30.978-17.405-44.043-29.2c-10.211-9.221-21.298-20.29-27.029-32.804
		c-1.432-3.123-7.076-0.83-5.722,2.334c5.82,13.585,18.347,26.066,29.503,35.755c14.205,12.339,30.224,22.995,47.692,30.541
		C168.932,441.154,218.43,442.59,257.663,418.529L257.663,418.529z"/>
</g>
<g>
	<path fill="#4A4F5D" d="M402.101,192.373c-0.969,1.78,1.537,3.098,2.728,1.542c7.595-9.937,4.431-22.234-0.428-33.076
		c-5.89-13.141-14.369-25.728-24.615-36.109c-12.629-12.795-27.89-23.55-44.806-30.407c-9.335-3.783-18.913-6.786-28.777-8.973
		c-7.959-1.765-17.291-4.359-25.47-2.891c-0.801,0.144-0.618,1.163,0,1.393c7.666,2.863,16.488,2.967,24.45,5.068
		c8.781,2.319,17.461,5.237,25.676,9.054c16.023,7.444,30.678,16.486,43.17,28.823c8.89,8.779,16.604,19.205,22.382,30.148
		C401.586,166.753,408.024,181.454,402.101,192.373L402.101,192.373z"/>
</g>
<g>
	<path fill="#4A4F5D" d="M268.789,66.711c0.874,0.397,1.555-0.717,0.755-1.249c-13.415-8.894-33.1-9.961-48.788-10.17
		c-27.981-0.372-56.198,5.382-82.104,15.497c-30.664,11.973-61.65,29.056-82.443,54.465c-18.868,23.061-29.046,52.058-31.521,81.163
		c-0.353,4.145,6.316,4.112,6.663,0c2.5-29.416,13.447-59.377,33.797-81.761c21.107-23.218,51.917-40.104,81.677-50.734
		c24.166-8.633,49.78-13.826,75.595-14.205C237.653,59.493,254.738,60.312,268.789,66.711L268.789,66.711z"/>
</g>
<g>
	<path fill="#4A4F5D" d="M31.941,176.882c0.84,0.016,1.123-1.097,0.422-1.502c-6.222-3.576-15.895,6.084-18.749,10.778
		c-5.692,9.364-5.674,20.641-1.437,30.569c1.539,3.607,7.616,2.198,6.201-1.655c-3.036-8.281-4.457-17.966,0.468-25.955
		c2.248-3.648,4.975-6.779,8.738-9.044C27.796,179.944,31.724,176.878,31.941,176.882L31.941,176.882z"/>
</g>
<g>
	<path fill="#4A4F5D" d="M20.18,203.086c1.861,0,3.416-1.503,3.416-3.306c0-1.803-1.555-3.306-3.416-3.306
		c-1.863,0-3.419,1.503-3.419,3.306C16.761,201.582,18.316,203.086,20.18,203.086L20.18,203.086z"/>
</g>
<g>
	<path fill="#4A4F5D" d="M129.971,245.278c2.129,0,3.902-1.718,3.901-3.778c0-2.058-1.772-3.777-3.901-3.777
		c-2.132,0-3.908,1.719-3.908,3.777C126.062,243.559,127.839,245.278,129.971,245.278L129.971,245.278z"/>
</g>
<g>
	<path fill="#4A4F5D" d="M139.772,269.07c3.888,0,3.888-5.834,0-5.833C135.882,263.237,135.882,269.07,139.772,269.07
		L139.772,269.07z"/>
</g>
<g>
	<path fill="#4A4F5D" d="M106.442,254.263c3.111,0,3.111-4.666,0-4.667C103.33,249.596,103.33,254.263,106.442,254.263
		L106.442,254.263z"/>
</g>
<g>
	<path fill="#4A4F5D" d="M108.403,282.174c2.083,0,3.82-1.681,3.82-3.695c0-2.013-1.737-3.694-3.82-3.694
		c-2.081,0-3.817,1.68-3.817,3.694S106.322,282.174,108.403,282.174L108.403,282.174z"/>
</g>
<g>
	<path fill="#4A4F5D" d="M127.028,288.981c3.888,0,3.89-5.834,0-5.834C123.14,283.147,123.14,288.981,127.028,288.981
		L127.028,288.981z"/>
</g>
<g>
	<path fill="#4A4F5D" d="M125.069,265.503c1.234,0,2.269-0.998,2.27-2.195c0-1.195-1.035-2.194-2.27-2.194
		c-1.238,0-2.27,0.998-2.27,2.194C122.8,264.505,123.832,265.503,125.069,265.503L125.069,265.503z"/>
</g>
<g>
	<path fill="#4A4F5D" d="M431.102,436.895c0.352,0.593,1.387,0.197,1.155-0.473c-8.231-23.52-11.462-55.713,3.436-77.688
		c10.714-15.804,29.802-16.785,47.115-11.772c19.851,5.748,35.06,17.314,51.972,28.332c15.742,10.257,33.238,18.933,52.674,14.608
		c3.254-0.724,1.836-5.311-1.357-4.769c-25.559,4.35-46.07-13.013-65.592-26.167c-15.621-10.525-34.232-19.742-53.664-20.592
		c-18.375-0.804-33.453,7.957-40.417,24.68C416.331,387.278,417.733,414.351,431.102,436.895L431.102,436.895z"/>
</g>
<g>
	<path fill="#4A4F5D" d="M581.726,398.727c-0.216,0.686,0.877,1.15,1.207,0.491c3.85-7.663,16.871-20.42,26.258-14.152
		c11.481,7.667,7.095,19.754-2.017,27.245c-20.666,16.988-44.436,3.382-67.301-0.361c-19.117-3.129-40.283-3.389-57.396,6.728
		c-6.555,3.873-12.007,9.093-17.962,13.714c-6.022,4.678-13.731,11.095-21.841,11.593c-1.256,0.075-1.688,1.989-0.312,2.234
		c8.684,1.56,16.804-4.47,23.372-9.202c9.315-6.714,18.28-14.779,29.586-18.2c14.865-4.496,30.285-4.502,45.476-1.462
		c12.985,2.6,25.748,8.108,39.002,9.155c12.13,0.958,24.312-3.006,32.873-11.585c6.815-6.829,11.899-15.805,7.988-25.305
		c-3.69-8.978-14.262-13.559-23.492-10.459C588.049,382.222,584.283,390.588,581.726,398.727L581.726,398.727z"/>
</g>
<g>
	<path fill="#4A4F5D" d="M441.938,445.189c0.096,0,0.096-0.14,0-0.141C441.846,445.049,441.846,445.189,441.938,445.189
		L441.938,445.189z"/>
</g>
<g>
	<path fill="#4A4F5D" d="M465.988,301.433c-0.633,0.171-0.839,1.117-0.194,1.421c8.377,3.941,16.26,6.106,23.337,12.457
		c3.586,3.218,7.064,6.682,9.623,10.75c1.402,2.235,1.949,3.697,4.261,4.984c0.688,0.383,1.849,0.073,1.981-0.78
		c1.223-7.732-10.397-16.889-15.944-21.056C483.085,304.724,473.87,299.29,465.988,301.433L465.988,301.433z"/>
</g>
<g>
	<path fill="#4A4F5D" d="M489.723,335.094c-1.478,1.061-0.157,3.441,1.479,2.447c15.603-9.49,37.292-9.694,55.126-8.997
		c56.531,2.206,112.393,36.857,139.489,84.657c22.654,39.969,28.448,88.068,20.849,132.729
		c-2.994,17.593-7.684,35.405-16.013,51.402c-14.163,27.205-37.539,50.091-64.601,65.458
		c-29.119,16.536-62.572,25.764-96.342,26.624c-17.113,0.435-34.336-0.883-51.079-4.42c-18.588-3.927-35.466-11.05-53.024-17.904
		c-2.306-0.902-3.853,2.773-1.679,3.856c11.016,5.499,21.516,11.395,33.346,15.197c9.616,3.091,19.421,5.608,29.413,7.264
		c19.443,3.221,39.374,3.995,58.995,1.879c61.382-6.619,123.094-39.275,151.065-94.51c17.602-34.765,22.51-76.599,18.346-114.776
		c-5.145-47.153-25.842-93.046-64.731-123.21c-22.479-17.436-50.225-31.026-78.546-36.787c-13.966-2.84-28.848-3.467-43.041-2.19
		C515.492,325.008,500.707,327.209,489.723,335.094L489.723,335.094z"/>
</g>
<g>
	<path fill="#4A4F5D" d="M435.347,674.567c1.632,0.782,2.93-1.37,1.42-2.351c-6.038-3.929-11.19-7.261-18.31-9.27
		c-7.377-2.081-14.903-3.476-22.551-4.238c-33.466-3.338-70.173,0.537-101.527,12.636c-5.051,1.949-10.99,4.188-15.922,0.539
		c-4.495-3.319-7.313-7.758-10.398-12.232c-4.262-6.183-9.551-12.265-16.486-15.75c-6.943-3.494-14.542-5.784-20.829-10.42
		c-5.614-4.141-10.758-9.165-14.967-14.654c-7.138-9.316-17.566-25.468-11.153-37.474c6.445-12.062,23.966-15.318,36.72-13.697
		c29.75,3.782,57.877,29.808,52.724,60.712c-0.17,1.042,1.427,1.511,1.665,0.445c1.722-7.739,3.086-14.471,0.783-22.423
		c-2.024-6.986-5.369-13.536-10.104-19.191c-9.549-11.417-23.23-19.771-38.07-23.04c-21.706-4.778-55.085,0.894-51.728,28.876
		c1.485,12.373,9.24,24.148,17.647,33.253c4.394,4.757,9.204,9.31,14.711,12.868c6.191,4.002,13.363,5.865,19.791,9.396
		c9.354,5.145,13.655,13.362,19.995,21.257c3.951,4.922,10.333,10.82,17.441,10.17c8.135-0.744,15.641-5.046,23.472-7.185
		c7.522-2.056,15.149-3.777,22.851-5.079c18.064-3.05,36.627-4.587,54.955-3.414c9.224,0.591,18.502,1.686,27.454,3.995
		C421.56,670.005,429.209,671.623,435.347,674.567L435.347,674.567z"/>
</g>
<g>
	<path fill="#4A4F5D" d="M546.699,487.679c1.688,0.65,2.41-1.981,0.747-2.625c-30.155-11.646-61.32-23.808-94.432-22.402
		c-27.873,1.183-57.597,8.224-81.395,22.744c-22.39,13.662-40.977,35.344-44.165,61.529c-2.13,17.485,2.641,34.93,0.795,52.356
		c-0.698,6.6-2.811,15.033-9.234,18.847c-8.023,4.76-15.839,1.742-20.961-5.422c-1.432-2.005-4.853-0.047-3.372,1.905
		c5.856,7.732,15.158,12.016,24.692,7.213c12.375-6.233,14.146-17.674,14.643-30.292c0.727-18.532-3.538-37.675,2.852-55.686
		c4.843-13.646,13.142-25.909,24.404-35.426c22.653-19.145,54.453-29.553,84.117-32.304
		C481.105,464.805,513.955,475.032,546.699,487.679L546.699,487.679z"/>
</g>
<g>
	<path fill="#4A4F5D" d="M137.129,422.312c-1.304-1.528-4.053,0.519-2.842,2.12c24.184,31.941,60.665,44.442,100.569,45.361
		c19.992,0.461,40.972-0.062,60.259,5.817c19.512,5.943,38.498,20.087,47.127,38.427c1.305,2.772,6.188,0.778,5.092-2.077
		c-3.328-8.668-11.383-17.354-18.365-23.598c-6.851-6.128-14.442-11.032-22.998-14.662c-16.947-7.19-36.049-8.318-54.303-8.802
		c-21.31-0.565-42.852-0.46-63.314-7.133C167.847,451.083,150.832,438.362,137.129,422.312L137.129,422.312z"/>
</g>
<g>
	<path fill="#4A4F5D" d="M216.207,468.288c1.125,2.276,5.031,0.66,4.198-1.711c-0.026-0.081-0.058-0.162-0.087-0.244
		c-0.301-0.86-1.185-1.771-2.228-1.646c-0.019,0.004-0.033,0.007-0.052,0.009c-1.317,0.16-2.226,0.9-2.313,2.239
		c-0.572,8.595,2.304,19.606,5.339,27.66c6.946,18.402,16.589,36.315,27.81,52.619c19.501,28.348,44.542,52.763,76.764,67.278
		c3.135,1.41,5.88-3.085,2.726-4.513c-31.874-14.424-56.946-39.023-75.812-67.431c-10.675-16.073-20.729-33.649-26.872-51.855
		c-2.439-7.234-4.894-16.198-5.322-23.76c-0.566,0.722-1.134,1.44-1.7,2.159c0.018-0.002,0.034-0.006,0.05-0.011
		c-0.87-0.34-1.741-0.684-2.611-1.028C216.132,468.132,216.169,468.211,216.207,468.288L216.207,468.288z"/>
</g>
<g>
	<path fill="#4A4F5D" d="M630.648,681.348c0.225-0.522-0.699-0.896-0.943-0.385c-10.955,22.86-2.056,51.442,16.232,68.731
		c13.993,13.23,35.939,13.82,53.273,6.337c8.682-3.747,16.377-9.608,20.256-18.198c3.867-8.567,3.214-19.542-4.779-25.553
		c-6.281-4.724-13.725-6.965-19.628-12.419c-6.282-5.805-12.427-12.461-16.865-19.711c-7.909-12.92-8.491-27.148-10.666-41.646
		c-0.536-3.582-6.253-2.088-5.647,1.507c1.963,11.696,2.546,23.989,7.541,34.975c5.064,11.14,13.91,22.344,23.613,30.131
		c4.787,3.844,9.941,6.447,15.276,9.456c5.677,3.201,8.017,7.446,7.423,13.831c-0.809,8.712-6.514,15.845-14.246,20.112
		c-14.427,7.975-37.182,10.685-50.271-1.237C633.998,731.595,620.928,704.037,630.648,681.348L630.648,681.348z"/>
</g>
<g>
	<path fill="#4A4F5D" d="M624.27,704.077c1.749-0.138,2.184-2.476,0.419-3.002c-11.914-3.548-25.851-9.646-33.328-19.784
		c-2.053-2.779-6.853-0.085-4.762,2.692C594.084,693.928,610.974,705.129,624.27,704.077L624.27,704.077z"/>
</g>
<g>
	<path fill="#4A4F5D" d="M125.299,507.974c-0.914,0.339-0.943,1.494,0,1.822c6.82,2.366,17.15-0.569,24.053-1.914
		c9.428-1.839,18.692-4.438,27.534-8.132c15.303-6.392,33.729-16.695,40.536-32.35c1.296-2.984-3.359-4.312-5.039-2.055
		c-10.523,14.142-23.146,24.129-39.772,31.214c-8.322,3.547-17.141,6.729-26.088,8.453
		C139.798,506.309,131.622,505.646,125.299,507.974L125.299,507.974z"/>
</g>
<g>
	<path fill="#4A4F5D" d="M131.671,522.861c0.737,1.406,3.117,0.424,2.622-1.071c-3.319-10.014-7.191-18.839-17.517-23.431
		c-6.911-3.074-16.072-2.222-20.834,3.987c-9.765,12.732-4.283,26.27,9.377,33.164c15.604,7.874,33.966,9.771,51.274,8.044
		c14.912-1.488,29.479-4.693,44.116-7.729c13.632-2.825,28.646-7.449,41.812-0.846c2.624,1.315,4.938-2.483,2.318-3.84
		c-18.161-9.394-40.496-1.442-59.162,2.389c-18.616,3.821-38.285,7.623-57.287,4.175c-10.583-1.918-29.239-5.922-31.741-18.274
		c-1.684-8.335,4.532-19.712,14.665-17.17C122.642,505.1,126.768,513.529,131.671,522.861L131.671,522.861z"/>
</g>
<g>
	<path fill="#4A4F5D" d="M123.182,517.766c0.094,0.524,0.946,0.308,0.832-0.221c-1.229-5.604-3.527-11.279-8.594-14.667
		c-3.689-2.468-10.497-4.828-14.182-1.158c-0.607,0.606-0.133,1.5,0.671,1.564c2.525,0.2,4.82-0.851,7.388-0.104
		c2.28,0.665,4.45,1.63,6.233,3.196C119.113,509.526,122.337,513.039,123.182,517.766L123.182,517.766z"/>
</g>
<g>
	<path fill="#4A4F5D" d="M111.591,510.068c0.278,0.277,0.729-0.075,0.54-0.405c-1.47-2.572-4.189-4.967-7.186-5.735
		c-2.342-0.6-6.425-0.367-6.925,2.549c-0.068,0.383,0.267,0.904,0.741,0.719c1.163-0.459,1.917-1.569,3.192-1.779
		c1.421-0.234,2.892,0.061,4.165,0.698C108.178,507.141,109.981,508.458,111.591,510.068L111.591,510.068z"/>
</g>
<g>
	<path fill="#4A4F5D" d="M604.267,406.896c-0.738,0.185-0.408,1.169,0.306,1.069c4.883-0.674,8.614-3.468,10.85-7.63
		c1.578-2.939,3.481-10.356,0.492-12.912c-0.27-0.231-0.666-0.258-0.933,0c-2.429,2.334-1.555,7.625-2.539,10.687
		C611.004,402.577,609.135,405.667,604.267,406.896L604.267,406.896z"/>
</g>
<g>
	<path fill="#4A4F5D" d="M603.051,397.22c-0.312,0.245,0.029,0.675,0.365,0.604c7.463-1.606,10.086-11.493,4.33-16.264
		c-0.572-0.473-1.336-0.64-2.015-0.252c-0.465,0.266-0.614,0.46-0.764,0.961c-0.167,0.552,0.015,1.157,0.427,1.563
		C609.789,388.191,607.276,393.869,603.051,397.22L603.051,397.22z"/>
</g>
<g>
	<path fill="#4A4F5D" d="M402.982,164.232c-1.804,1.954,0.881,4.445,2.925,2.827c10.318-8.165,23.428-13.618,35.88-17.903
		c11.692-4.023,23.878-7.662,36.167-9.538c31.073-4.744,62.208,0.624,93.38-0.723c21.211-0.916,44.461-3.897,61.625-17.099
		c17.541-13.489,24.984-35.713,24.172-56.944c-1.088-28.431-19.473-49.389-46.896-58.639c-35.372-11.931-73.64,5.117-108.254,12.644
		c-47.133,10.249-94.395,19.213-142.72,21.814c-23.321,1.255-46.701,1.814-69.97,3.889c-22.155,1.976-43.183,6.278-64.861,10.799
		c-2.99,0.623-1.701,4.92,1.251,4.393c14.748-2.632,29.249-5.916,44.185-7.611c14.806-1.681,29.664-2.66,44.549-3.425
		c28.944-1.49,58.037-2.031,86.821-5.597c29.673-3.676,59.164-9.198,88.34-15.551c24.955-5.435,49.509-13.307,74.634-17.866
		c19.156-3.477,37.134-3.078,54.713,5.878c13.438,6.845,24.576,17.619,29.092,31.931c9.822,31.141-3.75,67.698-36.837,78.685
		c-36.772,12.21-76.298,3.435-114.189,5.477c-18.089,0.974-35.656,4.597-52.76,10.359
		C429.573,146.969,413.565,152.76,402.982,164.232L402.982,164.232z"/>
</g>
<g>
	<path fill="#4A4F5D" d="M502.963,132.912c-1.526,0.109-1.985,1.851-0.754,2.691c3.209,2.196,7.313,2.898,10.881,4.491
		c3.769,1.684,7.486,3.501,10.99,5.663c6.888,4.25,13.506,9.246,18.942,15.184c11.062,12.075,18.376,28.472,13.875,44.75
		c-4.209,15.226-16.385,28.142-32.054,33.038c-17.626,5.507-34.103,0.507-50.624-5.723c-2.766-1.041-4.179,2.991-1.927,4.417
		c31.086,19.701,81.699,7.255,90.32-30.206c4.063-17.657-1.726-35.348-14.046-48.771c-6.259-6.82-13.577-12.644-21.85-17.058
		C520.185,137.902,510.631,132.366,502.963,132.912L502.963,132.912z"/>
</g>
<g>
	<path fill="#4A4F5D" d="M426.582,150.344c-1.315,0.719-0.402,2.586,0.998,2.284c12.617-2.71,26.327-0.501,37.888,4.936
		c10.769,5.063,26.299,14.957,19.062,28.724c-7.385,14.042-26.31,6.126-37.184,0.608c-12.753-6.472-25.365-15.705-34.229-26.795
		c-1.438-1.8-4.293,0.802-2.639,2.553c11.954,12.677,28.53,25.901,44.789,32.851c13.075,5.59,30.521,6.205,35.411-9.822
		c4.662-15.274-8.157-26.025-21.241-31.795C458.275,148.964,438.092,144.059,426.582,150.344L426.582,150.344z"/>
</g>
<g>
	<path fill="#4A4F5D" d="M610.821,310.044c0.856,0.308,1.437-1.038,0.62-1.422c-17.186-8.068-42.459-3.827-41.193,19.161
		c0.176,3.184,4.945,3.188,5.112,0c0.448-8.62,3.854-15.784,12.959-18.459C595.551,307.199,603.744,307.5,610.821,310.044
		L610.821,310.044z"/>
</g>
<g>
	<path fill="#4A4F5D" d="M639.424,306.014c0.332,0.25,0.902-0.068,0.632-0.473c-4.593-6.865-14.111-11.193-22.521-10.983
		c-6.533,0.163-17.113,4.099-16.586,11.891c0.075,1.094,1.305,1.579,2.158,0.865c2.622-2.196,3.582-5.528,6.898-7.132
		c3.266-1.581,6.994-2.194,10.634-1.834C627.647,299.039,633.896,301.868,639.424,306.014L639.424,306.014z"/>
</g>
<g>
	<path fill="#4A4F5D" d="M690.543,304.214c0.717,0.704,1.901-0.197,1.397-1.043c-12.362-20.771-41.067-19.196-56.94-3.645
		c-2.265,2.219,1.267,5.639,3.533,3.418c7.019-6.876,16.637-11.795,26.895-11.128C675.931,292.499,683.365,297.156,690.543,304.214
		L690.543,304.214z"/>
</g>
<g>
	<path fill="#4A4F5D" d="M754,335.369c0.041,0.988,1.427,1.152,1.746,0.23c5.344-15.351-10.799-33.415-24.272-39.019
		c-12.716-5.289-32.409-7.89-44.009,1.07c-2.203,1.703,0.664,5.214,2.994,3.751c10.729-6.738,26.246-5.708,37.881-1.516
		c7.824,2.818,15.552,7.915,20.125,14.824C752.933,321.462,753.666,327.603,754,335.369L754,335.369z"/>
</g>
<g>
	<path fill="#4A4F5D" d="M755.379,324.806c-2.096,0.14-2.043,2.902,0,3.11c13.861,1.413,26.647,15.505,32.781,26.795
		c4.039,7.434,5.668,16.31,3.967,24.62c-1.555,7.613-6.035,13.553-8.364,20.714c-0.269,0.815,0.793,1.694,1.562,1.16
		c6.881-4.793,10.377-15.731,11.334-23.562c1.062-8.669-0.007-17.481-4.562-25.157C785.182,340.827,771.078,323.753,755.379,324.806
		L755.379,324.806z"/>
</g>
<g>
	<path fill="#4A4F5D" d="M791.104,389.777c-1.451-1.042-3.603,1.028-2.515,2.431c6.262,8.068,8.398,16.392,1.541,25.006
		c-2.83,3.56-6.239,6.373-10.211,8.685c-3.043,1.771-6.603,2.709-9.438,4.751c-0.745,0.539-0.781,1.776,0.275,2.029
		c9.65,2.337,21.729-8.299,25.768-15.919C801.556,407.257,800.336,396.391,791.104,389.777L791.104,389.777z"/>
</g>
<g>
	<path fill="#4A4F5D" d="M782.533,426.676c-1.263-1.041-3.164-0.062-2.783,1.569c1.869,8.005,4.867,14.034,3.158,22.606
		c-1.39,6.986-4.238,13.677-9.703,18.633c-5.227,4.733-11.369,8.624-18.016,11.228c-6.636,2.596-12.044,2.062-18.927,1.185
		c-0.919-0.12-1.109,1.032-0.667,1.562c10.334,12.4,35.072-2.298,43.009-10.895c5.733-6.211,9.987-14.429,10.437-22.882
		C789.428,442.412,788.705,431.766,782.533,426.676L782.533,426.676z"/>
</g>
<g>
	<path fill="#4A4F5D" d="M750.515,484.132c-0.509-0.687-1.544-0.779-2.035,0c-1.912,3.039-1.493,6.76-3.622,9.87
		c-2.113,3.088-4.82,5.656-8.201,7.446c-6.839,3.62-14.703,4.376-21.59,0.465c-2.999-1.702-5.531,2.624-2.697,4.462
		c8.438,5.47,20.506,5.431,28.727-0.689C746.529,501.642,755.732,491.152,750.515,484.132L750.515,484.132z"/>
</g>
<g>
	<path fill="#5F2420" d="M85.267,209.562c-0.8-0.495-1.45,0.558-0.939,1.176c4.08,4.969,3.205,10.051-2.607,13.151
		c-4.576,2.44-7.497,1.46-11.89,0.478c-3.328-0.744-6.625-0.662-9.409,1.522c-4.662,3.654-8.255,5.953-14.61,6.099
		c-6.562,0.153-11.101-3.076-14.76-8.209c-6.257-8.774-3.665-15.451,7.055-18.025c10.997-2.64,23.575-1.829,34.268,1.737
		c11.57,3.856,22.471,15.123,3.534,20.224c-0.491,0.133-0.549,0.92,0,1.018c8.206,1.474,18.659-3.78,15.448-13.288
		c-2.099-6.216-7.854-9.878-13.81-12.312c-13.749-5.616-33.969-7.756-47.687-0.88c-5.453,2.733-9.378,7.381-8.897,13.57
		c0.647,8.352,9.171,19.071,17.473,21.181c5.951,1.513,12.782,0.571,18.417-1.744c2.715-1.115,3.894-3.07,6.023-4.898
		c4.172-3.584,9.549,0.416,14.159,0.05C87.828,229.554,95.66,216.014,85.267,209.562L85.267,209.562z"/>
</g>
</svg>
