<?xml version="1.0" encoding="utf-8"?>
<!-- Generator: Adobe Illustrator 14.0.0, SVG Export Plug-In . SVG Version: 6.00 Build 43363)  -->
<!DOCTYPE svg PUBLIC "-//W3C//DTD SVG 1.1//EN" "http://www.w3.org/Graphics/SVG/1.1/DTD/svg11.dtd">
<svg version="1.1" id="Layer_1" xmlns="http://www.w3.org/2000/svg" xmlns:xlink="http://www.w3.org/1999/xlink" x="0px" y="0px"
	 width="800px" height="780px" viewBox="0 0 800 780" enable-background="new 0 0 800 780" xml:space="preserve">
<path fill="#9BA4BC" d="M248.732,187.823c0,0,10.572-34.979,22.835-43.287c12.264-8.309,69.389-32.029,108.649-24.818
	c1.452-0.012,0.592-15.056,0.592-15.056s16.083,12.87,22.606,12.133c6.527-0.736,7.818-18.535,7.818-18.535
	s11.077,21.12,22.014,26.507c2.033,1.001,6.352-19.894,6.352-19.894s12.519,19.741,42.392,32.501
	c4.181,1.787,42.256,17.451,64.958,39.848c4.255,4.195,56.509,68.648,27.344,134.566c0.006,0.683-25.71-34.003-94.565-23.189
	c0,0-12.579-26.583-66.49-48.729c-4.844-1.989-18.255-12.169-39.303-12c-4.347,0.719,0.627-10.953-25.555-16.901
	c-26.183-5.946-37.697,5.092-39.124,7.841c-1.426,2.748-23.951,0.191-34.806,3.7c-4.396,1.422,10.713-19.242-14.08-32.044
	C256.098,188.261,248.732,187.823,248.732,187.823z"/>
<path fill="#7C8397" d="M381.142,222.338c20.341,1.891,25.414,1.167,38.318-16.727c12.903-17.893,32.424-26.259,47.678-25.013
	c23.22,1.897,56.573,22.124,41.973,66.487c-5.759,17.492-22.946,31.2-29.172,38.548c-1.932,2.281-21.55-29.021-68.654-47.801
	c-6.623-2.641-13.114-5.367-13.114-5.367s0.115-0.426,0.348-1.184c-10.283-2.435-24.367-1.121-26.054-5.452
	C368.749,216.281,364.39,220.782,381.142,222.338z"/>
<path fill="#9BA4BC" d="M480.933,288.361c0,0,65.716-10.105,92.154,23.893c3.235,4.16,18.194,32.237,43.297,25.65
	c0,0-8.107,13.294-25.993,15.261c-1.44,0.16,8.792,9.052,9.759,9.044c0.969-0.006-10.566,8.751-23.625,9.312
	c-3.521,0.153,4.042,19.124,4.535,20.033c0.493,0.908-20.417-10.326-23.319-10.303c-2.901,0.023,0.261,28.732,0.756,30.098
	c0.494,1.365-16.036-7.627-16.036-7.627s-8.593,12.841-7.979,27.434c0.08,1.876-15.545-6.717-46.982-5.097
	c-5.335,0.274-25.188-2.993-46.72-29.731c-2.761-3.428-114.158-103.081-273.084-73.071c-1.448,0.465-4.363-0.877-4.363-0.877
	l-5.887-9.076c0,0,25.603-4.765-2.584-18.224c-2.324-1.109,14.44-8.326,14.44-8.326s-16.024-6.257-17.977-8.066
	c-1.951-1.808,18.826-5.17,24.972-21.183c0,0-15.548-7.174-18.452-7.15c-2.902,0.023,16.375-8.341,26.06-7.962
	c2.939,0.116-5.886-8.62-7.95-22.744c0.953-1.831,11.22,9.946,17.001,7.163c5.782-2.783,41.885-23.598,69.187-1.01
	c0,0-17.476,47.578,34.308,48.53c6.58,0.121,24.221,3,38.113-12.62c2.96,6.359,11.3,19.065,28.785,26.223
	c9.404,3.851,65.305-2.348,50.384-46.928C451.559,250.283,480.933,288.361,480.933,288.361z"/>
<path fill="#CBD9E0" d="M373.578,228.557c0,0,31.199-1.277,41.138,14.379c6.72,10.583,3.994,40.335-36.234,46.474
	c-6.536,0.999-24.302,1.562-43.787-26.333c-1.453-2.079-18.308,22.043-55.812,8.317c-4.713-1.726-25.489-9.375-19.574-37.475
	c1.203-5.703,12.919-16.18,46.692-13.715c3.276,0.241-0.267,10.607,22.289,16.583c2.179,0.326,17.383-3.901,21.739-3.937
	C370.054,240.216,373.578,228.557,373.578,228.557z"/>
<path fill="#F59183" d="M328.29,236.788c-2.668-0.549-24.045-10.413-19.749-16.832c4.294-6.419,15.375-11.981,33.78-9.85
	c8.764,1.016,26.646,3.436,30.143,15.724c1.28,4.492-2.322,10.965-13.945,9.689c-11.624-1.274-16.463-1.234-21.773,0.175
	C331.436,237.105,328.29,236.788,328.29,236.788z"/>
<path fill="#C4756C" d="M347.329,228.768c-3.498-12.287-21.379-14.708-30.142-15.723c-0.009-0.001-0.019,0-0.029-0.002
	c5.878-2.738,14.214-4.204,25.164-2.937c8.764,1.016,26.646,3.436,30.143,15.724c1.28,4.492-2.322,10.965-13.945,9.689
	c-4.767-0.522-8.381-0.82-11.366-0.897C347.904,232.571,347.835,230.543,347.329,228.768z"/>
<path fill="#FFFFFF" d="M274.673,220.684c0,0,5.142-20.11-16.738-31.794c-3.064-1.639-25.164-0.255-22.525,23.899
	c0.983,1.817,17.943,4.417,26.731,13.013C265.072,228.971,274.673,220.684,274.673,220.684z"/>
<path fill="#C1D0D8" d="M257.935,188.89c21.88,11.684,16.738,31.794,16.738,31.794s-2.107,1.812-4.646,3.418
	c0.521-4.97,1.878-20.57-14.316-27.03c-4.369-1.744-17.996-0.429-18.957,16.562c-0.725-0.308-1.204-0.585-1.345-0.846
	C232.771,188.635,254.87,187.251,257.935,188.89z"/>
<path fill="#FFFFFF" d="M411.284,237.833c0,0,16.014-48.476,51.359-46.024c11.108,0.771,37.809,7.453,35.652,36.662
	c-0.438,5.932-2.66,26.932-30.075,45.397C453.079,258.025,411.284,237.833,411.284,237.833z"/>
<path fill="#C1D0D8" d="M484.934,222.192c0.821-18.658-19.099-25.162-30.699-23.7c-8.742,1.103-15.985,1.827-21.831,5.297
	c7.791-7.405,17.815-12.842,30.24-11.98c11.108,0.771,37.809,7.453,35.652,36.662c-0.438,5.932-2.66,26.932-30.075,45.397
	c-2.703-2.827-6.261-5.792-10.27-8.758C477.22,252.357,484.331,235.88,484.934,222.192z"/>
<path fill="#FFFFFF" d="M298.413,277.509c0,0,7.022,27.312,11.392,29.101c4.371,1.79,44.059,2.84,44.059,2.84l9.483-21.515
	c0,0-16.988-5.792-28.785-26.223C324.516,274.563,298.413,277.509,298.413,277.509z"/>
<path fill="#9BA4BC" d="M342.478,120.021c0,0,12.798-29.523-1.971-57.457c-7.276-13.76-22.919-46.34-59.946-47.412
	c-7.397-0.214-37.639,11.249-38.009,50.936c-0.094,10.352,2.554,41.713,28.302,79.822
	C300.414,123.78,342.478,120.021,342.478,120.021z"/>
<path fill="#7C8397" d="M280.561,15.152c36.875-3.34,52.669,33.652,59.946,47.412c14.769,27.934,1.971,57.457,1.971,57.457
	s-5.756,0.517-14.496,2.283c0,0-28.036,3.304-44.384,14.838c-3.432-4.992-13.681-24.815-13.802-28.168
	c-1.284-35.112,35.995-32.676,34.802-57.752c-1.024-21.459-31.237-29.854-49.075-22.412
	C255.523,28.81,261.223,16.904,280.561,15.152z"/>
<path fill="#686F80" d="M326.521,121.517c0,0,2.64-29.441-11.957-38.218c-14.596-8.777-29.056-2.502-30.389,10.506
	c-1.335,13.012,1.015,32.149,6.163,39.635C299.737,129.258,326.521,121.517,326.521,121.517z"/>
<path fill="#3C3F4C" d="M284.175,93.805c1.208-11.777,13.169-18.032,26.254-12.604c-7.387,1.199-12.861,6.561-13.658,14.326
	c-1.08,10.519,0.253,25.038,3.521,34.17c-3.966,1.356-7.536,2.665-9.955,3.742C285.19,125.954,282.84,106.816,284.175,93.805z"/>
<path fill="#7C8397" d="M545.502,177.917c0,0,14.508-0.799,29.651-11.869c15.143-11.068,60.421-60.692,68.299-72.387
	c7.879-11.694,45.788-73.575,76.918-82.719c31.128-9.145,79.834-0.639,75.855,41.126c-1.362,14.311-6.793,51.369-71.615,107.307
	c-7.956,6.87-98.754,75.369-104.504,81.572c-5.753,6.205-28.729,33.756-35.077,54.333c-2.371,7.69-11.942,16.973-11.942,16.973
	s25.418-51.974-7.018-107.133C563.082,195.564,545.502,177.917,545.502,177.917z"/>
<path fill="#8B93A9" d="M557.946,189.448c45.716-1.051,88.638-70.497,100.128-84.273c11.487-13.776,31.292-35.397,54.936-25.071
	c27.691,12.094,11.977,40.271,4.073,49.229c-7.903,8.957-36.767,27.662-49.069,31.865c-60.317,31.753-78.986,80.075-85.495,101.094
	c-0.414-17.008-4.512-36.873-16.449-57.172c-1.309-4.191-5.428-9.94-9.639-15.072C557.021,189.577,557.545,189.359,557.946,189.448z
	"/>
<path fill="#5C6272" d="M560.405,193.763c0,0,9.725,5.395,19.354,0.301c9.635-5.094,63.459-46.12,86.406-76.864
	c6.3-8.441,33.053-37.211,52.57-19.123c4.978,4.612,6.546,28.226-15.108,41.625c-21.653,13.403-54.375,33.735-64.937,42.941
	c-10.561,9.208-41.302,34.54-55.462,73.882C581.562,232.82,560.405,193.763,560.405,193.763z"/>
<path fill="#3C3F4C" d="M720.723,113.67c-20.098-18.393-47.65,10.863-54.14,19.446c-23.638,31.262-79.073,72.981-88.992,78.161
	c-2.601,1.36-5.203,1.973-7.637,2.157c-5.027-11.319-9.549-19.672-9.549-19.672s9.725,5.395,19.354,0.301
	c9.635-5.094,63.459-46.12,86.406-76.864c6.3-8.441,33.053-37.211,52.57-19.123c2.37,2.193,3.957,8.695,2.648,16.347
	C721.173,114.14,720.952,113.879,720.723,113.67z"/>
<path fill="#9BA4BC" d="M151.306,330.231c0,0-9.915-26.375-52.019-26.95c-2.418-0.034,14.875-67.625-33.259-93.239
	c-6.324-3.598-33.917-4.746-43.46,9.928c-4.559,7.009,6.949,19.557,26.329,22.138c2.915,0.389,2.076,15.493-1.245,22.817
	c-3.322,7.322-23.872,35.769-20.205,66.754c1.535,12.982,25.719,61.828,63.484,64.263
	C120.024,349.182,151.306,330.231,151.306,330.231z"/>
<path fill="#9BA4BC" d="M513.786,443.636c0,0,64.183,34.38,89.974,77.277c4.984,8.29-11.845,54.829-103.598,102.089
	c-7.005,3.609-69.039-9.709-55.608-49.5c2.66-7.875,20.259-7.001,38.523,5.851c2.095,1.475,31.509,6.592,30.983-24.88
	c-1.501-5.462-63.364-24.122-65.277-75.422c2.815-9.603,22.176-35.755,53.354-39.425
	C507.178,439.033,513.786,443.636,513.786,443.636z"/>
<path fill="#CBD9E0" d="M186.548,321.734c-151.841,117.532-90.209,298.128-24.02,340.471c4.692,3.002,64.054,47.146,141.967-5.477
	c12.163-8.214,44.424-20.96,35.202-93.56c-6.251-49.213-5.233-92.861-4.758-98.485c5.246-62.074,54.25-101.239,57.14-102.63
	C271.542,302.807,193.273,316.207,186.548,321.734z"/>
<path fill="#9BA4BC" d="M90.459,397.316c-46.521,99.81-1.757,234.462,54.831,285.094c10.196,7.632,57.505,45.152,219.052,37.472
	c12.602-0.6,54.133-6.82,68.589-13.322c4.705-2.116,7.006,25.487,7.03,28.224c0.023,2.738,14.638,13.569,17.549,14.457
	c2.912,0.889,17.576,17.189,20.502,19.904c2.931,2.712,28.153,11.189,42.495-9.466c3.825-5.504-7.401-15.904-8.896-20.911
	c-1.497-5.003,0.295-20.985,0.265-24.176c-0.027-3.194,38.809-42.732,34.625-77.364c-1.26-10.423-14.286-28.164-14.286-28.164
	s-29.854,16.207-39.538,15.371c-9.686-0.836-57.697-12.768-48.123-50.933c1.937-7.719,21.931-9.523,36.581,5.412
	c2.37,2.414,23.007,2.55,24.414-2.479c0.252-0.905,11.833-11.069,9.97-21.29c-13.901-12.203-43.651-11.281-66.669-68.566
	c-5.921-14.735,30.796-46.09,54.736-46.965c-0.773-3.164,33.294,17.483,32.065,14.11c-2.231-6.141,3.221-18.014-8.937-25.245
	c-6.601-3.923-37.596,0.83-55.227-7.082c-26.963-12.098-38.842-41.421-80.366-58.195c-5.908-2.385-55.439,49.705-56.483,94.871
	c-0.138,5.945,1.132,64.875,6.917,123.099c3.194,32.132-9.165,83.774-93.705,99.046c-9.468,1.712-92.858,4.856-129.295-65.096
	c-4.723-9.062-81.926-177.233,68.955-294.3C187.02,319.914,146.829,316.587,90.459,397.316z"/>
<path fill="#7C8397" d="M196.077,707.201c0,0,0.813,9.571,1.92,11.615c1.108,2.045-0.289,8.212-0.999,9.929
	c-0.71,1.718-15.32,12.785-15.099,15.857c0.416,5.812,11.735,13.59,24.806,14.17c13.07,0.579,50.378-7.246,58.054-41.518
	C241.535,717.441,196.077,707.201,196.077,707.201z"/>
<path fill="#CBD9E0" d="M593.764,552.579c2.542,0.32,16.735,4.654,17.982,22.092c14.143-1.141,44.416,15.722,23.295,48.049
	c0,0,23.098,25.812-15.238,40.486c-2.529,1.392-2.155,42.781-50.87,33.253c-4.324,3.455-20.892,17.611-39.915,0.659
	c-2.211-3.741,23.284-33.709,16.513-60.34c-0.837-12.309-14.762-27.248-14.762-27.248S573.671,578.056,593.764,552.579z"/>
<path fill="#AEB9D3" d="M581.128,667.168c38.336-14.678,15.239-40.49,15.239-40.49c21.121-32.326-9.152-49.187-23.294-48.049
	c-0.097-1.309-0.284-2.523-0.512-3.688c7.904-7.363,15.479-15.104,21.202-22.361c2.542,0.32,16.735,4.654,17.982,22.092
	c14.143-1.141,44.416,15.722,23.295,48.049c0,0,23.098,25.812-15.238,40.486c-2.529,1.392-2.155,42.781-50.87,33.253
	c-3.921,3.131-17.896,15.054-34.646,4.637C578.942,707.609,578.672,668.518,581.128,667.168z"/>
<g>
	<path fill="#B0BAD4" d="M314.266,211.244c-6.433,11-18.813,6.309-28.957,8.443c-2.393-23.927-25.889-45.676-33.609-40.618
		c3.983-10.931,11.533-28.885,19.867-34.532c12.264-8.309,79.504-37.243,108.649-24.818
		C345.722,117.6,258.59,154.22,314.266,211.244z"/>
	<path fill="#D1DFE6" d="M382.352,105.858c-0.317,3.668-0.868,7.205-1.331,9.792c0.159-4.46-0.212-10.988-0.212-10.988
		S381.379,105.119,382.352,105.858z"/>
</g>
<path fill="#7C8397" d="M380.809,104.662c0,0,16.083,12.87,22.606,12.133c6.527-0.736,7.818-18.535,7.818-18.535
	s11.077,21.12,22.014,26.507c2.033,1.001,6.352-19.894,6.352-19.894s9.89,15.574,33.035,27.999l0,0
	c0.712,0.381,1.438,0.761,2.179,1.139c0.053,0.029,0.109,0.056,0.164,0.083c0.683,0.348,1.373,0.692,2.077,1.033
	c0.244,0.116,0.495,0.232,0.739,0.349c0.543,0.258,1.086,0.515,1.642,0.769c0.839,0.382,1.688,0.759,2.556,1.129
	c0.155,0.065,0.373,0.158,0.619,0.262c0.103,0.046,0.196,0.084,0.316,0.135c0.168,0.071,0.354,0.152,0.556,0.235
	c0.052,0.021,0.097,0.041,0.146,0.063c0.22,0.095,0.454,0.194,0.709,0.304c0.015,0.007,0.03,0.014,0.046,0.02
	c9.616,4.132,42.24,18.777,62.565,38.829c4.255,4.195,56.509,68.648,27.344,134.566c0.006,0.682-25.897-33.193-94.56-22.506
	c0.931-1.27-1.994-4.074-0.777-5.467c55.285-63.199,37.994-94.942,12.938-121.432c-9.564-8.226-28.713-18.016-53.411-20.554
	c-10.33-1.062-19.72-13.525-21.921-16.243c-2.203-2.72-10.886,0.085-14.498,2.167c-3.61,2.082-10.92-3.675-24.022-7.676
	C379.494,120.066,380.809,104.662,380.809,104.662z"/>
<path fill="#9BA4BC" d="M260.369,190.466c-4.271-2.205-11.637-2.643-11.637-2.643s1.088-3.599,2.968-8.754
	c5.457-3.626,12.458-5.916,17.719-4.41c7.762,2.218,25.288,13.938,21.209,44.529c-0.084,0.624-0.586,1.041-1.388,1.36
	c-5.423,0.221-10.871,0.696-14.792,1.962C270.054,223.932,285.163,203.268,260.369,190.466z"/>
<path fill="#626979" d="M501.382,146.36c13.917,7.066,32.343,17.819,45.566,30.863c4.249,4.189,56.367,68.483,27.452,134.309
	c-0.782-0.658-1.609-1.334-2.468-2.031c-2.439-2.304-6.847-6.038-13.537-9.811c-6.02-3.87-12.754-7.528-19.871-10.194
	C572.641,209.173,525.042,163.973,501.382,146.36z"/>
<path fill="#B8BAD0" d="M328.616,246.251c13.785,26.346,44.441,31.99,52.431,19.193c9.511-15.23-11.912-28.152-18.667-30.166
	c9.243-0.274,11.199-6.721,11.199-6.721s31.199-1.277,41.138,14.379c6.72,10.583,3.994,40.335-36.234,46.474
	c-6.536,0.999-24.302,1.562-43.787-26.333c-0.206-0.295-0.735-0.047-1.581,0.532C329.119,253.499,328.181,245.422,328.616,246.251z"
	/>
<path fill="#626979" d="M701.878,159.787c70.834-58.992,71.252-89,58.958-115.416c-8.739-18.783-27.953-30.018-42.461-32.744
	c0.666-0.241,1.335-0.491,1.995-0.685c31.128-9.145,79.834-0.639,75.855,41.126c-1.362,14.311-6.793,51.369-71.615,107.307
	c-7.956,6.87-98.754,75.369-104.504,81.572c-5.753,6.205-28.729,33.756-35.077,54.333
	C589.349,237.317,665.378,190.183,701.878,159.787z"/>
<path fill="#B8BAD0" d="M265.351,259.986c29.252,24.396,61.837-10.986,63.265-13.735l5.962,16.75
	c-2.038-1.022-18.951,21.84-55.695,8.394c-1.957-0.716-6.677-2.459-11.112-6.254C266.238,262.915,265.453,261.028,265.351,259.986z"
	/>
<path fill="#F5F5F6" d="M259.302,237.018c-1.558-5.813,6.313-12.704,17.583-15.39c11.269-2.686,21.669-0.152,23.228,5.66
	c1.561,5.814-6.312,12.705-17.581,15.39C271.264,245.365,260.864,242.832,259.302,237.018z"/>
<path fill="#F5F5F6" d="M334.97,248.626c-0.8-5.186,5.576-10.359,14.243-11.548c8.666-1.19,16.343,2.05,17.146,7.239
	c0.801,5.19-5.575,10.363-14.24,11.551C343.451,257.058,335.774,253.817,334.97,248.626z"/>
<path fill="#CBD9E0" d="M280.228,138.993c0.152,0.16,0.288,0.313,0.429,0.47c-3.363,1.956-6.655,4.093-9.802,6.447
	c-25.749-38.108-28.396-69.47-28.302-79.822c0.149-15.873,5.078-27.221,11.409-35.121
	C250.086,49.659,244.071,101.591,280.228,138.993z"/>
<path fill="#CBD9E0" d="M271.567,144.536c7.964-5.395,39.109-19.479,67.951-25.297c-28.335,7.989-58.187,23.511-71.55,55.43
	c0,0-5.299-0.242-12.852,3.706c-1.323-0.127-2.486,0.085-3.416,0.694C255.684,168.138,263.233,150.183,271.567,144.536z"/>
<path fill="#7C8397" d="M472.02,279.082c-24.829-16.562-38.799-15.108-39.645-9.602c-1.89,12.312-6.14,24.287-41.858,26.448
	c-8.705,0.528-20.318,0.618-20.318,0.618l-12.906,17.436l-27.632-5.708l24.204,1.175l9.483-21.515c0,0,62.986,9.072,49.89-48.064
	C414.683,239.175,458.034,257.642,472.02,279.082z"/>
<path fill="#7C8397" d="M431.996,388.19c11.628,1.959,38.749-0.329,52.1-17.523c27.265-35.112,0.06-73.894-4.363-81.384
	c0,0,0.41-0.38,1.121-1.021c0.05,0.061,0.079,0.1,0.079,0.1s65.716-10.105,92.154,23.893c3.235,4.16,18.194,32.237,43.297,25.65
	c0,0-8.107,13.294-25.993,15.261c-1.44,0.16,8.792,9.052,9.759,9.044c0.969-0.006-10.566,8.751-23.625,9.312
	c-3.521,0.153,4.042,19.124,4.535,20.033c0.493,0.908-20.417-10.326-23.319-10.303c-2.901,0.023,0.261,28.732,0.756,30.098
	c0.494,1.365-16.036-7.627-16.036-7.627s-8.593,12.841-7.979,27.434c0.08,1.876-15.545-6.717-46.982-5.097
	c-5.335,0.274-25.188-2.993-46.72-29.731c-0.433-0.533-3.511-3.414-9.002-7.779C431.911,388.319,431.996,388.19,431.996,388.19z"/>
<path fill="#626979" d="M483.119,423.356c47.034-16.114,64-60.651,63.084-87.397c-0.984-28.728-12.008-43.691-47.613-48.196
	c42.789-3.763,66.241,13.875,74.497,24.491c3.235,4.16,18.194,32.237,43.297,25.65c0,0-8.107,13.294-25.993,15.261
	c-1.44,0.16,8.792,9.052,9.759,9.044c0.969-0.006-10.566,8.751-23.625,9.312c-3.521,0.153,4.042,19.124,4.535,20.033
	c0.493,0.908-20.417-10.326-23.319-10.303c-2.901,0.023,0.261,28.732,0.756,30.098c0.494,1.365-16.036-7.627-16.036-7.627
	s-8.593,12.841-7.979,27.434c0.08,1.876-15.545-6.717-46.982-5.097c-1.582,0.082-4.45-0.156-8.251-1.216
	C480.406,424.343,481.684,423.849,483.119,423.356z"/>
<path fill="#7C8397" d="M339.365,338.303c53.197,23.52,101.399,56.657,98.453,51.894c-2.945-4.768-11.765-17.014-22.721-24.45
	c-18.992-12.896-34.555-22.074-38.437-50.095C363.728,330.125,339.365,338.303,339.365,338.303z"/>
<path fill="#B8BAD0" d="M157.444,313.304c0,0,25.603-4.765-2.584-18.224c-2.324-1.109,14.44-8.326,14.44-8.326
	s-16.024-6.257-17.977-8.066c-1.951-1.808,18.826-5.17,24.972-21.183c0,0-15.548-7.174-18.452-7.15
	c-2.902,0.023,16.375-8.341,26.06-7.962c2.939,0.116-5.886-8.62-7.95-22.744c0.953-1.831,11.22,9.946,17.001,7.163
	c5.782-2.783,41.885-23.598,69.187-1.01c0,0-0.863,2.351-1.638,6.015l-4.068,5.207c-17.586-18.335-85.487,17.789-29.768,79.603
	c0.318,0.352-23.974,1.717-23.93,2.245c-13.082,0.795-21.2,1.771-35.043,4.386c-1.448,0.465-4.363-0.877-4.363-0.877
	L157.444,313.304z"/>
<path fill="#E9E7DC" d="M334.578,263.001c-0.923,5.558-4.918,45.274-4.918,45.274l24.204,1.175l9.483-21.515
	C363.347,287.935,345.373,280.098,334.578,263.001z"/>
<path fill="#B8BAD0" d="M293.626,313.542c-1.886,4.894,4.206,11.473,13.603,14.694c9.401,3.22,18.55,1.861,20.437-3.028
	c1.884-4.892-4.205-11.471-13.604-14.692C304.662,307.296,295.514,308.653,293.626,313.542z"/>
<path fill="#CBD9E0" d="M176.295,257.506c0,0-15.548-7.174-18.452-7.15c-2.902,0.023,16.375-8.341,26.06-7.962
	c2.939,0.116-5.886-8.62-7.95-22.744c0.953-1.831,11.22,9.946,17.001,7.163c4.71-2.269,29.556-16.501,53.365-9.476
	c-24.603,2.053-80.216,19.507-59.542,102.347c0.046,0.185,0.078,0.353,0.12,0.533c-5.854,0.688-11.684,1.623-19.202,3.042
	c-1.448,0.465-4.363-0.877-4.363-0.877l-5.887-9.076c0,0,25.603-4.765-2.584-18.224c-2.324-1.109,14.44-8.326,14.44-8.326
	s-16.024-6.257-17.977-8.066C149.372,276.88,170.149,273.519,176.295,257.506z"/>
<path fill="#F9C4BC" d="M312.803,220.341c-1.339,2.747,1.315,6.593,5.927,8.593c4.614,1.999,9.44,1.393,10.78-1.354
	c1.338-2.746-1.316-6.593-5.928-8.592C318.968,216.987,314.143,217.595,312.803,220.341z"/>
<path fill="#7C8397" d="M285.08,301.336c0,0-11.945,16.971-47.286,14.972c-9.671-0.546,45.518,3.74,61.536,9.313
	C291.538,319.982,285.08,301.336,285.08,301.336z"/>
<path fill="#B8BAD0" d="M70.533,226.882c6.768,25.945-28.96,88.492-5.488,115.67c23.471,27.18,46.608,17.417,63.899,2.91
	c2.409-2.022,4.153-2.56,5.342-1.962c-11.687,10.46-27.831,27.49-43.356,52.442c-37.765-2.436-61.949-51.281-63.484-64.263
	c-3.667-30.986,16.883-59.432,20.205-66.754c3.32-7.325,4.159-22.428,1.245-22.817c-19.38-2.582-30.888-15.129-26.329-22.138
	c3.995-6.141,11.153-9.503,18.587-11.083C54.363,208.253,66.666,212.054,70.533,226.882z"/>
<path fill="#7C8397" d="M99.287,303.281c42.104,0.575,52.019,26.95,52.019,26.95s-8.146,4.945-19.981,15.982
	C124.848,323.69,83.936,318,83.936,318c12.639-37.744,11.838-63.362,8.955-79.072C106.038,268.132,97.544,303.256,99.287,303.281z"
	/>
<path fill="#7C8397" d="M27.446,331.679c-3.667-30.986,16.883-59.432,20.205-66.754c3.32-7.325,4.159-22.428,1.245-22.817
	c-1.203-0.16,10.866-2.481,10.866-2.481c0.126,14.026-2.316,28.407-15.185,46.646c-6.291,8.916-17.541,28.876-13.017,58.098
	C29.184,339.012,27.779,334.499,27.446,331.679z"/>
<path fill="#B8BAD0" d="M489.963,592.068c-1.098-2.689-3.551-8.116-8.305-13.686c0.474,0.314,0.945,0.637,1.419,0.97
	c2.095,1.475,31.509,6.592,30.983-24.88c-1.501-5.462-63.364-24.122-65.277-75.422c2.815-9.603,22.176-35.755,53.354-39.425
	c0.663-0.078,1.355-0.063,2.054,0.017c-19.41,6.963-28.875,32.718-18.203,60.32c10.901,28.193,44.215,46.17,68.497,56.012
	C562.082,559.052,506.98,601.056,489.963,592.068z"/>
<path fill="#7C8397" d="M513.786,443.636c0,0,64.183,34.38,89.974,77.277c4.984,8.29-11.845,54.829-103.598,102.089
	c-7.005,3.609-69.039-9.709-55.608-49.5c0.218-0.645,0.546-1.226,0.956-1.751c2.526,22.996,30.646,45.06,49.973,42.168
	c36.849-5.512,83.163-60.875,80.028-86.393C571.575,495.489,520.599,447.689,513.786,443.636z"/>
<path fill="#7C8397" d="M444.554,573.502c0.558-1.648,1.775-2.906,3.51-3.761c8.739,0.895,16.256,4.331,21.142,10.382
	c7.729,9.569,7.03,23.38-0.375,36.445C452.4,609.075,437.219,595.239,444.554,573.502z"/>
<g>
	<path fill="#CBD9E0" d="M441.586,397.524c-0.012,0.017-0.021,0.03-0.032,0.046c-2.059-1.893-5.614-4.95-10.611-8.812
		C434.626,391.242,438.196,394.144,441.586,397.524z"/>
</g>
<path fill="#E3EAED" d="M186.548,321.734c4.373-3.594,87.891-19.858,187.088,34.082c-82.984-26.703-148.776-17.511-181.097,39.766
	c-54.294,96.223-76.197,242.813,72.302,280.82c-57.665,18.517-98.457-11.729-102.313-14.197
	C96.339,619.862,34.707,439.267,186.548,321.734z"/>
<path fill="#7C8397" d="M434.924,390.903c0,0,13.996,20.368,36.564,30.494c17.631,7.912,48.626,3.159,55.227,7.082
	c12.157,7.231,6.705,19.104,8.937,25.245c1.229,3.373-32.839-17.274-32.065-14.11c-23.94,0.875-60.657,32.229-54.736,46.965
	c23.018,57.285,52.768,56.363,66.669,68.566c1.863,10.221-9.718,20.385-9.97,21.29c-1.407,5.029-22.044,4.894-24.414,2.479
	c-14.65-14.936-34.645-13.131-36.581-5.412c-9.574,38.165,38.438,50.097,48.123,50.933c9.684,0.836,39.538-15.371,39.538-15.371
	s13.026,17.741,14.286,28.164c4.184,34.632-34.652,74.17-34.625,77.364c0.03,3.19-1.762,19.173-0.265,24.176
	c1.495,5.007,12.722,15.407,8.896,20.911c-2.092,3.013-4.421,5.394-6.873,7.274c3.761-25.076-26.878-21.089-42.662-29.675
	c-9.774-5.314-22.487-25.362-13.944-43.675c22.131-47.428-39.782-116.46-52.984-185.686
	C390.836,438.693,426.255,395.535,434.924,390.903z"/>
<path fill="#7C8397" d="M411.542,373.758c-9.645,3.726-48.754,27.449-56.485,67.959c-18.481,96.846,25.616,157.611-22.339,205.435
	c-47.957,47.82-128.404,33.875-137.137,31.209c-0.985-1.816,122.123,20.91,144.51-72.314c2.616-31.948-19.521-125.734,0.349-176.066
	c4.64-21.931,43.917-65.59,50.684-66.779C397.889,362.013,411.542,373.758,411.542,373.758z"/>
<path fill="#7C8397" d="M444.599,605.206c4.018,16.39,14.419,96.583-251.695,98.718c-2.888,1.847,169.773,46.075,264.125-10.32
	c0,0,19.195-15.671,9.28-42.047C456.39,625.182,444.599,605.206,444.599,605.206z"/>
<g>
	<path fill="#626979" d="M503.586,439.613c-23.94,0.875-60.657,32.229-54.736,46.965c23.018,57.285,52.768,56.363,66.669,68.566
		c1.863,10.221-9.718,20.385-9.97,21.29c-0.989,3.54-11.513,4.521-18.482,3.946c-0.036-0.05-0.076-0.096-0.112-0.146
		c-26.432-33.543-40.754-86.401-39.588-97.292c4.703-44.014,45.94-54.678,70.155-56.127c4.231,0.229,7.51,0.664,9.193,1.662
		c12.157,7.231,6.705,19.104,8.937,25.245C536.88,457.097,502.812,436.449,503.586,439.613z"/>
	<path fill="#626979" d="M510.401,619.537c10.813-4.507,21.813-10.474,21.813-10.474s13.026,17.741,14.286,28.164
		c4.184,34.632-34.652,74.17-34.625,77.364c0.03,3.19-1.762,19.173-0.265,24.176c0.974,3.262,6.076,8.813,8.459,13.808
		c-9.817-11.982-23.094-16.889-37.566-21.783C512.655,674.386,516.96,642.556,510.401,619.537z"/>
</g>
<path fill="#626979" d="M508.578,670.829c5.046-30.603-8.518-32.318-17.735-34.98c-9.217-2.662-44.745-25.184-46.368-44.326
	c0,0,34.337,51.723,67.49,25.912C530.484,631.882,508.578,670.829,508.578,670.829z"/>
<path fill="#B8BAD0" d="M90.459,397.316c49.153-70.395,86-76.875,94.956-76.78l1.049,1.109c-0.203,0.159-0.402,0.318-0.603,0.478
	c-14.96,8.02-156.455,64.72-75.905,314.97C73.238,573.219,54.354,474.777,90.459,397.316z"/>
<path fill="#626979" d="M230.5,741.477c3.944-8.145-2.339-21.924-8.96-29.209c14.299,2.548,31.56,5.081,43.219,4.987
	c-7.675,34.271-44.984,42.097-58.054,41.518c-3.019-0.135-5.934-0.665-8.655-1.454C212.749,756.083,225.892,751,230.5,741.477z"/>
<g>
	<path fill="#4A4F5D" d="M371.223,227.115c9.895-3.494,22.233,1.022,31.465,4.524c8.394,3.186,15.112,8.778,16.587,17.464
		c2.5,14.72-7.057,29.285-19.967,36.714c-11.975,6.891-27.728,7.858-40.523,2.466c-16.566-6.981-30.421-25.763-31.127-42.939
		c-0.027-0.649,0.99-0.937,1.318-0.346c4.126,7.422,6.667,15.38,11.52,22.487c4.077,5.968,9.792,10.708,16.188,14.369
		c10.807,6.182,24.469,6.567,35.946,1.865c11.513-4.712,18.71-13.86,21.3-25.251c2.082-9.151-0.981-16.309-9.595-21
		c-8.172-4.447-22.703-9.189-32.023-6.756C369.808,231.366,368.86,227.949,371.223,227.115L371.223,227.115z"/>
</g>
<g>
	<path fill="#4A4F5D" d="M335.273,263.306c-16.41,21.211-58.144,18.486-73.992-1.95c-7.539-9.724-8.589-26.688,1.167-35.216
		c11.235-9.819,31.295-8.029,45.348-8.142c2.997-0.023,3.038,4.36,0.039,4.385c-11.903,0.094-24.129-0.367-35.525,3.388
		c-15.513,5.114-13.821,22.15-6.497,33.041c6.806,10.119,22.448,13.875,34.242,14.304c11.766,0.428,24.699-2.959,32.171-11.988
		C333.566,259.509,336.56,261.642,335.273,263.306L335.273,263.306z"/>
</g>
<g>
	<path fill="#4A4F5D" d="M362.87,287.483c-0.062,7.023-4.704,15.589-7.271,22.463c-0.292,0.781-1.006,1.478-1.96,1.433
		c-11.308-0.546-22.702-0.993-33.99-1.812c-7.169-0.518-12.114-0.894-15.809-7.128c-4.245-7.158-6.689-16.012-7.958-24.084
		c-0.443-2.818,4.111-4.091,4.582-1.23c1.213,7.384,3.601,14.914,6.762,21.755c1.37,2.966,2.645,5.013,6.089,5.722
		c4.008,0.823,8.2,1.021,12.282,1.3c9.326,0.639,18.679,0.969,28.006,1.625c-0.653,0.476-1.306,0.954-1.959,1.429
		c2.787-6.937,5.115-16.425,9.964-21.953C362.026,286.525,362.875,286.91,362.87,287.483L362.87,287.483z"/>
</g>
<g>
	<path fill="#4A4F5D" d="M333.235,274.039c0.095,6.332,0.632,12.673,0.634,19.031c0.001,4.744,0.115,11.208-2.911,15.226
		c-0.8,1.063-2.859,0.836-2.807-0.691c0.185-5.441,2.16-11.065,2.794-16.529c0.66-5.688,1.047-11.358,1.78-17.033
		C332.762,273.743,333.228,273.718,333.235,274.039L333.235,274.039z"/>
</g>
<g>
	<path fill="#4A4F5D" d="M409.652,239.214c2.05-33.863,46.829-66.373,78.67-41.408c11.643,9.129,13.4,24.927,10.912,38.083
		c-3.107,16.44-14.329,30.749-29.934,38.497c-2.97,1.475-5.647-2.744-2.671-4.225c22.977-11.439,40.045-45.9,19.992-66.825
		c-11.658-12.164-32.24-11.054-45.957-3.152c-15.354,8.842-22.112,24.05-26.83,39.532
		C413.191,241.829,409.511,241.535,409.652,239.214L409.652,239.214z"/>
</g>
<g>
	<path fill="#4A4F5D" d="M480.719,291.096c-5.043-4.333-8.271-10.656-13.17-15.34c-5.507-5.265-11.659-9.885-18.076-14.111
		c-11.733-7.726-24.603-13.931-37.562-19.594c-3.116-1.363-0.448-5.715,2.652-4.36c13.83,6.046,27.39,12.886,39.462,21.732
		c6.346,4.648,12.265,9.647,17.476,15.427c3.916,4.345,9.318,9.887,10.351,15.613C481.962,291.083,481.255,291.558,480.719,291.096
		L480.719,291.096z"/>
</g>
<g>
	<path fill="#4A4F5D" d="M453.873,238.664c-3.448,0.026-6.348-2.661-6.376-5.909c-0.031-3.248,2.819-5.983,6.266-6.01
		c3.448-0.028,6.348,2.66,6.378,5.908C460.17,235.902,457.316,238.635,453.873,238.664L453.873,238.664z"/>
</g>
<g>
	<path fill="#4A4F5D" d="M243.598,190.527c7.71-6.404,20.633-1.803,26.677,4.404c6.249,6.418,10.937,20.646,5.095,28.476
		c-1.011,1.355-3.602,1.046-3.546-0.876c0.104-3.713,1.28-7.171,1.049-10.967c-0.258-4.233-1.934-8.407-4.211-12.008
		c-2.398-3.791-6.378-6.694-10.747-8.198c-4.783-1.647-9.121,0.303-13.867,0.172C243.542,191.512,243.167,190.885,243.598,190.527
		L243.598,190.527z"/>
</g>
<g>
	<path fill="#4A4F5D" d="M245.619,188.555c5.478-22.969,18.293-44.165,40.5-56.011c13.898-7.41,30.983-11.313,46.438-14.572
		c15.918-3.359,34.592-5.35,49.809,1.282c1.234,0.538,0.676,2.543-0.679,2.446c-16.414-1.197-31.307-1.899-47.599,1.334
		c-14.521,2.886-30.033,6.854-43.396,13.01c-22.931,10.565-33.324,31.97-41.729,53.35
		C248.198,191.339,245.122,190.64,245.619,188.555L245.619,188.555z"/>
</g>
<g>
	<path fill="#4A4F5D" d="M472.697,134.831c39.354,8.902,73.101,32.466,93.944,65.296c21.144,33.307,26.756,77.968,9.371,113.869
		c-1.726,3.565-7.354,0.518-5.606-3.032c16.802-34.193,10.692-76.225-8.537-108.156c-19.173-31.83-52.373-56.231-89.494-66.842
		C471.609,135.75,471.912,134.653,472.697,134.831L472.697,134.831z"/>
</g>
<g>
	<path fill="#4A4F5D" d="M501.47,146.437c-11.742-5.998-24.879-9.475-36.496-15.87c-11.873-6.528-21.538-15.513-27.271-27.376
		c1.325-0.174,2.652-0.348,3.979-0.522c-1.184,8.099-1.15,15.942-5.815,23.118c-0.644,0.988-1.895,1.282-2.979,0.762
		c-11.732-5.635-17.147-17.459-24.255-27.228c1.328-0.176,2.658-0.349,3.985-0.523c-1.532,6.294-0.261,20.132-10.336,20.264
		c-8.599,0.114-17.596-9.603-23.74-14.298c1.235-0.494,2.469-0.987,3.701-1.48c0.623,5.307,0.352,10.609,1.497,15.868
		c0.557,2.553-3.578,3.677-4.145,1.114c-1.236-5.609-1.024-11.278-1.703-16.948c-0.237-1.975,2.406-2.465,3.702-1.48
		c5.502,4.188,10.7,8.698,16.968,11.884c9.471,4.817,8.583-10.841,9.833-15.986c0.449-1.841,2.976-1.912,3.987-0.524
		c6.657,9.154,11.686,20.488,22.674,25.766c-0.992,0.252-1.987,0.507-2.979,0.76c4.417-6.793,4.253-14.477,5.389-22.128
		c0.256-1.71,3.232-2.083,3.98-0.523c11.23,23.396,38.68,32.121,60.416,44.703C502.3,146.04,501.922,146.667,501.47,146.437
		L501.47,146.437z"/>
</g>
<g>
	<path fill="#4A4F5D" d="M509.206,213.873c-3.438-8.866-5.972-18.102-10.131-26.728c-2.276-4.718-5.316-9.24-9.041-13.05
		c-3.441-3.523-8.205-4.53-11.803-7.583c-1.839-1.56-0.29-4.012,1.806-4.212c9.604-0.917,17.747,11.656,20.821,18.651
		c4.642,10.564,6.972,21.567,9.004,32.745C509.938,214.101,509.36,214.264,509.206,213.873L509.206,213.873z"/>
</g>
<g>
	<path fill="#4A4F5D" d="M261.76,229.111c-7.219-9.041-21.624-10.821-32.758-10.852c-12.852-0.033-22.316,3.98-33.347,9.233
		c-1.729,0.824-3.756-0.825-2.738-2.538c6.042-10.152,25.311-11.675,36.039-11.847c13.214-0.21,28.791,2.828,36.508,13.921
		C267.018,229.265,263.392,231.151,261.76,229.111L261.76,229.111z"/>
</g>
<g>
	<path fill="#4A4F5D" d="M619.022,335.603c-17.646,16.504-40.032-11.229-50.151-22.983c-21.349-24.794-57.088-24.068-87.677-22.071
		c-3.666,0.24-3.559-4.892-0.047-5.291c27.009-3.072,57.791-1.986,80.556,13.801c15.137,10.497,33.423,49.623,56.902,36.042
		C618.936,334.911,619.296,335.346,619.022,335.603L619.022,335.603z"/>
</g>
<g>
	<path fill="#4A4F5D" d="M618.416,336.658c-5.104,10.207-17.194,17.784-29.223,17.832c0.531-0.892,1.063-1.784,1.596-2.675
		c2.774,4.083,5.814,7.128,10.364,9.439c1.106,0.563,1.368,2.146,0.435,2.965c-7.204,6.328-17.061,8.79-26.746,8.459
		c0.72-0.689,1.44-1.38,2.163-2.073c0.393,7.476,3.007,14.103,6.541,20.736c1.211,2.275-1.576,4.271-3.623,2.682
		c-6.883-5.343-15.377-7.713-23.729-10.241c0.949-0.697,1.9-1.39,2.853-2.085c-0.71,10.35-0.733,20.736,1.459,30.943
		c0.324,1.5-1.395,3.312-3.023,2.23c-5.665-3.771-12.14-6.593-17.127-11.198c1.02-0.134,2.038-0.266,3.058-0.398
		c-5.307,9.293-6.891,18.79-6.641,29.232c0.038,1.513-1.708,2.326-3.049,1.684c-19.671-9.458-42.936-1.47-63.215-9.514
		c-19.222-7.627-31.53-26.66-40.207-43.5c-0.598-1.156,1.001-2.039,1.801-1.014c12.198,15.636,24.142,34.102,44.572,40.918
		c10.164,3.39,21.609,2.765,32.221,3.613c9.346,0.747,18.4,2.149,26.854,6.163c-1.017,0.558-2.036,1.122-3.053,1.681
		c-0.911-10.744,2.545-21.456,7.335-31.09c0.573-1.151,2.165-1.09,3.057-0.396c5.116,3.999,11.025,6.842,16.454,10.427
		c-1.005,0.744-2.016,1.487-3.022,2.229c-2.295-10.5-2.554-21.294-2.011-31.973c0.069-1.317,1.378-2.535,2.852-2.085
		c9.136,2.793,18.205,5.548,25.818,11.253c-1.206,0.894-2.416,1.788-3.622,2.683c-3.786-7.316-6.583-14.746-6.914-22.945
		c-0.047-1.075,0.999-2.126,2.161-2.072c8.561,0.386,17.426-1.459,23.921-6.999c0.145,0.987,0.288,1.978,0.436,2.966
		c-5.045-2.664-8.575-6.298-11.597-10.91c-0.735-1.128,0.184-2.69,1.597-2.674c10.988,0.131,21.426-6.877,27.093-15.46
		C617.112,334.188,619.099,335.296,618.416,336.658L618.416,336.658z"/>
</g>
<g>
	<path fill="#4A4F5D" d="M446.837,402.606c-8.551-5.651-16.075-12.05-24.221-18.205c-9.629-7.274-20.595-13.248-30.991-19.487
		c-22.07-13.244-46.018-21.811-70.675-29.773c-25.356-8.184-51.494-14.378-78.291-16.157c-26.539-1.763-52.091,3.921-78.335,6.145
		c-2.195,0.186-2.708-3.207-0.552-3.619c25.743-4.925,52.514-9.075,78.841-7.497c26.391,1.58,52.121,7.699,77.144,15.513
		c24.249,7.572,48.355,15.877,70.178,28.536c10.171,5.897,20.889,11.954,30.317,18.865c9.971,7.308,17.979,16.8,27.844,24.118
		C449.029,401.737,447.812,403.25,446.837,402.606L446.837,402.606z"/>
</g>
<g>
	<path fill="#4A4F5D" d="M198.448,223.988c-3.366,3.73-3.216,5.064-8.841,4.607c-5.813-0.475-10.83-4.121-14.669-7.971
		c1.209-0.484,2.417-0.967,3.629-1.453c0.271,7.864,2.617,15.936,7.514,22.399c0.771,1.013-0.238,2.398-1.439,2.413
		c-10.331,0.135-19.13,3.672-27.825,8.728c-0.305-1.028-0.612-2.057-0.916-3.084c7.552,0.332,13.692,3.754,20.638,6.155
		c0.902,0.312,1.721,1.212,1.346,2.186c-4.746,12.301-15.013,18.157-27.983,21.326c0.272-1.004,0.543-2.009,0.815-3.012
		c6.285,5.291,13.811,6.978,21.768,8.838c2.402,0.56,1.6,3.462-0.503,3.747c-6.969,0.938-12.611,3.738-18.002,7.884
		c-0.328-1.128-0.654-2.258-0.982-3.387c5.988,1.469,14.633,5.35,16.465,11.593c2.2,7.502-6.359,9.55-12.487,10.195
		c0.7-0.88,1.397-1.759,2.097-2.639c1.761,3.848,4.678,6.955,7.166,10.374c1.632,2.243-2.271,4.444-3.849,2.162
		c-2.638-3.821-5.627-7.184-7.544-11.401c-0.616-1.352,0.844-2.51,2.094-2.638c5.174-0.532,11.21-2.382,6.418-7.629
		c-2.886-3.157-7.288-5.05-11.469-6.086c-1.612-0.401-2.066-2.278-0.982-3.391c5.744-5.899,12.846-7.931,21.042-8.851
		c-0.167,1.25-0.335,2.502-0.504,3.75c-8.648-2.178-16.613-4.177-23.402-9.955c-1.056-0.901-0.544-2.689,0.816-3.015
		c11.601-2.773,21.176-7.612,25.366-18.785c0.447,0.729,0.895,1.458,1.343,2.187c-6.552-2.202-12.562-5.818-19.635-6.291
		c-1.671-0.111-2.516-2.2-0.917-3.083c9.242-5.11,18.807-8.635,29.599-9.071c-0.481,0.806-0.961,1.613-1.441,2.415
		c-5.768-7.155-8.495-14.975-8.873-23.996c-0.07-1.732,2.359-2.709,3.63-1.451c4.863,4.812,12.484,10.151,18.659,4.508
		C197.809,221.151,199.529,222.792,198.448,223.988L198.448,223.988z"/>
</g>
<g>
	<path fill="#4A4F5D" d="M264.98,219.025c-2.951,0.023-5.434-2.278-5.458-5.062c-0.027-2.781,2.416-5.124,5.368-5.147
		c2.952-0.023,5.436,2.28,5.462,5.062C270.376,216.66,267.935,219.001,264.98,219.025L264.98,219.025z"/>
</g>
<g>
	<path fill="#4A4F5D" d="M256.66,189.922c-6.508,1.725-11.494,2.166-15.682,7.84c-4.438,6.007-2.34,11.292-1.347,17.724
		c0.244,1.595-1.63,3.071-3.065,1.713c-6.127-5.786-3.535-16.8,0.713-22.836c3.865-5.493,13.359-10.176,19.646-5.424
		C257.301,189.223,257.077,189.811,256.66,189.922L256.66,189.922z"/>
</g>
<g>
	<path fill="#4A4F5D" d="M268.028,175.312c-6.354-0.763-11.592,2.859-15.969,6.773c-1.587,1.424-3.977-0.773-2.425-2.245
		c4.992-4.739,11.709-7.217,18.759-5.82C269.311,174.204,268.904,175.417,268.028,175.312L268.028,175.312z"/>
</g>
<g>
	<path fill="#4A4F5D" d="M385.981,276.005c-1.776,0.014-3.274-1.371-3.288-3.049c-0.016-1.675,1.456-3.084,3.233-3.099
		c1.777-0.015,3.272,1.372,3.287,3.047C389.228,274.581,387.758,275.99,385.981,276.005L385.981,276.005z"/>
</g>
<g>
	<path fill="#4A4F5D" d="M397.846,260.837c-0.039-0.034-0.081-0.067-0.119-0.104c0.197,0.106,0.398,0.214,0.598,0.321
		c-0.042-0.011-0.083-0.023-0.125-0.034c-0.397-0.118-0.849-0.433-0.919-0.854c-0.044-0.266-0.045-0.389-0.006-0.653
		c0.063-0.423,0.508-0.747,0.905-0.869c0.04-0.01,0.081-0.024,0.124-0.038c-0.2,0.112-0.396,0.222-0.592,0.333
		c0.038-0.037,0.078-0.072,0.118-0.106c0.941-0.828,2.562-0.294,2.573,0.981C400.414,261.089,398.803,261.652,397.846,260.837
		L397.846,260.837z"/>
</g>
<g>
	<path fill="#4A4F5D" d="M379.89,244.474c-1.715,0.013-3.158-1.326-3.173-2.942c-0.013-1.616,1.405-2.978,3.12-2.991
		c1.714-0.014,3.16,1.324,3.173,2.941C383.024,243.098,381.604,244.459,379.89,244.474L379.89,244.474z"/>
</g>
<g>
	<path fill="#4A4F5D" d="M359.053,267.962c-2.266,0.017-2.296-3.296-0.03-3.313C361.29,264.629,361.32,267.942,359.053,267.962
		L359.053,267.962z"/>
</g>
<g>
	<path fill="#4A4F5D" d="M372.003,255.269c-3.766,0.029-3.816-5.476-0.05-5.506C375.721,249.732,375.771,255.238,372.003,255.269
		L372.003,255.269z"/>
</g>
<g>
	<path fill="#4A4F5D" d="M297.271,258.165c-2.23,0.019-2.259-3.242-0.028-3.259C299.473,254.888,299.501,258.147,297.271,258.165
		L297.271,258.165z"/>
</g>
<g>
	<path fill="#4A4F5D" d="M309.139,260.322c0.093,0.087,0.186,0.169,0.278,0.254c2.88,2.635-4.166,4.029-2.915,0.752
		c0.058-0.157,0.118-0.312,0.178-0.468c0.532-1.401,2.447-1.417,3.006-0.023c0.062,0.153,0.125,0.309,0.186,0.463
		c1.309,3.257-5.762,1.976-2.929-0.703c0.092-0.086,0.184-0.171,0.272-0.259C307.742,259.842,308.606,259.835,309.139,260.322
		L309.139,260.322z"/>
</g>
<g>
	<path fill="#4A4F5D" d="M288.296,238.451c-0.025,0.034-0.048,0.07-0.072,0.108c-1.271,1.943-4.18,1.968-5.488,0.043
		c-0.023-0.036-0.046-0.073-0.072-0.107c-1.348-1.982,0.363-4.63,2.774-4.65C287.848,233.826,289.608,236.445,288.296,238.451
		L288.296,238.451z"/>
</g>
<g>
	<path fill="#4A4F5D" d="M277.629,253.293c-1.9,0.016-1.925-2.763-0.025-2.778C279.505,250.5,279.531,253.278,277.629,253.293
		L277.629,253.293z"/>
</g>
<g>
	<path fill="#4A4F5D" d="M283.545,265.322c-1.572,0.013-1.593-2.288-0.021-2.3C285.096,263.011,285.117,265.309,283.545,265.322
		L283.545,265.322z"/>
</g>
<g>
	<path fill="#4A4F5D" d="M269.591,247.223c-3.803,0.031-3.853-5.527-0.049-5.559C273.343,241.634,273.394,247.192,269.591,247.223
		L269.591,247.223z"/>
</g>
<g>
	<path fill="#4A4F5D" d="M339.601,118.124c6.517-26.047,3.501-53.892-13.054-76.1c-13.133-17.62-38.897-31.903-60.401-18.368
		c-20.001,12.589-21.669,39.417-18.953,59.617c2.835,21.09,11.681,43.21,25.742,59.951c2.351,2.8-1.79,6.836-4.174,4.003
		c-15.707-18.655-24.672-42.313-27.856-65.773c-3.15-23.22,1.779-49.858,23.82-63.676c22.157-13.888,49.527,1.116,64.036,17.921
		c19.633,22.746,22.667,55.998,15.114,83.498C343.16,121.802,338.946,120.736,339.601,118.124L339.601,118.124z"/>
</g>
<g>
	<path fill="#4A4F5D" d="M324.653,122.166c-1.606-2.673-0.617-6.479-0.711-9.469c-0.165-5.194-1.125-10.332-2.629-15.321
		c-2.927-9.698-9.98-18.925-21.873-16.021c-19.067,4.655-14.349,37.971-6.872,49.457c1.764,2.708-2.74,5.227-4.483,2.517
		c-9.775-15.207-12.077-49.4,10.027-56.371c11.471-3.618,20.792,4.048,25.285,13.275c2.561,5.265,3.758,11,4.521,16.713
		c0.556,4.147,2.117,12.07-1.17,15.458C326.174,122.997,325.065,122.854,324.653,122.166L324.653,122.166z"/>
</g>
<g>
	<path fill="#4A4F5D" d="M544.376,173.893c9.783,3.982,21.099-4.663,28.261-10.067c10.632-8.027,19.813-17.781,28.722-27.44
		c16.406-17.799,32.257-36.505,46.321-55.993c18.129-25.123,35.844-53.188,63.793-69.717c24.746-14.637,59.66-12.433,78.191,10.363
		c18.549,22.82,8.934,50.459-4.405,73.267c-15.912,27.211-39.351,50.484-62.992,71.831c-27.394,24.727-59.742,43.658-88.146,67.217
		c-14.398,11.942-26.412,26.016-36.013,41.656c-7.982,13.006-10.702,28.949-20.667,40.83c-2.147,2.563-6.001-1.024-3.84-3.559
		c5.777-6.78,8.166-15.667,11.18-23.735c3.259-8.741,7.939-16.725,13.213-24.534c11.184-16.562,25.62-30.244,41.521-42.774
		c31.764-25.026,65.46-47.049,94.393-75.183c13.957-13.575,27.063-27.999,38.218-43.73c10.28-14.498,19.965-31.6,21.262-49.312
		c2.565-35.112-39.297-53.392-70.209-40.632c-24.758,10.22-41.866,33.42-56.7,53.673c-12.79,17.463-25.509,34.616-39.533,51.214
		c-13.318,15.765-26.745,31.549-42.692,45.056c-10.421,8.819-27.054,21.647-42.02,15.095
		C539.691,176.305,541.869,172.871,544.376,173.893L544.376,173.893z"/>
</g>
<g>
	<path fill="#4A4F5D" d="M561.875,191.894c7.218,5.97,19.069-1.432,25.423-5.375c10.858-6.733,20.667-14.691,30.131-23.064
		c14.676-12.983,28.032-27.082,41.063-41.503c13.059-14.452,35.328-42.43,58.11-28.693c8.821,5.319,10.423,15.187,7.535,24.04
		c-4.265,13.082-16.664,23.097-28.272,30.428c-11.675,7.373-24.092,13.407-35.451,21.296c-11.689,8.119-22.348,17.47-32.493,27.233
		c-10.208,9.823-20.663,19.944-28.78,31.416c-7.108,10.05-10.814,21.52-13.623,33.195c-0.809,3.358-6.289,1.979-5.479-1.379
		c3.551-14.766,8.91-28.152,18.59-40.342c11.089-13.958,24.676-26.723,38.215-38.557c13.296-11.628,27.984-21.661,43.52-30.45
		c15.071-8.529,31.93-17.685,38.184-34.246c4.197-11.12-5.004-23.894-18.311-20.792c-12.767,2.975-23.549,15.825-31.87,24.627
		c-13.636,14.423-26.577,29.148-41.198,42.726c-11.534,10.708-23.96,21.75-38.117,29.335c-8.261,4.427-21.218,9.898-29.164,2.009
		C558.621,192.544,560.503,190.761,561.875,191.894L561.875,191.894z"/>
</g>
<g>
	<path fill="#4A4F5D" d="M376.842,316.016c-7.81,11.95-28.724,27.075-44.495,20.823c-0.822-0.324-0.456-1.38,0.207-1.611
		c7.815-2.73,16.181-2.354,23.927-5.779c7.749-3.425,13.181-8.751,19.149-14.298C376.241,314.583,377.307,315.304,376.842,316.016
		L376.842,316.016z"/>
</g>
<g>
	<path fill="#4A4F5D" d="M285.343,300.729c2.16,3.913,3.448,8.145,5.586,12.081c2.866,5.266,7.598,8.825,12.612,12.124
		c1.742,1.146,0.298,3.529-1.636,2.69c-10.082-4.373-16.3-16.737-17.143-26.743C284.738,300.592,285.203,300.473,285.343,300.729
		L285.343,300.729z"/>
</g>
<g>
	<path fill="#4A4F5D" d="M514.915,442.273c22.837,10.145,42.36,24.421,60.389,41.062c8.956,8.269,17.88,17.058,25.425,26.517
		c5.704,7.153,9.174,14.461,6.304,23.352c-3.051,9.454-10.935,17.728-17.422,25.223c-8.604,9.94-17.666,19.941-27.643,28.688
		c-9.462,8.296-19.673,15.908-30.295,22.837c-10.264,6.694-21.582,13.554-33.811,16.398c-2.289,0.531-3.958-2.636-1.693-3.699
		c9.707-4.558,19.311-8.804,28.429-14.405c10.492-6.438,20.095-14.201,29.335-22.135c16.646-14.294,34.022-31.593,45.042-50.195
		c6.051-10.214,0.927-18.109-6.271-26.286c-7.344-8.346-15.033-16.444-23.021-24.246c-16.381-15.996-35.078-30.686-55.588-41.764
		C513.167,443.116,513.966,441.853,514.915,442.273L514.915,442.273z"/>
</g>
<g>
	<path fill="#4A4F5D" d="M546.031,558.253c-16.273,1.941-32.715-3.664-46.979-10.568c-16.55-8.012-31.677-20.262-42.162-34.76
		c-8.644-11.954-13.122-27.221-7.148-41.071c8.515-19.735,32.984-32.237,54.567-32.861c0.843-0.023,0.848,1.19,0.012,1.229
		c-13.186,0.628-26.576,8.944-36.662,16.574c-6.933,5.246-12.201,11.723-14.592,19.865c-4.131,14.066,3.412,28.255,12.486,39.037
		c10.078,11.978,23.449,21.106,37.433,28.622c12.95,6.961,27.972,12.604,43.035,12.702
		C546.882,557.025,546.844,558.155,546.031,558.253L546.031,558.253z"/>
</g>
<g>
	<path fill="#4A4F5D" d="M489.885,592.15c-3.629-7.756-10.429-13.669-18.209-17.696c-6.537-3.384-19.308-7.805-24.454-0.179
		c-6.829,10.117,3.682,24.863,10.73,31.945c9.619,9.669,24.923,17.771,39.381,15.525c3.027-0.467,4.389,3.866,1.322,4.373
		c-16.712,2.754-32.772-5.623-44.252-16.496c-9.518-9.019-18.631-25.027-11.295-37.569c5.135-8.777,17.896-6.173,25.667-2.906
		c9.396,3.953,21.174,12.352,22.323,22.683C491.163,592.424,490.144,592.706,489.885,592.15L489.885,592.15z"/>
</g>
<g>
	<path fill="#4A4F5D" d="M515.583,552.243c9.926,18.963-18.144,37.779-35.729,27.06c-1.484-0.903-0.594-3.195,1.199-2.747
		c8.808,2.215,15.198,2.139,23.052-2.687c7.357-4.522,10.152-12.444,8.226-20.303C511.894,551.785,514.647,550.455,515.583,552.243
		L515.583,552.243z"/>
</g>
<g>
	<path fill="#4A4F5D" d="M520.675,426.87c5.754-1.787,11.981,4.717,14.483,8.857c3.494,5.784,4.224,12.845,2.911,19.287
		c-0.608,2.981-5.408,1.752-4.823-1.213c1.049-5.323,0.216-10.859-2.212-15.755c-1.052-2.118-2.618-4.099-4.312-5.786
		c-1.868-1.866-4.532-2.337-6.4-4.092C519.874,427.743,520.093,427.05,520.675,426.87L520.675,426.87z"/>
</g>
<g>
	<path fill="#4A4F5D" d="M472.667,584.387c-2.963-4.91-7.472-8.047-13.035-10.002c-4.562-1.603-9.887-0.312-14.123-2.157
		c-0.679-0.294-0.592-1.24-0.015-1.568c4.021-2.296,11.213-0.533,15.297,1.072c6.086,2.395,9.747,6.746,12.457,12.328
		C473.43,584.427,472.888,584.754,472.667,584.387L472.667,584.387z"/>
</g>
<g>
	<path fill="#4A4F5D" d="M528.896,607.658c5.449-2.678,11.014,8.726,12.94,11.76c6.372,10.028,9.772,20.68,7.729,32.546
		c-2.499,14.504-10.254,28.926-18.453,41.286c-7.778,11.728-18.91,22.938-31.781,29.682c-0.844,0.443-1.855-0.655-1.077-1.291
		c19.488-15.877,31.098-34.719,41.581-56.599c5.455-11.387,7.227-25.846,1.227-37.377c-1.755-3.372-3.609-6.696-5.592-9.953
		c-0.843-1.396-4.7-7.169-5.191-7.037C528.391,611.188,527.1,608.539,528.896,607.658L528.896,607.658z"/>
</g>
<g>
	<path fill="#4A4F5D" d="M165.372,325.417c-29.03,18.415-53.118,42.53-68.725,72.167c-12.155,23.08-18.419,48.698-20.705,74.27
		c-2.583,28.9-0.124,58.067,5.848,86.467c7.62,36.248,20.884,72.287,44.799,101.968c18.976,23.551,46.875,36.643,76.637,44.066
		c30.659,7.644,63.093,10.771,94.646,12.908c35.31,2.39,71.212,1.661,105.834-5.802c15.148-3.264,29.592-8.445,43.567-14.815
		c13.103-5.969,28.114-12.91,38.919-22.138c0.862-0.735,2.14,0.426,1.295,1.203c-13.101,12.016-26.828,21.062-43.364,28.684
		c-17.147,7.907-34.926,13.126-53.702,16.307c-42.233,7.164-85.757,5.021-128.118,0.084c-36.188-4.218-72.81-9.315-104.784-26.969
		c-32.443-17.914-52.209-49.029-65.719-81.189c-21-49.986-28.371-107.359-19.41-160.592c9.101-54.072,40.512-101.835,90.86-129.97
		C165.565,320.771,167.57,324.024,165.372,325.417L165.372,325.417z"/>
</g>
<g>
	<path fill="#4A4F5D" d="M197.807,706.354c0.519,2.435,0.225,4.848,0.828,7.328c0.604,2.481,1.576,4.868,1.92,7.41
		c0.575,4.236-0.18,7.926-3.004,11.342c-2.926,3.538-6.675,6.239-10.151,9.267c-7.494,6.526,4.132,10.938,10.155,12.79
		c12.866,3.959,26.995,0.678,38.493-5.273c12.525-6.483,18.701-16.177,24.067-28.122c1.187-2.641,5.817-1.328,5.667,1.398
		c-0.735,13.47-13.126,24.763-24.597,31.416c-13.259,7.689-30.208,10.123-45.108,5.807c-9.653-2.794-22.603-10.788-12.848-20.212
		c4.662-4.503,12.333-8.121,13.238-15.011c0.673-5.113-5.587-14.472-0.417-18.56C196.599,705.498,197.638,705.559,197.807,706.354
		L197.807,706.354z"/>
</g>
<g>
	<path fill="#4A4F5D" d="M224.345,734.461c-5.225-3.606-11.151-5.544-17.661-5.407c-6.644,0.143-9.198,5.379-14.456,7.394
		c-0.605,0.234-1.087-0.321-1.157-0.812c-0.871-6.215,8.841-9.798,14.096-9.937c7.58-0.202,14.86,2.52,19.858,7.916
		C225.42,734.045,224.896,734.842,224.345,734.461L224.345,734.461z"/>
</g>
<g>
	<path fill="#4A4F5D" d="M204.335,737.459c-3.99,0.513-7.639,1.458-11.097,3.476c-1.89,1.101-3.474,2.597-4.705,4.326
		c-1.18,1.659-0.98,3.671-2.095,5.251c-0.397,0.562-1.327,0.66-1.713,0.014c-2.253-3.764,2.81-8.567,5.674-10.645
		c3.725-2.706,9.439-4.672,14.083-3.527C205.184,736.526,204.962,737.379,204.335,737.459L204.335,737.459z"/>
</g>
<g>
	<path fill="#4A4F5D" d="M513.228,710.987c2.19,8.641-3.438,17.07-0.155,26.026c2.426,6.616,7.975,11.785,9.728,18.679
		c3.734,14.698-19.648,21.575-31.05,20.691c-7.59-0.586-14.369-4.154-19.719-9.099c-3.04-2.807-5.462-6.188-8.136-9.293
		c-3.554-4.125-8.166-6.752-13.151-9.051c-7.094-3.271-11.727-7.813-13.772-15.105c-2.515-8.964,0.666-18.761-6.079-26.475
		c-2.049-2.34,1.227-5.688,3.578-3.431c10.799,10.369,1.913,27.045,12.677,37.165c2.56,2.409,6.636,3.717,9.81,5.251
		c3.445,1.671,6.479,4.018,9.191,6.596c5.952,5.661,9.542,12.265,17.295,16.183c8.374,4.231,18.611,2.795,26.528-1.487
		c10.007-5.412,8.306-11.838,3.448-19.81c-3.126-5.135-5.543-9.79-6.008-15.753c-0.523-6.748,2.295-14.757,4.502-21.076
		C512.112,710.431,513.06,710.336,513.228,710.987L513.228,710.987z"/>
</g>
<g>
	<path fill="#4A4F5D" d="M494.651,736.221c9.032,0.3,16.747,5.78,22.103,12.321c4.273,5.222,7.613,15.921,1.097,20.697
		c-0.474,0.349-1.228-0.11-1.199-0.638c0.133-2.606,1.186-4.941,1.388-7.558c0.31-3.984-1.661-7.804-3.83-11.073
		c-4.332-6.528-11.809-11.156-19.665-12.961C494.084,736.902,494.168,736.204,494.651,736.221L494.651,736.221z"/>
</g>
<g>
	<path fill="#4A4F5D" d="M503.739,746.352c5.46,3.076,9.903,8.358,11.65,14.146c1.249,4.147-1.491,13.169-7.646,11.232
		c-0.703-0.223-1.005-0.895-0.674-1.524c0.987-1.884,3.061-2.32,4.371-3.997c1.521-1.952,1.064-4.699,0.562-6.88
		c-1.102-4.743-4.742-9.198-8.828-12.052C502.605,746.882,503.094,745.987,503.739,746.352L503.739,746.352z"/>
</g>
<g>
	<path fill="#4A4F5D" d="M609.605,582.161c3.107-6.755,0.857-14.251-3.131-20.123c-2.008-2.958-4.745-5.42-7.893-7.273
		c-2.141-1.261-4.52-1.15-6.41-2.73c-0.669-0.557-0.486-1.65,0.261-2.057c6.414-3.481,14.391,5.887,17.199,10.289
		c4.229,6.63,6.109,15.987,1.007,22.451C610.18,583.299,609.295,582.831,609.605,582.161L609.605,582.161z"/>
</g>
<g>
	<path fill="#4A4F5D" d="M612.4,571.989c5.697-3.322,13.633-0.399,18.602,2.848c6.348,4.152,10.366,10.966,12.651,17.762
		c2.263,6.731,2.261,14.275-0.305,20.912c-2.077,5.376-8.57,13.366-15.413,12.808c-1.485-0.121-2.252-1.62-1.229-2.727
		c1.815-1.957,4.499-2.812,6.615-4.497c2.605-2.075,4.418-4.96,5.607-7.935c2.206-5.528,1.677-11.732,0.095-17.318
		c-1.627-5.737-5.075-10.921-9.771-14.848c-5.068-4.234-10.513-3.834-16.587-5.2C611.763,573.59,611.649,572.426,612.4,571.989
		L612.4,571.989z"/>
</g>
<g>
	<path fill="#4A4F5D" d="M637.201,619.27c8.22,8.682,9.928,19.409,3.928,29.712c-4.75,8.157-19.084,17.54-29.277,13.645
		c-1.518-0.578-1.686-2.483-0.026-3.04c4.019-1.353,8.363-1.201,12.466-2.592c4.807-1.634,8.921-5.045,11.896-8.875
		c6.374-8.206,4.777-18.659-1.651-26.296C633.057,620.063,635.535,617.513,637.201,619.27L637.201,619.27z"/>
</g>
<g>
	<path fill="#4A4F5D" d="M621.74,661.022c1.664,3.51-0.085,7.847-0.957,11.409c-1.654,6.755-6.559,12.955-12.264,17.169
		c-13.769,10.169-33.565,13.955-47.749,2.26c-1.229-1.011,0.312-2.739,1.665-2.068c7.182,3.555,13.321,5.507,21.506,5.001
		c7.755-0.481,15.473-4.492,21.446-8.952c8.163-6.099,11.447-15.024,12.866-24.36C618.48,659.987,621.09,659.647,621.74,661.022
		L621.74,661.022z"/>
</g>
<g>
	<path fill="#4A4F5D" d="M570.859,695.959c-5.394,6.859-13.452,10.396-22.496,10.379c-7.613-0.013-19.153-3.99-20.672-12.03
		c-0.267-1.414,1.268-2.256,2.452-1.372c6.015,4.486,9.958,8.234,18.178,8.625c7.499,0.355,14.519-2.499,19.224-7.973
		C569.036,691.853,572.278,694.156,570.859,695.959L570.859,695.959z"/>
</g>
<g>
	<path fill="#4A4F5D" d="M394.561,365.257c-27.929,21.216-47.856,47.615-55.148,81.051c-6.261,28.717-2.867,58.59,0.216,87.459
		c2.92,27.341,7.876,57.306,0.699,84.386c-7.706,29.072-34.644,49.186-63.568,58.555c-31.242,10.12-67.683,9.716-97.85-3.242
		c-24.4-10.481-43.889-30.137-57.03-51.847c-22.59-37.331-31.438-83.278-30.447-125.81c1.648-70.502,36.003-135.573,96.367-177.623
		c3.378-2.351,6.566,2.893,3.309,5.237c-52.299,37.627-84.976,91.782-91.694,153.513c-4.894,44.962,2.195,93.991,23.573,134.75
		c11.607,22.132,29.501,41.696,52.457,53.85c31.029,16.43,70.785,15.753,103.582,4.537c16.216-5.543,30.826-15.058,41.792-27.604
		c11.067-12.666,15.525-28.006,16.542-44.1c1.804-28.526-3.102-57.096-5.612-85.454c-2.358-26.65-2.678-53.791,5.152-79.727
		c8.802-29.148,29.335-53.367,55.089-71.018C393.912,360.854,396.413,363.852,394.561,365.257L394.561,365.257z"/>
</g>
<g>
	<path fill="#4A4F5D" d="M151.291,331.299c-3.467-8.635-13.165-14.291-21.424-18.354c-8.949-4.405-19.566-7.465-29.726-7.21
		c-0.855,0.021-1.97-0.458-2.337-1.239c-0.352-0.744-0.512-1.15-0.289-1.954c0.307-1.105,1.384-1.858,2.58-1.885
		c19.195-0.427,49.364,10.146,54.142,29.851C154.68,332.341,151.984,333.025,151.291,331.299L151.291,331.299z"/>
</g>
<g>
	<path fill="#4A4F5D" d="M60.186,240.633c-12.557,7.414-32.85-0.671-38.763-12.963c-8.848-18.388,24.227-24.262,36.582-22.077
		c21.502,3.808,36.769,24.922,41.49,43.732c5.273,21,4.645,46.355-5.199,65.882c-0.304,0.604-1.193,0.086-0.934-0.503
		c7.335-16.704,5.466-38.213,2.677-55.651c-2.637-16.487-10.513-32.092-25.132-42.065c-7.303-4.982-15.921-7.205-24.867-6.546
		c-7.666,0.564-19.965,4.592-20.985,13.008c-0.784,6.466,7.315,11.423,12.453,13.883c6.793,3.25,14.73,3.651,22.031,1.891
		C60.446,239.003,60.98,240.163,60.186,240.633L60.186,240.633z"/>
</g>
<g>
	<path fill="#4A4F5D" d="M48.98,241.984c6.007,10.742,1.924,22.241-3.154,32.558c-3.051,6.197-6.674,12.118-9.696,18.327
		c-4.341,8.922-5.99,19.152-6.207,28.885c-0.39,17.601,8.037,33.073,19.715,46.255c10.523,11.881,25.404,24.049,42.708,24.069
		c4.032,0.007,4.062,6.027,0.053,5.88c-31.318-1.161-58.388-32.322-65.817-59.085c-4.479-16.141-1.832-35.043,5.855-49.951
		c7.099-13.759,21.415-29.96,14.32-46.034C46.227,241.675,48.341,240.845,48.98,241.984L48.98,241.984z"/>
</g>
<g>
	<path fill="#4A4F5D" d="M52.704,217.979c-6.259-3.476-11.616-4.371-18.496-1.442c-2.819,1.203-5.236,3.171-7.05,5.518
		c-1.569,2.033-1.407,4.652-3.27,6.376c-0.506,0.47-1.318,0.368-1.694-0.19c-3.902-5.783,6.833-13.159,11.403-15.04
		c6.076-2.494,16.386-2.37,19.991,3.929C53.891,217.658,53.288,218.301,52.704,217.979L52.704,217.979z"/>
</g>
<g>
	<path fill="#5F2420" d="M322.676,233.492c8.189,4.754,13.89-1.819,21.978-2.398c5.426-0.391,11.083,1.768,16.468,2.209
		c7.175,0.59,11.833-5.766,7.071-11.299c-3.148-3.655-8.677-5.379-13.259-6.702c-9.35-2.698-19.897-3.774-29.64-2.827
		c-7.011,0.679-19.866,6.579-12.439,14.323c2.763,2.88,7.598,4.421,11.158,6.238c6.239,3.185,11.082,2.635,17.153-0.608
		c1.944-1.04,3.726,1.796,1.771,2.801c-10.204,5.247-17.545,3.177-27.423-1.646c-7.218-3.523-12.486-10.121-7.321-17.347
		c8.604-12.033,31.213-8.624,43.656-6.084c9.609,1.961,31.162,10.801,20.564,23.476c-5.114,6.121-14.317,3.804-21.282,2.559
		c-10.3-1.837-20.324,5.474-29.613-0.79C320.327,234.591,321.375,232.738,322.676,233.492L322.676,233.492z"/>
</g>
</svg>
