<?xml version="1.0" encoding="utf-8"?>
<!-- Generator: Adobe Illustrator 14.0.0, SVG Export Plug-In . SVG Version: 6.00 Build 43363)  -->
<!DOCTYPE svg PUBLIC "-//W3C//DTD SVG 1.1//EN" "http://www.w3.org/Graphics/SVG/1.1/DTD/svg11.dtd">
<svg version="1.1" id="Layer_1" xmlns="http://www.w3.org/2000/svg" xmlns:xlink="http://www.w3.org/1999/xlink" x="0px" y="0px"
	 width="800px" height="780px" viewBox="0 0 800 780" enable-background="new 0 0 800 780" xml:space="preserve">
<path fill="#9BA4BC" d="M559.537,190.466c-24.793,12.802-9.684,33.466-14.08,32.044c-10.855-3.509-33.38-0.952-34.806-3.7
	c-1.427-2.749-12.941-13.787-39.124-7.841c-26.182,5.948-21.208,17.62-25.555,16.901c-21.049-0.169-34.459,10.011-39.304,12
	c-53.911,22.146-66.489,48.729-66.489,48.729c-68.855-10.814-94.571,23.872-94.565,23.189
	c-29.165-65.918,23.089-130.371,27.344-134.566c22.702-22.397,60.777-38.061,64.958-39.848
	c29.873-12.76,42.393-32.501,42.393-32.501s4.318,20.895,6.352,19.894c10.938-5.387,22.014-26.507,22.014-26.507
	s1.291,17.799,7.818,18.535c6.523,0.737,22.606-12.133,22.606-12.133s-0.86,15.044,0.592,15.056
	c39.26-7.211,96.385,16.509,108.649,24.818c12.262,8.308,22.834,43.287,22.834,43.287S563.809,188.261,559.537,190.466z"/>
<path fill="#7C8397" d="M447.441,225.829c-1.688,4.331-15.771,3.017-26.054,5.452c0.232,0.758,0.348,1.184,0.348,1.184
	s-6.491,2.726-13.114,5.367c-47.104,18.78-66.722,50.082-68.654,47.801c-6.226-7.348-23.412-21.056-29.172-38.548
	c-14.6-44.363,18.753-64.59,41.974-66.487c15.254-1.246,34.774,7.12,47.678,25.013c12.904,17.894,17.977,18.618,38.318,16.727
	C455.517,220.782,451.157,216.281,447.441,225.829z"/>
<path fill="#9BA4BC" d="M406.173,241.007c-14.921,44.58,40.98,50.779,50.385,46.928c17.484-7.158,25.825-19.864,28.785-26.223
	c13.892,15.62,31.532,12.741,38.112,12.62c51.784-0.952,34.309-48.53,34.309-48.53c27.302-22.588,63.404-1.773,69.187,1.01
	c5.781,2.783,16.048-8.994,17.001-7.163c-2.064,14.124-10.889,22.86-7.949,22.744c9.685-0.379,28.961,7.985,26.06,7.962
	c-2.904-0.024-18.452,7.15-18.452,7.15c6.146,16.013,26.923,19.375,24.973,21.183c-1.953,1.809-17.978,8.066-17.978,8.066
	s16.764,7.217,14.44,8.326c-28.188,13.459-2.584,18.224-2.584,18.224l-5.888,9.076c0,0-2.915,1.342-4.362,0.877
	c-158.927-30.01-270.323,69.644-273.085,73.071c-21.531,26.738-41.385,30.005-46.72,29.73c-31.437-1.62-47.062,6.974-46.982,5.098
	c0.614-14.594-7.979-27.435-7.979-27.435s-16.53,8.992-16.036,7.627c0.495-1.365,3.657-30.075,0.756-30.098
	s-23.812,11.211-23.318,10.304c0.492-0.91,8.056-19.881,4.534-20.034c-13.059-0.561-24.594-9.318-23.625-9.312
	c0.968,0.008,11.199-8.884,9.76-9.044c-17.887-1.967-25.993-15.261-25.993-15.261c25.103,6.587,40.062-21.49,43.297-25.65
	c26.438-33.998,92.154-23.893,92.154-23.893S368.348,250.283,406.173,241.007z"/>
<path fill="#CBD9E0" d="M469.877,232.85c4.356,0.036,19.561,4.263,21.739,3.937c22.556-5.976,19.013-16.342,22.289-16.583
	c33.772-2.465,45.489,8.012,46.692,13.715c5.914,28.1-14.861,35.749-19.574,37.475c-37.504,13.726-54.359-10.396-55.812-8.317
	c-19.484,27.895-37.251,27.332-43.787,26.333c-40.228-6.139-42.953-35.891-36.233-46.474c9.938-15.656,41.138-14.379,41.138-14.379
	S449.853,240.216,469.877,232.85z"/>
<path fill="#F59183" d="M483.16,235.694c-5.31-1.409-10.148-1.449-21.772-0.175c-11.623,1.276-15.226-5.197-13.945-9.689
	c3.497-12.288,21.379-14.708,30.143-15.724c18.405-2.131,29.486,3.431,33.78,9.85c4.296,6.419-17.081,16.283-19.749,16.832
	C491.616,236.788,488.471,237.105,483.16,235.694z"/>
<path fill="#C4756C" d="M472.752,234.622c-2.984,0.077-6.599,0.375-11.365,0.897c-11.623,1.276-15.226-5.197-13.945-9.689
	c3.497-12.288,21.379-14.708,30.143-15.724c10.95-1.267,19.286,0.199,25.164,2.937c-0.01,0.002-0.02,0.001-0.029,0.002
	c-8.763,1.015-26.644,3.436-30.142,15.723C472.071,230.543,472.002,232.571,472.752,234.622z"/>
<path fill="#FFFFFF" d="M557.766,225.802c8.787-8.596,25.748-11.196,26.73-13.013c2.639-24.154-19.461-25.538-22.525-23.899
	c-21.879,11.684-16.737,31.794-16.737,31.794S554.834,228.971,557.766,225.802z"/>
<path fill="#C1D0D8" d="M584.497,212.788c-0.141,0.261-0.62,0.538-1.345,0.846c-0.961-16.991-14.588-18.306-18.957-16.562
	c-16.193,6.46-14.837,22.06-14.316,27.03c-2.539-1.606-4.646-3.418-4.646-3.418s-5.142-20.11,16.737-31.794
	C565.036,187.251,587.135,188.635,584.497,212.788z"/>
<path fill="#FFFFFF" d="M351.687,273.868c-27.415-18.465-29.638-39.465-30.075-45.397c-2.157-29.209,24.544-35.891,35.652-36.662
	c35.345-2.452,51.358,46.024,51.358,46.024S366.827,258.025,351.687,273.868z"/>
<path fill="#C1D0D8" d="M361.955,265.11c-4.009,2.966-7.566,5.931-10.27,8.758c-27.415-18.465-29.638-39.465-30.075-45.397
	c-2.157-29.209,24.544-35.891,35.652-36.662c12.425-0.862,22.448,4.575,30.239,11.98c-5.846-3.47-13.089-4.194-21.831-5.297
	c-11.6-1.462-31.52,5.042-30.698,23.7C335.575,235.88,342.687,252.357,361.955,265.11z"/>
<path fill="#FFFFFF" d="M485.345,261.712c-11.798,20.431-28.785,26.223-28.785,26.223l9.482,21.515c0,0,39.688-1.05,44.06-2.84
	c4.369-1.789,11.392-29.101,11.392-29.101S495.391,274.563,485.345,261.712z"/>
<path fill="#9BA4BC" d="M549.053,145.91c25.748-38.109,28.396-69.47,28.302-79.822c-0.37-39.687-30.612-51.15-38.009-50.936
	c-37.027,1.072-52.671,33.652-59.946,47.412c-14.77,27.934-1.971,57.457-1.971,57.457S519.492,123.78,549.053,145.91z"/>
<path fill="#7C8397" d="M564.383,28.81c-17.838-7.442-48.051,0.953-49.074,22.412c-1.193,25.076,36.086,22.64,34.802,57.752
	c-0.121,3.353-10.37,23.176-13.802,28.168c-16.348-11.534-44.385-14.838-44.385-14.838c-8.739-1.766-14.496-2.283-14.496-2.283
	s-12.798-29.523,1.972-57.457c7.276-13.76,23.071-50.752,59.946-47.412C558.684,16.904,564.383,28.81,564.383,28.81z"/>
<path fill="#686F80" d="M529.568,133.44c5.148-7.486,7.498-26.623,6.163-39.635c-1.333-13.008-15.793-19.283-30.39-10.506
	c-14.597,8.777-11.957,38.218-11.957,38.218S520.17,129.258,529.568,133.44z"/>
<path fill="#3C3F4C" d="M529.569,133.439c-2.419-1.077-5.989-2.386-9.955-3.742c3.269-9.132,4.601-23.651,3.521-34.17
	c-0.797-7.765-6.271-13.127-13.657-14.326c13.085-5.428,25.046,0.827,26.254,12.604
	C537.066,106.816,534.717,125.954,529.569,133.439z"/>
<path fill="#7C8397" d="M253.837,205.12c-32.436,55.159-7.018,107.133-7.018,107.133s-9.571-9.283-11.942-16.973
	c-6.348-20.577-29.323-48.128-35.076-54.333c-5.75-6.203-96.549-74.702-104.505-81.572C30.475,103.437,25.043,66.379,23.682,52.068
	C19.702,10.303,68.408,1.797,99.536,10.942c31.13,9.144,69.039,71.025,76.918,82.719c7.878,11.695,53.156,61.319,68.299,72.387
	c15.144,11.07,29.651,11.869,29.651,11.869S256.824,195.564,253.837,205.12z"/>
<path fill="#8B93A9" d="M263.476,190.048c-4.211,5.132-8.33,10.881-9.64,15.072c-11.937,20.299-16.034,40.164-16.448,57.172
	c-6.51-21.019-25.179-69.341-85.495-101.094c-12.303-4.203-41.166-22.908-49.069-31.865c-7.904-8.958-23.618-37.135,4.073-49.229
	c23.644-10.326,43.449,11.295,54.936,25.071c11.49,13.776,54.412,83.222,100.128,84.273
	C262.361,189.359,262.885,189.577,263.476,190.048z"/>
<path fill="#5C6272" d="M236.678,256.525c-14.159-39.342-44.9-64.674-55.462-73.882c-10.562-9.206-43.283-29.538-64.937-42.941
	c-21.654-13.399-20.086-37.013-15.108-41.625c19.518-18.088,46.271,10.682,52.57,19.123c22.947,30.744,76.771,71.77,86.406,76.864
	c9.629,5.094,19.354-0.301,19.354-0.301S238.344,232.82,236.678,256.525z"/>
<path fill="#3C3F4C" d="M98.523,114.423c-1.31-7.652,0.277-14.154,2.647-16.347c19.518-18.088,46.271,10.682,52.57,19.123
	c22.947,30.744,76.771,71.77,86.406,76.864c9.629,5.094,19.354-0.301,19.354-0.301s-4.521,8.353-9.549,19.672
	c-2.434-0.184-5.036-0.797-7.637-2.157c-9.919-5.18-65.354-46.899-88.992-78.161c-6.49-8.583-34.042-37.839-54.14-19.446
	C98.954,113.879,98.733,114.14,98.523,114.423z"/>
<path fill="#9BA4BC" d="M728.975,395.941c37.766-2.435,61.949-51.28,63.484-64.263c3.668-30.985-16.883-59.432-20.205-66.754
	c-3.32-7.324-4.16-22.428-1.244-22.817c19.379-2.581,30.888-15.129,26.328-22.138c-9.543-14.674-37.136-13.526-43.459-9.928
	c-48.135,25.614-30.842,93.205-33.26,93.239c-42.104,0.575-52.02,26.95-52.02,26.95S699.883,349.182,728.975,395.941z"/>
<path fill="#9BA4BC" d="M317.77,439.626c31.178,3.67,50.539,29.822,53.354,39.425c-1.913,51.3-63.775,69.96-65.276,75.422
	c-0.526,31.473,28.888,26.355,30.982,24.88c18.265-12.852,35.863-13.726,38.523-5.851c13.431,39.791-48.604,53.109-55.608,49.5
	c-91.753-47.26-108.582-93.799-103.598-102.089c25.791-42.897,89.974-77.277,89.974-77.277S312.729,439.033,317.77,439.626z"/>
<path fill="#CBD9E0" d="M427.827,362.053c2.89,1.391,51.895,40.556,57.14,102.629c0.476,5.624,1.493,49.272-4.758,98.485
	c-9.222,72.6,23.039,85.346,35.202,93.561c77.913,52.622,137.274,8.479,141.968,5.477c66.188-42.343,127.82-222.939-24.021-340.471
	C626.633,316.207,548.364,302.807,427.827,362.053z"/>
<path fill="#9BA4BC" d="M632.396,320.822c150.881,117.067,73.678,285.238,68.955,294.3
	c-36.438,69.952-119.827,66.808-129.295,65.096c-84.54-15.271-96.899-66.914-93.705-99.046
	c5.785-58.224,7.055-117.154,6.917-123.099c-1.044-45.166-50.575-97.256-56.483-94.872c-41.523,16.774-53.402,46.097-80.366,58.195
	c-17.631,7.912-48.626,3.159-55.227,7.082c-12.158,7.231-6.706,19.104-8.938,25.245c-1.229,3.373,32.839-17.273,32.065-14.109
	c23.939,0.875,60.657,32.229,54.736,46.965c-23.019,57.285-52.769,56.362-66.669,68.565c-1.863,10.222,9.718,20.386,9.97,21.29
	c1.407,5.029,22.044,4.894,24.414,2.479c14.649-14.936,34.644-13.131,36.581-5.412c9.573,38.165-38.438,50.097-48.123,50.933
	c-9.685,0.836-39.538-15.371-39.538-15.371s-13.026,17.741-14.286,28.164c-4.185,34.633,34.652,74.171,34.625,77.364
	c-0.03,3.191,1.762,19.173,0.265,24.176c-1.495,5.008-12.721,15.407-8.896,20.911c14.342,20.655,39.563,12.179,42.495,9.466
	c2.926-2.715,17.59-19.015,20.502-19.903c2.911-0.888,17.525-11.72,17.549-14.457s2.325-30.34,7.03-28.225
	c14.456,6.503,55.986,12.723,68.589,13.322c161.547,7.681,208.855-29.84,219.052-37.472
	c56.588-50.632,101.353-185.284,54.831-285.094C673.077,316.587,632.887,319.914,632.396,320.822z"/>
<path fill="#7C8397" d="M555.147,717.254c7.676,34.272,44.983,42.097,58.054,41.518c13.071-0.579,24.391-8.357,24.807-14.17
	c0.221-3.071-14.39-14.139-15.1-15.856c-0.71-1.717-2.107-7.884-0.999-9.929c1.106-2.045,1.92-11.615,1.92-11.615
	S578.371,717.441,555.147,717.254z"/>
<path fill="#CBD9E0" d="M289.138,609.53c0,0-13.926,14.938-14.763,27.248c-6.771,26.631,18.725,56.599,16.514,60.34
	c-19.023,16.952-35.592,2.796-39.915-0.659c-48.716,9.528-48.342-31.861-50.87-33.253c-38.336-14.674-15.238-40.486-15.238-40.486
	c-21.121-32.327,9.152-49.189,23.295-48.049c1.247-17.438,15.44-21.771,17.982-22.092
	C246.235,578.056,289.138,609.53,289.138,609.53z"/>
<path fill="#AEB9D3" d="M285.62,701.097c-16.75,10.417-30.725-1.506-34.646-4.637c-48.715,9.528-48.342-31.861-50.87-33.253
	c-38.336-14.674-15.238-40.486-15.238-40.486c-21.121-32.327,9.152-49.189,23.295-48.049c1.247-17.438,15.44-21.771,17.982-22.092
	c5.723,7.257,13.298,14.998,21.202,22.361c-0.229,1.165-0.415,2.379-0.513,3.688c-14.142-1.138-44.415,15.723-23.294,48.049
	c0,0-23.097,25.812,15.239,40.49C241.234,668.518,240.964,707.609,285.62,701.097z"/>
<g>
	<path fill="#B0BAD4" d="M439.69,119.719c29.145-12.425,96.385,16.509,108.649,24.818c8.334,5.647,15.883,23.601,19.866,34.532
		c-7.72-5.058-31.216,16.691-33.608,40.618c-10.145-2.134-22.524,2.557-28.957-8.443C561.316,154.22,474.185,117.6,439.69,119.719z"
		/>
	<path fill="#D1DFE6" d="M439.098,104.662c0,0-0.371,6.528-0.213,10.988c-0.463-2.587-1.014-6.124-1.33-9.792
		C438.527,105.119,439.098,104.662,439.098,104.662z"/>
</g>
<path fill="#7C8397" d="M441.865,120.077c-13.102,4.001-20.412,9.758-24.021,7.676c-3.612-2.082-12.295-4.887-14.498-2.167
	c-2.201,2.718-11.592,15.181-21.922,16.243c-24.697,2.538-43.847,12.328-53.41,20.554c-25.057,26.49-42.348,58.233,12.938,121.432
	c1.217,1.393-1.708,4.197-0.777,5.467c-68.662-10.688-94.565,23.188-94.56,22.506c-29.165-65.918,23.089-130.371,27.344-134.566
	c20.325-20.052,52.949-34.697,62.565-38.829c0.016-0.006,0.031-0.013,0.046-0.02c0.255-0.11,0.489-0.209,0.709-0.304
	c0.049-0.022,0.094-0.042,0.146-0.063c0.202-0.083,0.389-0.164,0.557-0.235c0.12-0.051,0.213-0.089,0.315-0.135
	c0.246-0.104,0.464-0.197,0.619-0.262c0.868-0.37,1.718-0.747,2.557-1.129c0.556-0.254,1.099-0.511,1.642-0.769
	c0.244-0.117,0.495-0.233,0.739-0.349c0.704-0.341,1.394-0.685,2.077-1.033c0.055-0.027,0.11-0.054,0.164-0.083
	c0.74-0.378,1.467-0.758,2.179-1.139l0,0c23.145-12.425,33.035-27.999,33.035-27.999s4.318,20.895,6.352,19.894
	c10.938-5.387,22.014-26.507,22.014-26.507s1.291,17.799,7.818,18.535c6.523,0.737,22.606-12.133,22.606-12.133
	S440.412,120.066,441.865,120.077z"/>
<path fill="#9BA4BC" d="M545.458,222.51c-3.921-1.266-9.368-1.741-14.792-1.962c-0.802-0.319-1.304-0.736-1.388-1.36
	c-4.079-30.591,13.446-42.311,21.209-44.529c5.261-1.506,12.262,0.784,17.719,4.41c1.88,5.155,2.968,8.754,2.968,8.754
	s-7.365,0.438-11.637,2.643C534.743,203.268,549.852,223.932,545.458,222.51z"/>
<path fill="#626979" d="M281.382,289.496c-7.116,2.666-13.851,6.324-19.87,10.194c-6.69,3.773-11.099,7.507-13.537,9.811
	c-0.859,0.697-1.687,1.373-2.469,2.031c-28.915-65.826,23.203-130.12,27.452-134.309c13.224-13.044,31.649-23.797,45.566-30.863
	C294.864,163.973,247.266,209.173,281.382,289.496z"/>
<path fill="#B8BAD0" d="M486.791,263.609c-0.846-0.579-1.375-0.827-1.581-0.532c-19.484,27.895-37.251,27.332-43.787,26.333
	c-40.228-6.139-42.954-35.891-36.233-46.474c9.938-15.656,41.138-14.379,41.138-14.379s1.956,6.447,11.199,6.721
	c-6.755,2.014-28.178,14.936-18.667,30.166c7.99,12.797,38.646,7.153,52.431-19.193
	C491.726,245.422,490.787,253.499,486.791,263.609z"/>
<path fill="#626979" d="M234.877,295.28c-6.348-20.577-29.323-48.128-35.076-54.333c-5.75-6.203-96.549-74.702-104.505-81.572
	C30.475,103.437,25.043,66.379,23.682,52.068C19.702,10.303,68.408,1.797,99.536,10.942c0.66,0.194,1.329,0.444,1.995,0.685
	C87.023,14.353,67.81,25.588,59.07,44.371c-12.294,26.416-11.876,56.424,58.958,115.416
	C154.528,190.183,230.558,237.317,234.877,295.28z"/>
<path fill="#B8BAD0" d="M552.135,265.141c-4.435,3.795-9.154,5.538-11.111,6.254c-36.744,13.446-53.657-9.416-55.695-8.394
	l5.962-16.75c1.428,2.749,34.013,38.131,63.265,13.735C554.453,261.028,553.668,262.915,552.135,265.141z"/>
<path fill="#F5F5F6" d="M537.374,242.678c-11.269-2.685-19.142-9.576-17.581-15.39c1.559-5.812,11.959-8.346,23.229-5.66
	s19.141,9.577,17.583,15.39C559.042,242.832,548.643,245.365,537.374,242.678z"/>
<path fill="#F5F5F6" d="M467.787,255.868c-8.665-1.188-15.041-6.361-14.24-11.551c0.804-5.189,8.48-8.429,17.146-7.239
	c8.667,1.189,15.043,6.362,14.243,11.548C484.132,253.817,476.455,257.058,467.787,255.868z"/>
<path fill="#CBD9E0" d="M565.944,30.967c6.331,7.9,11.26,19.248,11.409,35.121c0.094,10.352-2.553,41.714-28.303,79.822
	c-3.146-2.354-6.438-4.491-9.802-6.447c0.142-0.157,0.277-0.31,0.429-0.47C575.836,101.591,569.82,49.659,565.944,30.967z"/>
<path fill="#CBD9E0" d="M568.206,179.069c-0.93-0.609-2.093-0.821-3.416-0.694c-7.553-3.948-12.852-3.706-12.852-3.706
	c-13.363-31.919-43.215-47.441-71.55-55.43c28.842,5.818,59.986,19.902,67.951,25.297
	C556.674,150.183,564.223,168.138,568.206,179.069z"/>
<path fill="#7C8397" d="M406.668,239.87c-13.096,57.136,49.891,48.064,49.891,48.064l9.482,21.515l24.204-1.175l-27.632,5.708
	l-12.906-17.436c0,0-11.613-0.09-20.317-0.618c-35.719-2.161-39.969-14.136-41.858-26.448c-0.846-5.506-14.816-6.96-39.645,9.602
	C361.872,257.642,405.224,239.175,406.668,239.87z"/>
<path fill="#7C8397" d="M388.128,388.55c-5.49,4.365-8.568,7.246-9.002,7.779c-21.531,26.738-41.385,30.005-46.72,29.73
	c-31.437-1.62-47.062,6.974-46.982,5.098c0.614-14.593-7.979-27.435-7.979-27.435s-16.53,8.992-16.036,7.627
	c0.495-1.365,3.657-30.075,0.756-30.098s-23.812,11.211-23.318,10.303c0.492-0.908,8.056-19.88,4.534-20.033
	c-13.059-0.561-24.594-9.318-23.625-9.312c0.968,0.008,11.199-8.884,9.76-9.044c-17.887-1.967-25.993-15.261-25.993-15.261
	c25.103,6.587,40.062-21.49,43.297-25.65c26.438-33.998,92.154-23.893,92.154-23.893s0.028-0.039,0.079-0.1
	c0.711,0.641,1.12,1.021,1.12,1.021c-4.423,7.49-31.628,46.272-4.362,81.384c13.351,17.194,40.472,19.482,52.1,17.523
	C387.91,388.19,387.995,388.319,388.128,388.55z"/>
<path fill="#626979" d="M340.657,424.843c-3.801,1.061-6.669,1.298-8.251,1.216c-31.437-1.62-47.062,6.974-46.982,5.098
	c0.614-14.594-7.979-27.435-7.979-27.435s-16.53,8.992-16.036,7.627c0.495-1.365,3.657-30.075,0.756-30.098
	s-23.812,11.211-23.318,10.304c0.492-0.91,8.056-19.881,4.534-20.034c-13.059-0.561-24.594-9.318-23.625-9.312
	c0.968,0.008,11.199-8.884,9.76-9.044c-17.887-1.967-25.993-15.261-25.993-15.261c25.103,6.587,40.062-21.49,43.297-25.65
	c8.256-10.616,31.708-28.254,74.497-24.491c-35.605,4.505-46.629,19.468-47.613,48.196c-0.916,26.746,16.05,71.283,63.084,87.397
	C338.223,423.849,339.5,424.343,340.657,424.843z"/>
<path fill="#7C8397" d="M443.246,315.652c-3.882,28.021-19.445,37.199-38.437,50.095c-10.956,7.436-19.776,19.682-22.722,24.45
	c-2.945,4.763,45.257-28.374,98.453-51.894C480.541,338.303,456.179,330.125,443.246,315.652z"/>
<path fill="#B8BAD0" d="M656.575,322.381c0,0-2.915,1.342-4.362,0.877c-13.844-2.615-21.961-3.591-35.043-4.386
	c0.043-0.528-24.248-1.893-23.931-2.245c55.719-61.814-12.183-97.938-29.769-79.603l-4.067-5.207
	c-0.774-3.664-1.638-6.015-1.638-6.015c27.302-22.588,63.404-1.773,69.187,1.01c5.781,2.783,16.048-8.994,17.001-7.163
	c-2.064,14.124-10.889,22.86-7.949,22.744c9.685-0.379,28.961,7.985,26.06,7.962c-2.904-0.024-18.452,7.15-18.452,7.15
	c6.146,16.013,26.923,19.375,24.972,21.183c-1.952,1.809-17.977,8.066-17.977,8.066s16.764,7.217,14.44,8.326
	c-28.188,13.459-2.584,18.224-2.584,18.224L656.575,322.381z"/>
<path fill="#E9E7DC" d="M456.56,287.935l9.482,21.515l24.204-1.175c0,0-3.995-39.716-4.918-45.274
	C474.533,280.098,456.56,287.935,456.56,287.935z"/>
<path fill="#B8BAD0" d="M505.844,310.516c-9.398,3.221-15.487,9.8-13.604,14.692c1.887,4.889,11.036,6.248,20.438,3.028
	c9.396-3.221,15.488-9.8,13.603-14.694C524.393,308.653,515.244,307.296,505.844,310.516z"/>
<path fill="#CBD9E0" d="M668.582,278.69c-1.953,1.809-17.977,8.066-17.977,8.066s16.764,7.217,14.439,8.326
	c-28.187,13.459-2.584,18.224-2.584,18.224l-5.887,9.076c0,0-2.915,1.342-4.363,0.877c-7.518-1.419-13.348-2.354-19.201-3.042
	c0.041-0.18,0.073-0.348,0.119-0.533c20.674-82.84-34.938-100.294-59.541-102.347c23.809-7.025,48.654,7.207,53.364,9.476
	c5.781,2.783,16.048-8.994,17.001-7.163c-2.064,14.124-10.889,22.86-7.949,22.744c9.685-0.379,28.961,7.985,26.06,7.962
	c-2.904-0.024-18.452,7.15-18.452,7.15C649.758,273.519,670.534,276.88,668.582,278.69z"/>
<path fill="#F9C4BC" d="M496.324,218.988c-4.612,1.999-7.266,5.846-5.928,8.592c1.34,2.747,6.166,3.353,10.779,1.354
	c4.612-2,7.267-5.846,5.928-8.593C505.764,217.595,500.938,216.987,496.324,218.988z"/>
<path fill="#7C8397" d="M520.576,325.621c16.018-5.573,71.207-9.859,61.536-9.313c-35.341,1.999-47.286-14.972-47.286-14.972
	S528.368,319.982,520.576,325.621z"/>
<path fill="#B8BAD0" d="M778.752,208.887c7.434,1.58,14.592,4.942,18.588,11.083c4.559,7.009-6.949,19.556-26.33,22.138
	c-2.914,0.389-2.074,15.492,1.246,22.817c3.321,7.322,23.871,35.768,20.205,66.754c-1.535,12.982-25.72,61.827-63.484,64.262
	c-15.525-24.951-31.67-41.981-43.356-52.441c1.188-0.598,2.933-0.06,5.343,1.962c17.291,14.507,40.428,24.27,63.898-2.91
	c23.472-27.178-12.256-89.725-5.488-115.67C753.24,212.054,765.543,208.253,778.752,208.887z"/>
<path fill="#7C8397" d="M727.016,238.928c-2.883,15.71-3.685,41.328,8.955,79.072c0,0-40.912,5.69-47.39,28.213
	c-11.835-11.037-19.981-15.982-19.981-15.982s9.916-26.375,52.02-26.95C722.362,303.256,713.868,268.132,727.016,238.928z"/>
<path fill="#7C8397" d="M788.346,344.371c4.524-29.222-6.726-49.182-13.017-58.098c-12.868-18.239-15.312-32.62-15.185-46.646
	c0,0,12.068,2.321,10.865,2.481c-2.914,0.389-2.074,15.492,1.246,22.817c3.321,7.322,23.871,35.768,20.205,66.754
	C792.127,334.499,790.723,339.012,788.346,344.371z"/>
<path fill="#B8BAD0" d="M265.421,555.974c24.282-9.842,57.597-27.818,68.497-56.012c10.672-27.602,1.207-53.356-18.203-60.32
	c0.699-0.079,1.392-0.095,2.055-0.017c31.178,3.67,50.539,29.822,53.354,39.425c-1.913,51.3-63.775,69.96-65.276,75.422
	c-0.526,31.473,28.888,26.355,30.982,24.88c0.474-0.332,0.945-0.655,1.419-0.97c-4.754,5.57-7.207,10.997-8.305,13.687
	C312.926,601.056,257.824,559.052,265.421,555.974z"/>
<path fill="#7C8397" d="M244.396,527.526c-3.136,25.518,43.179,80.881,80.027,86.393c19.327,2.892,47.447-19.172,49.974-42.168
	c0.41,0.525,0.738,1.106,0.956,1.751c13.431,39.791-48.604,53.109-55.608,49.5c-91.753-47.26-108.582-93.799-103.598-102.089
	c25.791-42.897,89.974-77.277,89.974-77.277C299.308,447.689,248.331,495.489,244.396,527.526z"/>
<path fill="#7C8397" d="M351.075,616.568c-7.405-13.065-8.104-26.876-0.375-36.445c4.886-6.051,12.403-9.487,21.142-10.382
	c1.735,0.854,2.952,2.112,3.511,3.761C382.688,595.239,367.506,609.075,351.075,616.568z"/>
<g>
	<path fill="#CBD9E0" d="M388.963,388.758c-4.996,3.862-8.552,6.919-10.61,8.812c-0.012-0.017-0.021-0.029-0.032-0.046
		C381.71,394.145,385.28,391.242,388.963,388.758z"/>
</g>
<path fill="#E3EAED" d="M657.379,662.205c-3.856,2.468-44.648,32.714-102.313,14.197c148.499-38.008,126.596-184.598,72.302-280.82
	c-32.32-57.277-98.113-66.469-181.097-39.766c99.196-53.94,182.715-37.676,187.088-34.082
	C785.199,439.267,723.567,619.862,657.379,662.205z"/>
<path fill="#7C8397" d="M415.861,507.917c-13.202,69.226-75.115,138.258-52.984,185.687c8.543,18.312-4.17,38.36-13.943,43.675
	c-15.784,8.586-46.424,4.599-42.662,29.675c-2.452-1.88-4.781-4.261-6.873-7.274c-3.826-5.504,7.4-15.903,8.896-20.911
	c1.497-5.003-0.295-20.985-0.265-24.176c0.027-3.193-38.81-42.731-34.625-77.363c1.26-10.424,14.286-28.164,14.286-28.164
	s29.854,16.207,39.538,15.37c9.685-0.836,57.696-12.768,48.123-50.933c-1.937-7.719-21.932-9.523-36.581,5.412
	c-2.37,2.415-23.007,2.55-24.414-2.479c-0.252-0.904-11.833-11.068-9.97-21.29c13.9-12.202,43.65-11.28,66.668-68.565
	c5.922-14.736-30.796-46.09-54.735-46.965c0.773-3.164-33.294,17.482-32.065,14.109c2.232-6.141-3.22-18.014,8.938-25.245
	c6.601-3.923,37.596,0.83,55.227-7.081c22.568-10.126,36.564-30.495,36.564-30.495C393.651,395.535,429.07,438.693,415.861,507.917z
	"/>
<path fill="#7C8397" d="M428.782,363.202c6.767,1.189,46.044,44.848,50.684,66.778c19.87,50.332-2.267,144.118,0.35,176.066
	c22.387,93.224,145.495,70.498,144.51,72.314c-8.733,2.666-89.181,16.61-137.137-31.209c-47.955-47.824-3.858-108.59-22.339-205.436
	c-7.731-40.51-46.841-64.233-56.485-67.959C408.364,373.758,422.018,362.013,428.782,363.202z"/>
<path fill="#7C8397" d="M353.598,651.557c-9.915,26.376,9.279,42.047,9.279,42.047c94.353,56.396,267.014,12.168,264.125,10.32
	c-266.113-2.135-255.713-82.328-251.694-98.718C375.308,605.206,363.517,625.182,353.598,651.557z"/>
<g>
	<path fill="#626979" d="M284.254,453.722c2.232-6.141-3.22-18.014,8.938-25.245c1.683-0.998,4.962-1.433,9.193-1.662
		c24.215,1.449,65.451,12.113,70.154,56.128c1.166,10.891-13.156,63.749-39.588,97.292c-0.036,0.05-0.076,0.096-0.112,0.146
		c-6.969,0.575-17.492-0.406-18.481-3.946c-0.252-0.904-11.833-11.068-9.97-21.29c13.9-12.202,43.65-11.28,66.669-68.565
		c5.921-14.736-30.797-46.09-54.736-46.965C317.094,436.449,283.026,457.097,284.254,453.722z"/>
	<path fill="#626979" d="M337.403,730.792c-14.472,4.894-27.749,9.801-37.566,21.783c2.384-4.995,7.485-10.546,8.459-13.809
		c1.497-5.003-0.295-20.985-0.265-24.176c0.027-3.194-38.809-42.731-34.625-77.364c1.26-10.423,14.286-28.164,14.286-28.164
		s11,5.968,21.812,10.475C302.946,642.556,307.251,674.386,337.403,730.792z"/>
</g>
<path fill="#626979" d="M307.941,617.435c33.152,25.812,67.49-25.911,67.49-25.911c-1.623,19.142-37.151,41.664-46.368,44.325
	c-9.217,2.662-22.781,4.377-17.735,34.98C311.328,670.829,289.422,631.882,307.941,617.435z"/>
<path fill="#B8BAD0" d="M709.95,637.093c80.55-250.25-60.944-306.95-75.905-314.97c-0.201-0.16-0.399-0.319-0.603-0.478l1.049-1.109
	c8.956-0.095,45.804,6.385,94.956,76.78C765.553,474.777,746.668,573.219,709.95,637.093z"/>
<path fill="#626979" d="M621.856,757.319c-2.722,0.789-5.636,1.318-8.655,1.454c-13.07,0.578-50.379-7.247-58.054-41.519
	c11.659,0.094,28.92-2.438,43.219-4.987c-6.621,7.285-12.903,21.064-8.96,29.209C594.014,751,607.157,756.083,621.856,757.319z"/>
<g>
	<path fill="#4A4F5D" d="M448.684,227.115c2.362,0.834,1.415,4.251-1.089,3.597c-9.32-2.433-23.852,2.309-32.023,6.756
		c-8.614,4.691-11.677,11.849-9.595,21c2.59,11.391,9.787,20.539,21.3,25.251c11.477,4.702,25.139,4.317,35.946-1.865
		c6.396-3.661,12.11-8.401,16.188-14.369c4.854-7.107,7.395-15.065,11.521-22.487c0.327-0.591,1.345-0.303,1.317,0.346
		c-0.706,17.176-14.561,35.958-31.127,42.939c-12.795,5.392-28.548,4.425-40.522-2.466c-12.91-7.429-22.468-21.994-19.968-36.714
		c1.476-8.686,8.193-14.278,16.588-17.464C426.45,228.137,438.788,223.621,448.684,227.115L448.684,227.115z"/>
</g>
<g>
	<path fill="#4A4F5D" d="M484.633,263.306c-1.286-1.664,1.707-3.797,3.048-2.178c7.472,9.029,20.404,12.416,32.171,11.988
		c11.794-0.429,27.436-4.185,34.242-14.304c7.324-10.891,9.016-27.927-6.498-33.041c-11.396-3.755-23.621-3.294-35.524-3.388
		c-2.999-0.025-2.958-4.408,0.039-4.385c14.053,0.113,34.112-1.677,45.348,8.142c9.757,8.528,8.706,25.492,1.167,35.216
		C542.777,281.792,501.043,284.517,484.633,263.306L484.633,263.306z"/>
</g>
<g>
	<path fill="#4A4F5D" d="M457.036,287.483c-0.005-0.573,0.844-0.958,1.262-0.48c4.85,5.528,7.178,15.016,9.965,21.953
		c-0.653-0.475-1.307-0.953-1.96-1.429c9.327-0.656,18.681-0.986,28.007-1.625c4.082-0.279,8.273-0.477,12.281-1.3
		c3.444-0.709,4.72-2.756,6.09-5.722c3.161-6.841,5.548-14.371,6.762-21.755c0.471-2.861,5.024-1.588,4.582,1.23
		c-1.269,8.072-3.714,16.926-7.958,24.084c-3.695,6.234-8.641,6.61-15.81,7.128c-11.288,0.819-22.682,1.266-33.989,1.812
		c-0.954,0.045-1.668-0.652-1.96-1.433C461.74,303.072,457.099,294.506,457.036,287.483L457.036,287.483z"/>
</g>
<g>
	<path fill="#4A4F5D" d="M486.671,274.039c0.008-0.321,0.474-0.296,0.511,0.004c0.732,5.675,1.119,11.345,1.779,17.033
		c0.635,5.464,2.609,11.088,2.794,16.529c0.053,1.527-2.007,1.754-2.807,0.691c-3.026-4.018-2.912-10.482-2.911-15.226
		C486.039,286.712,486.576,280.371,486.671,274.039L486.671,274.039z"/>
</g>
<g>
	<path fill="#4A4F5D" d="M410.254,239.214c0.142,2.321-3.539,2.615-4.182,0.502c-4.718-15.482-11.477-30.69-26.83-39.532
		c-13.717-7.902-34.299-9.012-45.957,3.152c-20.053,20.925-2.985,55.386,19.992,66.825c2.976,1.481,0.299,5.7-2.671,4.225
		c-15.605-7.748-26.827-22.057-29.935-38.497c-2.487-13.156-0.73-28.954,10.912-38.083
		C363.425,172.841,408.204,205.351,410.254,239.214L410.254,239.214z"/>
</g>
<g>
	<path fill="#4A4F5D" d="M339.188,291.096c-0.536,0.462-1.243-0.013-1.133-0.633c1.032-5.726,6.435-11.268,10.351-15.613
		c5.211-5.78,11.13-10.779,17.476-15.427c12.072-8.846,25.633-15.686,39.463-21.732c3.1-1.355,5.768,2.997,2.651,4.36
		c-12.959,5.663-25.829,11.868-37.562,19.594c-6.417,4.226-12.569,8.846-18.076,14.111
		C347.458,280.44,344.23,286.763,339.188,291.096L339.188,291.096z"/>
</g>
<g>
	<path fill="#4A4F5D" d="M366.033,238.664c-3.443-0.029-6.297-2.762-6.268-6.011c0.029-3.248,2.93-5.936,6.378-5.908
		c3.446,0.027,6.297,2.762,6.266,6.01C372.381,236.003,369.481,238.69,366.033,238.664L366.033,238.664z"/>
</g>
<g>
	<path fill="#4A4F5D" d="M576.309,190.527c0.431,0.358,0.056,0.985-0.45,1.003c-4.746,0.131-9.084-1.819-13.867-0.172
		c-4.369,1.504-8.349,4.407-10.747,8.198c-2.277,3.601-3.953,7.775-4.211,12.008c-0.23,3.796,0.945,7.254,1.049,10.967
		c0.057,1.922-2.535,2.23-3.546,0.876c-5.842-7.83-1.153-22.058,5.095-28.476C555.676,188.724,568.598,184.123,576.309,190.527
		L576.309,190.527z"/>
</g>
<g>
	<path fill="#4A4F5D" d="M574.287,188.555c0.497,2.085-2.579,2.784-3.344,0.839c-8.405-21.38-18.799-42.785-41.729-53.35
		c-13.363-6.156-28.876-10.124-43.396-13.01c-16.292-3.233-31.186-2.531-47.6-1.334c-1.354,0.097-1.912-1.908-0.679-2.446
		c15.217-6.632,33.892-4.641,49.81-1.282c15.455,3.259,32.539,7.162,46.438,14.572C555.994,144.39,568.809,165.586,574.287,188.555
		L574.287,188.555z"/>
</g>
<g>
	<path fill="#4A4F5D" d="M347.209,134.831c0.785-0.178,1.088,0.919,0.322,1.135c-37.121,10.611-70.321,35.012-89.494,66.842
		c-19.229,31.931-25.339,73.963-8.537,108.156c1.748,3.55-3.88,6.597-5.605,3.032c-17.385-35.901-11.773-80.562,9.371-113.869
		C274.108,167.297,307.855,143.733,347.209,134.831L347.209,134.831z"/>
</g>
<g>
	<path fill="#4A4F5D" d="M318.437,146.437c-0.452,0.23-0.83-0.397-0.393-0.647c21.736-12.582,49.187-21.307,60.416-44.703
		c0.748-1.56,3.725-1.187,3.98,0.523c1.136,7.651,0.972,15.335,5.389,22.128c-0.992-0.253-1.987-0.508-2.979-0.76
		c10.987-5.278,16.017-16.612,22.674-25.766c1.011-1.388,3.538-1.317,3.987,0.524c1.25,5.145,0.361,20.803,9.833,15.986
		c6.268-3.186,11.466-7.696,16.968-11.884c1.296-0.985,3.938-0.495,3.702,1.48c-0.68,5.67-0.468,11.339-1.703,16.948
		c-0.567,2.563-4.702,1.439-4.146-1.114c1.146-5.259,0.874-10.561,1.497-15.868c1.232,0.493,2.466,0.986,3.701,1.48
		c-6.144,4.695-15.141,14.412-23.74,14.298c-10.075-0.132-8.804-13.97-10.336-20.264c1.327,0.174,2.657,0.347,3.985,0.523
		c-7.108,9.769-12.523,21.593-24.255,27.228c-1.084,0.52-2.335,0.226-2.979-0.762c-4.665-7.176-4.631-15.019-5.814-23.118
		c1.326,0.174,2.653,0.348,3.979,0.522c-5.732,11.863-15.397,20.848-27.271,27.376C343.315,136.962,330.178,140.439,318.437,146.437
		L318.437,146.437z"/>
</g>
<g>
	<path fill="#4A4F5D" d="M310.7,213.873c-0.154,0.391-0.731,0.228-0.656-0.177c2.032-11.178,4.362-22.181,9.004-32.745
		c3.074-6.995,11.218-19.568,20.821-18.651c2.096,0.2,3.646,2.652,1.807,4.212c-3.599,3.053-8.362,4.061-11.804,7.583
		c-3.725,3.811-6.765,8.332-9.041,13.05C316.672,195.771,314.139,205.007,310.7,213.873L310.7,213.873z"/>
</g>
<g>
	<path fill="#4A4F5D" d="M558.146,229.111c-1.633,2.04-5.258,0.154-3.704-2.083c7.717-11.093,23.294-14.131,36.508-13.921
		c10.728,0.172,29.997,1.695,36.039,11.847c1.019,1.713-1.009,3.362-2.738,2.538c-11.03-5.253-20.495-9.266-33.347-9.233
		C579.77,218.29,565.365,220.07,558.146,229.111L558.146,229.111z"/>
</g>
<g>
	<path fill="#4A4F5D" d="M200.885,335.603c-0.274-0.257,0.086-0.692,0.416-0.502c23.479,13.581,41.766-25.545,56.902-36.042
		c22.766-15.787,53.547-16.873,80.557-13.801c3.512,0.399,3.618,5.531-0.048,5.291c-30.589-1.997-66.327-2.723-87.677,22.071
		C240.916,324.374,218.53,352.107,200.885,335.603L200.885,335.603z"/>
</g>
<g>
	<path fill="#4A4F5D" d="M201.49,336.658c-0.683-1.362,1.304-2.47,2.161-1.167c5.667,8.583,16.104,15.591,27.093,15.46
		c1.413-0.016,2.332,1.546,1.597,2.674c-3.021,4.612-6.552,8.246-11.597,10.91c0.148-0.988,0.291-1.979,0.436-2.966
		c6.495,5.54,15.36,7.385,23.922,6.999c1.161-0.054,2.208,0.997,2.16,2.072c-0.33,8.199-3.128,15.629-6.914,22.945
		c-1.205-0.896-2.416-1.789-3.621-2.683c7.612-5.706,16.682-8.46,25.817-11.253c1.475-0.45,2.783,0.768,2.853,2.085
		c0.543,10.679,0.283,21.473-2.012,31.973c-1.006-0.742-2.017-1.485-3.021-2.229c5.429-3.585,11.338-6.428,16.454-10.427
		c0.892-0.693,2.483-0.755,3.057,0.396c4.79,9.634,8.246,20.346,7.335,31.09c-1.017-0.56-2.036-1.123-3.053-1.682
		c8.454-4.014,17.508-5.415,26.854-6.162c10.612-0.849,22.058-0.224,32.222-3.613c20.43-6.816,32.374-25.282,44.571-40.918
		c0.801-1.025,2.399-0.142,1.802,1.014c-8.678,16.84-20.985,35.873-40.207,43.5c-20.279,8.044-43.544,0.057-63.215,9.515
		c-1.342,0.642-3.088-0.172-3.05-1.685c0.25-10.441-1.334-19.938-6.641-29.231c1.02,0.132,2.038,0.264,3.058,0.397
		c-4.986,4.605-11.462,7.427-17.127,11.198c-1.628,1.082-3.347-0.73-3.022-2.23c2.191-10.207,2.169-20.593,1.459-30.943
		c0.953,0.695,1.904,1.388,2.853,2.085c-8.352,2.528-16.846,4.898-23.729,10.241c-2.047,1.588-4.834-0.407-3.623-2.683
		c3.534-6.633,6.147-13.26,6.541-20.736c0.723,0.693,1.442,1.384,2.163,2.073c-9.686,0.331-19.542-2.131-26.746-8.459
		c-0.934-0.819-0.671-2.402,0.435-2.965c4.55-2.311,7.591-5.356,10.364-9.439c0.533,0.891,1.065,1.783,1.596,2.675
		C218.685,354.442,206.594,346.865,201.49,336.658L201.49,336.658z"/>
</g>
<g>
	<path fill="#4A4F5D" d="M373.069,402.606c-0.976,0.644-2.192-0.869-1.259-1.562c9.864-7.318,17.873-16.81,27.844-24.118
		c9.428-6.911,20.146-12.968,30.317-18.865c21.822-12.659,45.929-20.964,70.178-28.536c25.022-7.814,50.753-13.933,77.144-15.513
		c26.327-1.578,53.098,2.572,78.842,7.497c2.155,0.412,1.643,3.805-0.553,3.619c-26.244-2.224-51.796-7.908-78.335-6.145
		c-26.797,1.779-52.935,7.973-78.291,16.157c-24.657,7.962-48.604,16.529-70.675,29.773c-10.396,6.239-21.362,12.213-30.991,19.487
		C389.145,390.557,381.62,396.955,373.069,402.606L373.069,402.606z"/>
</g>
<g>
	<path fill="#4A4F5D" d="M621.458,223.988c-1.081-1.196,0.64-2.837,1.858-1.722c6.175,5.643,13.796,0.304,18.658-4.508
		c1.271-1.258,3.701-0.281,3.631,1.451c-0.379,9.021-3.105,16.841-8.873,23.996c-0.48-0.802-0.96-1.609-1.441-2.415
		c10.792,0.436,20.357,3.961,29.6,9.071c1.599,0.883,0.754,2.972-0.918,3.083c-7.072,0.473-13.082,4.089-19.635,6.291
		c0.448-0.729,0.896-1.458,1.344-2.187c4.189,11.173,13.765,16.012,25.365,18.785c1.36,0.326,1.873,2.114,0.816,3.015
		c-6.789,5.778-14.754,7.777-23.402,9.955c-0.169-1.248-0.337-2.5-0.504-3.75c8.196,0.92,15.299,2.952,21.042,8.851
		c1.084,1.113,0.63,2.99-0.981,3.391c-4.182,1.036-8.584,2.929-11.469,6.086c-4.793,5.247,1.244,7.097,6.418,7.629
		c1.25,0.128,2.709,1.286,2.094,2.638c-1.918,4.217-4.906,7.58-7.545,11.401c-1.577,2.282-5.48,0.081-3.849-2.162
		c2.488-3.419,5.405-6.526,7.166-10.374c0.7,0.88,1.397,1.759,2.097,2.639c-6.127-0.645-14.687-2.693-12.486-10.195
		c1.832-6.243,10.477-10.124,16.465-11.593c-0.328,1.129-0.654,2.259-0.982,3.387c-5.391-4.146-11.033-6.946-18.002-7.884
		c-2.103-0.285-2.904-3.187-0.502-3.747c7.957-1.86,15.482-3.547,21.768-8.838c0.271,1.003,0.543,2.008,0.814,3.012
		c-12.97-3.169-23.236-9.025-27.982-21.326c-0.375-0.974,0.443-1.874,1.346-2.186c6.946-2.401,13.086-5.823,20.639-6.155
		c-0.305,1.027-0.611,2.056-0.916,3.084c-8.695-5.056-17.494-8.593-27.826-8.728c-1.2-0.015-2.209-1.4-1.438-2.413
		c4.897-6.463,7.243-14.535,7.515-22.399c1.211,0.486,2.42,0.969,3.629,1.453c-3.84,3.85-8.856,7.496-14.67,7.971
		C624.674,229.052,624.824,227.718,621.458,223.988L621.458,223.988z"/>
</g>
<g>
	<path fill="#4A4F5D" d="M554.926,219.025c-2.955-0.024-5.396-2.365-5.371-5.147c0.025-2.782,2.51-5.085,5.461-5.062
		c2.953,0.023,5.396,2.366,5.369,5.147C560.36,216.747,557.877,219.048,554.926,219.025L554.926,219.025z"/>
</g>
<g>
	<path fill="#4A4F5D" d="M563.246,189.922c-0.417-0.111-0.641-0.699-0.265-0.983c6.286-4.752,15.78-0.069,19.646,5.424
		c4.248,6.036,6.84,17.05,0.713,22.836c-1.435,1.358-3.309-0.118-3.064-1.713c0.992-6.432,3.091-11.717-1.348-17.724
		C574.74,192.088,569.754,191.647,563.246,189.922L563.246,189.922z"/>
</g>
<g>
	<path fill="#4A4F5D" d="M551.879,175.312c-0.877,0.105-1.283-1.108-0.365-1.292c7.05-1.397,13.767,1.081,18.759,5.82
		c1.552,1.472-0.839,3.669-2.425,2.245C563.471,178.171,558.232,174.549,551.879,175.312L551.879,175.312z"/>
</g>
<g>
	<path fill="#4A4F5D" d="M433.925,276.005c-1.776-0.015-3.246-1.424-3.231-3.101c0.015-1.675,1.51-3.062,3.287-3.047
		c1.776,0.015,3.249,1.424,3.232,3.099C437.199,274.634,435.701,276.019,433.925,276.005L433.925,276.005z"/>
</g>
<g>
	<path fill="#4A4F5D" d="M422.061,260.837c-0.957,0.815-2.568,0.252-2.558-1.023c0.012-1.275,1.632-1.809,2.573-0.981
		c0.04,0.034,0.08,0.069,0.118,0.106c-0.196-0.111-0.392-0.221-0.592-0.333c0.043,0.014,0.084,0.028,0.124,0.038
		c0.396,0.122,0.842,0.446,0.904,0.869c0.039,0.264,0.038,0.387-0.006,0.653c-0.069,0.421-0.521,0.736-0.919,0.854
		c-0.042,0.011-0.083,0.023-0.125,0.034c0.2-0.107,0.401-0.215,0.599-0.321C422.142,260.77,422.1,260.803,422.061,260.837
		L422.061,260.837z"/>
</g>
<g>
	<path fill="#4A4F5D" d="M440.017,244.474c-1.714-0.015-3.135-1.376-3.12-2.992c0.013-1.617,1.459-2.955,3.173-2.941
		c1.715,0.013,3.133,1.375,3.12,2.991C443.174,243.148,441.731,244.487,440.017,244.474L440.017,244.474z"/>
</g>
<g>
	<path fill="#4A4F5D" d="M460.854,267.962c-2.268-0.02-2.237-3.333,0.029-3.313C463.149,264.666,463.119,267.979,460.854,267.962
		L460.854,267.962z"/>
</g>
<g>
	<path fill="#4A4F5D" d="M447.903,255.269c-3.769-0.031-3.718-5.537,0.05-5.506C451.72,249.793,451.669,255.298,447.903,255.269
		L447.903,255.269z"/>
</g>
<g>
	<path fill="#4A4F5D" d="M522.635,258.165c-2.229-0.018-2.201-3.277,0.028-3.259C524.895,254.923,524.865,258.184,522.635,258.165
		L522.635,258.165z"/>
</g>
<g>
	<path fill="#4A4F5D" d="M510.768,260.322c0.532-0.487,1.396-0.48,1.924,0.016c0.088,0.088,0.18,0.173,0.271,0.259
		c2.834,2.679-4.237,3.96-2.929,0.703c0.062-0.154,0.124-0.31,0.187-0.463c0.559-1.394,2.474-1.378,3.006,0.023
		c0.06,0.156,0.12,0.311,0.178,0.468c1.251,3.277-5.795,1.883-2.915-0.752C510.581,260.491,510.674,260.409,510.768,260.322
		L510.768,260.322z"/>
</g>
<g>
	<path fill="#4A4F5D" d="M531.61,238.451c-1.312-2.006,0.448-4.625,2.858-4.606c2.41,0.02,4.121,2.668,2.773,4.65
		c-0.025,0.034-0.049,0.071-0.072,0.107c-1.308,1.925-4.217,1.9-5.488-0.043C531.658,238.521,531.635,238.485,531.61,238.451
		L531.61,238.451z"/>
</g>
<g>
	<path fill="#4A4F5D" d="M542.277,253.293c-1.902-0.015-1.876-2.793,0.025-2.778C544.202,250.53,544.178,253.309,542.277,253.293
		L542.277,253.293z"/>
</g>
<g>
	<path fill="#4A4F5D" d="M536.361,265.322c-1.572-0.013-1.551-2.312,0.021-2.3C537.954,263.034,537.934,265.335,536.361,265.322
		L536.361,265.322z"/>
</g>
<g>
	<path fill="#4A4F5D" d="M550.315,247.223c-3.804-0.031-3.752-5.589,0.049-5.559C554.168,241.696,554.118,247.254,550.315,247.223
		L550.315,247.223z"/>
</g>
<g>
	<path fill="#4A4F5D" d="M480.306,118.124c0.654,2.612-3.56,3.678-4.274,1.073c-7.553-27.5-4.519-60.752,15.114-83.498
		c14.509-16.805,41.879-31.809,64.036-17.921c22.041,13.818,26.97,40.456,23.819,63.676c-3.184,23.46-12.149,47.118-27.856,65.773
		c-2.383,2.833-6.524-1.203-4.174-4.003c14.062-16.741,22.908-38.861,25.742-59.951c2.717-20.2,1.049-47.028-18.953-59.617
		c-21.504-13.535-47.268,0.748-60.4,18.368C476.805,64.232,473.788,92.077,480.306,118.124L480.306,118.124z"/>
</g>
<g>
	<path fill="#4A4F5D" d="M495.253,122.166c-0.412,0.688-1.521,0.831-2.095,0.238c-3.287-3.388-1.726-11.311-1.17-15.458
		c0.763-5.713,1.96-11.448,4.521-16.713c4.493-9.227,13.814-16.893,25.286-13.275c22.104,6.971,19.801,41.164,10.026,56.371
		c-1.743,2.71-6.247,0.191-4.483-2.517c7.478-11.486,12.195-44.802-6.871-49.457c-11.894-2.904-18.946,6.323-21.874,16.021
		c-1.504,4.989-2.464,10.127-2.629,15.321C495.87,115.687,496.859,119.493,495.253,122.166L495.253,122.166z"/>
</g>
<g>
	<path fill="#4A4F5D" d="M275.53,173.893c2.507-1.022,4.685,2.412,2.143,3.526c-14.967,6.552-31.6-6.276-42.021-15.095
		c-15.947-13.507-29.374-29.291-42.692-45.056c-14.023-16.598-26.742-33.751-39.532-51.214
		c-14.834-20.253-31.942-43.453-56.7-53.673c-30.912-12.76-72.774,5.52-70.209,40.632C27.815,70.725,37.5,87.827,47.78,102.325
		c11.155,15.731,24.261,30.155,38.218,43.73c28.934,28.134,62.629,50.157,94.394,75.183c15.9,12.53,30.337,26.212,41.521,42.774
		c5.274,7.809,9.954,15.793,13.213,24.534c3.015,8.068,5.403,16.955,11.181,23.735c2.161,2.535-1.693,6.122-3.84,3.559
		c-9.966-11.881-12.686-27.824-20.667-40.83c-9.602-15.64-21.615-29.714-36.014-41.656c-28.403-23.559-60.752-42.49-88.146-67.217
		c-23.642-21.347-47.08-44.62-62.992-71.831c-13.339-22.808-22.954-50.447-4.405-73.267c18.531-22.796,53.445-25,78.191-10.363
		c27.949,16.529,45.664,44.594,63.793,69.717c14.063,19.488,29.915,38.194,46.32,55.993c8.909,9.659,18.091,19.413,28.723,27.44
		C254.432,169.23,265.747,177.875,275.53,173.893L275.53,173.893z"/>
</g>
<g>
	<path fill="#4A4F5D" d="M258.031,191.894c1.372-1.133,3.254,0.65,1.987,1.904c-7.946,7.889-20.903,2.418-29.164-2.009
		c-14.157-7.585-26.583-18.627-38.117-29.335c-14.621-13.578-27.562-28.303-41.198-42.726c-8.321-8.802-19.103-21.652-31.87-24.627
		c-13.307-3.102-22.508,9.672-18.311,20.792c6.254,16.561,23.113,25.717,38.184,34.246c15.536,8.789,30.225,18.822,43.521,30.45
		c13.539,11.834,27.126,24.599,38.215,38.557c9.68,12.19,15.039,25.576,18.59,40.342c0.811,3.358-4.67,4.737-5.479,1.379
		c-2.81-11.675-6.516-23.145-13.623-33.195c-8.117-11.472-18.572-21.593-28.78-31.416c-10.146-9.763-20.804-19.114-32.493-27.233
		c-11.359-7.889-23.775-13.923-35.451-21.296c-11.607-7.331-24.007-17.346-28.271-30.428c-2.889-8.853-1.286-18.721,7.535-24.04
		c22.781-13.737,45.051,14.241,58.109,28.693c13.031,14.421,26.387,28.52,41.063,41.503c9.464,8.373,19.272,16.331,30.131,23.064
		C238.962,190.462,250.813,197.864,258.031,191.894L258.031,191.894z"/>
</g>
<g>
	<path fill="#4A4F5D" d="M443.064,316.016c-0.465-0.712,0.601-1.433,1.212-0.865c5.968,5.547,11.399,10.873,19.148,14.298
		c7.746,3.425,16.112,3.049,23.928,5.779c0.663,0.231,1.028,1.287,0.207,1.611C471.788,343.091,450.874,327.966,443.064,316.016
		L443.064,316.016z"/>
</g>
<g>
	<path fill="#4A4F5D" d="M534.563,300.729c0.14-0.256,0.604-0.137,0.581,0.152c-0.844,10.006-7.062,22.37-17.143,26.743
		c-1.935,0.839-3.379-1.544-1.637-2.69c5.014-3.299,9.746-6.858,12.611-12.124C531.115,308.874,532.403,304.642,534.563,300.729
		L534.563,300.729z"/>
</g>
<g>
	<path fill="#4A4F5D" d="M304.991,442.273c0.949-0.421,1.748,0.843,0.82,1.347c-20.511,11.078-39.207,25.768-55.588,41.764
		c-7.988,7.802-15.678,15.9-23.021,24.246c-7.198,8.177-12.322,16.072-6.271,26.286c11.02,18.602,28.396,35.901,45.042,50.195
		c9.239,7.934,18.843,15.696,29.335,22.135c9.117,5.601,18.722,9.847,28.429,14.405c2.265,1.062,0.596,4.229-1.693,3.698
		c-12.229-2.844-23.547-9.703-33.811-16.397c-10.622-6.929-20.833-14.541-30.295-22.837c-9.978-8.747-19.039-18.748-27.644-28.688
		c-6.486-7.495-14.371-15.769-17.422-25.223c-2.87-8.891,0.601-16.199,6.305-23.353c7.545-9.459,16.469-18.247,25.425-26.517
		C262.631,466.694,282.154,452.418,304.991,442.273L304.991,442.273z"/>
</g>
<g>
	<path fill="#4A4F5D" d="M273.875,558.253c-0.812-0.098-0.851-1.228,0.01-1.23c15.063-0.099,30.086-5.741,43.035-12.702
		c13.984-7.517,27.355-16.645,37.434-28.622c9.074-10.782,16.617-24.972,12.485-39.037c-2.391-8.143-7.658-14.619-14.592-19.865
		c-10.086-7.63-23.476-15.946-36.662-16.574c-0.836-0.039-0.831-1.252,0.013-1.229c21.583,0.624,46.052,13.126,54.566,32.86
		c5.975,13.851,1.496,29.117-7.147,41.071c-10.485,14.498-25.612,26.748-42.162,34.76
		C306.59,554.589,290.148,560.194,273.875,558.253L273.875,558.253z"/>
</g>
<g>
	<path fill="#4A4F5D" d="M330.021,592.15c-0.26,0.556-1.278,0.273-1.213-0.32c1.148-10.331,12.927-18.73,22.322-22.683
		c7.771-3.268,20.532-5.871,25.667,2.905c7.337,12.542-1.776,28.551-11.295,37.569c-11.479,10.873-27.54,19.25-44.252,16.496
		c-3.066-0.507-1.705-4.84,1.322-4.373c14.458,2.246,29.762-5.856,39.381-15.525c7.048-7.082,17.56-21.828,10.73-31.944
		c-5.146-7.626-17.917-3.205-24.454,0.179C340.45,578.481,333.65,584.395,330.021,592.15L330.021,592.15z"/>
</g>
<g>
	<path fill="#4A4F5D" d="M304.323,552.243c0.937-1.788,3.688-0.458,3.252,1.323c-1.926,7.858,0.869,15.78,8.226,20.303
		c7.854,4.826,14.244,4.902,23.053,2.687c1.793-0.447,2.683,1.845,1.199,2.747C322.467,590.021,294.397,571.206,304.323,552.243
		L304.323,552.243z"/>
</g>
<g>
	<path fill="#4A4F5D" d="M299.231,426.87c0.582,0.18,0.801,0.873,0.353,1.298c-1.868,1.755-4.531,2.226-6.399,4.092
		c-1.694,1.688-3.261,3.668-4.312,5.786c-2.428,4.896-3.261,10.432-2.212,15.755c0.585,2.965-4.215,4.194-4.823,1.213
		c-1.312-6.441-0.583-13.503,2.911-19.287C287.25,431.587,293.478,425.083,299.231,426.87L299.231,426.87z"/>
</g>
<g>
	<path fill="#4A4F5D" d="M347.239,584.387c-0.221,0.367-0.763,0.04-0.581-0.326c2.71-5.582,6.371-9.934,12.457-12.328
		c4.084-1.605,11.276-3.368,15.297-1.072c0.577,0.328,0.664,1.273-0.015,1.568c-4.236,1.845-9.562,0.554-14.123,2.156
		C354.711,576.34,350.202,579.477,347.239,584.387L347.239,584.387z"/>
</g>
<g>
	<path fill="#4A4F5D" d="M291.01,607.658c1.797,0.881,0.506,3.529-1.383,3.017c-0.49-0.132-4.348,5.642-5.19,7.037
		c-1.983,3.257-3.837,6.581-5.593,9.953c-6,11.531-4.228,25.99,1.228,37.377c10.483,21.88,22.093,40.722,41.581,56.599
		c0.778,0.637-0.233,1.734-1.077,1.291c-12.871-6.743-24.003-17.953-31.781-29.682c-8.198-12.36-15.954-26.782-18.453-41.286
		c-2.043-11.866,1.357-22.518,7.729-32.546C279.996,616.384,285.562,604.98,291.01,607.658L291.01,607.658z"/>
</g>
<g>
	<path fill="#4A4F5D" d="M654.534,325.417c-2.198-1.393-0.192-4.646,2.122-3.351c50.348,28.135,81.759,75.898,90.859,129.97
		c8.961,53.232,1.591,110.605-19.409,160.592c-13.511,32.16-33.276,63.275-65.72,81.189
		c-31.974,17.653-68.596,22.751-104.783,26.969c-42.361,4.937-85.886,7.08-128.118-0.084c-18.776-3.181-36.556-8.4-53.702-16.308
		c-16.536-7.621-30.263-16.668-43.364-28.684c-0.845-0.777,0.434-1.938,1.295-1.203c10.806,9.229,25.816,16.169,38.919,22.139
		c13.976,6.369,28.42,11.551,43.567,14.814c34.622,7.463,70.524,8.192,105.834,5.802c31.554-2.137,63.987-5.264,94.646-12.907
		c29.763-7.424,57.662-20.516,76.638-44.066c23.915-29.681,37.179-65.72,44.799-101.968c5.972-28.4,8.431-57.567,5.849-86.468
		c-2.287-25.571-8.551-51.189-20.705-74.27C707.652,367.947,683.564,343.832,654.534,325.417L654.534,325.417z"/>
</g>
<g>
	<path fill="#4A4F5D" d="M622.1,706.354c0.168-0.795,1.207-0.855,1.757-0.42c5.17,4.089-1.091,13.447-0.417,18.561
		c0.904,6.89,8.576,10.508,13.238,15.011c9.754,9.424-3.195,17.418-12.849,20.212c-14.899,4.316-31.849,1.882-45.108-5.807
		c-11.471-6.653-23.861-17.946-24.597-31.416c-0.149-2.727,4.48-4.039,5.667-1.398c5.366,11.945,11.542,21.64,24.067,28.122
		c11.498,5.951,25.627,9.232,38.493,5.273c6.022-1.853,17.648-6.265,10.154-12.79c-3.476-3.028-7.225-5.729-10.15-9.268
		c-2.824-3.416-3.579-7.105-3.004-11.342c0.344-2.542,1.315-4.929,1.92-7.41C621.874,711.202,621.58,708.789,622.1,706.354
		L622.1,706.354z"/>
</g>
<g>
	<path fill="#4A4F5D" d="M595.561,734.461c-0.551,0.381-1.074-0.416-0.68-0.846c4.998-5.396,12.278-8.118,19.858-7.916
		c5.255,0.139,14.967,3.722,14.097,9.937c-0.07,0.491-0.553,1.046-1.158,0.812c-5.258-2.016-7.812-7.251-14.455-7.395
		C606.713,728.917,600.786,730.855,595.561,734.461L595.561,734.461z"/>
</g>
<g>
	<path fill="#4A4F5D" d="M615.571,737.459c-0.627-0.08-0.849-0.933-0.147-1.105c4.645-1.145,10.358,0.821,14.084,3.527
		c2.863,2.078,7.926,6.881,5.674,10.646c-0.387,0.646-1.316,0.548-1.713-0.015c-1.115-1.58-0.916-3.592-2.096-5.251
		c-1.23-1.729-2.814-3.225-4.705-4.326C623.211,738.917,619.561,737.972,615.571,737.459L615.571,737.459z"/>
</g>
<g>
	<path fill="#4A4F5D" d="M306.678,710.987c0.169-0.651,1.116-0.557,1.313,0.011c2.207,6.318,5.025,14.328,4.502,21.076
		c-0.465,5.963-2.882,10.617-6.008,15.753c-4.858,7.972-6.56,14.397,3.448,19.81c7.917,4.282,18.153,5.718,26.527,1.487
		c7.753-3.918,11.344-10.522,17.295-16.183c2.712-2.578,5.746-4.926,9.191-6.597c3.174-1.534,7.25-2.842,9.81-5.251
		c10.765-10.12,1.878-26.796,12.678-37.165c2.351-2.257,5.627,1.091,3.577,3.432c-6.744,7.714-3.563,17.511-6.078,26.475
		c-2.045,7.292-6.679,11.834-13.772,15.104c-4.985,2.3-9.597,4.927-13.151,9.052c-2.674,3.104-5.096,6.485-8.136,9.293
		c-5.35,4.944-12.129,8.513-19.719,9.099c-11.402,0.884-34.784-5.993-31.05-20.69c1.753-6.895,7.302-12.063,9.728-18.68
		C310.116,728.057,304.488,719.628,306.678,710.987L306.678,710.987z"/>
</g>
<g>
	<path fill="#4A4F5D" d="M325.255,736.221c0.483-0.017,0.567,0.682,0.106,0.788c-7.856,1.806-15.333,6.434-19.665,12.961
		c-2.169,3.27-4.14,7.089-3.83,11.073c0.202,2.617,1.255,4.952,1.388,7.558c0.029,0.528-0.725,0.987-1.198,0.639
		c-6.517-4.776-3.177-15.476,1.097-20.697C308.508,742.001,316.224,736.521,325.255,736.221L325.255,736.221z"/>
</g>
<g>
	<path fill="#4A4F5D" d="M316.167,746.352c0.646-0.364,1.134,0.53,0.565,0.926c-4.086,2.854-7.727,7.309-8.828,12.052
		c-0.502,2.181-0.959,4.928,0.562,6.88c1.311,1.677,3.385,2.113,4.371,3.997c0.331,0.629,0.029,1.301-0.674,1.524
		c-6.155,1.937-8.895-7.086-7.646-11.232C306.265,754.71,310.707,749.428,316.167,746.352L316.167,746.352z"/>
</g>
<g>
	<path fill="#4A4F5D" d="M210.301,582.161c0.311,0.67-0.574,1.138-1.032,0.557c-5.103-6.464-3.223-15.82,1.007-22.451
		c2.808-4.401,10.785-13.77,17.199-10.288c0.747,0.406,0.93,1.5,0.261,2.057c-1.89,1.58-4.27,1.469-6.41,2.729
		c-3.147,1.854-5.885,4.315-7.893,7.273C209.444,567.91,207.194,575.406,210.301,582.161L210.301,582.161z"/>
</g>
<g>
	<path fill="#4A4F5D" d="M207.506,571.989c0.751,0.437,0.638,1.601-0.265,1.805c-6.074,1.366-11.519,0.966-16.587,5.2
		c-4.696,3.927-8.144,9.111-9.771,14.848c-1.582,5.586-2.11,11.79,0.096,17.318c1.188,2.975,3.002,5.859,5.606,7.935
		c2.116,1.686,4.8,2.54,6.615,4.497c1.023,1.107,0.256,2.606-1.229,2.728c-6.844,0.558-13.337-7.433-15.413-12.809
		c-2.566-6.637-2.568-14.181-0.306-20.912c2.285-6.796,6.304-13.609,12.651-17.762C193.873,571.59,201.81,568.667,207.506,571.989
		L207.506,571.989z"/>
</g>
<g>
	<path fill="#4A4F5D" d="M182.705,619.27c1.666-1.757,4.145,0.793,2.664,2.555c-6.428,7.637-8.025,18.09-1.65,26.296
		c2.975,3.83,7.089,7.241,11.896,8.875c4.103,1.391,8.447,1.239,12.466,2.592c1.66,0.558,1.492,2.462-0.025,3.04
		c-10.193,3.895-24.527-5.488-29.277-13.645C172.777,638.679,174.485,627.952,182.705,619.27L182.705,619.27z"/>
</g>
<g>
	<path fill="#4A4F5D" d="M198.166,661.021c0.65-1.375,3.26-1.034,3.487,0.459c1.419,9.337,4.703,18.262,12.866,24.36
		c5.973,4.46,13.69,8.471,21.445,8.952c8.186,0.506,14.324-1.446,21.507-5.001c1.353-0.671,2.894,1.057,1.665,2.068
		c-14.185,11.694-33.98,7.908-47.75-2.261c-5.704-4.214-10.609-10.414-12.264-17.169
		C198.251,668.869,196.502,664.532,198.166,661.021L198.166,661.021z"/>
</g>
<g>
	<path fill="#4A4F5D" d="M249.047,695.959c-1.419-1.803,1.823-4.105,3.314-2.371c4.705,5.474,11.725,8.328,19.224,7.973
		c8.22-0.391,12.163-4.139,18.179-8.625c1.184-0.884,2.719-0.042,2.451,1.372c-1.519,8.04-13.059,12.018-20.672,12.03
		C262.499,706.355,254.441,702.818,249.047,695.959L249.047,695.959z"/>
</g>
<g>
	<path fill="#4A4F5D" d="M425.346,365.257c-1.853-1.405,0.648-4.403,2.57-3.087c25.754,17.651,46.287,41.87,55.089,71.018
		c7.83,25.937,7.511,53.077,5.152,79.728c-2.51,28.358-7.416,56.928-5.612,85.454c1.018,16.094,5.476,31.434,16.542,44.1
		c10.967,12.546,25.576,22.062,41.792,27.604c32.797,11.216,72.553,11.893,103.582-4.537c22.956-12.154,40.85-31.718,52.457-53.851
		c21.379-40.759,28.467-89.787,23.573-134.75c-6.718-61.73-39.396-115.886-91.694-153.513c-3.257-2.344-0.068-7.588,3.31-5.237
		c60.364,42.05,94.719,107.121,96.366,177.623c0.992,42.532-7.856,88.479-30.446,125.811c-13.142,21.71-32.63,41.366-57.03,51.847
		c-30.167,12.958-66.607,13.362-97.85,3.242c-28.924-9.369-55.862-29.483-63.568-58.555c-7.177-27.08-2.221-57.045,0.699-84.387
		c3.083-28.868,6.477-58.741,0.216-87.459C473.201,412.872,453.274,386.473,425.346,365.257L425.346,365.257z"/>
</g>
<g>
	<path fill="#4A4F5D" d="M668.615,331.299c-0.693,1.726-3.389,1.042-2.945-0.791c4.777-19.705,34.946-30.278,54.141-29.851
		c1.197,0.027,2.273,0.78,2.58,1.885c0.224,0.804,0.063,1.21-0.289,1.954c-0.366,0.781-1.481,1.26-2.336,1.239
		c-10.16-0.255-20.777,2.805-29.727,7.21C681.78,317.008,672.082,322.664,668.615,331.299L668.615,331.299z"/>
</g>
<g>
	<path fill="#4A4F5D" d="M759.721,240.633c-0.795-0.47-0.26-1.63,0.646-1.409c7.301,1.76,15.238,1.359,22.031-1.891
		c5.138-2.46,13.236-7.417,12.453-13.883c-1.021-8.416-13.319-12.444-20.985-13.008c-8.946-0.659-17.563,1.564-24.867,6.546
		c-14.618,9.973-22.495,25.578-25.132,42.064c-2.789,17.438-4.658,38.947,2.678,55.651c0.258,0.589-0.631,1.107-0.935,0.503
		c-9.845-19.527-10.472-44.882-5.199-65.882c4.722-18.81,19.988-39.924,41.49-43.732c12.354-2.185,45.43,3.689,36.582,22.077
		C792.57,239.962,772.277,248.047,759.721,240.633L759.721,240.633z"/>
</g>
<g>
	<path fill="#4A4F5D" d="M770.926,241.984c0.64-1.139,2.754-0.309,2.224,0.904c-7.095,16.074,7.221,32.275,14.319,46.034
		c7.688,14.908,10.334,33.81,5.855,49.951c-7.43,26.763-34.499,57.924-65.816,59.085c-4.01,0.147-3.979-5.873,0.053-5.88
		c17.304-0.02,32.185-12.188,42.707-24.069c11.679-13.182,20.105-28.654,19.716-46.255c-0.218-9.733-1.866-19.963-6.207-28.885
		c-3.022-6.209-6.646-12.13-9.696-18.327C769.002,264.225,764.92,252.726,770.926,241.984L770.926,241.984z"/>
</g>
<g>
	<path fill="#4A4F5D" d="M767.202,217.979c-0.584,0.322-1.187-0.321-0.884-0.849c3.605-6.299,13.915-6.423,19.99-3.929
		c4.57,1.881,15.306,9.257,11.404,15.04c-0.377,0.558-1.188,0.66-1.695,0.19c-1.862-1.724-1.7-4.343-3.27-6.376
		c-1.814-2.347-4.23-4.315-7.05-5.518C778.818,213.608,773.461,214.503,767.202,217.979L767.202,217.979z"/>
</g>
<g>
	<path fill="#5F2420" d="M497.23,233.492c1.301-0.754,2.349,1.099,1.158,1.905c-9.289,6.264-19.313-1.047-29.613,0.79
		c-6.965,1.245-16.168,3.562-21.282-2.559c-10.598-12.675,10.955-21.515,20.564-23.476c12.442-2.54,35.052-5.949,43.655,6.084
		c5.166,7.226-0.103,13.824-7.32,17.347c-9.878,4.823-17.22,6.893-27.424,1.646c-1.954-1.005-0.173-3.841,1.771-2.801
		c6.071,3.243,10.914,3.793,17.153,0.608c3.56-1.817,8.395-3.358,11.157-6.238c7.428-7.744-5.428-13.644-12.438-14.323
		c-9.743-0.947-20.29,0.129-29.64,2.827c-4.582,1.323-10.111,3.047-13.26,6.702c-4.762,5.533-0.104,11.889,7.071,11.299
		c5.385-0.441,11.042-2.6,16.468-2.209C483.34,231.673,489.041,238.246,497.23,233.492L497.23,233.492z"/>
</g>
</svg>
