<?xml version="1.0" encoding="utf-8"?>
<!-- Generator: Adobe Illustrator 14.0.0, SVG Export Plug-In . SVG Version: 6.00 Build 43363)  -->
<!DOCTYPE svg PUBLIC "-//W3C//DTD SVG 1.1//EN" "http://www.w3.org/Graphics/SVG/1.1/DTD/svg11.dtd">
<svg version="1.1" id="Layer_1" xmlns="http://www.w3.org/2000/svg" xmlns:xlink="http://www.w3.org/1999/xlink" x="0px" y="0px"
	 width="800px" height="780px" viewBox="0 0 800 780" enable-background="new 0 0 800 780" xml:space="preserve">
<path fill="#9BA4BC" d="M313.249,240.852c-3.493,1.963-36.849,28.208-44.317,93.646c-0.581,5.088,0.55,32.7-29.785,39.464
	c-1.943,0.399,1.645,17.9,18.051,29.5c1.566,1.549-4.996,13.261-10.808,19.127c-1.551,1.176,3.539,7.38,19.909,11.193
	c2.334-0.4-0.353,7.398-15.101,16.812c-1.943,0.788,12.923,15.899,35.075,8.006c3.492-2.352-1.133,7.402-6.553,13.658
	c-1.551,1.175,24.591,13.506,51.744-6.869c0,0,4.062,35.018,69.462,34.312c0,0,59.95,0.099,72.268-29.158
	c1.289-3.065,14.801,1.485,34.549-20.411c3.338-3.701,24.857-11.799,42.825,0.572c1.812,1.248-2.778-10.889-5.522-14.768
	c-0.811-1.146,9.364,4.238,18.689,0.689c1.942-0.789-8.221-9.305-5.128-13.99c3.092-4.687,13.966-9.801,15.126-11.362
	c1.163-1.563-12.119-11.232-14.506-21.343c-0.4-2.333,13.591-7.073,18.212-17.605c0.385-1.17-18.354-11.591-24.624-20.125
	c-0.784-1.164,15.912-10.199,18.587-20.333c0.383-1.948-16.337,2.804-27.698-12.323c-1.58-4.664-12.672-44.318-23.66-62.562
	c-2.351-3.903,14.617-36.275,38.55-78.435c3.438-6.057,30.38-77.228,5.567-136.67c-2.884-6.912-25.369-40.545-44.905-28.202
	c-15.526,9.808-16.553,39.01-16.536,42.514c0.018,3.504-4.951,102.799-48.339,146.999c-1.928,1.964-15.577-0.703-15.577-0.703
	s2.67-11.692,2.661-13.638c-0.011-1.947-8.525,8.216-27.607,7.14c-1.556-0.382,2.257-16.361,0.679-21.025
	c-0.791-2.333-8.115,12.497-24.022,23.474c-2.332,0.79-54.693-39.444-63.034-153.856c-0.735-10.096-8.765-41.613-31.703-35.274
	c-6.412,1.773-41.548,22.003-39.678,87.396c0.148,5.074-4.481,38.562,50.427,122.774
	C309.488,224.015,313.249,240.852,313.249,240.852z"/>
<path fill="#7C8397" d="M313.288,369.709c4.683,2.312,18.489,4.761,28.353,26.724c16.924,37.68-15.641,66.062,24.123,77.547
	c29.393,8.491,81.845-1.436,92.216-9.789c16.285-13.119,10.67-33.152,3.568-67.17c-4.385-21.002,11.112-36.26,19.281-37.467
	c8.172-1.207-24.269-7.473-24.269-7.473l-0.917,31.732c0,0-15.079-18.809-26.178-19.338c-11.098-0.53-27.074-3.957-31.993-15.028
	c-0.779,0.004-4.581,19.097-17.794,23.639c-13.214,4.541-27.784,10.451-29.485,20.971c-1.7,10.519-9.028-15.528-9.854-25.257
	c-0.828-9.728-0.828-9.728-0.828-9.728L313.288,369.709z"/>
<path fill="#7C8397" d="M450.832,274.443c-6.634,2.29-18.941,27.733-13.793,45.615c0.646,2.245,15.604,6.542,19.521,32.023
	c0.125,5.644,6.004,14.181,14.196,17.644c11.341,4.795,41.295,4.834,46.568-30.59C522.603,303.683,490.862,260.625,450.832,274.443z
	"/>
<path fill="#7C8397" d="M340.34,368.799c-5.82,4.31-40.438,10.708-47.212-21.961c-2.562-12.346-1.465-61.113,56.855-76.968
	c6.397-1.738,33.554,15.41,30.207,48.128C338.203,329.49,340.34,368.799,340.34,368.799z"/>
<path fill="#9BA4BC" d="M268.748,336.64c0,0-5.328-4.253-9.942-2.872c-9.911,2.968-51.431,62.916-56.744,99.546
	c-1.695,11.688,17.813,61.033,56.496,90.237c3.641,2.748,14.444,88.69-11.023,135.529c-3.118,5.735-18.959,24.423-22.448,27.165
	c-3.491,2.741-34.577,14.182-35.312,23.529c-0.735,9.347,3.268,31.518,39.896,38.347c4.606,0.86,25.309,1.046,34.489-32.479
	c1.951-7.123,25.555-28.541,46.554-33.704c4.174-1.026,76.033,25.325,176.363,2.261c3.5-0.795,34.382,25.917,36.352,30.579
	c1.97,4.661,8.604,34,13.039,39.645c5.482,6.98,40.216,24.331,63.403-11.207c3.433-5.267,1.86-17.138-19.228-30.661
	c-3.093-1.982-28.115-17.772-24.432-61.002c3.686-43.229,16.672-94.68,8.23-149.531c-0.593-3.847,16.338-2.803,33.225-52.326
	c1.531-4.481,18.908-35.127,16.508-48.353c-2.399-13.225-16.658-63.375-53.354-84.609c-3.77-2.18-12.482-5-14.776,3.576
	c-0.448,1.682,7.44,9.307,25.36,11.556c2.334-0.4-7.724,12.884-18.587,20.333c-1.559,0.008,9.791,12.41,24.624,20.125
	c0.386-0.392-3.851,8.972-18.212,17.605c-1.334,0.804,5.125,13.6,14.112,20.176c0.78,0.775-13.979,7.465-14.732,12.529
	c-0.756,5.064,5.128,13.99,5.128,13.99s-10.888,3.166-18.689-0.689c-1.881-0.928,5.883,9.314,7.081,15.148
	c0,0-23.046-15.85-46.72-0.162c-9.725,6.443-18.98,19.557-30.28,17.275c-3.891-0.785-10.749,31.195-67.199,30.69
	c-4.737-0.044-65.763,6.157-76.463-33.499c-10.09,6.667-27.159,19.207-53.298,7.655c0,0,10.472-8.227,8.106-14.444
	c1.157-1.951-19.809,9.439-35.075-8.006c-1.569-1.938,14.381-4.352,15.101-16.812c1.156-2.341-15.188-1.094-19.909-11.193
	c0,0,12.786-12.908,10.812-18.349c-1.976-5.441-15.247-13.163-19.219-29.883c-0.722-3.03,8.564,0.347,24.067-13.743
	C267.834,349.297,268.748,336.64,268.748,336.64z"/>
<path fill="#7C8397" d="M373.044,288.835c2.925,1.738,6.524,11.907,26.925,13.301c23.95,1.635,35-7.761,43.126-17.728
	c-2.826,19.284-3.328,36.221-3.328,36.221s-21.674-13.91-31.54-1.6c-4.915,6.13-14.557,9.414-23.366-1.054
	c-2.861-3.403-5.838,0.028-8.754,0.626C373.189,319.2,377.193,301.662,373.044,288.835z"/>
<path fill="#CBD9E0" d="M317.725,683.072c-3.488,3.131-13.902,23.036,16.907,34.566c2.577,0.965,3.969,15.941,23.832,17.402
	c0.451,12.845,18.051,29.5,41.321,11.479c0,0,27.31,12.326,37.741-4.465c5.847,1.529,36.945-7.965,26.696-34.387
	c-1.188-3.888,9.706-4.719,8.853-20.286C392.957,703.341,317.725,683.072,317.725,683.072z"/>
<g>
	<path fill="#A8BCC8" d="M345.345,688.58c2.434,4.726,7.011,13.221,21.723,14.303c0.451,12.844,18.049,29.498,41.321,11.479
		c0,0,27.31,12.325,37.741-4.465c3.973,1.04,19.614-3.024,26.001-14.033c0.728-2.217,1.136-4.973,0.944-8.481
		C422.764,697.403,374.384,693.14,345.345,688.58z"/>
	<path fill="#A8BCC8" d="M388.567,722.855c-12.369,0.06-21.415-10.085-22.057-19.432c-14.845-1.285-19.454-10.246-21.684-14.577
		l-0.527-1.022l1.137,0.178c21.428,3.366,43.074,5.02,64.335,4.917c22.113-0.106,43.375-2.163,63.189-6.11l0.659-0.131l0.037,0.673
		c0.182,3.261-0.146,6.187-0.972,8.694l-0.048,0.11c-5.835,10.052-19.334,14.454-24.932,14.482c-0.49,0.002-0.925-0.027-1.303-0.087
		c-3.747,5.771-9.852,8.716-18.155,8.756c-9.069,0.044-17.984-3.517-19.775-4.273C401.723,720.193,395.027,722.824,388.567,722.855
		L388.567,722.855z M346.395,689.334c2.465,4.653,7.158,11.97,20.716,12.965l0.521,0.039l0.021,0.523
		c0.313,8.951,8.979,18.885,20.909,18.826c6.284-0.029,12.837-2.65,19.471-7.788l0.278-0.214l0.32,0.144
		c0.094,0.044,9.776,4.356,19.611,4.31c8.04-0.039,13.893-2.916,17.39-8.55l0.226-0.366l0.418,0.109
		c0.355,0.093,0.852,0.141,1.424,0.138c5.365-0.026,18.281-4.235,23.896-13.848c0.713-2.185,1.022-4.716,0.93-7.536
		c-19.698,3.875-40.805,5.895-62.746,6.001C388.832,694.188,367.514,692.589,346.395,689.334L346.395,689.334z"/>
</g>
<path fill="#FFFFFF" d="M463.79,277.008c-3.146-0.022-25.921,13.556-16.41,47.964c1.905,6.899,8.552,18.061,9.181,27.109
	c-0.283,1.752,39.479,12.947,45.662-36.718C503.126,308.114,488.023,277.184,463.79,277.008z"/>
<path fill="#6F2F2B" d="M373.453,373.798c-1.738,2.635-11.048,9.396-2.083,52.273c0.602,2.872,20.682-10.027,36.531,6.83
	c1.176,1.747,12.784-12.616,29.634-10.46c3.313,1.249,1.032-47.792-9.808-55.33c-2.638-2.323-21.324-2.525-30.45-17.662
	C390.665,370.794,373.453,373.798,373.453,373.798z"/>
<path fill="#FFFFFF" d="M339.693,275.566c-30.892,11.829-51.628,70.908-3.09,85.563c0,0,3.221,1.736,4.945-4.111
	c1.724-5.848,6.017-23.971,26.4-34.873c2.326-1.764,1.271-39.13-24.163-45.431C341.235,276.082,339.693,275.566,339.693,275.566z"/>
<path fill="#C1D0D8" d="M326.577,340.447c-8.454-5.062-14.876-35.675-0.427-56.196c-22.144,20.564-30.482,64.519,10.453,76.878
	c0,0,3.221,1.736,4.945-4.111c1.724-5.848,6.017-23.971,26.4-34.873C344.79,323.23,341.413,349.329,326.577,340.447z"/>
<path fill="#C1D0D8" d="M478.413,342.631c8.673-4.679,26.692-35.165-4.394-63.044c42.735,21.984,33.071,76.337-11.417,74.509
	c0,0-3.205,1.766-4.984-4.063c-1.781-5.832-4.933-14.283-12.574-24.757C463.169,329.664,460.939,352.061,478.413,342.631z"/>
<path fill="#FFFFFF" d="M397.473,349.447c5.32,13.405,23.234,15.07,23.051,17.018c-0.187,1.947-2.419,22.784-3.388,24.542
	c-0.963,1.756-14.95,7.468-24.885,5.765c-9.937-1.704-12.373-22.13-12.572-23.687C393.853,365.815,396.715,353.539,397.473,349.447z
	"/>
<path fill="#F27973" d="M409.17,433.869c0,0-19.546-17.035-37.786-5.268c-4.994,3.221-17.848,12.154-18.939,28.12
	c-0.213,3.108,5.532,16.714,22.277,17.8c16.744,1.088,63.827-3.422,75.089-9.316c8.342-4.366,13.569-11.744,13.122-23.422
	c-0.252-6.625-19.098-18.641-25.397-19.342C420.786,420.576,409.17,433.869,409.17,433.869z"/>
<path fill="#A04B47" d="M371.127,375.561c-2.025,4.097-7.8,17.557,0.243,50.511c0.693,2.837-16.888,9.425-18.926,30.65
	c-0.183,2.435-5.476-4.839,0.518-33.772c1.064-5.146-2.129-17.217-3.022-21.008c-0.893-3.792,1.371-18.693,11.57-22.539
	C371.71,375.558,371.127,375.561,371.127,375.561z"/>
<path fill="#A04B47" d="M427.728,367.111c2.051,1.45,11.141,9.29,9.808,55.33c-0.037,1.27,15.879,3.232,24.118,16.915
	c2.355,4.076-0.051-10.511-1.243-15.761c-1.194-5.25-4.53-31.219-4.555-36.182c-0.024-4.964-11.762-17.17-16.445-19.775
	C434.728,365.034,427.728,367.111,427.728,367.111z"/>
<path fill="#F59183" d="M399.493,324.522c4.28-0.021,9.346-5.873,9.098-10.167c-0.425-7.394-20.089-8.466-24.137,0.117
	C383.406,316.7,392.484,324.557,399.493,324.522z"/>
<path fill="#CBD9E0" d="M496.425,459.352c-6.674,5.836-13.498,11.587-21.291,10.013c-3.894-0.785-10.752,31.196-67.201,30.691
	c-4.734-0.044-65.761,6.157-76.463-33.499c-0.9,0.595-1.861,1.238-2.873,1.906c-3.793,7.996-37.467,81.861-21.686,152.375
	c2.228,9.951,12.44,36.729,52.779,45.875c10.313,2.34,79.483,13.631,131.319-14.066c10.718-5.726,26.752-22.902,29.46-66.128
	c1.1-17.494,4.812-92.287-22.794-124.854C497.232,461.143,496.818,460.342,496.425,459.352z"/>
<path fill="#A5B9C4" d="M497.675,461.664c-0.442-0.521-0.856-1.322-1.25-2.312c-0.66,0.578-1.322,1.151-1.985,1.721
	c14.082,34.52,11.663,88.028,10.862,102.129c-2.316,40.835-16.116,57.056-25.342,62.461
	c-44.627,26.144-104.195,15.449-113.079,13.235c-34.735-8.659-43.541-33.96-45.463-43.362c-9.854-48.194,2.582-98.03,11.449-124.771
	c-0.529-1.344-1.001-2.74-1.397-4.207c-0.9,0.595-1.861,1.238-2.873,1.906c-3.793,7.996-37.467,81.861-21.686,152.375
	c2.228,9.951,12.44,36.729,52.779,45.875c10.313,2.34,79.483,13.631,131.319-14.066c10.718-5.726,26.752-22.902,29.46-66.128
	C521.568,569.024,525.28,494.231,497.675,461.664z"/>
<path fill="#7C8397" d="M466.087,208.968c4.277-1.188,14.365-7.466,19.387-15.666c5.024-8.199,21.268-30.08,31.592-68.669
	c1.687-6.304,6.168-12.486,10.07-10.949c3.899,1.538,10.547,7.734,9.862,26.814c-0.185,5.072-5.68,33.118-17.262,53.027
	c-2.455,4.217-16.987,29.669-19.661,40.193C485.618,222.888,466.087,208.968,466.087,208.968z"/>
<path fill="#626979" d="M527.136,113.684c-2.344-0.923-4.891,0.945-6.917,3.942c3.864,2.362,8.823,8.805,8.221,24.446
	c-0.184,4.776-5.688,31.188-17.275,49.94c-2.3,3.72-15.204,24.995-19.026,35.816c2.711,1.998,5.404,3.991,7.938,5.89
	c2.674-10.524,17.206-35.977,19.661-40.193c11.582-19.91,17.077-47.955,17.262-53.027
	C537.683,121.418,531.035,115.222,527.136,113.684z"/>
<g>
	<path fill="#7C8397" d="M331.464,465.389c-1.621-12.839-2.186-49.432-2.186-49.432s-9.961,33.529-20.514,25.016
		c-14.853-12.387-25.724-46.591-28.382-73.05c-10.726-106.766,58.889-139.265,64.324-142.405l-31.458,15.334
		c-3.493,1.963-36.849,28.208-44.317,93.646c-0.581,5.088,0.55,32.7-29.785,39.464c-1.943,0.399,1.645,17.9,18.051,29.5
		c1.566,1.549-4.996,13.261-10.808,19.127c-1.551,1.176,3.539,7.38,19.909,11.193c2.334-0.4-0.353,7.398-15.101,16.812
		c-1.943,0.788,12.923,15.899,35.075,8.006c3.492-2.352-1.133,7.402-6.553,13.658c-1.535,1.162,24.09,13.248,50.956-6.309
		c0.375-0.008,0.632-0.098,0.734-0.285c0.069,0.123,0.123,0.236,0.157,0.342C331.49,465.613,331.464,465.389,331.464,465.389z"/>
	<path fill="#7C8397" d="M331.568,466.006c0.017,0.08,0.03,0.159,0.053,0.254C331.618,466.182,331.598,466.096,331.568,466.006z"/>
</g>
<path fill="#CBD9E0" d="M384.86,317.976c-7.396-0.354-64.555,13.549-35.809,81.536c1.151-3.509,0.72-12.071,8.482-16.781
	c7.764-4.709,34.202-11.845,39.949-30.948c2.744,3.88,7.44,9.307,17.189,12.764c7.059,2.502,21.033,1.649,24.737,3.092
	c3.706,1.442,15.434,12.286,16.233,16.175c0.797,3.889,5.656-37.79-7.658-54.075c-3.554-4.348-16.825-17.827-37.833-15
	c-4.175,0.562-4.625,9.754-10.659,9.784C393.457,324.552,384.86,317.976,384.86,317.976z"/>
<path fill="#626979" d="M267.43,346.664c-2.322,10.047-8.826,22.958-28.284,27.298c-1.943,0.399,1.645,17.9,18.051,29.5
	c1.566,1.549-4.996,13.261-10.808,19.127c-1.551,1.176,3.539,7.38,19.909,11.193c2.334-0.4-0.353,7.398-15.101,16.812
	c-1.943,0.788,12.923,15.899,35.075,8.006c3.492-2.352-1.133,7.402-6.553,13.658c-1.338,1.014,21.286,14.3,51.554-5.7
	C292.154,467.33,259.048,383.986,267.43,346.664z"/>
<path fill="#F5F5F6" d="M355.478,360.396c9.801-5.738,36.033-37.421,18.434-38.888c-0.854-0.071-1.682-0.122-2.512-0.172
	c-9.658,3.284-23.522,11.296-28.082,27.998c0.132,0.165,0.21,0.256,0.21,0.256C342.53,357.354,345.677,366.134,355.478,360.396z"/>
<path fill="#F5F5F6" d="M426.706,316.007c-0.828,0.058-1.656,0.117-2.513,0.197c-17.581,1.638,8.954,33.065,18.812,38.708
	c8.93,5.113,12.28-1.639,12.035-8.721c-0.926-4.209-2.213-8.211-3.972-11.654C444.756,324.047,434.398,318.541,426.706,316.007z"/>
<path fill="#7C8397" d="M577.439,372.324c0.385-1.17-18.354-11.591-24.624-20.125c-0.784-1.164,15.912-10.199,18.587-20.333
	c0.383-1.948-16.337,2.804-27.698-12.323c-1.58-4.664-15.831-42.755-23.66-62.562c-5.914-14.958-31.678-29.433-31.678-29.433
	c2.933,2.321,68.271,67.67,38.994,173.43c-4.608,16.656-13.076,29.119-23.939,41.389c-18.622,12.938-26.202-24.788-26.202-24.788
	c4.409,26.062,0.952,35.812-2.871,50.234c-0.145,0.549,0.771,0.644,2.138,0.438c-0.583,0.431-1.166,0.853-1.738,1.263
	c4.251-1.254,16.426-1.008,32.996-19.381c3.338-3.701,24.857-11.799,42.825,0.572c1.812,1.248-2.778-10.889-5.522-14.768
	c-0.811-1.146,9.364,4.238,18.689,0.689c1.942-0.789-8.221-9.305-5.128-13.99c3.092-4.687,13.966-9.801,15.126-11.362
	c1.163-1.563-12.119-11.232-14.506-21.343C558.827,387.596,572.818,382.856,577.439,372.324z"/>
<path fill="#AEB9D3" d="M430.669,210.307c0,0,3.442-12.18,3.434-14.03c-6.594,4.703-12.8,9.794-26.816,9.083
	c-1.559-0.362,3.461-8.971,3.025-18.312c-24.555,34.389-51.602,36.188-51.602,36.188c16.983,10.111,5.263,41.507,20.15,60.899
	c9.85,12.829,45.473,17.219,57.579-7.287c11.566-23.414-4.717-49.525,16.228-65.727
	C450.739,212.992,430.669,210.307,430.669,210.307z"/>
<path fill="#CBD9E0" d="M475.409,442.502c-1.632,10.519-6.623,22.221-19.492,29.291c-29.061,15.967-82.939,16.168-102.064,5.166
	c-13.862-7.975-19.176-22.098-20.328-27.932c0,0,0.288,7.123,0.48,12.504c0.109-0.085,0.218-0.159,0.326-0.244
	c0,0,3.156,32.49,65.978,31.797c0,0,54.316,2.074,70.168-26.617C470.818,465.846,475.448,454.18,475.409,442.502z"/>
<ellipse transform="matrix(1 -0.0048 0.0048 1 -1.5117 1.9064)" fill="#FDDAC1" cx="394.14" cy="314.087" rx="7.737" ry="3.649"/>
<path fill="#7C8397" d="M558.594,178.544c3.438-6.057,30.38-77.228,5.567-136.67c-2.884-6.912-25.369-40.545-44.905-28.202
	c-5.441,3.436-9.097,9.256-11.556,15.516c32.76-19.836,90.644,75.151,0.186,209.163c-1.812,2.687,6.143,9.835,11.994,16.818
	C520.905,246.979,536.886,216.789,558.594,178.544z"/>
<path fill="#7C8397" d="M275.013,61.958c4.019-23.434,29.371-43.741,47.318-35.262c-3.963-14.777-18.324-19.666-26.555-17.392
	c-6.412,1.773-41.548,22.003-39.678,87.396c0.148,5.074-4.481,38.562,50.427,122.774c2.559,3.925,5.711,17.015,6.523,20.507
	c7.301-3.681,15.728-8.55,15.728-8.55C265.204,126.628,270.468,88.45,275.013,61.958z"/>
<path fill="#7C8397" d="M379.637,203.547c-3.513-1.736-47.463-33.64-65.284-96.036c-2.268-7.94-8.823-13.388-12.889-8.696
	c-4.065,4.69-15.08,21.095,10.302,77.03c2.812,6.202,17.648,26.776,19.518,51.293c0.267,3.494,13.426-1.428,13.423-1.622
	c-0.001-0.195,17.462-11.375,22.116-14.901C371.478,207.09,379.637,203.547,379.637,203.547z"/>
<path fill="#626979" d="M342.372,225.962c-1.866-23.646-16.696-43.486-19.509-49.466c-24.678-52.47-14.93-68.869-10.635-73.891
	c-2.99-4.968-7.619-7.419-10.764-3.789c-4.065,4.69-15.08,21.095,10.302,77.03c2.812,6.202,17.648,26.776,19.518,51.293
	c0.197,2.589,7.469,0.559,11.225-0.747C342.439,226.265,342.386,226.126,342.372,225.962z"/>
<path fill="#CBD0E2" d="M382.352,201.588c1.366,1.014,4.505-0.659,7.668-3.254c-5.802-2.315-54.518-43.734-62.54-153.756
	c-0.205-2.855-0.998-7.421-2.545-12.36C319.8,56.716,314.629,164.737,382.352,201.588z"/>
<path fill="#CBD0E2" d="M506.382,32.933c-3.321,10.53-3.671,21.22-3.662,23.253c0.018,3.504-4.951,102.799-48.339,146.999
	c-0.296,0.302-0.872,0.494-1.629,0.603c3.783,1.554,7.579,2.625,11.577,4.021C518.362,151.488,510.562,58.349,506.382,32.933z"/>
<path fill="#CA6561" d="M383.098,435.941c14.019,0.71,17.983,15.484,17.983,15.484s3.442-12.077,9.634-19.117
	c-1.005,0.944-1.545,1.561-1.545,1.561s-19.546-17.035-37.786-5.268c-4.994,3.221-17.848,12.154-18.939,28.12
	c-0.188,2.764,4.342,13.825,17.129,17.005c-0.176-1.137-1.183-2.527-3.442-4.225C354.8,460.995,369.081,435.23,383.098,435.941z"/>
<path fill="#CA6561" d="M462.933,441.783c-0.252-6.625-19.098-18.641-25.397-19.342c-16.749-1.865-28.365,11.428-28.365,11.428
	s-0.153-0.131-0.422-0.351c-1.953,3.747-2.774,6.64-7.667,17.907c17.413-21.884,53.226-22.447,48.729,13.779
	C458.152,460.839,463.38,453.461,462.933,441.783z"/>
<ellipse transform="matrix(0.9968 -0.0794 0.0794 0.9968 -35.7701 33.5816)" fill="#F69C93" cx="404.559" cy="466.765" rx="24.818" ry="8.196"/>
<path fill="#626979" d="M577.439,372.324c0.385-1.17-18.354-11.591-24.624-20.125c-0.784-1.164,15.912-10.199,18.587-20.333
	c0.383-1.948-16.337,2.804-27.698-12.323c-0.665-1.964-3.581-9.861-7.314-19.818c-0.104,0-0.176,0.001-0.176,0.001
	c1.598,8.557,34.732,97.934-17.211,144.124c-0.768,0.683-1.356,1.284-1.834,1.804c8.715-2.389,21.793-2.939,33.399,5.051
	c1.812,1.248-2.778-10.889-5.522-14.768c-0.811-1.146,9.364,4.238,18.689,0.689c1.942-0.789-8.221-9.305-5.128-13.99
	c3.092-4.687,13.966-9.801,15.126-11.362c1.163-1.563-12.119-11.232-14.506-21.343C558.827,387.596,572.818,382.856,577.439,372.324
	z"/>
<path fill="#838BA0" d="M258.805,333.768c-9.911,2.968-51.431,62.916-56.744,99.546c-1.695,11.688,17.813,61.033,56.496,90.237
	c0.31,0.232,0.667,1.073,1.051,2.423c13.419-30.789,39.256-39.8,39.256-39.8s-71.693-12.884-78.117-53.341
	c-6.424-40.455,29.932-89.684,48.001-96.194C268.748,336.64,263.419,332.387,258.805,333.768z"/>
<path fill="#838BA0" d="M298.864,486.175c-4.668,0.806-19.431,7.105-34.898,28.203c-2.255,3.188-3.453,6.378-4.822,10.182
	c4.031,10.133,12.603,89.993-11.609,134.521c-3.118,5.735-18.959,24.423-22.448,27.165c-3.491,2.741-34.577,14.182-35.312,23.529
	c-0.547,6.959,1.542,21.02,17.751,30.572c-0.186-0.693-1.034-1.355-0.872-2.236c5.31-28.833,44.995-33.696,64.181-91.406
	C292.636,581.121,267.145,528.377,298.864,486.175z"/>
<path fill="#838BA0" d="M614.173,401.343c-2.399-13.225-16.658-63.375-53.354-84.609c-3.636-2.102-11.87-4.797-14.507,2.711
	c11.801,1.194,63.365,37.539,48.83,91.332c-17.836,66.029-75.272,51.752-75.272,51.752s34.349,18.521,44.571,39.492
	c-0.593-3.847,16.338-2.803,33.225-52.326C599.196,445.214,616.573,414.568,614.173,401.343z"/>
<path fill="#838BA0" d="M580.642,712.555c-3.093-1.982-28.115-17.772-24.432-61.002c3.686-43.229,16.672-94.68,8.23-149.531
	c-0.117-0.758,0.449-1.326,1.559-2.129c-19.484-24.532-46.13-37.363-46.13-37.363s34.486,46.557,21.737,147.058
	c-3.383,26.668-3.471,87.22,34.134,135.312c4.987,6.378,7.192,10.888,7.972,14.531c5.648-3.38,11.169-8.571,16.157-16.214
	C603.302,737.949,601.729,726.078,580.642,712.555z"/>
<path fill="#626979" d="M569.724,764.438c-0.336-0.213-0.692-0.424-1.096-0.632c-50.346-26.034-32.018-100.284-32.018-100.284
	s-32.036,17.09-49.535,20.678c3.5-0.795,34.382,25.917,36.352,30.579c1.97,4.661,8.604,34,13.039,39.645
	C539.799,758.666,553.937,766.739,569.724,764.438z"/>
<path fill="#626979" d="M288.469,671.145c0,0-22.716,11.79-30.769,37.522c-8.051,25.732-32.752,35.002-50.176,31.681h-0.001
	c5.565,3.277,12.783,6.029,22.146,7.774c4.606,0.86,25.309,1.046,34.489-32.479c1.951-7.123,25.555-28.541,46.554-33.704
	c0.431-0.104,1.596,0.083,3.43,0.478c0.047-0.192,0.074-0.3,0.074-0.3L288.469,671.145z"/>
<path fill="#A5B9C4" d="M410.341,514.447c45.258-5.881,61.624-28.082,66.861-44.85c-0.681-0.029-1.371-0.092-2.068-0.233
	c-3.894-0.785-10.752,31.196-67.201,30.691c-4.56-0.042-61.313,5.7-75.065-29.29C334.644,478.229,348.102,522.533,410.341,514.447z"
	/>
<path fill="#626979" d="M206.191,416.918c-1.953,5.771-3.394,11.309-4.13,16.396c-1.695,11.688,17.813,61.033,56.496,90.237
	c0.31,0.232,0.667,1.073,1.051,2.423c4.108-9.427,9.381-16.804,14.72-22.514C219.469,489.68,206.376,439.146,206.191,416.918z"/>
<path fill="#626979" d="M614.173,401.343c-0.366-2.024-1.017-4.919-1.977-8.437c-3.911,20.936-16.769,74.708-62.27,90.992
	c5.98,5.505,11.38,11.697,14.514,18.123c-0.593-3.847,16.338-2.803,33.225-52.326C599.196,445.214,616.573,414.568,614.173,401.343z
	"/>
<path fill="#340000" d="M417.985,405.018c-3.152-7.77-19.108-6.525-24.529-0.66c-4.7,5.088-9.82,15.916-9.687,19.902
	c7.1-0.788,16.15,0.152,24.132,8.642c0.809,1.202,6.572-5.237,15.585-8.659C423.281,421.576,420.739,411.803,417.985,405.018z"/>
<g>
	<path fill="#5F2420" d="M353.587,459.26c1.106-2.075,0.828-4.338,1.198-6.652c0.525-3.29,1.796-6.436,3.356-9.355
		c3.106-5.81,8.299-10.155,13.992-13.277c5.309-2.91,11.41-4.109,17.416-3.87c7.169,0.285,12.111,3.903,17.83,7.668
		c0.986,0.651,2.443-0.704,1.677-1.692c-8.597-11.111-25.798-10.576-37.321-5.266c-6.383,2.941-11.658,8.042-15.338,13.961
		c-2.707,4.352-6.571,13.672-3.518,18.488C353.04,459.515,353.438,459.541,353.587,459.26L353.587,459.26z"/>
</g>
<g>
	<path fill="#5F2420" d="M401.866,451.92c3.018-13.561,11.897-24.096,25.815-26.986c6.962-1.443,14.004-0.039,20.104,3.463
		c6.357,3.649,9.912,9.699,14.146,15.377c1.257,1.686,3.642,0.266,2.788-1.648c-6.168-13.855-21.108-23.401-36.311-20.661
		c-15.774,2.845-24.962,14.856-27.336,30.242C400.997,452.218,401.749,452.446,401.866,451.92L401.866,451.92z"/>
</g>
<g>
	<path fill="#5F2420" d="M373.901,372.899c-7.827,2.914-8.361,16.11-8.459,22.894c-0.148,10.406,1.254,22.109,4.312,32.098
		c0.654,2.144,3.545,1.178,3.248-0.914c-1.283-9.032-3.41-17.779-3.967-26.944c-0.288-4.804-0.154-9.647,0.712-14.386
		c0.841-4.586,3.066-7.262,5.554-10.944C375.889,373.832,374.898,372.527,373.901,372.899L373.901,372.899z"/>
</g>
<g>
	<path fill="#5F2420" d="M425.103,366.881c7.521,4.097,8.734,15.277,9.738,22.936c1.448,11.083,1.944,21.86,1.132,33.021
		c-0.161,2.26,3.358,2.23,3.513-0.018c0.875-12.561,0.082-24.814-1.891-37.231c-1.076-6.777-3.396-19.044-11.763-20.463
		C424.814,364.954,424.09,366.329,425.103,366.881L425.103,366.881z"/>
</g>
<g>
	<path fill="#4A4F5D" d="M396.894,334.018c3.17,8.325-2.082,21.523-7.293,28.031c-5.753,7.173-14.349,9.785-22.454,13.251
		c-5.435,2.325-11.348,5.282-14.849,10.257c-5.184,7.37-2.928,13.06-1.255,21.165c0.21,1.021,1.704,0.565,1.538-0.432
		c-1.692-10.106-0.241-18.331,8.751-24.167c6.533-4.242,14.312-6.07,21.14-9.742c7.081-3.811,12.147-10.229,14.806-17.728
		c2.103-5.933,4.254-15.428,0.57-21.044C397.54,333.134,396.671,333.438,396.894,334.018L396.894,334.018z"/>
</g>
<g>
	<path fill="#4A4F5D" d="M385.722,317.034c-12.971-2.03-25.471,7.097-34.02,15.922c-10.312,10.641-15.072,26.635-12.55,41.201
		c3.16,18.236,15.317,34.383,12.638,53.521c-2.076,14.851-7.524,28.25,4.998,40.109c1.801,1.707,4.548-1.098,2.697-2.722
		c-12.554-11.001-6.787-24.497-5.313-38.716c1.567-15.133-4.456-27.908-9.187-41.925c-5.145-15.238-3.149-31.763,6.134-44.938
		c6.997-9.931,21.46-20.478,34.146-18.956C387.251,320.77,387.693,317.343,385.722,317.034L385.722,317.034z"/>
</g>
<g>
	<path fill="#4A4F5D" d="M408.961,318.73c9.008-6.664,21.993-0.536,30.12,4.841c10.851,7.181,15.051,19.545,15.829,31.965
		c0.831,13.269-1.312,26.521-0.445,39.837c0.795,12.171,4.124,23.704,6.121,35.664c1.948,11.648,1.637,26.624-10.301,32.721
		c-4.81,2.456-10.491,3.318-15.721,4.433c-7.649,1.632-15.056,3.116-22.895,3.634c-9.738,0.643-19.792,1.389-29.552,1.397
		c-11.733,0.009-21.18-4.829-28.611-13.856c-0.892-1.082-2.572,0.32-1.892,1.475c5.894,9.984,14.957,14.811,26.384,15.949
		c5.382,0.535,10.853,0.018,16.221-0.414c7.292-0.584,14.603-0.459,21.895-1.045c12.355-0.996,27.7-3.479,38.534-9.939
		c10.392-6.197,10.964-21.015,9.754-31.544c-0.676-5.884-2.097-11.665-3.495-17.409c-2.209-9.09-3.117-18.301-3.284-27.635
		c-0.276-15.122,2.888-30.535-0.661-45.454c-2.748-11.575-10.762-20.441-21.01-25.997c-8.463-4.587-20.813-8.256-28.771-0.907
		C405.978,317.558,407.616,319.723,408.961,318.73L408.961,318.73z"/>
</g>
<g>
	<path fill="#4A4F5D" d="M397.515,349.739c-0.873,9.902,12.078,15.396,19.885,17.004c6.998,1.44,14.266-0.261,21.008,2.625
		c7.187,3.074,12.615,11.326,15.774,18.155c0.929,2.003,4.226,0.555,3.537-1.512c-3.25-9.739-13.091-20.613-23.706-21.747
		c-6.731-0.719-13.418-0.161-20.021-1.948c-7.652-2.068-11.064-6.759-15.285-12.906
		C398.331,348.868,397.572,349.103,397.515,349.739L397.515,349.739z"/>
</g>
<g>
	<path fill="#4A4F5D" d="M422.015,366.846c0.013-0.118,0.029-0.237,0.041-0.356c0.146-1.285-1.671-1.271-2.073-0.27
		c-1.38,3.436-1.214,8.563-1.705,12.188c-0.367,2.747-0.821,5.456-1.066,8.217c-0.401,4.518-3.275,5.577-7.188,6.863
		c-5.985,1.969-11.663,3.159-17.813,1.281c-7.547-2.304-9.725-16.057-10.995-22.698c-0.392-2.046-3.382-1.127-3.076,0.863
		c1.172,7.634,3.952,18.871,10.742,23.53c5.079,3.484,13.743,1.718,19.15-0.048c5.362-1.751,11.05-3.241,11.958-9.429
		c1.005-6.836,1.406-13.695,2.066-20.498c-0.69,0.097-1.381,0.194-2.069,0.291c0.02,0.114,0.038,0.229,0.058,0.343
		C420.256,368.336,421.898,367.871,422.015,366.846L422.015,366.846z"/>
</g>
<g>
	<path fill="#4A4F5D" d="M400.807,367.144c-1.438,9.54-0.53,19.163,0.396,28.709c0.229,2.361,3.962,2.338,3.695-0.018
		c-1.075-9.55-2.741-19.001-3.374-28.598C401.498,366.851,400.87,366.717,400.807,367.144L400.807,367.144z"/>
</g>
<g>
	<path fill="#4A4F5D" d="M451.227,275.035c20.568,1.513,42.881,14.372,47.587,35.625c2.327,10.501-1.023,22.713-8.124,30.665
		c-7.241,8.112-20.56,14.791-31.021,9.104c-2.404-1.306-4.51,2.333-2.125,3.674c10.446,5.871,23.108,1.699,31.921-5.36
		c10.452-8.376,15.31-21.053,14.37-34.367c-0.832-11.76-7.691-22.168-16.836-29.235c-10.539-8.147-22.734-11.083-35.779-11.291
		C450.447,273.836,450.473,274.979,451.227,275.035L451.227,275.035z"/>
</g>
<g>
	<path fill="#4A4F5D" d="M467.781,276.361c-11.111-2.342-18.592,10.248-21.633,19.008c-3.483,10.041-5.249,26.476,1.262,35.785
		c1.237,1.772,4.565,0.7,3.7-1.583c-3.695-9.765-4.454-19.277-2.316-29.593c1.031-4.968,2.936-9.706,5.797-13.897
		c3.279-4.801,7.936-6.543,13.198-8.268C468.457,277.594,468.55,276.522,467.781,276.361L467.781,276.361z"/>
</g>
<g>
	<path fill="#4A4F5D" d="M459.132,299.903c3.266-0.016,3.241-5.079-0.025-5.062C455.843,294.856,455.865,299.919,459.132,299.903
		L459.132,299.903z"/>
</g>
<g>
	<path fill="#4A4F5D" d="M351.152,270.211c-10.141,0.766-20.459,8.235-27.749,14.829c-8.607,7.788-14.613,18.196-16.802,29.587
		c-3.677,19.15,8.117,50.782,32.148,47.441c2.293-0.319,2.379-3.463-0.018-3.649c-22.956-1.787-31.97-27.523-26.929-47.317
		c2.434-9.553,8.163-18.036,15.065-24.923c7.271-7.255,15.837-10.256,24.506-15.162C351.736,270.812,351.59,270.178,351.152,270.211
		L351.152,270.211z"/>
</g>
<g>
	<path fill="#4A4F5D" d="M335.727,278.962c8.758-4.179,17.525,4.133,22.875,10.357c7.561,8.797,8.833,21.476,7.258,32.508
		c-0.349,2.446,3.313,3.546,3.787,1.025c2.454-13.014-0.481-27.064-9.323-37.103c-5.347-6.07-18.068-16.257-25.792-8.322
		C333.717,278.264,334.752,279.429,335.727,278.962L335.727,278.962z"/>
</g>
<g>
	<path fill="#4A4F5D" d="M341.956,301.014c5.473-0.026,5.433-8.511-0.04-8.484C336.445,292.556,336.485,301.041,341.956,301.014
		L341.956,301.014z"/>
</g>
<g>
	<path fill="#4A4F5D" d="M508.123,333.28c-1.622,11.493-11.985,16.399-22.275,18.722c-4.755,1.073-9.717,1.189-14.579,1.172
		c-3.227-0.013-8.545-1.704-11.379-0.11c-0.756,0.425-0.844,1.481-0.259,2.079c2.579,2.647,9.459,1.646,12.863,1.577
		c5.982-0.12,12.081-1.161,17.815-2.844c9.83-2.887,17.314-10.045,18.264-20.538C508.597,333.083,508.16,333.025,508.123,333.28
		L508.123,333.28z"/>
</g>
<g>
	<path fill="#4A4F5D" d="M507.049,353.362c-6.155,6.345-16.353,6.189-24.459,5.314c-4.987-0.538-10-1.622-14.849-2.895
		c-3.293-0.865-6.556-2.495-9.894-3.04c-1.472-0.24-2.588,1.383-1.475,2.562c2.478,2.623,6.979,3.458,10.347,4.257
		c5.661,1.343,11.418,1.927,17.227,2.05c7.307,0.155,20.531,0.429,23.635-7.939C507.698,353.362,507.261,353.144,507.049,353.362
		L507.049,353.362z"/>
</g>
<g>
	<path fill="#4A4F5D" d="M299.878,346.565c6.191,13.982,24.943,21.454,39.369,15.868c2.205-0.853,1.354-4.278-1.01-3.603
		c-14.251,4.073-29.314,0.409-37.848-12.567C300.175,345.937,299.726,346.222,299.878,346.565L299.878,346.565z"/>
</g>
<g>
	<path fill="#4A4F5D" d="M306.396,366.07c10.082,3.354,23.111,3.744,32.098-2.993c0.963-0.722,0.362-2.041-0.8-1.873
		c-4.448,0.641-8.669,3.03-13.001,4.316c-5.891,1.749-12.275,1.686-18.178,0.108C306.229,365.553,306.12,365.979,306.396,366.07
		L306.396,366.07z"/>
</g>
<g>
	<path fill="#4A4F5D" d="M329.749,444.375c-1.293,16.729,1.183,34.065,15.671,44.403c9.042,6.451,21.183,9.099,31.932,10.823
		c11.893,1.908,24.042,1.942,36.015,0.887c18.676-1.647,40.448-5.745,54.289-19.398c7.663-7.559,10.73-17.992,12.354-28.345
		c1.812-11.574,1.785-25.214-2.735-36.207c-0.383-0.933-2.052-0.925-1.925,0.271c1.134,10.68,3.16,20.57,2.131,31.396
		c-1.037,10.886-5.244,21.937-12.894,29.846c-12.434,12.854-34.317,16.266-51.241,18.027c-20.688,2.152-42.59,0.338-61.708-8.287
		c-17.806-8.033-19.779-26.256-21.386-43.418C330.219,444.051,329.774,444.051,329.749,444.375L329.749,444.375z"/>
</g>
<g>
	<path fill="#4A4F5D" d="M267.225,343.654c-1.115,8.791-4.631,15.276-11.767,20.636c-3.099,2.328-6.683,4.229-10.245,5.729
		c-2.774,1.168-5.954,1.412-8.504,2.988c-0.509,0.316-0.779,0.935-0.61,1.522c2.49,8.622,7.084,16.13,12.841,22.959
		c1.583,1.88,3.363,3.579,5.171,5.238c2.64,2.423,1.828,3.538,0.352,6.784c-1.094,2.399-2.804,4.565-4.444,6.598
		c-1.518,1.879-3.175,4.809-4.891,6.393c-0.314,0.293-0.354,0.803-0.146,1.163c4.637,7.964,13.508,10.134,22.047,11.528
		c-0.392-0.682-0.783-1.363-1.174-2.045c-2.447,8.233-8.749,12.425-16.038,16.104c-0.982,0.495-0.891,1.727-0.305,2.457
		c9.059,11.276,26.977,14.641,39.289,6.462c-0.777-0.441-1.554-0.882-2.33-1.323c-0.663,6.415-4.172,11.317-9.435,14.888
		c-0.672,0.457-0.699,1.405,0.011,1.85c16.335,10.266,40.292,4.68,54.636-6.503c2.233-1.741-0.2-4.88-2.393-3.068
		c-13.413,11.089-35.477,16.52-51.173,7.717c0.002,0.617,0.006,1.232,0.009,1.85c6.235-3.86,10.338-8.934,11.382-16.336
		c0.144-1.021-0.683-2.38-1.91-1.894c-12.52,4.984-26.566,5.545-35.887-5.862c-0.101,0.817-0.202,1.638-0.303,2.456
		c8.041-4.145,15.091-8.779,17.666-17.926c0.226-0.799-0.282-1.914-1.173-2.047c-2.715-0.403-24.307-5.648-19.093-10.184
		c5.231-4.551,9.532-10.611,10.717-17.522c0.136-0.788-0.117-1.337-0.745-1.808c-9.536-7.146-16.729-17.203-20.089-28.657
		c-0.55,0.555-1.098,1.109-1.648,1.664c7.23,1.263,16.405-5.206,21.434-9.783c6.008-5.466,10.667-13.858,9.511-22.133
		C267.919,343.074,267.276,343.266,267.225,343.654L267.225,343.654z"/>
</g>
<g>
	<path fill="#4A4F5D" d="M543.798,317.923c3.622,11.833,17.513,15.049,28.586,15.306c-0.455-0.782-0.907-1.563-1.361-2.345
		c-3.837,8.141-11.295,15.225-19.275,19.259c-0.76,0.383-1.148,1.636-0.604,2.342c7.109,9.21,15.333,16.671,26.262,21.005
		c-0.328-0.79-0.652-1.579-0.979-2.369c-4.318,7.989-10.191,13.567-18.53,17.16c-0.796,0.342-0.8,1.351-0.517,2.006
		c3.772,8.7,7.533,16.499,16.316,21.02c-0.115-0.849-0.229-1.696-0.342-2.545c-4.277,5.146-11.631,6.051-15.68,11.383
		c-4.456,5.865,2.933,12.509,5.923,16.739c0.15-0.589,0.302-1.176,0.452-1.765c-6.268,3.199-13.133,1.475-19.41-0.76
		c-1.146-0.408-2.333,1.11-1.608,2.112c3.663,5.056,7.093,11.345,9.608,17.024c0.254,0.585,1.148,0.155,0.996-0.426
		c-0.799-3.068-0.895-5.668-2.312-8.566c-1.65-3.369-3.545-6.508-5.822-9.489c-0.537,0.702-1.074,1.407-1.61,2.112
		c7.075,2.316,14.587,3.811,21.47,0.21c0.582-0.305,0.851-1.216,0.455-1.765c-4.005-5.547-9.347-12.18-1.504-16.793
		c4.068-2.393,8.308-3.951,11.348-7.736c0.605-0.759,0.674-2.042-0.342-2.543c-8.078-3.984-12.128-11.238-15.268-19.354
		c-0.338,0.602-0.676,1.205-1.012,1.806c9.273-3.558,15.051-9.952,20.188-18.213c0.436-0.7,0.188-1.842-0.59-2.207
		c-10.042-4.704-17.787-11.002-24.546-19.788c-0.202,0.781-0.4,1.562-0.603,2.343c8.481-4.286,16.394-11.875,20.24-20.64
		c0.462-1.051-0.076-2.349-1.359-2.345c-9.307,0.031-23.854-2.425-27.607-12.452C544.54,317.055,543.603,317.296,543.798,317.923
		L543.798,317.923z"/>
</g>
<g>
	<path fill="#4A4F5D" d="M474.749,470.117c14.507,1.353,24.717-12.219,35.801-19.307c11.447-7.318,31.867-6.824,41.838,3.141
		c0.706,0.704,2.044-0.015,1.71-1.008c-3.991-11.898-25.607-11.054-35.347-9.34c-17.178,3.021-25.808,23.565-44.014,24.233
		C473.244,467.891,473.307,469.982,474.749,470.117L474.749,470.117z"/>
</g>
<g>
	<path fill="#4A4F5D" d="M264.271,357.778c6.442-8.345,6.154-21.661,7.97-31.622c2.673-14.668,6.207-29.745,12.165-43.455
		c5.583-12.844,13.779-24.676,23.523-34.697c10.619-10.922,23.265-15.497,36.586-22.013c0.865-0.421,0.188-1.529-0.604-1.415
		c-26.956,3.887-48.847,28.058-60.582,51.092c-6.55,12.855-10.053,27.106-13.114,41.124c-2.873,13.154-2.542,27.548-7.55,40.059
		C262.316,357.725,263.697,358.522,264.271,357.778L264.271,357.778z"/>
</g>
<g>
	<path fill="#4A4F5D" d="M556.925,327.861c-4.502-3.205-8.379-5.962-11.459-10.674c-2.725-4.171-4.317-9.021-5.784-13.744
		c-3.062-9.863-5.812-20.088-9.929-29.58c-4.326-9.988-8.06-20.093-15.017-28.647c-6.793-8.354-15.283-14.954-25.444-18.613
		c-0.619-0.222-0.99,0.736-0.434,1.044c11.09,6.164,20.647,14.416,27.694,24.991c6.776,10.169,10.6,20.835,14.487,32.3
		c4.745,13.995,6.2,41.906,25.558,44.157C557.321,329.18,557.394,328.194,556.925,327.861L556.925,327.861z"/>
</g>
<g>
	<path fill="#4A4F5D" d="M380.153,205.579c14.169-6.401,29.408-17.049,35.613-31.849c-0.893-0.237-1.784-0.474-2.674-0.71
		c0.123,7.51,0.656,15.008-0.974,22.407c-0.212,0.952,0.431,1.672,1.354,1.763c10.717,1.044,21.703-2.346,30.549-8.339
		c-0.786-0.599-1.572-1.198-2.359-1.795c-1.702,5.079-3.531,10.115-5.266,15.184c-0.716,2.088,2.49,2.872,3.259,0.882
		c1.927-4.995,3.463-10.135,5.099-15.23c0.414-1.293-1.21-2.597-2.361-1.796c-8.384,5.841-18.671,9.167-28.934,8.299
		c0.455,0.587,0.905,1.176,1.358,1.763c1.579-7.63,1.179-15.409,1.14-23.151c-0.006-1.404-1.985-1.978-2.673-0.711
		c-7.802,14.349-20.641,23.104-34.154,31.555C378.011,204.552,378.995,206.102,380.153,205.579L380.153,205.579z"/>
</g>
<g>
	<path fill="#4A4F5D" d="M437.112,204.5c2.76,0.403,5.586,0.255,8.373,0.424c1.704,0.105,3.384,0.297,5.045,0.708
		c1.154,0.284,1.688,0.447,2.718-0.229c0.46-0.3,0.698-0.826,0.55-1.368c-0.704-2.58-4.176-2.442-6.393-2.621
		c-3.323-0.269-7.021,0.07-10.305,0.623C435.884,202.243,435.88,204.321,437.112,204.5L437.112,204.5z"/>
</g>
<g>
	<path fill="#4A4F5D" d="M453.27,205.643c7.67-4.434,13.074-11.922,17.646-19.321c6.74-10.903,11.441-23.156,15.598-35.232
		c10.229-29.725,15.887-61.394,18.356-92.682c1.171-14.835,3.263-46.791,24.425-45.444c13.288,0.846,23.637,13.112,29.896,23.648
		c6.655,11.2,10.579,24.327,12.191,37.208c1.743,13.939,0.818,28.547-0.375,42.492c-1.448,16.937-4.729,33.747-10.026,49.903
		c-5.418,16.52-14.272,31.12-23.066,45.986c-7.84,13.252-16.809,27.969-19.043,43.489c-0.251,1.742,2.165,2.053,2.377,0.311
		c1.078-8.964,5.655-16.217,9.838-23.964c4.24-7.851,9.117-15.352,13.864-22.901c8.647-13.749,15.92-28.142,20.978-43.594
		c9.354-28.574,13.281-61.822,9.645-91.743c-2.714-22.314-12.506-47.821-32.598-59.931c-7.65-4.61-17.459-6.396-25.487-1.798
		c-7.3,4.181-10.78,13.066-12.918,20.724c-3.12,11.158-3.486,22.864-4.583,34.327c-1.869,19.527-5.417,38.878-10.241,57.883
		c-4.258,16.755-9.647,33.4-17.084,49.028c-4.923,10.345-11.128,22.322-21.25,28.468C449.402,203.72,451.228,206.823,453.27,205.643
		L453.27,205.643z"/>
</g>
<g>
	<path fill="#4A4F5D" d="M476.985,215.569c-6.186-6.864-19.082-13.403-28.447-13.118c-1.553,0.048-1.779,2.172-0.346,2.646
		c4.854,1.603,9.73,2.553,14.486,4.569c4.686,1.985,9.047,4.658,13.702,6.692C476.896,216.584,477.384,216.01,476.985,215.569
		L476.985,215.569z"/>
</g>
<g>
	<path fill="#4A4F5D" d="M466.473,209.768c14.521-3.22,24.151-19.068,30.858-31.059c9.108-16.282,14.611-33.524,20.646-51.067
		c1.445-4.197,5.436-15.477,11.541-10.47c4.692,3.85,5.071,11.847,5.31,17.323c0.519,11.734-2.474,23.52-6.084,34.589
		c-3.691,11.307-8.83,21.668-14.688,31.988c-5.735,10.107-11.601,20.04-14.768,31.302c-0.495,1.766,2.188,2.47,2.732,0.738
		c4.014-12.808,11.089-24.418,17.584-36.076c5.855-10.511,10.555-21.247,14.017-32.779c3.432-11.46,5.326-23.559,4.045-35.51
		c-0.69-6.447-3.732-16.264-11.619-16.492c-8.59-0.248-11.795,14.113-13.695,20.029c-3.263,10.139-6.801,19.972-11.067,29.731
		c-7.149,16.353-17.138,39.06-35.591,44.985C463.927,207.568,464.667,210.168,466.473,209.768L466.473,209.768z"/>
</g>
<g>
	<path fill="#4A4F5D" d="M389.276,194.917c-9.068-5.358-15.475-14.463-21.157-23.085c-8.108-12.306-14.417-25.834-19.842-39.503
		c-6.108-15.39-10.751-31.356-14.078-47.569c-2.7-13.155-3.506-26.447-5.312-39.71c-2.06-15.143-7.428-37.695-26.63-37.588
		c-23.61,0.132-37.672,28.235-43.312,47.374c-8.347,28.311-4.665,60.478,4.573,88.072c5.472,16.346,13.085,31.784,22.067,46.463
		c4.657,7.613,9.646,15.014,14.199,22.695c5.091,8.59,10.814,17.325,12.127,27.43c0.228,1.74,2.643,1.406,2.374-0.333
		c-2.394-15.52-11.487-30.106-19.445-43.313c-9.189-15.255-17.847-30.164-24.335-46.824c-10.685-27.45-15.409-59.731-8.715-88.74
		c2.981-12.923,8.464-25.68,17.117-35.827c7.113-8.338,20.151-17.267,31.367-11.672c8.449,4.214,11.327,16.469,13.137,24.82
		c2.301,10.604,2.561,21.514,4.101,32.229c4.021,27.976,12.107,55.505,24.134,81.095c7.961,16.947,18.784,37.595,35.802,47.146
		C389.503,199.232,391.3,196.114,389.276,194.917L389.276,194.917z"/>
</g>
<g>
	<path fill="#4A4F5D" d="M381.762,201.567c-8.968-2.707-16.025-10.085-22.206-16.767c-7.869-8.506-14.587-18.201-20.828-27.937
		c-4.704-7.335-9.299-14.929-12.746-22.953c-3.066-7.14-5.137-14.648-7.656-21.986c-1.716-4.999-3.758-11.903-8.697-14.739
		c-8.771-5.035-13.646,5.987-15.062,12.906c-2.777,13.547,1.119,28.742,5.284,41.567c8.485,26.115,30.287,49.438,30.613,77.819
		c0.022,1.825,2.803,1.809,2.828-0.014c0.362-24.344-16.652-44.641-25.651-66.12c-5.504-13.137-9.723-27.044-10.449-41.334
		c-0.361-7.091-0.032-15.796,5.087-21.277c6.678-7.149,12.291,12.064,13.593,16.016c3.141,9.531,6.183,18.864,10.923,27.73
		c4.699,8.791,10.228,17.139,16.071,25.205c5.767,7.957,12.108,15.571,19.111,22.471c5.213,5.137,11.699,10.616,19.035,12.187
		C382.818,204.729,383.54,202.104,381.762,201.567L381.762,201.567z"/>
</g>
<g>
	<path fill="#4A4F5D" d="M259.061,522.967c4.116,49.365,9.566,109.078-23.66,150.333c-7.751,9.621-16.933,14.269-27.763,19.626
		c-7.6,3.76-18.596,8.889-20.266,18.251c-1.828,10.235,7.344,20.733,14.078,27.199c8.256,7.931,18.054,11.337,29.462,11.427
		c7.254,0.059,14.098-2.273,19.682-6.88c6.396-5.278,9.316-14.401,12.744-21.672c4.278-9.075,9.62-16.686,18.021-22.394
		c9.514-6.465,19.488-11.99,30.392-15.613c1.165-0.387,0.671-2.209-0.518-1.844c-14.515,4.444-28.045,9.648-39.264,20.338
		c-9.813,9.352-13.298,23.039-20.402,34.198c-7.61,11.952-27.835,11.623-38.965,5.53c-9.157-5.012-22.989-18.576-21.023-30.146
		c0.854-5.028,6.732-8.508,10.66-10.927c5.182-3.193,10.781-5.702,16.206-8.444c9.792-4.949,17.285-12.077,23.724-20.944
		c14.777-20.348,20.354-46.164,22.478-70.768c2.25-25.986,0.277-51.914-4.288-77.454C260.228,522.051,259,522.227,259.061,522.967
		L259.061,522.967z"/>
</g>
<g>
	<path fill="#4A4F5D" d="M563.772,500.466c4.047,32.196,1.781,64.597-2.842,96.583c-3.484,24.103-9.361,49.709-5.898,74.139
		c1.482,10.459,4.795,20.461,10.599,29.332c6.095,9.312,16.288,14.965,24.538,22.146c3.942,3.433,8.795,7.909,9.263,13.444
		c0.54,6.35-6.021,12.369-10.301,16.102c-10.432,9.096-22.174,12.35-35.716,9.609c-9.143-1.852-15.857-7.512-18.779-16.368
		c-2.846-8.63-4.288-17.646-7.699-26.1c-6.955-17.239-23.297-27.458-38.863-35.88c-1.087-0.588-2.033,1.048-0.959,1.66
		c13.727,7.811,28.742,19.594,35.863,34.111c5.879,11.99,4.82,27.03,13.479,37.644c7.392,9.062,20.746,11.052,31.667,10.206
		c10.367-0.801,20.228-7.848,27.398-14.93c6.817-6.736,10.785-15.518,5.241-24.197c-6.09-9.537-17.376-15.409-25.777-22.633
		c-17.766-15.279-17.97-42.951-16.171-64.289c1.829-21.674,6.092-43.09,8.529-64.699c2.886-25.614,3.125-50.842-2.274-76.062
		C564.915,499.561,563.679,499.723,563.772,500.466L563.772,500.466z"/>
</g>
<g>
	<path fill="#4A4F5D" d="M288.313,672.48c15.283,8.991,32.999,13.489,50.289,16.82c22.188,4.275,44.875,6.133,67.456,6.182
		c23.721,0.052,47.465-2.422,70.661-7.388c20.559-4.4,43.163-11.163,60.196-23.925c0.994-0.744,0.145-2.287-1-1.688
		c-19.334,10.136-38.695,17.784-60.092,22.424c-22.861,4.958-46.433,6.517-69.784,6.504c-38.949-0.021-80.774-4.601-116.63-20.825
		C288.146,670.012,287.073,671.751,288.313,672.48L288.313,672.48z"/>
</g>
<g>
	<path fill="#4A4F5D" d="M269.794,336.882c-14.127-24.448-49.263,44.084-53.625,52.524c-7.829,15.152-17.277,33.07-16.517,50.367
		c0.496,11.31,7.207,22.046,12.647,31.637c6.505,11.465,13.889,22.455,22.229,32.667c6.943,8.501,14.972,16.651,24.698,21.927
		c0.947,0.515,2.479,0.311,2.963-0.792c7.28-16.626,20.079-31.894,36.843-39.518c0.402-0.183,0.05-0.767-0.347-0.588
		c-17.603,7.841-32.342,19.885-40.251,37.937c0.986-0.264,1.974-0.528,2.96-0.791c-21.813-11.834-36.698-36.916-48.27-58.018
		c-6.727-12.266-11.444-23.759-7.798-37.997c2.087-8.147,5.395-16.109,8.94-23.736c4.325-9.304,39.842-82.204,53.054-64.156
		C268.394,339.812,270.743,338.52,269.794,336.882L269.794,336.882z"/>
</g>
<g>
	<path fill="#4A4F5D" d="M519.702,463.605c18.732,8.514,32.017,23.571,44.969,38.967c0.532,0.631,1.61,0.691,2.279,0.282
		c18.885-11.56,25.423-36.742,34.114-55.647c5.616-12.219,12.948-24.48,14.467-38.101c1.425-12.777-2.528-24.056-7.529-35.652
		c-7.489-17.362-17.163-32.985-30.703-46.167c-7.055-6.867-25.989-23.596-33.388-8.368c-1.121,2.312,2.308,4.328,3.479,2.009
		c6.59-13.049,27.001,8.809,32.142,14.188c11.741,12.285,20.091,27.521,26.691,43.092c4.602,10.859,6.806,22.551,4.563,34.214
		c-2.468,12.84-9.645,24.426-14.916,36.234c-3.855,8.64-7.188,17.451-11.468,25.907c-4.679,9.247-10.357,19.413-19.364,25.055
		c0.76,0.095,1.52,0.188,2.28,0.282c-13.587-15.811-27.415-29.66-47.354-36.922C519.599,462.846,519.351,463.444,519.702,463.605
		L519.702,463.605z"/>
</g>
<g>
	<path fill="#4A4F5D" d="M496.87,460.383c11.558,17.904,16.932,39.135,20.309,59.949c3.863,23.779,4.353,48.46,1.165,72.346
		c-2.367,17.761-6.791,38.535-19.72,51.854c-5.695,5.867-14.064,8.838-21.579,11.569c-9.878,3.591-20.139,6.123-30.45,8.115
		c-23.642,4.57-48.392,5.875-72.281,2.534c-20.636-2.885-43.039-10.066-56.188-27.252c-13.481-17.617-14.775-42.557-13.94-63.816
		c0.938-23.852,5.814-47.598,12.575-70.441c3.696-12.499,7.632-27.113,15.561-37.738c1.453-1.947-1.827-3.804-3.26-1.885
		c-8.822,11.826-13.014,28.412-17.01,42.322c-6.449,22.462-10.622,45.833-11.51,69.205c-0.786,20.72,1.215,43.43,12.615,61.332
		c10.564,16.59,29.807,25.035,48.265,29.377c22.511,5.295,46.337,5.019,69.172,2.28c20.022-2.4,40.33-6.904,58.692-15.429
		c14.732-6.839,21.999-20.627,26.764-35.568c6.627-20.777,8.049-43.336,7.515-65.004c-0.783-31.551-5.746-68.624-25.104-94.69
		C497.769,458.508,496.214,459.361,496.87,460.383L496.87,460.383z"/>
</g>
<g>
	<path fill="#4A4F5D" d="M356.348,217.857c0.234-0.001,0.233-0.366-0.001-0.365C356.11,217.493,356.114,217.857,356.348,217.857
		L356.348,217.857z"/>
</g>
<g>
	<path fill="#4A4F5D" d="M358.315,217.455c5.05-3.383,10.32-6.395,15.719-9.182c4.828-2.489,10.772-4.171,14.912-7.71
		c0.668-0.572-0.077-1.458-0.783-1.331c-5.314,0.959-10.61,4.467-15.363,6.954c-5.488,2.869-10.681,6.141-15.014,10.592
		C357.452,217.122,357.899,217.735,358.315,217.455L358.315,217.455z"/>
</g>
<g>
	<path fill="#4A4F5D" d="M276.755,681.438c9.786,2.79,21.237,5.525,31.354,2.414c1.229-0.378,1.024-2.34-0.319-2.283
		c-10.322,0.424-20.583,1.129-30.87-0.748C276.521,680.746,276.354,681.323,276.755,681.438L276.755,681.438z"/>
</g>
<g>
	<path fill="#4A4F5D" d="M532.02,680.378c-0.901,0.056-1.667,0.202-2.042,1.104c-0.105,0.254,0.07,0.604,0.389,0.501
		c0.54-0.173,1.092-0.264,1.661-0.237C532.91,681.787,532.901,680.323,532.02,680.378L532.02,680.378z"/>
</g>
<g>
	<path fill="#4A4F5D" d="M527.939,681.885c-13.374,0.119-26.468,3.357-39.866,1.376c-1.991-0.294-2.821,2.753-0.825,3.039
		c13.688,1.958,27.38-1.094,40.792-3.7C528.452,682.521,528.344,681.881,527.939,681.885L527.939,681.885z"/>
</g>
<g>
	<path fill="#4A4F5D" d="M214.199,700.854c-9.697,5.543-24.036,9.49-23.754,23.322c0.029,1.468,2.397,1.887,2.645,0.344
		c1.019-6.363,3.422-10.645,8.698-14.461c4.128-2.987,8.678-5.523,12.921-8.341C215.244,701.361,214.763,700.529,214.199,700.854
		L214.199,700.854z"/>
</g>
<g>
	<path fill="#4A4F5D" d="M212.378,721.314c-3.181,2.643-5.483,5.788-7.262,9.523c-1.198,2.521-2.61,7.366-0.396,9.615
		c0.361,0.371,1.038,0.293,1.288-0.172c0.551-1.027,0.589-1.276,0.5-2.479c-0.152-2.046,0.43-4.038,0.957-5.987
		c0.978-3.607,3.185-6.992,5.757-9.666C213.763,721.588,212.956,720.834,212.378,721.314L212.378,721.314z"/>
</g>
<g>
	<path fill="#4A4F5D" d="M572.998,728.041c5.764,1.174,10.646,1.914,14.831,6.548c1.894,2.095,3.594,4.113,4.926,6.619
		c1.318,2.48,1.203,5.197,2.158,7.749c0.584,1.555,2.85,1.727,3.344-0.018c1.708-6.044-3.615-13.21-8.102-16.699
		c-4.265-3.315-11.709-6.508-17.161-5.123C572.548,727.23,572.528,727.945,572.998,728.041L572.998,728.041z"/>
</g>
<g>
	<path fill="#4A4F5D" d="M576.344,745.452c2.155,1.656,3.929,4.024,4.926,6.548c0.52,1.312,0.735,2.717,0.806,4.117
		c0.062,1.191-0.311,2.105,0.141,3.223c0.271,0.672,1.145,1.066,1.716,0.445c1.948-2.111,0.646-6.433-0.434-8.738
		c-1.454-3.1-3.396-5.33-6.649-6.473C576.373,744.405,575.925,745.132,576.344,745.452L576.344,745.452z"/>
</g>
<g>
	<path fill="#4A4F5D" d="M316.581,681.798c-16.052,11.09,2.575,37.28,18.056,36.456c0.732-0.039,0.78-0.955,0.156-1.209
		c-6.882-2.83-12.727-6.164-16.694-12.766c-1.756-2.92-2.815-6.068-3.113-9.455c-0.387-4.396,1.839-7.304,3.636-11.008
		C319.215,682.588,317.902,680.885,316.581,681.798L316.581,681.798z"/>
</g>
<g>
	<path fill="#4A4F5D" d="M334.207,711.692c-2.686,15.771,16.417,28.593,30.538,22.978c2.007-0.797,1.222-3.555-0.9-3.207
		c-7.202,1.18-12.991,1.33-19.316-2.83c-5.935-3.9-7.903-10.491-9.529-16.945C334.903,711.311,334.277,711.283,334.207,711.692
		L334.207,711.692z"/>
</g>
<g>
	<path fill="#4A4F5D" d="M454.711,705.857c3.249,4.185,9.731,1.389,13.032-1.171c4.674-3.622,7.92-9.802,7.555-15.759
		c-0.145-2.336-3.764-2.341-3.65,0.018c0.217,4.469-1.6,8.682-4.441,12.063c-1.587,1.889-3.592,3.339-5.917,4.161
		c-2.14,0.756-4.257,0.227-6.423,0.414C454.745,705.595,454.616,705.74,454.711,705.857L454.711,705.857z"/>
</g>
<g>
	<path fill="#4A4F5D" d="M429.896,737.241c7.309,8.911,18.277,7.194,26.969,0.817c10.018-7.347,14.391-20.506,9.584-32.079
		c-1.062-2.559-4.686-1.021-3.495,1.494c4.776,10.093,0.729,20.064-7.229,27.073c-6.568,5.785-18.332,9.038-25.41,2.273
		C430.03,736.55,429.656,736.95,429.896,737.241L429.896,737.241z"/>
</g>
<g>
	<path fill="#4A4F5D" d="M396.994,742.354c1.466,6.933,11.101,9.89,17.108,10.637c9.062,1.125,18.491-2.503,24.25-9.535
		c1.37-1.676-0.905-4.05-2.434-2.406c-5.463,5.878-12.053,8.631-20.062,8.66c-3.972,0.013-7.711-1.113-11.124-3.077
		c-2.489-1.431-4.081-3.9-6.64-5.134C397.489,741.207,396.853,741.688,396.994,742.354L396.994,742.354z"/>
</g>
<g>
	<path fill="#4A4F5D" d="M358.315,734.147c-4.18,9.577,6.356,18.399,14.379,20.86c10.057,3.084,21.957,0.136,28.542-8.211
		c1.624-2.061-1.293-4.972-2.918-2.889c-5.257,6.74-14.199,9.526-22.528,8.229c-4.059-0.634-7.821-2.451-10.82-5.245
		c-3.784-3.529-3.784-8.149-5.527-12.603C359.272,733.856,358.554,733.602,358.315,734.147L358.315,734.147z"/>
</g>
<g>
	<path fill="#4A4F5D" d="M315.039,280.026c9.611-14.456,21.451-26.131,37.9-32.371c2.389-0.905,1.368-4.747-1.087-3.866
		c-16.978,6.094-29.253,20.271-37.682,35.734C313.857,280.097,314.682,280.562,315.039,280.026L315.039,280.026z"/>
</g>
<g>
	<path fill="#4A4F5D" d="M493.594,268.773c-6.519-14.026-23.305-23.387-37.821-26.378c-2.933-0.604-4.153,3.897-1.216,4.493
		c7.408,1.501,14.302,4.325,20.796,8.182c6.611,3.924,11.656,9.505,17.598,14.205C493.319,269.567,493.794,269.208,493.594,268.773
		L493.594,268.773z"/>
</g>
<g>
	<path fill="#5F2420" d="M408.015,319.596c4.957-4.108,2.469-9.29-2.764-11.325c-5.828-2.265-14.275-1.318-19.333,2.376
		c-7.339,5.359-0.034,11.25,5.43,13.924c3.07,1.503,7.169,3.11,10.442,1.26c3.991-2.255,7.467-6.232,8.517-10.729
		c0.354-1.529-1.675-2.359-2.509-1.043c-1.546,2.435-3.246,4.871-5.267,6.926c-3.015,3.072-5.997,2.124-9.464,0.614
		c-1.706-0.743-7.203-3.25-6.789-5.664c0.312-1.812,2.267-2.854,3.749-3.577c3.646-1.777,8.357-1.864,12.291-1.307
		c4.988,0.706,6.434,3.058,4.438,7.583C406.386,319.475,407.298,320.188,408.015,319.596L408.015,319.596z"/>
</g>
</svg>
