<?xml version="1.0" encoding="utf-8"?>
<!-- Generator: Adobe Illustrator 14.0.0, SVG Export Plug-In . SVG Version: 6.00 Build 43363)  -->
<!DOCTYPE svg PUBLIC "-//W3C//DTD SVG 1.1//EN" "http://www.w3.org/Graphics/SVG/1.1/DTD/svg11.dtd">
<svg version="1.1" id="Layer_1" xmlns="http://www.w3.org/2000/svg" xmlns:xlink="http://www.w3.org/1999/xlink" x="0px" y="0px"
	 width="800px" height="780px" viewBox="0 0 800 780" enable-background="new 0 0 800 780" xml:space="preserve">
<g>
	<g>
		<path fill="#377C2C" d="M249.005,495.366c-1.912-2.646-12.478-32.865-10.244-40.923c2.23-8.057-44.77,13.831-45.237,25.446
			c18.286-0.329,30.458,5.368,46.487,21.975L249.005,495.366z"/>
		<path fill="#3E8531" d="M194.755,477.333c19.598-1.221,31.527,6.162,46.209,23.691l5.545-4.306
			c-1.856-2.57-14.848-29.392-12.24-42.35C230.081,452.155,198.131,467.696,194.755,477.333z"/>
		<path fill="#469035" d="M195.985,474.773c20.908-2.109,32.6,6.961,45.934,25.411l2.096-2.116
			c-1.804-2.493-17.219-25.916-14.238-43.775C219.171,457.924,202.27,467.118,195.985,474.773z"/>
	</g>
	<g>
		<path fill="#1B5717" d="M258.182,508.062c0.59-3.646-5.538-13.513-7.591-13.845c-2.047-0.328-13.256,3.945-13.755,9.94
			c-0.497,5.999,6.532,14.613,6.532,14.613L258.182,508.062z"/>
		<path fill="#286621" d="M255.747,508.765c0.449-2.78-4.225-10.307-5.791-10.562c-1.562-0.249-10.112,3.011-10.492,7.585
			c-0.381,4.575,4.98,11.148,4.98,11.148L255.747,508.765z"/>
		<path fill="#337629" d="M253.312,509.468c0.311-1.917-2.91-7.102-3.99-7.279c-1.078-0.175-6.969,2.075-7.231,5.229
			c-0.262,3.152,3.433,7.681,3.433,7.681L253.312,509.468z"/>
	</g>
	<g>
		<path fill="#438B33" d="M192.659,491.203c3.32-0.484,6.574-1.751,9.479-3.852c0.742-0.531,1.434-1.113,2.085-1.72
			c6.417,0.512,13.043-1.156,18.671-5.224c6.68-4.83,10.608-12.051,11.454-19.646c7.644,0.102,15.384-2.163,22.054-6.988
			c12.725-9.194,17.838-24.999,14.052-39.321c4.173-1.343,8.21-3.344,11.952-6.048c19.14-13.833,23.441-40.562,9.609-59.702
			c-13.83-19.138-40.561-23.441-59.7-9.606c-3.253,2.348-6.067,5.081-8.446,8.074c-10.275-4.796-22.775-4.033-32.621,3.081
			c-1.162,0.839-2.242,1.745-3.257,2.702c-9.1-2.476-19.194-0.974-27.435,4.979c-10.175,7.354-14.791,19.531-13,31.141
			c-2.833,1.007-5.569,2.416-8.128,4.264c-6.718,4.857-11.013,11.816-12.644,19.32c-1.532,0.772-3.023,1.667-4.459,2.706
			c-14.467,10.455-17.719,30.652-7.262,45.118c3.678,5.09,8.563,8.781,13.98,10.989c0.418,5.173,2.212,10.299,5.475,14.817
			c4.062,5.619,9.75,9.372,15.954,11.09c0.671,2.267,1.73,4.461,3.19,6.486c6.969,9.639,20.435,11.808,30.077,4.841
			C189.575,504.486,192.665,497.895,192.659,491.203z"/>
		<path fill="#4D9B3A" d="M191.323,476.823c2.85-0.418,5.641-1.503,8.137-3.306c0.637-0.456,1.229-0.955,1.787-1.476
			c5.508,0.439,11.192-0.993,16.022-4.483c5.732-4.146,9.106-10.343,9.831-16.858c6.559,0.086,13.198-1.857,18.926-5.997
			c10.917-7.892,15.306-21.453,12.059-33.746c3.58-1.152,7.045-2.868,10.258-5.189c16.424-11.873,20.115-34.81,8.246-51.233
			c-11.87-16.426-34.809-20.119-51.233-8.247c-2.792,2.018-5.207,4.36-7.249,6.931c-8.818-4.114-19.545-3.462-27.995,2.644
			c-0.997,0.72-1.923,1.498-2.794,2.32c-7.809-2.125-16.474-0.836-23.544,4.271c-8.731,6.312-12.694,16.761-11.158,26.725
			c-2.429,0.863-4.778,2.071-6.972,3.657c-5.768,4.169-9.451,10.141-10.852,16.583c-1.314,0.662-2.596,1.43-3.827,2.32
			c-12.415,8.974-15.204,26.305-6.231,38.718c3.156,4.369,7.349,7.537,11.998,9.432c0.358,4.439,1.898,8.839,4.697,12.717
			c3.486,4.823,8.365,8.042,13.693,9.518c0.574,1.945,1.483,3.828,2.734,5.565c5.983,8.272,17.541,10.134,25.814,4.153
			C188.677,488.222,191.329,482.564,191.323,476.823z"/>
		<path fill="#57AA40" d="M189.989,462.442c2.377-0.349,4.707-1.253,6.791-2.76c0.529-0.382,1.025-0.798,1.491-1.232
			c4.597,0.369,9.344-0.828,13.376-3.741c4.784-3.459,7.6-8.634,8.205-14.073c5.475,0.071,11.017-1.55,15.797-5.005
			c9.115-6.588,12.775-17.908,10.064-28.168c2.989-0.962,5.883-2.396,8.564-4.332c13.709-9.912,16.79-29.057,6.882-42.767
			c-9.908-13.712-29.055-16.795-42.765-6.885c-2.331,1.686-4.347,3.641-6.052,5.786c-7.358-3.435-16.315-2.891-23.368,2.205
			c-0.832,0.601-1.605,1.253-2.33,1.938c-6.52-1.775-13.754-0.699-19.654,3.565c-7.289,5.268-10.595,13.99-9.313,22.308
			c-2.028,0.72-3.988,1.729-5.819,3.052c-4.814,3.48-7.891,8.466-9.059,13.843c-1.098,0.554-2.169,1.194-3.193,1.938
			c-10.366,7.491-12.693,21.956-5.204,32.319c2.634,3.646,6.136,6.291,10.017,7.871c0.299,3.707,1.583,7.38,3.92,10.617
			c2.912,4.025,6.984,6.711,11.43,7.944c0.48,1.623,1.238,3.194,2.283,4.646c4.994,6.904,14.642,8.459,21.549,3.466
			C187.778,471.958,189.994,467.233,189.989,462.442z"/>
		<path fill="#60BA46" d="M188.655,448.062c1.904-0.281,3.772-1.006,5.445-2.214c0.423-0.307,0.822-0.641,1.193-0.988
			c3.688,0.296,7.496-0.665,10.729-3c3.838-2.774,6.096-6.926,6.581-11.288c4.39,0.057,8.834-1.243,12.669-4.012
			c7.309-5.286,10.245-14.364,8.073-22.594c2.396-0.771,4.717-1.922,6.868-3.474c10.995-7.951,13.466-23.304,5.518-34.299
			c-7.944-10.998-23.302-13.472-34.296-5.521c-1.869,1.351-3.484,2.917-4.854,4.641c-5.902-2.755-13.085-2.319-18.743,1.768
			c-0.667,0.481-1.287,1.005-1.868,1.554c-5.229-1.423-11.032-0.561-15.762,2.86c-5.849,4.226-8.498,11.22-7.471,17.892
			c-1.628,0.576-3.199,1.386-4.666,2.447c-3.863,2.793-6.33,6.789-7.267,11.102c-0.88,0.445-1.739,0.959-2.562,1.553
			c-8.312,6.011-10.177,17.61-4.171,25.92c2.111,2.925,4.92,5.047,8.033,6.313c0.238,2.975,1.27,5.921,3.142,8.516
			c2.337,3.229,5.601,5.383,9.169,6.371c0.385,1.304,0.992,2.563,1.83,3.728c4.008,5.537,11.743,6.784,17.283,2.779
			C186.881,455.694,188.659,451.904,188.655,448.062z"/>
	</g>
	<g>
		<path fill="#A16421" d="M331.306,631.144c7.895-3.918,3.172-13.166,0.722-24.079c-2.45-10.911-31.052-88.099-45.276-97.748
			c-14.225-9.653-61.119,0.677-54.828,26.938c6.295,26.259,70.273,79.684,78.678,86.295
			C319.001,629.162,323.303,635.113,331.306,631.144z"/>
		<path fill="#BD752A" d="M329.778,628.424c6.873-3.41,1.984-11.519-0.147-21.016c-2.136-9.501-28-75.706-40.383-84.107
			c-12.383-8.402-51.462-0.341-45.983,22.521c5.479,22.858,61.174,69.367,68.487,75.121
			C319.067,626.699,322.812,631.883,329.778,628.424z"/>
		<path fill="#D98532" d="M328.251,625.705c5.852-2.903,0.797-9.87-1.016-17.956c-1.82-8.087-24.949-63.311-35.488-70.464
			c-10.544-7.154-41.807-1.358-37.143,18.103c4.664,19.457,52.076,59.051,58.302,63.949
			C319.134,624.235,322.321,628.649,328.251,625.705z"/>
		<path fill="#F7973A" d="M326.723,622.985c4.83-2.396-0.391-8.223-1.887-14.895c-1.501-6.675-21.894-50.917-30.593-56.821
			c-8.701-5.903-32.146-2.376-28.3,13.682c3.849,16.06,42.979,48.737,48.116,52.778C319.2,621.773,321.829,625.418,326.723,622.985z
			"/>
	</g>
	<g>
		<path fill="#A16421" d="M252.95,537.516c-2.633,0.476-5.202,1.713-7.707,2.636c-2.021,0.746-4.87,1.604-4.991,4.064
			c-0.021,0.454,0.142,1.04,0.647,1.193c2.539,0.754,3.811-1.228,5.711-2.709c2.107-1.645,4.506-3.175,6.424-5.029
			C253.093,537.613,253.024,537.503,252.95,537.516L252.95,537.516z"/>
	</g>
	<g>
		<path fill="#A16421" d="M255.284,554.045c-1.236,0.628-2.637,0.911-3.904,1.471c-1.382,0.612-2.592,1.267-3.9,2.026
			c-2.089,1.215,0.875,4.385,2.23,2.347c0.676-1.011,1.783-1.671,2.691-2.462c1.063-0.93,2.158-1.824,3.207-2.779
			C255.868,554.409,255.659,553.856,255.284,554.045L255.284,554.045z"/>
	</g>
	<g>
		<path fill="#A16421" d="M277.073,532.696c5.55-1.533,10.982-2.734,16.688-3.647c1.027-0.164,1.619-0.795,1.885-1.77
			c0.184-0.671-0.034-0.995-0.373-1.578c-0.346-0.591-1.257-0.985-1.922-0.867c-5.945,1.035-11.486,4.149-16.615,7.228
			C276.361,532.288,276.704,532.799,277.073,532.696L277.073,532.696z"/>
	</g>
	<g>
		<path fill="#A16421" d="M288.989,551.376c5.521-1.733,10.719-4.09,16.162-5.966c2.081-0.721,0.846-4.019-1.188-3.191
			c-5.511,2.241-9.803,6.257-15.174,8.619C288.452,550.991,288.638,551.488,288.989,551.376L288.989,551.376z"/>
	</g>
	<g>
		<path fill="#A16421" d="M304.81,569.008c1.492-0.025,2.897-0.847,4.246-1.42c1.722-0.729,3.381-1.492,5.004-2.42
			c1.896-1.089-0.129-3.955-2.011-2.778c-1.481,0.925-2.729,2.072-4.062,3.197c-1.139,0.956-2.513,1.695-3.514,2.799
			C304.233,568.651,304.505,569.012,304.81,569.008L304.81,569.008z"/>
	</g>
	<g>
		<path fill="#D98532" d="M313.498,580.703c-3.937,2.693-9.188,4.601-12.446,8.095c-0.359,0.387,0.131,1.045,0.604,0.84
			c4.345-1.892,8.542-5.424,12.356-8.223C314.473,581.079,313.966,580.382,313.498,580.703L313.498,580.703z"/>
	</g>
	<g>
		<path fill="#A16421" d="M323.489,602.333c0.398-0.231,0.788-0.148,1.159-0.338c0.415-0.206,0.825-0.418,1.237-0.627
			c0.824-0.414,1.814-0.549,2.545-1.122c1.65-1.29-0.158-3.796-1.906-2.634c-0.696,0.463-1.043,1.225-1.618,1.819
			c-0.317,0.334-0.654,0.653-0.983,0.98c-0.371,0.372-0.529,0.885-0.924,1.236C322.589,602.008,323.022,602.604,323.489,602.333
			L323.489,602.333z"/>
	</g>
	<g>
		<path fill="#A16421" d="M304.678,601.929c-0.305,0.233-1.684,0.701-2.243,0.963c-0.812,0.381-1.578,0.911-2.37,1.331
			c-1.446,0.776-2.953,1.278-4.341,2.184c-1.564,1.021,0.16,3.42,1.7,2.353c1.257-0.87,2.388-1.843,3.569-2.803
			c0.71-0.579,1.477-1.086,2.191-1.658c0.748-0.604,0.967-1.451,1.673-2.118C304.994,602.048,304.84,601.806,304.678,601.929
			L304.678,601.929z"/>
	</g>
	<g>
		<path fill="#A16421" d="M282.506,571.808c-4.787,3.088-10.431,5.403-15.466,8.132c-2.05,1.107,0.107,4.203,2.149,2.975
			c2.282-1.372,4.562-2.776,6.716-4.347c2.545-1.852,4.559-4.263,7.005-6.203C283.259,572.091,282.88,571.567,282.506,571.808
			L282.506,571.808z"/>
	</g>
	<g>
		<path fill="#A16421" d="M320.335,616.593c-1.604,0.324-2.988,1.31-4.416,2.068c-1.469,0.784-3.07,1.258-4.488,2.087
			c-1.676,0.977,0.258,3.706,1.77,2.446c1.231-1.024,2.205-2.04,3.588-2.905c1.401-0.877,2.985-1.66,3.863-3.105
			C320.795,616.951,320.682,616.521,320.335,616.593L320.335,616.593z"/>
	</g>
	<g>
		<path fill="#A16421" d="M326.913,624.239c0.964,0.139,1.898-0.091,2.881,0.076c0.883,0.153,2.188,0.025,3.062-0.156
			c1.579-0.333,1.363-2.448-0.244-2.479c-0.908-0.015-1.819,0.323-2.685,0.576c-0.411,0.126-0.762,0.358-1.128,0.58
			c-0.596,0.354-1.343,0.354-1.96,0.669C326.52,623.666,326.498,624.179,326.913,624.239L326.913,624.239z"/>
	</g>
</g>
<path fill="#AEB9D3" d="M316.298,413.865c3.098-4.645,10.84-27.869,3.613-58.317c-1.358-5.727-1.031-35.096,14.45-51.61
	c9.11-9.717,21.16-23.74,37.16-18.063c17.704,6.282,25.288,6.71,33.546,0c0,0,17.547-15.999,23.223-18.579
	c5.678-2.581,36.127-11.87,74.834,14.45c8.756,5.954,30.967,27.87,40.256,58.319c0.672,2.207,19.611,12.902,30.449-3.097
	c2.668-3.939,8.773-9.29,8.773-9.29s-1.549,19.095-1.549,21.16c0,2.064,10.838,0.516,12.902,0s-9.289,11.354-9.289,11.354
	l25.805,13.934c0,0-11.871,8.774-13.936,9.29c-2.063,0.517,10.322,19.612,10.322,19.612l-10.838-1.032
	c0,0,7.225,13.417,6.709,16.515c-0.516,3.096-13.418,4.128-13.418,4.128l4.645,7.741c0,0-28.385-7.741-43.351,0
	c-3.075,1.592-22.192,26.321-71.737,26.321c-6.73,0-22.709,3.097-26.32,5.16c-3.613,2.065-26.322,25.805-56.254,17.548
	c-3.52-0.971-22.322,13.236-43.869,3.097c-8.773-4.129-17.029,4.129-17.547,4.646c-0.517,0.515-2.58-22.193-2.58-22.193
	L321.46,472.7l1.549-21.16l-12.902,3.613c0,0,2.58-15.999,4.129-17.031c1.547-1.033-10.322,0.516-10.322,0.516l6.709-11.354
	c0,0-8.258-6.192-8.258-7.74C312.687,419.026,316.298,413.865,316.298,413.865z"/>
<path fill="#7C8397" d="M509.833,343.677c1.227,6.678,3.613,31.481-37.158,35.61c-6.695,0.679-54.717-12.751-37.676-59.867
	C443.772,295.165,500.544,293.1,509.833,343.677z"/>
<path fill="#9BA4BC" d="M328.685,307.378c1.377-4.129,6.538-20.644,32.688-37.503c3.621-2.335-3.441-6.536-3.441-6.536
	s12.729,1.375,27.181-4.129c-0.345-1.032-8.603-8.258-8.603-8.258s23.396,5.505,28.901,3.097c0,0-3.096-9.977-3.784-11.354
	c-0.688-1.376,25.461,12.043,61.588-1.72c2.062-1.376-10.26-130.435,37.33-189.922c10.322-12.902,58.834-42.32,76.381,3.612
	c8.098,21.196,1.549,79.479-27.869,185.276c0,0-8.773,28.386-5.16,44.9c0.803,3.671,22.709,20.128,29.934,52.126
	c0.455,2.013-17.031,14.967-29.418,5.16c-2.592-2.051-18.578-66.575-83.607-78.445c-7.125-1.301-26.836-1.032-37.157,6.192
	c-10.323,7.226-19.612,18.58-26.837,20.645c-7.227,2.064-24.773-6.193-29.934-6.193
	C344.685,285.874,328.685,307.378,328.685,307.378z"/>
<path fill="#858DA2" d="M484.028,254.393c0,0,4.484-112.03,19.771-146.241c14.449-32.34,50.232-21.33,41.975,32.343
	c-7.176,46.652-31.555,123.705-31.555,123.705L484.028,254.393z"/>
<path fill="#7C8397" d="M370.659,263.34c0,0-35.094-83.607-45.415-109.412c-2.231-5.578-20.644-33.028-46.792-20.3
	c-5.268,2.565-23.051,16.517-11.697,60.9c1.994,7.803,48.168,97.37,50.919,102.875c2.753,5.505,5.85,19.954,5.85,23.739
	c0,3.784,6.194-17.893,10.666-24.772c4.474-6.882,13.763-18.58,27.183-26.495c3.44-2.062-3.441-6.536-3.441-6.536L370.659,263.34z"
	/>
<path fill="#FFFFFF" d="M468.03,312.195c2.836-0.031,26.492,11.698,24.771,36.815c-0.473,6.898-6.193,27.524-23.051,27.868
	c-3.115,0.063-28.559,1.032-35.783-25.116C431.284,342.054,438.097,312.541,468.03,312.195z"/>
<path fill="#C1D0D8" d="M468.03,312.195c-29.934,0.346-36.746,29.858-34.062,39.567c7.225,26.148,32.668,25.18,35.783,25.116
	c16.857-0.344,22.578-20.97,23.051-27.868C494.522,323.894,470.866,312.164,468.03,312.195z M489.377,344.904
	c-0.39,5.872-5.118,23.428-19.05,23.72c-2.574,0.056-23.6,0.88-29.571-21.377c-2.218-8.263,3.411-33.382,28.149-33.675
	C471.249,313.545,490.8,323.527,489.377,344.904z"/>
<path fill="#FFFFFF" d="M379.778,368.448c-1.033-1.29-15.74-12.9-25.547-2.579c-4.389,4.62-3.613,14.966-0.517,20.901
	c0.862,1.65,13.419-8.772,27.612-10.064C385.456,377.224,379.778,368.448,379.778,368.448z"/>
<path fill="#C1D0D8" d="M358.618,378.255c-2.492-4.777,1.037-12.893,7.889-16.419c-4.121-0.64-8.551,0.113-12.275,4.033
	c-4.389,4.62-3.613,14.966-0.517,20.901c0.862,1.65,13.419-8.772,27.612-10.064c1.737,0.217,1.729-1.214,1.148-2.94
	C369.036,375.246,359.449,379.848,358.618,378.255z"/>
<path fill="#FFFFFF" d="M389.239,418.511c0,0,12.73,25.805,13.763,26.836c1.032,1.032,9.978-4.816,9.978-4.816
	s13.418,0.344,15.482,0c2.064-0.345,6.883-3.441,3.441-25.805c-0.534-3.468-18.234,4.473-29.589-6.882
	C397.497,415.758,389.239,418.511,389.239,418.511z"/>
<path fill="#7C8397" d="M384.767,487.323c-3.508,0.002-43.695-2.752-49.201,46.792c-4.473-0.688-35.094-7.569-43.352,34.406
	c0,0-16.514,11.698,2.064,39.568c3.02,4.526,17.547,2.407,17.547-12.731c0-5.848,0-4.473,0-4.473s17.893,15.14,49.89,9.29
	c6.358-1.162,44.04-18.58,34.751-107.347C395.888,487.311,386.487,487.321,384.767,487.323z"/>
<path fill="#9BA4BC" d="M372.381,598.455c-13.075,0.688-70.876,34.062-27.868,101.153c-13.419-3.439-29.739,0.068-30.967,14.796
	c-0.344,4.129,5.85,57.802,103.906,24.084c3.711-1.275,37.16,17.892,109.756,11.011c4.11-0.389,102.602-20.938,130.74-76.366
	c22.707-44.725,39.221-178.221-59.18-251.849c-6.16-4.608-9.457,1.354-9.457,1.354l4.645,7.741c0,0-21.338-7.031-41.291-2.216
	c-4.818,2.753-19.273,28.227-90.838,29.604c-7.57,1.375-30.277,29.588-65.533,21.642c-4.654-0.312-11.537,5.194-20.481,5.884
	C429.485,517.633,372.381,598.455,372.381,598.455z"/>
<path fill="#AEB9D3" d="M598.769,421.284c-6.16-4.608-9.457,1.354-9.457,1.354l4.645,7.741c0,0-21.338-7.031-41.291-2.216
	c-4.818,2.753-19.273,28.227-90.838,29.604c-1.168,0.212-2.699,1.064-4.579,2.324c-0.021,0.061-0.034,0.1-0.034,0.1
	c8.061-1.771,80.158-0.667,114.033,45.028c29.59,39.912,44.041,105.971,11.008,146.562c0,0,23.48,32.143,46.168,54.966
	c12.318-9.391,22.885-20.529,29.525-33.615C680.655,628.408,697.169,494.912,598.769,421.284z"/>
<path fill="#8890A6" d="M524.284,746.229c-34.578-19.096-6.709-49.546-6.709-49.546c-11.871-33.03,15.998-42.835,22.707-44.383
	c9.807-24.773,28.385-13.419,28.385-13.419s5.045-4.576,12.135-6.845c-9.559-2.655-28.133-12.25-40.52,4.264
	c-5.174,6.898-11.869,12.902-24.256,18.579c-10.543,4.833-17.375,15.654-13.934,35.611c3.439,19.957-3.066,28.589-3.613,35.094
	c-1.377,16.344,19.465,24.792,28.729,23.914c0.309-0.029,1.152-0.173,2.447-0.435C527.233,747.898,525.364,746.825,524.284,746.229z
	"/>
<path fill="#CBD0E2" d="M598.769,421.284c-6.16-4.608-9.457,1.354-9.457,1.354l4.645,7.741c0,0-15.574-5.125-32.553-3.617
	c97.582,49.549,107.902,177.54,69.322,278.192c11.328-9.006,20.998-19.561,27.223-31.822
	C680.655,628.408,697.169,494.912,598.769,421.284z"/>
<path fill="#CBD9E0" d="M568.667,638.882c0,0-18.578-11.354-28.385,13.419c-6.709,1.548-34.578,11.353-22.707,44.383
	c0,0-27.869,30.45,6.709,49.546c4.652,2.568,23.74,13.934,39.738,3.611c3.613,3.098,20.645,20.646,44.9-0.515
	c2.75-2.4,29.934,14.966,40.771-16c0.854-2.436,17.55-10.838,6.71-24.771c3.098-4.646,14.967-23.741-7.74-35.611
	c0-2.58,3.611-21.16-17.032-27.353c-2.966-0.89-14.45-22.708-30.448-10.321C585.7,623.399,568.667,638.882,568.667,638.882z"/>
<g>
	<path fill="#AEB9D3" d="M564.401,700.018c-13.447-37.42,18.126-48.528,25.729-50.283c2.994-7.566,6.713-12.155,10.545-14.825
		c-15.346-11.157-32.008,3.973-32.008,3.973s-18.578-11.354-28.385,13.419c-6.709,1.548-34.578,11.353-22.707,44.383
		c0,0-27.869,30.45,6.709,49.546c4.586,2.532,23.201,13.599,39.059,4.021C538.085,728.782,564.401,700.018,564.401,700.018z"/>
	<path fill="#AEB9D3" d="M613.62,631.732c-1.84-0.363-3.793-0.346-5.846,0.174C609.837,631.521,611.817,631.522,613.62,631.732z"/>
</g>
<path fill="#7C8397" d="M484.028,254.393c0,0,3.098-93.413,31.482-139.344c4.238-6.858,20.127-7.743,19.611,16.515
	c-0.516,24.256-16.773,90.315-20.902,132.636C501.317,260.069,484.028,254.393,484.028,254.393z"/>
<path fill="#5C6272" d="M515.511,115.049c-0.321,0.519-0.635,1.051-0.949,1.582c5.041,1.227,9.838,6.934,9.551,20.438
	c-0.482,22.643-12.048,70.875-27.188,121.107c3.395,1.1,14.109,5.003,17.295,6.023c4.129-42.32,20.387-108.38,20.902-132.636
	C535.638,107.306,519.749,108.19,515.511,115.049z"/>
<path fill="#B7C2DD" d="M543.38,340.064c-9.289-30.449-31.5-52.365-40.256-58.319c-38.707-26.32-69.156-17.031-74.834-14.45
	c-2.336,1.062-6.684,4.398-10.99,7.955c24.41-7.955,103.199,5.808,111.973,84.77c0.525,4.73,0.172,81.714-62.791,89.457
	c-4.217,0.844-7.4,6.854-9.268,10.715c6.332-1.744,16.601-3.49,21.654-3.49c49.545,0,68.662-24.729,71.737-26.321
	c0.483-0.251,0.983-0.483,1.495-0.702c6.092-10.794,19.012-35.776,1.223-84.611C547.858,343.881,543.689,341.078,543.38,340.064z"/>
<g>
	<path fill="#9BA4BC" d="M596.536,383.416c2.064-0.516,13.936-9.29,13.936-9.29l-25.805-13.934c0,0,11.354-11.87,9.289-11.354
		s-12.902,2.064-12.902,0c0-2.065,1.549-21.16,1.549-21.16s-6.105,5.351-8.773,9.29c-8.105,11.965-20.738,9-26.877,5.821
		c10.283,23.241,21.016,61.663-0.779,91.422c2.334-2.042,3.764-3.484,4.433-3.831c14.966-7.741,43.351,0,43.351,0l-4.645-7.741
		c0,0,12.902-1.032,13.418-4.128c0.516-3.098-6.709-16.515-6.709-16.515l10.838,1.032
		C606.858,403.028,594.473,383.933,596.536,383.416z"/>
</g>
<g>
	<path fill="#9BA4BC" d="M596.536,383.416c2.064-0.516,13.936-9.29,13.936-9.29l-25.805-13.934c0,0,11.354-11.87,9.289-11.354
		s-12.902,2.064-12.902,0c0-2.065,1.549-21.16,1.549-21.16s-6.105,5.351-8.773,9.29c-8.105,11.965-20.738,9-26.877,5.821
		c10.283,23.241,21.016,61.663-0.779,91.422c2.334-2.042,3.764-3.484,4.433-3.831c14.966-7.741,43.351,0,43.351,0l-4.645-7.741
		c0,0,12.902-1.032,13.418-4.128c0.516-3.098-6.709-16.515-6.709-16.515l10.838,1.032
		C606.858,403.028,594.473,383.933,596.536,383.416z"/>
</g>
<path fill="#7C8397" d="M573.829,336.968c-7.139-31.615-28.594-48.05-29.881-51.979c-4.762-3.148-12.439-7.373-12.439-7.373
	s29.934,37.676,18.064,52.642c-4.303,5.426-11.354-3.096-11.354-3.096s-0.009,0.318-0.015,0.867
	c3.674,7.955,5.477,13.52,6.207,14.099C556.798,351.935,574.284,338.98,573.829,336.968z"/>
<path fill="#7C8397" d="M593.956,430.38l-4.645-7.741c-14.967-2.063-30.449-19.61-30.449-19.61s-2.581,15.482-8.257,27.352
	C565.571,422.639,593.956,430.38,593.956,430.38z"/>
<path fill="#F59183" d="M396.81,362.772c-2.301-0.191-12.387-1.549-14.451,6.193c-2.064,7.74,4.129,9.806,9.807,10.321
	c5.676,0.516,17.546,2.063,25.804-12.387c2.829-4.948-2.063-5.677-6.192-6.192S403.002,363.288,396.81,362.772z"/>
<g>
	<path fill="#C07369" d="M393.712,368.621c0.947-3.549,3.58-5.175,6.375-5.888c-1.045,0.105-2.135,0.134-3.277,0.039
		c-2.301-0.191-12.387-1.549-14.451,6.193c-2.064,7.74,4.129,9.806,9.807,10.321c2.676,0.243,6.73,0.714,11.133-0.369
		C397.683,378.369,391.675,376.263,393.712,368.621z"/>
</g>
<path fill="#CBD9E0" d="M383.046,377.567c-2.752,0-12.041,0.344-17.545,6.192c-4.67,4.96-17.549,16.859-8.604,28.214
	s25.117,9.633,32.342,6.537c7.227-3.098,13.075-10.667,13.075-10.667s7.913,6.882,29.589,6.882c2.773,0,32.342-7.913,36.127-34.75
	c0.626-4.442-19.955,1.375-32.686-22.708c-5.506-0.345-13.42,3.44-15.828,6.537c-2.408,3.096-5.16,21.676-32.686,14.794
	C385.628,378.299,383.046,377.567,383.046,377.567z"/>
<path fill="#A5B9C4" d="M468.03,379.976c0.626-4.442-19.955,1.375-32.686-22.708c-5.506-0.345-13.42,3.44-15.828,6.537
	c-1.926,2.477-4.086,14.841-18.942,16.182c-1.052,0.854-1.7,1.364-1.7,1.364c5.16,0.345,13.762-2.063,18.578-3.783
	c4.819-1.722,23.74-5.85,26.15,6.535c2.408,12.388-9.979,33.72-41.977,21.333c-1.115-0.431-1.209,0.968,0.021,3.221
	c0.426-0.504,0.667-0.812,0.667-0.812s7.913,6.882,29.589,6.882C434.677,414.726,464.245,406.812,468.03,379.976z"/>
<path fill="#F5F5F6" d="M394.056,414.382c-9.289,4.473-25.804,3.097-26.836-12.73c-1.031-15.826,19.611-20.987,24.428-20.299
	c0,0-1.088-0.99-2.626-2.256c-0.716-0.149-1.439-0.311-2.19-0.498c-1.203-0.3-3.785-1.031-3.785-1.031
	c-2.752,0-12.041,0.344-17.545,6.192c-4.67,4.96-17.549,16.859-8.604,28.214s25.117,9.633,32.342,6.537
	c1.549-0.663,3.027-1.539,4.407-2.494C395.038,414.507,395.394,413.739,394.056,414.382z"/>
<path fill="#E9E7DC" d="M402.932,408.419c-0.556,0.102-0.944,0.174-1.136,0.21c-0.033,0.049-0.063,0.099-0.098,0.145
	c0.741,1.662,9.961,22.457,11.283,30.381c0.053,0.326,0.777,0.838,1.883,1.419c3.768,0.08,12.016,0.22,13.598-0.043
	c2.064-0.345,6.883-3.441,3.441-25.805C431.38,411.319,414.299,418.903,402.932,408.419z"/>
<path fill="#7C8397" d="M491.427,375.158c-8.945,23.74-34.752,35.095-47.654,40.255c-9.715,3.888,5.162,34.578-28.908,25.16
	c0.18-0.731,17.727,3.743,18.07-5.203c0.346-8.946-0.688-19.27-1.031-20.645c-0.344-1.374,35.783-10.666,36.127-34.75
	C476.976,384.449,491.427,375.158,491.427,375.158z"/>
<path fill="#7C8397" d="M357.844,355.289c0,0-20.128,18.579-10.321,37.934c0.494,0.976,6.451-5.162,6.451-5.162
	s-5.678-8.773-1.807-20.643C353.786,362.449,357.844,355.289,357.844,355.289z"/>
<path fill="#7C8397" d="M357.844,355.289c0,0,6.969-7.483,25.547,0c7.603,3.062,20.921,2.671,28.901,0.259
	c11.096-3.355,17.805-8.001,19.869-15.483c0.258,6.967,2.064,14.192,2.838,15.999c0.775,1.807-8.256,0.515-15.482,7.741
	c-1.289,1.548-2.064-3.355-6.193-3.612c-4.129-0.259-10.321,4.129-21.418,1.806c-2.956-0.619-8.773,2.58-9.547,6.968
	c-0.502,2.841-12.387-16.258-28.127-3.097C351.136,368.966,357.844,355.289,357.844,355.289z"/>
<path fill="#7C8397" d="M357.931,414.727c3.096,3.44,13.074,11.354,26.148,11.354c3.785,0,14.451,10.322,14.451,10.322
	s-7.227-15.481-8.258-17.202C371.005,424.016,357.931,414.727,357.931,414.727z"/>
<path fill="#9BA4BC" d="M396.81,290.52c0,0-0.1-0.09-0.297-0.243c-5.609,1.264-12.367-0.058-22.854-3.655
	c-3.826,0.671-8.141,1.889-12.977,3.898c-33.545,13.935-33.03,59.351-32.514,69.155c0.516,9.806-6.193,9.806,0,59.352
	c6.192,49.545,82.738,77.932,113.016,52.47c-9.633,0.688-30.279,10.323-55.74-8.943c-67.048-55.176-23.213-79.137-23.213-79.137
	s-7.879,5.213-8.517,3.354c-12.128-35.353-2.839-58.061,2.323-69.415C363.089,301.845,389.583,293.1,396.81,290.52z"/>
<path fill="#7C8397" d="M335.22,393.739c6.48-25.925-11.7-48.169,5.503-81.199c14.392-27.632,38.122-24.067,30.799-26.666
	c-16-5.677-28.05,8.347-37.16,18.063c-15.481,16.515-15.809,45.884-14.45,51.61c7.227,30.448-0.516,53.673-3.613,58.317
	c0,0-3.611,5.161-13.934,5.678c0,1.548,8.258,7.74,8.258,7.74l-6.709,11.354c0,0,11.869-1.549,10.322-0.516
	c-1.549,1.032-4.129,17.031-4.129,17.031l12.902-3.613l-1.549,21.16l10.838-7.742c0,0,2.063,22.708,2.58,22.193
	c0.518-0.517,8.773-8.774,17.547-4.646c21.547,10.14,40.35-4.067,43.869-3.097C353.8,464.614,322.836,443.283,335.22,393.739z"/>
<path fill="#CBD0E2" d="M509.317,309.098c3.613-29.416-44.9-54.705-84.549-39.648c-7.328,5.143-19.701,16.425-19.701,16.425
	c-3.119,2.535-6.145,4.05-9.652,4.616c-0.754,0.669-1.186,1.062-1.186,1.062c30.448-7.741,21.504,28.558,30.448,14.106
	C437.961,284.2,470.095,269.875,509.317,309.098z"/>
<ellipse transform="matrix(0.9632 -0.2689 0.2689 0.9632 -106.0771 131.307)" fill="#CBD0E2" cx="426.227" cy="452.831" rx="14.81" ry="8.558"/>
<path fill="#CBD0E2" d="M540.282,327.678c-28.557-72.253-92.195-72.773-109.066-66.748c-19.383,6.922-29.924,17.625-37.141,29.915
	c1.014-0.003,1.939-0.098,2.734-0.325c7.225-2.064,16.514-13.419,26.837-20.645c10.321-7.225,30.032-7.493,37.157-6.192
	c48.443,8.842,69.668,46.9,78.416,66.589C540.185,329.323,540.587,328.445,540.282,327.678z"/>
<path fill="#CBD0E2" d="M576.925,54.665c-16.645-43.571-61.148-19.342-74.49-5.723c30.271-17.17,55.365-9.231,59.172,21.366
	c8.777,70.532-35.773,202.663-35.773,202.663s14.369,10.663,19.652,14.3c-0.9-1.082-1.473-1.896-1.59-2.43
	c-3.613-16.515,5.16-44.9,5.16-44.9C578.474,134.144,585.022,75.861,576.925,54.665z"/>
<path fill="#7C8397" d="M465.966,248.199c0,0-2.471-7.413-2.752-7.225c-36.127,13.763-62.275,0.344-61.588,1.72
	c0.688,1.378,3.784,11.354,3.784,11.354c-5.505,2.408-28.901-3.097-28.901-3.097s8.258,7.226,8.603,8.258
	c-14.451,5.504-27.181,4.129-27.181,4.129s7.062,4.201,3.441,6.536c-26.149,16.859-31.311,33.374-32.688,37.503
	c0,0,4.027-5.411,10.842-10.998c7.184-6.957,15.572-12.307,24.769-12.569c18.063-0.517,24.257-2.065,39.739-21.676
	C419.2,242.923,465.966,248.199,465.966,248.199z"/>
<path fill="#AEB9D3" d="M596.536,383.416c2.064-0.516,13.936-9.29,13.936-9.29l-25.805-13.934c0,0,11.354-11.87,9.289-11.354
	s-12.902,2.064-12.902,0c0-2.065,1.549-21.16,1.549-21.16s-6.105,5.351-8.773,9.29c-5.298,7.819-12.529,9.262-18.615,8.435
	c3.766,1.117,8.355,2.296,11.785,2.353c0.148,2.104-1.723,5.967-1.236,7.469c0.977,2.997,3.143,1.917,4.143,4.11
	c2.1,4.607,0.729,9.025,4.25,12.234c5.31,4.838,8.289,0.128,8.639,9.784c0.082,2.275-1.467,5.476-1.205,7.588
	c0.336,2.688,2.779,4.164,3.285,6.896c0.967,5.218-0.244,7.144,1.344,12.487c0.668,2.251,2.92,3.813,3.623,6.04
	c0.801,2.531-1.645,4.374-0.547,6.898c0.201,0.459,0.457,0.891,0.744,1.31c2.721-0.272,12.25-1.408,12.691-4.062
	c0.516-3.098-6.709-16.515-6.709-16.515l10.838,1.032C606.858,403.028,594.473,383.933,596.536,383.416z"/>
<path fill="#5C6272" d="M351.046,274.691c0,0-29.59-74.317-39.223-74.317c-6.881,0-8.947,9.635-7.571,16.515
	c1.378,6.883,12.388,44.041,30.967,75.006C340.035,287.077,351.046,274.691,351.046,274.691z"/>
<path fill="#3C3F4C" d="M309.071,212.073c7.96,0,29.552,50.758,36.806,68.376c2.913-3.222,5.169-5.758,5.169-5.758
	s-29.59-74.317-39.223-74.317c-6.143,0-8.438,7.67-7.884,14.213C305.196,213.045,306.89,212.073,309.071,212.073z"/>
<path fill="#9BA4BC" d="M325.244,153.928c-2.231-5.578-20.644-33.028-46.792-20.3c-4.377,2.131-17.381,12.144-15.145,40.925
	c4.211-13.57,12.643-27.813,25.119-26.477c19.267,2.063,36.471,30.277,70.877,121.109c0.191,0.507,0.43,1.02,0.707,1.532
	c0.451-0.281,0.898-0.569,1.361-0.843c3.44-2.062-3.441-6.536-3.441-6.536l12.729,0.001
	C370.659,263.34,335.565,179.732,325.244,153.928z"/>
<ellipse transform="matrix(0.9488 -0.3158 0.3158 0.9488 -94.5196 148.5056)" fill="#F9C2B8" cx="410.916" cy="365.869" rx="5.505" ry="3.957"/>
<path fill="#7C8397" d="M597.394,435.725c6.693,0.67,2.321,2.637,7.146-9.926c-1.885-1.525-3.797-3.037-5.771-4.515
	c-6.16-4.608-9.457,1.354-9.457,1.354l4.645,7.741c0,0-21.338-7.031-41.291-2.216c-4.818,2.753-19.273,28.227-90.838,29.604
	c-1.168,0.212-2.699,1.064-4.579,2.324c-0.021,0.061-0.034,0.1-0.034,0.1c1.652-0.362,6.436-0.575,13.281-0.291
	c10.496-0.992,23.721-1.347,40.195-0.779c19.955,0.688,45.959-17.394,49.545-19.954
	C569.868,432.284,589.737,434.958,597.394,435.725z"/>
<path fill="#8890A6" d="M435.001,639.398c24.084-71.566-21.332-91.521-4.129-146.571c2.412-7.716,12.996-20.042,18.934-27.428
	c-11.564,8.218-29.662,19.386-53.512,14.01c-4.654-0.312-11.537,5.194-20.481,5.884c51.737,31.174,0.55,107.386-3.208,112.842
	C417.964,593.169,434.571,640.677,435.001,639.398z"/>
<path fill="#8890A6" d="M435.001,639.398c0,0-19.266-47.479-62.62-40.943c-22.017,5.85-70.876,34.062-27.868,101.153
	c-0.18-0.046-0.361-0.085-0.541-0.128c27.85,28.757,52.681,31.822,66.947,34.879c-46.793-26.836-60.396-76.187-38.535-99.089
	C401.286,604.992,435.001,639.398,435.001,639.398z"/>
<path fill="#626979" d="M372.381,598.455c-22.017,5.85-70.876,34.062-27.868,101.153c-0.18-0.046-0.361-0.085-0.541-0.128
	c7.56,7.807,14.895,13.708,21.859,18.242c-0.051-0.168-0.16-0.357-0.337-0.566c-57.345-68.139,2.38-134.278,52.729-102.479
	C407.985,604.347,392.876,595.364,372.381,598.455z"/>
<path fill="#626979" d="M384.767,487.323c-3.508,0.002-43.695-2.752-49.201,46.792c-4.473-0.688-35.094-7.569-43.352,34.406
	c0,0-16.514,11.698,2.064,39.568c1.576,2.363,6.29,2.909,10.436,0.742c-0.35-0.141-0.729-0.275-1.146-0.399
	c-13.762-4.13-8.945-21.333-8.258-25.461c5.588-40.511,54.747-8.699,53.676-20.645C344.167,508.654,385.688,487.321,384.767,487.323
	z"/>
<path fill="#AEB9D3" d="M396.81,521.214c0.516,2.579-15.768,51.454-36.127,66.059c-23.74,17.03-52.126,0.517-54.705-1.032
	c-0.918-0.551,1.633,2.104,5.848,5.746c0-0.614,0-0.943,0-1.101c0,0,17.893,15.14,49.89,9.29c5.613-1.025,35.628-14.731,36.2-78.989
	C397.229,521.146,396.81,521.214,396.81,521.214z"/>
<path fill="#626979" d="M385.944,574.763c-6.018,12.538-14.934,22.11-16.145,23.865c47.652-7.055,63.943,39.763,65.138,40.771
	c0.038,0,0.063,0,0.063,0S436.188,583.937,385.944,574.763z"/>
<path fill="#626979" d="M408.335,542.89c0.518,3.612-11.01,27.353,0.859,41.803c-12.385,0-23.223-5.161-21.676-6.71
	C400.938,563.532,408.335,542.89,408.335,542.89z"/>
<path fill="#626979" d="M359.134,713.715c0,0-9.715-11.39-16.19-16.624c0.513,0.836,1.025,1.672,1.569,2.518
	c-13.419-3.439-29.739,0.068-30.967,14.796c-0.252,3.02,3.269,45.759,76.555,32.341
	C318.707,748.122,346.232,712.339,359.134,713.715z"/>
<path fill="#626979" d="M418.485,736.424c0,0-36.643-8.258-56.254-21.676c5.879,8.328,19.67,22.697,41.361,28.106
	c4.406-1.257,9.018-2.701,13.859-4.366c0.342-0.117,0.939-0.06,1.793,0.134C418.835,737.387,418.485,736.424,418.485,736.424z"/>
<g>
	<path fill="#4A4F5D" d="M441.36,310.39c21.506-3.429,44.854,7.847,49.42,30.459c3.609,17.869-10.709,36.73-29.615,33.833
		c-17.787-2.726-28.277-19.374-24.141-36.371c3.438-14.116,17.52-25.576,32.383-23.63c0.861,0.113,1.035-1.319,0.203-1.504
		c-8.666-1.935-15.82-1.596-23.337,3.56c-6.673,4.576-11.218,11.687-13.657,19.299c-5.897,18.397,4.82,35.467,22.084,42.054
		c19.18,7.316,37.928-6.964,40.923-26.067c3.454-22.033-14.856-41.937-36.009-44.661c-6.254-0.806-12.57,0.07-18.587,1.823
		C440.236,309.413,440.581,310.514,441.36,310.39L441.36,310.39z"/>
</g>
<g>
	<path fill="#4A4F5D" d="M463.901,354.678c2.715,0,4.979-2.266,4.979-4.979c0-2.715-2.264-4.98-4.979-4.98s-4.98,2.266-4.98,4.98
		C458.921,352.412,461.187,354.678,463.901,354.678L463.901,354.678z"/>
</g>
<g>
	<path fill="#4A4F5D" d="M382.702,375.448c-15.812-0.756-36.1,18.611-28.951,35.197c3.912,9.071,14.6,11.93,23.666,11.947
		c10.68,0.019,20.849-4.798,25.702-14.423c0.767-1.522-1.431-2.838-2.298-1.342c-4.393,7.578-13.75,11.225-22.076,11.851
		c-8.049,0.605-18.836-1.929-21.821-10.404c-4.944-14.044,12.901-29.687,25.778-29.278
		C384.997,379.068,384.976,375.557,382.702,375.448L382.702,375.448z"/>
</g>
<g>
	<path fill="#4A4F5D" d="M396.891,399.93c0.581,7.113,8.032,12.255,14.116,14.47c8.059,2.932,17.226,2.161,25.379,0.1
		c16.688-4.219,33.846-17.504,34.611-35.901c0.121-2.938-4.441-2.928-4.557,0c-0.646,16.296-16.053,26.888-30.2,31.428
		c-7.204,2.311-15.099,3.075-22.515,1.396c-3.359-0.759-6.443-2.282-9.301-4.17c-2.98-1.969-4.662-5.005-7.086-7.507
		C397.189,399.59,396.872,399.697,396.891,399.93L396.891,399.93z"/>
</g>
<g>
	<path fill="#4A4F5D" d="M418.021,367.123c4.562-4.256,10.017-7.345,16.291-8.144c2.468-0.313,2.013-3.712-0.456-3.366
		c-6.834,0.957-13.652,4.371-17.861,9.947C415.079,366.773,416.995,368.081,418.021,367.123L418.021,367.123z"/>
</g>
<g>
	<path fill="#4A4F5D" d="M502.802,342.814c-1.137,8.665-5.625,17.384-11.742,23.547c-6.668,6.719-14.941,8.736-23.631,11.436
		c-2.854,0.885-1.61,4.762,1.201,4.354c9.137-1.321,18.414-6.915,24.883-13.337c7.322-7.271,9.598-16.026,9.934-25.999
		C503.462,342.388,502.855,342.417,502.802,342.814L502.802,342.814z"/>
</g>
<g>
	<path fill="#4A4F5D" d="M505.464,364.423c-10.846,9.762-22.723,11.817-36.746,13.394c-2.707,0.305-2.809,4.524,0,4.314
		c14.594-1.089,28.557-4.834,37.664-16.999C506.798,364.575,505.933,364,505.464,364.423L505.464,364.423z"/>
</g>
<g>
	<path fill="#4A4F5D" d="M488.673,380.826c-3.75,0.494-7.443,0.386-11.152-0.381c-2.75-0.567-5.639-2.136-8.404-1.521
		c-0.672,0.15-1.018,1.025-0.65,1.6c3.643,5.692,15.135,2.804,20.348,1.332C489.362,381.7,489.274,380.748,488.673,380.826
		L488.673,380.826z"/>
</g>
<g>
	<path fill="#4A4F5D" d="M343.964,398.351c5.15-5.037,11.119-9.51,17.396-13.037c3.313-1.86,6.727-3.474,10.287-4.804
		c2.889-1.078,5.809-1.402,8.256-3.334c0.545-0.431,0.209-1.364-0.4-1.516c-5.795-1.45-13.422,3.224-18.336,5.966
		c-7.07,3.944-12.877,9.776-18.173,15.755C342.413,398.038,343.327,398.973,343.964,398.351L343.964,398.351z"/>
</g>
<g>
	<path fill="#4A4F5D" d="M383.032,370.516c-3.775-9.709-16.969-12.717-25.66-8.499c-10.029,4.868-10.254,17.27-5.137,25.755
		c1.211,2.01,4.227,0.235,3.133-1.831c-3.947-7.458-4.281-16.115,3.877-20.721c3.486-1.971,7.691-1.936,11.444-0.905
		c4.491,1.233,7.261,4.771,10.923,7.293C382.282,372.069,383.339,371.298,383.032,370.516L383.032,370.516z"/>
</g>
<g>
	<path fill="#4A4F5D" d="M368.252,376.898c1.604,0,2.942-1.34,2.942-2.943c0-1.604-1.338-2.943-2.942-2.943
		s-2.944,1.339-2.944,2.943C365.308,375.559,366.647,376.898,368.252,376.898L368.252,376.898z"/>
</g>
<g>
	<path fill="#4A4F5D" d="M357.756,355.1c-4.446,6.368-9.692,17.148-8.25,25.11c0.14,0.766,1.272,0.852,1.62,0.212
		c1.937-3.562,2.164-8.215,3-12.178c0.941-4.452,2.414-8.729,3.998-12.988C358.21,355.027,357.878,354.925,357.756,355.1
		L357.756,355.1z"/>
</g>
<g>
	<path fill="#4A4F5D" d="M387.688,418.891c3.824,9.647,8.101,19.547,14.494,27.793c0.515,0.663,1.624,0.68,2.291,0.296
		c3.05-1.756,5.851-4.075,9.169-5.325c3.073-1.158,6.863,0.332,9.985,0.757c3.183,0.433,7.224,0.008,9.126-2.979
		c4.691-7.364,0.84-17.955,1.207-26.083c0.119-2.646-4.035-2.65-4.113,0c-0.119,4.064,0.511,8.092,0.948,12.121
		c0.409,3.759,1.382,9.397-1.276,12.54c-2.896,3.424-10.721-0.177-14.646,0.063c-4.308,0.263-8.592,3.795-12.308,5.641
		c0.862,0.227,1.724,0.452,2.585,0.678c-5.789-8.487-9.957-17.612-14.846-26.604C389.542,416.387,387.083,417.364,387.688,418.891
		L387.688,418.891z"/>
</g>
<g>
	<path fill="#4A4F5D" d="M408.296,425.219c0.43,4.924,1.395,9.648,2.84,14.396c0.654,2.149,4.101,1.169,3.344-0.921
		c-1.66-4.586-3.695-9.029-5.431-13.575C408.905,424.742,408.256,424.758,408.296,425.219L408.296,425.219z"/>
</g>
<g>
	<path fill="#4A4F5D" d="M478.222,289.617c-6.309-7.958-19.123-10.362-28.586-8.879c-3.988,0.625-2.369,7.029,1.693,6.144
		c9.512-2.074,17.355,1.783,26.361,3.647C478.253,290.645,478.556,290.042,478.222,289.617L478.222,289.617z"/>
</g>
<g>
	<path fill="#4A4F5D" d="M564.804,344.129c8.363-4.616,15.605-9.554,20.303-18.171c-1.059-0.287-2.117-0.573-3.178-0.86
		c-0.578,8.198-1.352,16.244-3.271,24.254c-0.229,0.958,0.291,2.206,1.363,2.398c5.98,1.071,11.309-0.372,16.963-2.327
		c-0.631-0.821-1.264-1.643-1.895-2.464c-2.283,5.144-8.184,8.682-11.988,12.7c-0.686,0.726-0.503,1.79,0.301,2.329
		c8.395,5.644,17.955,9.146,26.707,14.158c-0.117-0.911-0.236-1.824-0.353-2.736c-3.38,4.341-9.253,5.716-13.989,8.172
		c-0.791,0.41-0.879,1.363-0.547,2.089c3.22,7.032,7.617,13.438,10.039,20.829c0.533-0.699,1.066-1.398,1.6-2.099
		c-3.666-0.203-7.174-1.271-10.838-1.486c-1.119-0.065-2.113,1.445-1.379,2.401c3.029,3.942,6.283,9.318,6.777,14.334
		c0.223,2.278-10.256,2.481-12.494,3.066c-0.914,0.24-1.342,1.337-0.871,2.143c1.596,2.732,2.941,5.59,4.537,8.318
		c0.596-0.773,1.19-1.548,1.785-2.323c-14.383-4.547-30.422-5.866-44.545,0.203c-1.588,0.683-0.424,3.453,1.18,2.801
		c13.611-5.543,28.717-3.765,42.525,0.047c1.303,0.359,2.541-1.133,1.785-2.323c-1.656-2.609-3.631-4.844-4.605-7.847
		c-0.468,0.615-0.936,1.23-1.404,1.845c3.26-0.267,14.451,0.547,15.311-4.108c1.086-5.883-3.863-13.306-7.223-17.766
		c-0.46,0.801-0.92,1.601-1.379,2.4c3.668,0.251,7.172,1.349,10.838,1.611c1.064,0.077,1.904-1.118,1.6-2.1
		c-2.385-7.687-7.35-14.181-10.603-21.488c-0.185,0.695-0.366,1.393-0.548,2.088c5.244-2.659,11.099-3.426,14.911-8.344
		c0.671-0.863,0.716-2.127-0.353-2.735c-8.787-5.007-18.475-8.164-26.967-13.712c0.1,0.777,0.199,1.554,0.301,2.33
		c4.068-4.414,8.643-8.163,12.521-12.765c1.012-1.197,0.093-3.351-1.631-2.805c-4.857,1.537-9.941,3.224-15.035,1.802
		c0.455,0.8,0.908,1.6,1.361,2.399c2.147-8.218,2.463-16.852,2.924-25.291c0.092-1.687-2.401-2.343-3.18-0.86
		c-4.037,7.694-11.021,13.803-17.887,18.986C563.749,343.621,564.196,344.465,564.804,344.129L564.804,344.129z"/>
</g>
<g>
	<path fill="#4A4F5D" d="M317.876,411.516c-3.676,5.27-10.064,6.691-16.102,5.388c-1.297-0.28-2.795,1.164-1.881,2.448
		c2.578,3.621,5.264,6.939,9.303,8.971c-0.273-0.678-0.551-1.354-0.827-2.033c-1.688,4.103-4.048,7.52-7.316,10.522
		c-0.996,0.917-0.525,2.806,0.819,3.098c4.31,0.934,8.533,0.898,12.822-0.115c-0.709-0.711-1.421-1.422-2.131-2.133
		c-1.999,5.823-5.345,12.238-4.779,18.523c0.073,0.833,0.765,1.47,1.633,1.244c4.754-1.237,9.181-3.402,13.928-4.664
		c-0.535-0.407-1.071-0.816-1.605-1.225c-0.547,7.637-2.51,15.009-2.224,22.708c0.044,1.183,1.56,1.972,2.438,1.01
		c3.262-3.572,7.011-6.442,11.091-9.021c-0.742-0.427-1.482-0.853-2.227-1.279c0.415,7.75,1.279,15.471,2.521,23.134
		c0.25,1.545,2.191,1.324,2.917,0.381c4.274-5.55,8.269-6.965,14.786-4.858c4.807,1.553,9.275,3.512,14.326,4.225
		c10.576,1.494,23.654-0.035,31.58-7.773c0.787-0.769-0.207-1.908-1.123-1.456c-11.982,5.902-25.685,7.938-38.504,3.652
		c-4.154-1.388-8.132-3.21-12.61-2.812c-4.56,0.405-8.159,3.788-10.962,7.089c0.908,0.376,1.816,0.753,2.727,1.128
		c-0.923-7.568-2.01-15.11-2.698-22.708c-0.096-1.042-1.209-1.94-2.226-1.278c-4.258,2.773-8.201,5.771-11.617,9.56
		c0.812,0.335,1.625,0.673,2.438,1.009c-0.332-7.628,1.199-15.139,1.905-22.708c0.08-0.847-0.867-1.413-1.607-1.225
		c-4.761,1.216-9.185,3.387-13.938,4.626c0.527,0.529,1.059,1.058,1.586,1.587c1.977-5.935,3.551-12,5.588-17.945
		c0.45-1.309-0.923-2.419-2.132-2.133c-3.743,0.885-7.191,0.838-10.917-0.115c0.273,1.033,0.546,2.065,0.817,3.098
		c3.732-3.468,6.272-7.475,8.167-12.186c0.282-0.701-0.168-1.709-0.826-2.034c-3.539-1.744-5.912-4.428-8.243-7.543
		c-0.628,0.815-1.255,1.632-1.882,2.447c6.395,1.223,16.244-0.835,18.017-8.165C319.063,411.307,318.235,411,317.876,411.516
		L317.876,411.516z"/>
</g>
<g>
	<path fill="#4A4F5D" d="M313.185,417.814c7.562-4.057,9.201-14.14,10.078-21.855c1.311-11.536,0.18-23.273-0.785-34.783
		c-1.258-14.995-1.371-29.263,5.16-43.139c5.072-10.776,12.444-21.161,22.729-27.469c5.058-3.102,10.793-4.383,16.678-4.006
		c6.621,0.423,13,4.048,19.312,5.852c11.606,3.315,19.522-3.595,27.439-11.269c5.724-5.548,10.927-11.083,18.583-13.771
		c6.322-2.22,13.156-2.673,19.801-2.349c19.069,0.928,37.698,9.351,52.59,20.979c19.221,15.006,31.361,35.971,38.068,59.138
		c0.586,2.026,3.627,1.18,3.148-0.867c-8.865-37.945-38.398-69.469-76.066-79.81c-12.91-3.543-27.734-4.683-40.441,0.26
		c-6.861,2.668-11.949,7.762-17.133,12.831c-4.521,4.421-9.248,9.262-15.238,11.621c-6.23,2.459-14.303-1.756-20.105-3.877
		c-28.015-10.242-49.702,17.345-56.887,41.595c-5.003,16.882-0.708,35.596,0.211,52.764c0.314,5.861,0.23,11.745-0.356,17.587
		c-0.642,6.405-1.921,15.057-7.78,18.863C311.122,416.802,312.057,418.419,313.185,417.814L313.185,417.814z"/>
</g>
<g>
	<path fill="#4A4F5D" d="M389.692,476.493c12.811,8.926,27.445,7.71,41.24,1.831c7.319-3.118,13.91-7.698,20.105-12.631
		c5.643-4.492,11.881-10.095,15.693-16.286c0.445-0.723-0.477-1.749-1.213-1.213c-4.795,3.478-9.047,7.979-13.539,11.858
		c-5.814,5.02-11.886,9.622-18.562,13.438c-13.658,7.806-28.889,9.134-42.91,1.609C389.579,474.602,388.848,475.904,389.692,476.493
		L389.692,476.493z"/>
</g>
<g>
	<path fill="#4A4F5D" d="M558.745,401.447c-2.314,9.312-4.244,18.851-9.49,27.053c-6.736,10.53-18.398,15.772-29.785,19.704
		c-13.506,4.661-27.801,6.69-41.99,7.761c-9.031,0.682-21.312,0.196-27.723,7.751c-0.738,0.868,0.186,2.216,1.244,1.614
		c11.486-6.515,25.004-6.137,37.77-7.63c13.24-1.548,26.631-3.825,38.923-9.188c9.612-4.195,18.114-9.698,23.8-18.703
		c5.299-8.391,7.23-18.583,7.49-28.33C558.987,401.342,558.778,401.315,558.745,401.447L558.745,401.447z"/>
</g>
<g>
	<path fill="#4A4F5D" d="M530.855,277.183c2.921,4.423,8.149,7.787,12.05,11.366c4.545,4.171,8.777,8.74,12.627,13.555
		c8.123,10.157,13.334,21.992,15.836,34.713c0.502,2.548,4.395,1.468,3.889-1.073c-2.49-12.493-7.482-24.041-15.33-34.104
		c-4.072-5.223-8.852-9.882-13.895-14.154c-4.352-3.686-9.508-8.77-14.996-10.538C530.903,276.902,530.776,277.064,530.855,277.183
		L530.855,277.183z"/>
</g>
<g>
	<path fill="#4A4F5D" d="M367.548,269.205c-2.674-3.138-6.763-5.116-9.742-8.15c-0.416,0.715-0.832,1.431-1.249,2.146
		c10.05,1.808,20.433,1.28,29.965-2.622c0.858-0.352,1.561-1.63,0.625-2.369c-3.667-2.897-7.511-5.464-10.674-8.938
		c-0.457,0.785-0.913,1.567-1.37,2.352c10.707,3.011,20.521,6.144,31.758,3.943c1.064-0.207,1.35-1.461,0.939-2.308
		c-2.123-4.391-4.357-8.726-6.414-13.147c-0.898,0.692-1.795,1.384-2.691,2.076c8.021,6.271,18.461,6.836,28.266,6.58
		c12.596-0.33,25.947-0.979,37.432-6.709c1.664-0.829,0.479-3.703-1.273-3.021c-10.932,4.265-21.768,5.698-33.445,6.132
		c-9.555,0.354-20.76,1.15-28.557-5.405c-1.51-1.27-3.539,0.29-2.689,2.076c2.095,4.401,4.393,8.69,6.659,13.003
		c0.313-0.77,0.626-1.539,0.938-2.308c-9.601,2.212-21.009,1.058-29.836-3.485c-1.455-0.747-2.752,0.999-1.706,2.21
		c3.089,3.575,6.972,6.054,10.659,8.953c0.209-0.79,0.418-1.578,0.625-2.368c-8.404,3.461-19.676,5.916-28.527,2.881
		c-1.295-0.445-2.047,1.25-1.25,2.146c2.773,3.108,6.801,7.206,11.23,7.126C367.646,269.988,367.806,269.507,367.548,269.205
		L367.548,269.205z"/>
</g>
<g>
	<path fill="#4A4F5D" d="M466.53,248.544c-3.832-31.976-0.025-64.87,2.953-96.776c2.764-29.603,8.404-58.157,23.342-84.193
		c12.293-21.425,32.154-40.538,58.764-34.68c23.59,5.193,27.521,31.137,26.309,51.472c-2.096,35.135-9.792,70.312-17.986,104.451
		c-4.16,17.334-9.098,34.52-13.021,51.904c-3.414,15.126-6.25,29.374-4.658,44.981c0.193,1.896,3.178,1.913,2.982,0
		c-1.537-15.089,1.053-29.514,5.711-43.868c5.068-15.625,8.604-32.008,12.33-47.999c7.357-31.58,13.508-63.492,17.131-95.73
		c2.24-19.924,4.449-43.359-10.24-59.407c-14.66-16.011-40.814-13.535-57.135-1.945c-12.154,8.632-20.721,21.72-27.568,34.711
		c-8.609,16.333-13.395,34.271-16.42,52.405c-3.312,19.867-4.428,40.065-5.883,60.129c-1.575,21.705-2.432,43.32,2.281,64.696
		C465.556,249.308,466.606,249.181,466.53,248.544L466.53,248.544z"/>
</g>
<g>
	<path fill="#4A4F5D" d="M484.946,254.049c1.238-12.939,1.772-25.879,3.434-38.791c1.791-13.909,3.947-27.729,6.953-41.433
		c2.702-12.324,6.131-24.533,10.527-36.364c2.777-7.477,6.324-19.389,13.637-23.797c6.598-3.977,10.709,4.813,12.049,9.789
		c3.092,11.482,0.684,24.246-1.41,35.694c-4.98,27.23-11.98,54.033-15.551,81.524c-1.023,7.89-1.721,15.755-2.125,23.698
		c-0.109,2.174,3.17,2.124,3.348,0c2.479-29.874,9.064-59.197,15.219-88.473c2.344-11.144,4.727-22.354,5.695-33.718
		c0.775-9.113,0.561-19.893-4.477-27.902c-2.771-4.403-7.654-6.864-12.758-5.301c-6.793,2.08-10.17,9.896-12.984,15.685
		c-10.891,22.421-15.861,47.691-19.496,72.172c-2.771,18.68-5.097,38.311-4.238,57.216
		C482.833,255.472,484.814,255.431,484.946,254.049L484.946,254.049z"/>
</g>
<g>
	<path fill="#4A4F5D" d="M483.761,255.364c5.695,1.502,11.107,3.09,16.545,5.41c4.455,1.9,8.926,4.317,13.744,5.078
		c0.576,0.092,1.158-0.604,0.627-1.079c-7.586-6.783-20.646-10.801-30.648-11.389C482.877,253.317,482.677,255.079,483.761,255.364
		L483.761,255.364z"/>
</g>
<g>
	<path fill="#4A4F5D" d="M324.016,323.549c1.739-14.357-4.878-27.913-11.422-40.286c-7.761-14.674-15.512-29.335-22.933-44.188
		c-13.288-26.597-35.465-61.63-20.392-91.959c5.588-11.244,17.534-17.414,29.792-14.273c12.911,3.309,20.903,15.522,26.324,26.763
		c5.633,11.683,9.533,24.209,14.082,36.336c5.563,14.83,11.368,29.563,17.751,44.06c2.06,4.677,4.253,9.29,6.241,13.996
		c1.388,3.29,2.729,6.827,5.088,9.562c1.717,1.991,4.457-0.864,2.85-2.85c-3.102-3.836-4.658-9.312-6.789-13.72
		c-3.898-8.066-7.449-16.31-10.919-24.566c-5.821-13.855-11.292-27.887-16.425-42.01c-7.334-20.173-15.721-46.621-39.866-51.473
		c-9.441-1.898-18.792,1.868-25.45,8.505c-8.642,8.614-11.023,21.712-10.852,33.427c0.21,14.561,5.81,28.507,11.706,41.588
		c6.827,15.146,14.112,30.082,21.724,44.847c5.396,10.467,11.078,20.772,16.538,31.202c5.724,10.935,10.466,22.576,10.937,35.04
		C322.05,324.88,323.864,324.811,324.016,323.549L324.016,323.549z"/>
</g>
<g>
	<path fill="#4A4F5D" d="M325.276,320.136c3.496-10.115,7.838-19.895,14.035-28.671c6.834-9.683,16.348-15.144,25.654-21.987
		c1.387-1.021,0.23-3.007-1.342-2.3c-9.961,4.486-18.693,13.272-25.542,21.579c-7.394,8.968-12.026,19.607-14.246,30.98
		C323.652,320.683,324.96,321.047,325.276,320.136L325.276,320.136z"/>
</g>
<g>
	<path fill="#4A4F5D" d="M336.502,292.795c-4.458-10.952-10.521-21.292-15.291-32.134c-4.38-9.957-8.542-20.137-11.669-30.567
		c-1.914-6.378-3.34-13.103-3.194-19.786c0.12-5.437,3.921-11.062,8.407-5.67c3.721,4.472,6.353,9.979,9.008,15.113
		c3.781,7.318,7.381,14.723,10.849,22.192c5.391,11.611,10.299,23.41,15.333,35.174c0.926,2.162,4.578,0.604,3.795-1.601
		c-4.828-13.605-11.375-26.821-17.574-39.837c-3.719-7.81-7.571-15.561-11.91-23.047c-2.529-4.366-5.328-10.133-9.523-13.188
		c-4.021-2.928-9.491,0.475-10.995,4.543c-2.589,7.016-0.722,15.468,0.937,22.492c2.396,10.152,6.446,20.003,10.468,29.594
		c5.345,12.749,11.506,26.143,19.262,37.605C335.087,294.692,337.02,294.067,336.502,292.795L336.502,292.795z"/>
</g>
<g>
	<path fill="#4A4F5D" d="M396.067,455.284c3.295,6.873,15.173,8.615,21.889,8.348c8.324-0.332,18.588-3.424,23.209-10.774
		c0.262-0.416-0.17-0.974-0.639-0.83c-6.99,2.148-12.904,6.403-20.129,8.053c-4.426,1.009-9.129,0.979-13.52-0.111
		c-3.984-0.987-6.772-3.886-10.516-5.068C396.126,454.825,395.974,455.091,396.067,455.284L396.067,455.284z"/>
</g>
<g>
	<path fill="#4A4F5D" d="M429.839,377.618c1.34,0,2.459-1.12,2.459-2.46c0-1.341-1.119-2.459-2.459-2.459
		c-1.341,0-2.459,1.118-2.459,2.459C427.38,376.498,428.498,377.618,429.839,377.618L429.839,377.618z"/>
</g>
<g>
	<path fill="#4A4F5D" d="M422.614,371.368c1.768,0,1.768-2.742,0-2.742C420.845,368.626,420.845,371.368,422.614,371.368
		L422.614,371.368z"/>
</g>
<g>
	<path fill="#4A4F5D" d="M420.034,386.586c2.756,0,2.756-4.274,0-4.274C417.276,382.312,417.276,386.586,420.034,386.586
		L420.034,386.586z"/>
</g>
<g>
	<path fill="#4A4F5D" d="M447.901,385.557c1.432,0,1.432-2.217,0-2.217C446.473,383.34,446.473,385.557,447.901,385.557
		L447.901,385.557z"/>
</g>
<g>
	<path fill="#4A4F5D" d="M372.036,394.068c0.086,0.007,0.172,0.015,0.258,0.022c-0.278-0.213-0.558-0.426-0.837-0.638
		c0.202,0.488,0.515,0.878,1.096,0.878c0.604,0,1.108-0.505,1.108-1.108c0-0.605-0.504-1.109-1.108-1.109
		c-0.581,0-0.894,0.39-1.096,0.878c0.279-0.213,0.559-0.426,0.837-0.638c-0.086,0.007-0.172,0.016-0.258,0.021
		C370.946,392.468,370.946,393.976,372.036,394.068L372.036,394.068z"/>
</g>
<g>
	<path fill="#4A4F5D" d="M376.165,385.554c2.756,0,2.756-4.274,0-4.274S373.409,385.554,376.165,385.554L376.165,385.554z"/>
</g>
<g>
	<path fill="#4A4F5D" d="M361.198,397.884c1.354,0,1.354-2.098,0-2.098C359.847,395.786,359.847,397.884,361.198,397.884
		L361.198,397.884z"/>
</g>
<g>
	<path fill="#4A4F5D" d="M562.388,412.267c-2.959,6.784-7.48,11.612-12.596,16.785c-1.043,1.054,0.582,2.681,1.625,1.625
		c5.051-5.107,9.01-11.494,11.154-18.332C562.606,412.236,562.435,412.16,562.388,412.267L562.388,412.267z"/>
</g>
<g>
	<path fill="#4A4F5D" d="M540.704,337.794c2.994,7.895,10.584,10.446,18.463,9.176c8.264-1.331,15.238-7.607,19.498-14.534
		c0.131-0.212-0.189-0.47-0.348-0.271c-4.279,5.371-10.438,8.113-16.793,10.304c-7.455,2.567-14.008,0.762-18.684-5.575
		C542.118,335.914,540.196,336.457,540.704,337.794L540.704,337.794z"/>
</g>
<g>
	<path fill="#4A4F5D" d="M329.636,404.952c-3.043,2.147-5.746,4.756-8.871,6.779c-1.566,1.013-3.146,2.024-4.774,2.932
		c-2.005,1.119-4.338,1.472-6.2,2.792c-0.395,0.28-0.434,1.033,0.149,1.142c3.575,0.662,7.165-2.005,9.878-4.054
		c3.586-2.715,6.549-6.425,10.014-9.338C329.972,405.089,329.785,404.847,329.636,404.952L329.636,404.952z"/>
</g>
<g>
	<path fill="#4A4F5D" d="M400.419,495.067c-12.256-15.61-35.75-10.352-49.172,0.699c-16.14,13.285-21.327,39.24-13.855,58.466
		c0.282,0.726,1.307,0.452,1.168-0.322c-1.786-9.834-2.754-18.547-0.544-28.436c2.172-9.703,6.86-18.365,13.823-25.428
		c12.219-12.393,33.961-15.667,47.555-3.954C400.115,496.716,400.989,495.794,400.419,495.067L400.419,495.067z"/>
</g>
<g>
	<path fill="#4A4F5D" d="M334.294,533.351c-5.092-3.199-12.838-1.982-18.193-0.131c-6.527,2.258-12.123,6.684-16.316,12.133
		c-7.691,9.999-13.982,27.359-4.629,38.465c0.154,0.183,0.412-0.016,0.371-0.215c-1.295-6.237-1.899-11.521-0.92-17.931
		c0.912-5.959,3.546-11.515,6.924-16.448c3.496-5.109,8.317-9.121,13.699-12.091c6.349-3.504,11.856-2.254,18.617-2.13
		C334.755,535.02,335.022,533.807,334.294,533.351L334.294,533.351z"/>
</g>
<g>
	<path fill="#4A4F5D" d="M290.46,568.662c-10.064,7.359-7.211,26.427-1.43,35.437c3.385,5.274,9.713,8.515,15.787,6.195
		c6.026-2.303,9.826-10.57,8.156-16.628c-0.305-1.105-2.023-1.167-2.293,0c-1.271,5.485-1.77,11.42-7.874,13.767
		c-6.265,2.407-11.358-4.854-13.317-9.71c-3.387-8.385-3.466-19.769,2.705-26.812C293.206,569.758,291.844,567.649,290.46,568.662
		L290.46,568.662z"/>
</g>
<g>
	<path fill="#4A4F5D" d="M396.771,521.041c1.341,14.224-1.544,28.857-6.483,42.164c-4.188,11.282-11.17,24.92-21.559,31.669
		c-9.527,6.191-22.618,5.46-33.23,3.249c-5.417-1.13-10.711-2.89-15.736-5.201c-2.229-1.025-4.343-2.271-6.475-3.48
		c-2.332-1.322-5.548-2.812-7.602-4.457c-1.046-0.837-2.38,0.442-1.483,1.481c14.497,16.807,45.772,21.812,65.249,11.95
		c10.863-5.501,18.086-18.856,22.562-29.599c6.453-15.483,8.616-31.366,5.508-47.878
		C397.444,520.518,396.729,520.612,396.771,521.041L396.771,521.041z"/>
</g>
<g>
	<path fill="#4A4F5D" d="M407.833,542.971c-2.902,7.287-5.896,14.601-10.09,21.257c-3.66,5.807-8.504,10.181-13.242,15.037
		c-1.229,1.258,0.609,3.047,1.91,1.91c11.379-9.945,18.08-23.712,22.083-38.022C408.616,542.717,407.993,542.569,407.833,542.971
		L407.833,542.971z"/>
</g>
<g>
	<path fill="#4A4F5D" d="M435.485,640.642c-5.467-22.48-25.121-40.379-48.086-44.073c-21.176-3.404-42.357,7.945-53.506,25.663
		c-11.912,18.929-10.937,43.214-1.334,62.808c10.239,20.895,29.998,35.028,51.469,42.682c7.172,2.556,14.473,4.396,22.07,4.452
		c0.633,0.005,0.773-0.958,0.149-1.109c-10.909-2.646-21.479-5.383-31.567-10.536c-9.953-5.086-19.154-12.437-26.753-20.594
		c-15.688-16.84-22.685-40.705-16.14-63.026c6.348-21.651,25.842-36.037,48.161-36.776c23.634-0.781,47.488,18.716,54.563,40.779
		C434.712,641.526,435.64,641.275,435.485,640.642L435.485,640.642z"/>
</g>
<g>
	<path fill="#4A4F5D" d="M409.892,733.559c16.864,11.581,39.408,15.371,59.342,17.383c10.764,1.087,21.602,1.374,32.414,1.307
		c5.58-0.034,11.154-0.225,16.729-0.49c4.191-0.202,10.041,0.569,13.664-1.745c0.801-0.514,1.004-1.943,0-2.404
		c-3.598-1.643-8.145-0.475-12.021-0.271c-4.992,0.26-9.992,0.433-14.99,0.557c-10.801,0.27-21.611,0.045-32.387-0.755
		c-11.08-0.821-22.082-2.53-32.91-5.011c-10.189-2.333-19.582-6.146-29.328-9.785C409.655,732.063,409.306,733.157,409.892,733.559
		L409.892,733.559z"/>
</g>
<g>
	<path fill="#4A4F5D" d="M346.259,702.289c-8.295-10.865-28.215-4.296-33.106,7.029c-5.317,12.31,4.325,26.646,14.143,33.373
		c12.778,8.755,29.946,9.687,44.882,8.717c7.955-0.517,15.879-1.89,23.638-3.684c8.231-1.902,15.409-4.962,23.163-8.137
		c2.183-0.893,1.406-4.046-0.986-3.575c-5.855,1.148-11.406,4.246-17.201,5.882c-5.933,1.676-11.982,2.924-18.068,3.889
		c-13.574,2.152-27.916,2.521-41.238-1.217c-12.201-3.424-22.461-11.942-25.261-24.68c-3.524-16.032,16.971-23.411,28.903-16.467
		C345.792,703.807,346.784,702.979,346.259,702.289L346.259,702.289z"/>
</g>
<g>
	<path fill="#4A4F5D" d="M523.106,738.325c2.477,9.065,9.002,15.218,18.252,17.011c7.023,1.362,21.369,0.516,25.6-6.362
		c0.386-0.627-0.107-1.561-0.871-1.517c-3.211,0.181-6.332,2.233-9.377,3.238c-4.062,1.343-8.316,1.754-12.568,1.456
		c-8.994-0.626-16.131-6.316-19.781-14.354C524.031,737.075,522.907,737.595,523.106,738.325L523.106,738.325z"/>
</g>
<g>
	<path fill="#4A4F5D" d="M563.288,750.473c4.373,7.217,13.559,10.19,21.582,10.631c8.904,0.489,21.773-4.002,26.375-12.128
		c0.781-1.379-0.877-3.366-2.316-2.316c-3.324,2.427-6.086,5.254-9.768,7.246c-4.074,2.204-8.588,3.071-13.156,3.393
		c-6.947,0.488-16.408-2.766-20.754-8.34C564.366,747.821,562.567,749.283,563.288,750.473L563.288,750.473z"/>
</g>
<g>
	<path fill="#4A4F5D" d="M516.603,697.605c-18.303,14.312-14.479,45.177,9.748,49.973c2.439,0.484,3.475-3.257,1.029-3.731
		c-21.947-4.259-23.934-31.114-9.521-44.987C518.704,698.046,517.478,696.921,516.603,697.605L516.603,697.605z"/>
</g>
<g>
	<path fill="#4A4F5D" d="M520.657,700.206c-2.02-4.95-4.715-8.859-5.236-14.371c-0.508-5.372,0.881-10.809,3.209-15.614
		c2.326-4.798,6.066-8.858,10.496-11.781c4.916-3.239,9.975-3.445,15.629-3.605c1.473-0.041,1.852-2.252,0.355-2.613
		c-12.135-2.93-23.775,6.386-28.836,16.624c-4.35,8.793-5.691,25.52,3.881,31.748C520.39,700.746,520.772,700.488,520.657,700.206
		L520.657,700.206z"/>
</g>
<g>
	<path fill="#4A4F5D" d="M540.696,653.917c1.541-1.449,1.689-3.648,2.605-5.544c1.285-2.66,3.316-4.87,5.482-6.835
		c5.498-4.994,12.609-6.058,18.645-1.593c1.328,0.982,2.881-1.141,1.734-2.248c-5.482-5.301-12.906-4.678-19.092-0.943
		c-4.123,2.489-13.275,11.599-10.293,17.045C539.964,654.14,540.429,654.169,540.696,653.917L540.696,653.917z"/>
</g>
<g>
	<path fill="#4A4F5D" d="M566.933,641.963c4.732-4.409,8.836-7.809,15.328-9.3c6.787-1.558,12.449,0.497,18.311,3.65
		c1.219,0.656,2.414-0.89,1.465-1.9c-8.626-9.197-31.861-5.491-35.475,7.334C566.499,641.967,566.772,642.111,566.933,641.963
		L566.933,641.963z"/>
</g>
<g>
	<path fill="#4A4F5D" d="M650.642,705.77c12.432,4.323,9.548,20.543-0.606,25.687c-1.372,0.693-0.388,3.097,1.056,2.503
		c12.199-4.999,16.078-27.465-0.363-28.824C650.344,705.104,650.315,705.655,650.642,705.77L650.642,705.77z"/>
</g>
<g>
	<path fill="#4A4F5D" d="M606.948,745.486c0.954,4.054,6.85,5.949,10.342,7.079c5.521,1.786,11.799,1.886,17.328,0.146
		c10.604-3.333,18.768-15.896,15.275-26.761c-0.203-0.632-1.045-0.472-1.108,0.15c-1.116,11.009-4.522,20.501-16.05,24.07
		c-4.625,1.432-10.109,0.841-14.729-0.206c-4.111-0.935-6.811-3.59-10.514-5.025C607.159,744.811,606.877,745.187,606.948,745.486
		L606.948,745.486z"/>
</g>
<g>
	<path fill="#4A4F5D" d="M643.845,673.095c16.158,0.057,23.555,23.356,11.391,33.43c-1.408,1.166,0.598,3.127,1.994,1.996
		c13.537-10.97,5.223-38.577-13.469-36.06C643.392,672.511,643.493,673.094,643.845,673.095L643.845,673.095z"/>
</g>
<g>
	<path fill="#4A4F5D" d="M630.405,646.012c5.605,2.159,10.145,4.097,13.529,9.33c3.279,5.067,3.498,11.266,3.377,17.087
		c-0.037,1.772,2.528,1.695,2.701,0c1.172-11.539-5.127-28.835-19.607-26.571C630.318,645.87,630.34,645.988,630.405,646.012
		L630.405,646.012z"/>
</g>
<g>
	<path fill="#4A4F5D" d="M600.601,636.002c3.016-0.979,5.32-2.836,8.639-3.166c3.365-0.335,6.809,0.956,9.721,2.494
		c5.625,2.975,10.038,9.123,11.65,15.216c0.158,0.597,0.99,0.436,1.029-0.139c0.553-8.175-5.479-14.485-12.357-18.106
		c-5.38-2.832-16.203-3.77-19.137,3.108C600.019,635.706,600.226,636.123,600.601,636.002L600.601,636.002z"/>
</g>
<g>
	<path fill="#4A4F5D" d="M590.913,424.077c7.441-1.445,14.875,4.561,20.188,8.953c7.301,6.038,13.676,13.241,19.602,20.604
		c14.359,17.851,24.336,39.4,31.436,61.052c16.848,51.382,17.158,111.948-7.094,160.975c-1.009,2.036,1.994,3.827,3.062,1.791
		c26.707-50.838,24.48-115.684,6.053-168.902c-7.532-21.755-18.282-42.617-33.003-60.371c-6.388-7.706-13.421-14.981-21.444-20.994
		c-5.238-3.923-12.854-8.405-19.594-5.983C588.306,421.852,589.019,424.445,590.913,424.077L590.913,424.077z"/>
</g>
<g>
	<path fill="#4A4F5D" d="M338.317,704.6c-9.255-8.827-27.816,3.054-26.117,14.928c0.064,0.444,0.727,0.471,0.922,0.119
		c2.334-4.212,3.607-8.118,7.195-11.591c5.125-4.96,11.105-5.566,17.414-2.696C338.204,705.574,338.74,705.005,338.317,704.6
		L338.317,704.6z"/>
</g>
<g>
	<path fill="#4A4F5D" d="M329.868,710.592c-4.054-1.199-9.223,0.021-12.507,2.634c-3.106,2.474-6.379,7.71-4.235,11.674
		c0.231,0.43,0.963,0.465,1.186,0c0.679-1.427,0.715-2.811,1.028-4.349c0.421-2.051,1.58-3.822,3.03-5.287
		c3.086-3.115,7.289-3.232,11.348-3.563C330.339,711.649,330.502,710.777,329.868,710.592L329.868,710.592z"/>
</g>
<g>
	<path fill="#5F2420" d="M401.795,362.946c-7.942-6.262-21.452-1.77-22.599,8.623c-1.006,9.123,13.725,11.006,19.768,10.729
		c8.717-0.396,20.078-6.923,21.308-16.18c0.646-4.878-4.03-8.387-8.454-7.649c-3.428,0.569-6.592,2.178-10.102,2.224
		c-4.521,0.061-8.984,0.639-13.508,0.747c-1.715,0.042-1.715,2.619,0,2.662c5.065,0.12,10.068,0.7,15.139,0.767
		c3.42,0.046,6.629-2.049,10.057-2.216c3.861-0.19,2.112,4.867,1.297,6.243c-1.207,2.039-3.348,3.668-5.236,5.02
		c-2.256,1.612-4.857,2.849-7.545,3.527c-5.213,1.318-12.975,0.648-17.201-2.935c-2.994-2.537-0.482-6.352,1.605-8.52
		c3.428-3.562,10.453-2.557,14.766-1.831C401.716,364.265,402.431,363.446,401.795,362.946L401.795,362.946z"/>
</g>
</svg>
